<?xml version="1.0" standalone="no"?>
<!DOCTYPE svg PUBLIC "-//W3C//DTD SVG 20010904//EN"
 "http://www.w3.org/TR/2001/REC-SVG-20010904/DTD/svg10.dtd">
<svg version="1.0" xmlns="http://www.w3.org/2000/svg"
 width="512.000000pt" height="512.000000pt" viewBox="0 0 512.000000 512.000000"
 preserveAspectRatio="xMidYMid meet">

<g transform="translate(0.000000,512.000000) scale(0.100000,-0.100000)"
fill="#394f89" stroke="none">
<path d="M1673 5099 c-45 -22 -79 -67 -89 -118 l-6 -31 -574 0 c-552 0 -575
-1 -628 -20 -63 -24 -126 -86 -147 -146 -21 -58 -21 -4560 0 -4618 17 -49 73
-111 125 -139 l41 -22 1835 -3 c1298 -2 1843 1 1861 9 44 17 49 45 49 249 0
105 4 190 8 190 5 0 37 18 71 40 34 22 63 40 66 40 2 0 103 -107 225 -237 255
-273 276 -293 307 -293 33 0 70 27 81 59 18 52 25 43 -365 458 l-124 131 52
69 c65 84 132 222 161 328 31 115 31 355 0 470 -23 81 -86 224 -122 275 -19
27 -20 49 -22 1501 l-3 1474 -29 52 c-30 55 -80 96 -143 119 -30 10 -155 13
-614 14 l-576 0 -6 35 c-8 50 -43 94 -91 116 -39 17 -78 19 -671 19 -619 0
-631 0 -672 -21z m1267 -404 l0 -255 -595 0 -595 0 0 255 0 255 595 0 595 0 0
-255z m-1360 0 l0 -84 -453 -3 -453 -3 -41 -27 c-22 -14 -48 -43 -59 -65 -18
-37 -19 -93 -22 -2008 -2 -1330 1 -1986 8 -2019 13 -63 44 -104 94 -127 39
-18 103 -19 1679 -19 l1637 0 0 -85 0 -85 -1764 0 -1765 0 -28 24 -28 24 0
2255 c0 2434 -3 2276 50 2297 11 5 273 9 583 9 l562 1 0 -85z m2684 74 c13 -7
29 -23 35 -38 8 -18 10 -428 9 -1373 l-3 -1347 -64 44 c-35 25 -72 47 -82 50
-18 6 -19 47 -19 1181 0 1034 -2 1179 -15 1211 -21 50 -42 72 -90 94 -37 17
-75 19 -482 19 l-443 0 0 78 c0 43 3 82 7 85 12 13 1120 8 1147 -4z m-2684
-349 c0 -34 37 -97 72 -122 l33 -23 662 0 c653 0 662 0 689 21 39 29 65 66 73
105 l7 34 427 3 427 2 0 -1126 0 -1127 -37 7 c-198 34 -298 32 -458 -9 -350
-88 -606 -351 -680 -701 -21 -95 -24 -295 -6 -374 50 -218 128 -361 278 -507
l95 -93 -1216 0 -1216 0 0 1965 0 1965 425 0 c421 0 425 0 425 -20z m2319
-2396 c269 -67 481 -279 557 -555 28 -100 25 -291 -4 -394 -39 -136 -94 -227
-202 -336 -81 -81 -109 -102 -190 -142 -196 -96 -393 -110 -598 -41 -241 80
-428 282 -493 533 -26 98 -27 267 -4 366 87 358 415 607 779 589 50 -2 119
-11 155 -20z"/>
<path d="M1900 3913 c-57 -10 -97 -27 -135 -58 -22 -18 -118 -141 -212 -272
l-172 -240 -118 -5 c-156 -7 -208 -32 -259 -128 -17 -31 -19 -60 -19 -265 l0
-230 28 -47 c18 -31 44 -57 75 -75 41 -24 59 -28 149 -31 100 -4 101 -5 108
-31 11 -45 72 -128 117 -159 67 -45 126 -64 198 -64 141 0 259 75 312 198 l23
54 350 0 350 0 29 -60 c48 -101 142 -171 250 -188 155 -25 298 52 363 194 l24
54 81 0 c97 0 145 13 193 52 73 60 80 87 83 319 4 231 -2 271 -50 325 -54 62
-97 77 -235 82 l-122 5 -165 231 c-184 258 -206 284 -274 317 l-47 24 -450 1
c-247 1 -461 0 -475 -3z m360 -368 l0 -205 -340 0 -341 0 32 48 c175 256 215
311 242 335 l31 27 188 0 188 0 0 -205z m563 183 c23 -22 277 -373 277 -383 0
-3 -151 -5 -335 -5 l-335 0 0 205 0 205 184 0 c178 0 186 -1 209 -22z m714
-584 c10 -13 13 -66 13 -198 0 -220 2 -216 -110 -216 l-77 0 -18 45 c-88 233
-399 283 -570 93 -24 -27 -51 -69 -61 -93 l-17 -45 -346 0 -346 0 -19 48 c-25
61 -105 144 -163 172 -177 83 -392 7 -469 -166 l-24 -54 -70 0 c-110 0 -110 1
-110 218 0 97 4 182 8 188 4 6 15 15 24 20 10 5 492 8 1179 7 1101 -1 1164 -2
1176 -19z m-1786 -356 c48 -27 79 -83 79 -143 0 -133 -137 -210 -254 -141 -77
45 -104 154 -57 229 50 81 144 103 232 55z m1361 6 c56 -28 96 -112 84 -176
-16 -85 -78 -138 -164 -138 -64 0 -102 18 -139 67 -24 31 -28 46 -28 99 0 48
5 69 21 90 57 76 144 99 226 58z"/>
<path d="M1030 1867 c-52 -26 -62 -95 -20 -137 20 -20 36 -20 695 -20 l676 0
24 25 c44 43 29 112 -29 135 -43 16 -1314 13 -1346 -3z"/>
<path d="M1012 1430 c-45 -42 -36 -118 16 -139 19 -8 224 -11 695 -9 l669 3
19 24 c27 33 25 86 -6 116 l-24 25 -674 0 c-662 0 -674 0 -695 -20z"/>
<path d="M1009 1001 c-32 -26 -33 -92 -1 -123 l23 -23 647 -3 c356 -2 662 0
680 3 67 12 94 84 51 139 l-20 26 -679 0 c-650 0 -679 -1 -701 -19z"/>
</g>
</svg>