<?xml version="1.0" standalone="no"?>
<!DOCTYPE svg PUBLIC "-//W3C//DTD SVG 20010904//EN"
 "http://www.w3.org/TR/2001/REC-SVG-20010904/DTD/svg10.dtd">
<svg version="1.0" xmlns="http://www.w3.org/2000/svg"
 width="512.000000pt" height="512.000000pt" viewBox="0 0 512.000000 512.000000"
 preserveAspectRatio="xMidYMid meet">

<g transform="translate(0.000000,512.000000) scale(0.100000,-0.100000)"
fill="#000000" stroke="none">
<path d="M1273 4949 c-202 -35 -353 -218 -353 -429 l0 -67 -118 -6 c-127 -7
-176 -18 -263 -61 -117 -58 -217 -175 -262 -306 l-22 -65 -3 -1670 c-2 -1116
1 -1693 8 -1740 22 -152 135 -312 268 -383 124 -66 -11 -62 2028 -62 2012 0
1891 -3 2013 56 74 36 189 151 225 225 59 122 56 15 56 1859 0 1484 -2 1702
-15 1753 -46 176 -186 318 -365 371 -30 9 -106 19 -167 23 l-113 6 0 47 c0
282 -232 492 -495 450 -214 -34 -365 -213 -365 -431 l0 -69 -775 0 -775 0 0
49 c0 111 -40 227 -105 307 -89 109 -256 169 -402 143z m167 -258 c19 -10 49
-37 65 -60 30 -42 30 -44 33 -200 4 -174 -4 -223 -45 -271 -87 -104 -254 -87
-312 32 -19 40 -21 61 -21 209 0 138 3 170 19 204 47 103 158 139 261 86z
m2413 1 c18 -10 45 -37 62 -61 30 -42 30 -44 33 -200 4 -174 -4 -223 -45 -271
-88 -105 -254 -87 -312 34 -21 42 -22 57 -19 225 l3 179 31 39 c45 56 107 86
167 79 27 -3 63 -14 80 -24z m-2909 -554 c65 -185 232 -296 430 -286 103 5
192 44 271 119 56 53 109 143 121 205 l6 34 780 -2 780 -3 19 -59 c74 -239
356 -364 582 -258 118 55 209 160 237 275 l12 47 68 0 c177 0 280 -54 336
-174 24 -51 24 -53 24 -413 l0 -363 -2061 0 -2060 0 3 363 c3 343 4 364 24
407 28 61 67 105 119 136 55 32 110 43 208 41 l78 -2 23 -67z m3664 -2330 c-3
-1161 -4 -1215 -22 -1248 -26 -49 -84 -108 -131 -133 l-40 -22 -1850 -3 -1850
-2 -62 30 c-65 32 -110 79 -141 147 -16 35 -17 124 -20 1241 l-2 1202 2060 0
2060 0 -2 -1212z"/>
<path d="M2493 2440 c-27 -16 -52 -58 -134 -222 -56 -112 -102 -204 -103 -205
0 -1 -100 -15 -221 -33 -121 -17 -233 -36 -249 -42 -37 -15 -66 -63 -66 -113
-1 -39 5 -45 173 -210 l173 -170 -39 -226 c-38 -218 -39 -227 -23 -261 23 -47
71 -73 122 -65 21 3 127 51 234 106 l195 100 202 -104 c236 -122 262 -128 319
-71 44 44 44 64 -1 321 l-35 200 170 165 c143 139 170 171 176 201 8 51 -25
111 -72 130 -12 4 -120 22 -240 39 -121 18 -219 32 -220 33 -1 1 -48 94 -105
206 -110 216 -130 241 -194 241 -16 0 -45 -9 -62 -20z m213 -637 c21 -14 225
-52 284 -53 8 0 -31 -46 -87 -102 -70 -70 -104 -113 -108 -133 -4 -16 3 -81
14 -144 12 -63 21 -120 21 -128 0 -8 -43 9 -120 47 -79 39 -132 60 -155 60
-23 0 -76 -21 -155 -60 -66 -33 -121 -60 -123 -60 -2 0 6 59 18 132 16 94 20
141 13 164 -6 22 -39 62 -105 123 -53 50 -95 93 -92 95 2 2 58 12 124 21 176
25 174 24 252 179 l65 131 64 -127 c41 -81 73 -134 90 -145z"/>
</g>
</svg>
