<?xml version="1.0" standalone="no"?>
<!DOCTYPE svg PUBLIC "-//W3C//DTD SVG 20010904//EN"
 "http://www.w3.org/TR/2001/REC-SVG-20010904/DTD/svg10.dtd">
<svg version="1.0" xmlns="http://www.w3.org/2000/svg"
 width="512.000000pt" height="512.000000pt" viewBox="0 0 512.000000 512.000000"
 preserveAspectRatio="xMidYMid meet">

<g transform="translate(0.000000,512.000000) scale(0.100000,-0.100000)"
fill="white" stroke="none">
<path d="M675 5110 c-205 -41 -362 -181 -437 -390 l-23 -65 -3 -2327 -2 -2328
1425 0 1425 0 0 1065 0 1065 210 0 210 0 0 -697 c0 -384 5 -738 10 -786 37
-354 315 -623 665 -644 124 -8 233 15 355 74 81 39 108 59 185 137 73 73 99
107 133 176 83 170 77 43 77 1675 l0 1450 -23 78 c-26 89 -69 180 -120 252
-20 28 -279 294 -576 593 l-541 542 -152 -152 -153 -153 300 -300 300 -300
-74 -38 c-178 -91 -316 -268 -361 -462 -23 -100 -21 -251 5 -345 64 -227 242
-418 457 -489 159 -53 351 -47 496 14 17 7 17 -43 15 -1056 l-3 -1064 -27 -51
c-109 -206 -397 -205 -503 1 l-30 59 -5 730 c-5 722 -6 732 -27 796 -46 135
-162 267 -288 329 -96 48 -176 61 -367 61 l-168 0 0 1018 c0 1129 2 1093 -66
1231 -72 147 -238 271 -398 300 -71 13 -1858 13 -1921 1z m1815 -1270 l0 -710
-855 0 -855 0 0 710 0 710 855 0 855 0 0 -710z m1762 -151 c185 -40 277 -233
193 -405 -82 -167 -310 -204 -445 -73 -110 107 -115 281 -12 393 39 41 92 73
143 84 60 13 61 13 121 1z"/>
</g>
</svg>
