<?xml version="1.0" standalone="no"?>
<!DOCTYPE svg PUBLIC "-//W3C//DTD SVG 20010904//EN"
 "http://www.w3.org/TR/2001/REC-SVG-20010904/DTD/svg10.dtd">
<svg version="1.0" xmlns="http://www.w3.org/2000/svg"
 width="512.000000pt" height="512.000000pt" viewBox="0 0 512.000000 512.000000"
 preserveAspectRatio="xMidYMid meet">

<g transform="translate(0.000000,512.000000) scale(0.100000,-0.100000)"
fill="white" stroke="none">
<path d="M820 3185 c-176 -38 -351 -175 -429 -337 -94 -194 -94 -382 0 -576
101 -210 331 -352 569 -352 237 0 461 139 568 350 95 190 96 389 0 580 -129
257 -422 396 -708 335z m275 -336 c63 -30 123 -90 155 -154 20 -41 25 -65 25
-135 -1 -77 -4 -91 -34 -148 -38 -70 -70 -101 -145 -140 -43 -22 -64 -26 -136
-26 -70 -1 -94 4 -135 24 -260 128 -238 495 35 594 63 23 170 16 235 -15z"/>
<path d="M2420 3185 c-176 -38 -351 -175 -429 -337 -94 -194 -94 -382 0 -576
101 -210 331 -352 569 -352 237 0 461 139 568 350 95 190 96 389 0 580 -129
257 -422 396 -708 335z m275 -336 c63 -30 123 -90 155 -154 20 -41 25 -65 25
-135 -1 -77 -4 -91 -34 -148 -38 -70 -70 -101 -145 -140 -43 -22 -64 -26 -136
-26 -70 -1 -94 4 -135 24 -260 128 -238 495 35 594 63 23 170 16 235 -15z"/>
<path d="M4020 3185 c-176 -38 -351 -175 -429 -337 -94 -194 -94 -382 0 -576
101 -210 331 -352 569 -352 237 0 461 139 568 350 95 190 96 389 0 580 -129
257 -422 396 -708 335z m275 -336 c63 -30 123 -90 155 -154 20 -41 25 -65 25
-135 -1 -77 -4 -91 -34 -148 -38 -70 -70 -101 -145 -140 -43 -22 -64 -26 -136
-26 -70 -1 -94 4 -135 24 -260 128 -238 495 35 594 63 23 170 16 235 -15z"/>
</g>
</svg>
