<?xml version="1.0" standalone="no"?>
<!DOCTYPE svg PUBLIC "-//W3C//DTD SVG 20010904//EN"
 "http://www.w3.org/TR/2001/REC-SVG-20010904/DTD/svg10.dtd">
<svg version="1.0" xmlns="http://www.w3.org/2000/svg"
 width="512.000000pt" height="512.000000pt" viewBox="0 0 512.000000 512.000000"
 preserveAspectRatio="xMidYMid meet">

<g transform="translate(0.000000,512.000000) scale(0.100000,-0.100000)"
fill="#000000" stroke="none">
<path d="M2330 5110 c-494 -48 -950 -230 -1350 -538 -195 -150 -448 -432 -594
-662 -63 -99 -186 -351 -230 -471 -49 -134 -102 -340 -128 -499 -31 -195 -31
-565 0 -760 45 -276 116 -498 237 -745 132 -269 269 -460 489 -681 221 -220
412 -357 681 -489 247 -121 469 -192 745 -237 195 -31 565 -31 760 0 276 45
498 116 745 237 269 132 460 269 681 489 220 221 357 412 489 681 88 179 132
296 180 476 63 240 78 371 78 649 0 278 -15 409 -78 649 -48 180 -92 297 -180
476 -132 269 -269 460 -489 681 -221 220 -412 357 -681 489 -246 121 -474 193
-740 235 -147 23 -475 34 -615 20z m70 -1449 c0 -761 3 -1139 10 -1158 6 -16
363 -380 813 -830 488 -489 798 -806 792 -811 -235 -209 -609 -401 -932 -478
-192 -45 -295 -57 -523 -58 -243 -1 -345 12 -570 70 -776 202 -1392 818 -1594
1594 -56 216 -70 328 -70 560 -1 279 25 451 105 696 219 673 742 1203 1414
1434 145 49 412 105 523 109 l32 1 0 -1129z m468 1114 c676 -94 1273 -494
1623 -1086 148 -251 246 -537 291 -844 18 -128 15 -462 -5 -597 -38 -247 -99
-443 -207 -663 -83 -172 -207 -362 -312 -480 -5 -6 -307 289 -773 755 l-765
765 0 1082 c0 1070 0 1083 20 1083 10 0 68 -7 128 -15z"/>
</g>
</svg>
