<?xml version="1.0" standalone="no"?>
<!DOCTYPE svg PUBLIC "-//W3C//DTD SVG 20010904//EN"
 "http://www.w3.org/TR/2001/REC-SVG-20010904/DTD/svg10.dtd">
<svg version="1.0" xmlns="http://www.w3.org/2000/svg"
 width="512.000000pt" height="512.000000pt" viewBox="0 0 512.000000 512.000000"
 preserveAspectRatio="xMidYMid meet">

<g transform="translate(0.000000,512.000000) scale(0.100000,-0.100000)"
fill="white" stroke="none">
<path d="M452 5100 c-109 -29 -187 -74 -272 -160 -87 -86 -131 -163 -160 -276
-20 -76 -20 -118 -20 -2104 0 -1986 0 -2028 20 -2104 29 -113 73 -190 160
-276 86 -87 163 -131 276 -160 74 -19 114 -20 991 -20 l913 0 0 200 0 200
-913 2 -913 3 -41 27 c-22 15 -51 44 -64 65 l-24 38 0 2025 0 2025 24 38 c13
21 42 50 64 65 l41 27 2025 0 2026 0 38 -24 c21 -13 50 -42 65 -64 l27 -41 5
-952 5 -953 78 -72 c114 -105 217 -243 301 -404 14 -27 15 77 16 1176 0 1169
-1 1208 -20 1283 -29 113 -73 190 -160 276 -86 87 -163 131 -276 160 -76 20
-117 20 -2108 19 -1967 0 -2033 -1 -2104 -19z"/>
<path d="M1161 4023 c-88 -31 -161 -136 -161 -233 0 -132 118 -250 250 -250
60 0 130 30 175 75 188 188 -12 497 -264 408z"/>
<path d="M2000 3790 l0 -200 1010 0 1010 0 0 200 0 200 -1010 0 -1010 0 0
-200z"/>
<path d="M1161 2823 c-88 -31 -161 -136 -161 -233 0 -60 30 -130 75 -175 98
-98 252 -98 350 0 188 188 -12 497 -264 408z"/>
<path d="M2000 2590 l0 -200 443 0 442 0 53 69 c81 107 227 236 342 304 l45
27 -662 0 -663 0 0 -200z"/>
<path d="M3738 2653 l-3 -137 -55 -17 c-232 -71 -424 -236 -535 -462 -75 -154
-87 -215 -92 -482 -2 -126 -6 -245 -9 -263 -3 -19 -23 -53 -49 -82 -98 -110
-165 -231 -206 -372 -17 -58 -22 -110 -26 -255 l-5 -183 567 0 568 0 -44 -23
c-24 -13 -57 -43 -74 -66 -26 -37 -30 -51 -30 -109 0 -80 25 -129 88 -170 34
-23 52 -27 107 -27 55 0 73 4 107 27 63 41 88 90 88 170 0 58 -4 72 -30 109
-16 23 -50 53 -74 66 l-44 23 568 0 567 0 -5 188 c-4 151 -9 201 -26 262 -30
104 -92 225 -151 296 -27 32 -62 77 -77 98 l-28 40 -6 250 c-7 290 -19 350
-94 503 -111 225 -304 392 -535 462 l-55 17 -3 137 -3 137 -199 0 -199 0 -3
-137z m315 -528 c180 -47 328 -202 366 -383 6 -29 11 -142 11 -250 0 -225 12
-299 63 -407 19 -38 54 -92 79 -120 45 -49 108 -141 108 -157 0 -4 -333 -8
-740 -8 l-740 0 19 38 c11 21 47 72 81 112 126 151 150 236 150 531 0 114 5
232 11 261 56 269 336 450 592 383z"/>
<path d="M1161 1553 c-88 -31 -161 -136 -161 -233 0 -132 118 -250 250 -250
60 0 130 30 175 75 188 188 -12 497 -264 408z"/>
<path d="M2000 1320 l0 -200 233 0 232 0 43 85 c24 46 66 115 93 152 42 59 49
74 49 115 l0 48 -325 0 -325 0 0 -200z"/>
</g>
</svg>
