<?xml version="1.0" standalone="no"?>
<!DOCTYPE svg PUBLIC "-//W3C//DTD SVG 20010904//EN"
 "http://www.w3.org/TR/2001/REC-SVG-20010904/DTD/svg10.dtd">
<svg version="1.0" xmlns="http://www.w3.org/2000/svg"
 width="512.000000pt" height="512.000000pt" viewBox="0 0 512.000000 512.000000"
 preserveAspectRatio="xMidYMid meet">

<g transform="translate(0.000000,512.000000) scale(0.100000,-0.100000)"
fill="white" stroke="none">
<path d="M3264 4900 c-601 -69 -1091 -466 -1272 -1030 -55 -172 -67 -256 -66
-460 0 -187 18 -313 58 -425 l14 -40 -718 -720 c-770 -772 -768 -771 -821
-925 -31 -91 -37 -251 -14 -354 54 -246 255 -447 501 -501 101 -23 262 -16
354 15 153 51 152 50 922 818 l717 715 108 -26 c410 -100 831 -32 1170 189
234 151 402 337 526 581 181 355 213 746 92 1128 -67 213 -118 275 -234 283
-110 8 -98 18 -556 -439 l-420 -419 -168 167 -167 168 419 420 c457 458 447
446 439 556 -6 79 -44 133 -118 171 -75 38 -256 94 -365 113 -110 19 -305 27
-401 15z m256 -427 c0 -4 -130 -138 -290 -298 -256 -258 -293 -299 -320 -357
-43 -92 -56 -169 -42 -254 21 -129 48 -166 294 -411 244 -243 274 -264 404
-285 82 -14 160 -1 252 42 58 27 99 64 357 320 160 160 295 290 299 290 5 0 6
-62 3 -137 -12 -298 -116 -534 -325 -735 -224 -215 -474 -308 -790 -295 -147
6 -220 22 -360 75 -45 18 -98 32 -119 32 -88 -1 -90 -3 -893 -804 -421 -420
-778 -771 -795 -779 -129 -63 -290 8 -330 148 -18 60 -14 117 12 170 8 17 359
374 779 795 801 803 803 805 804 893 0 21 -14 74 -32 119 -53 140 -69 213 -75
360 -13 316 80 566 295 790 161 167 354 272 578 312 82 15 294 21 294 9z"/>
</g>
</svg>
