<svg width="48" height="48" viewBox="0 0 48 48" fill="none" xmlns="http://www.w3.org/2000/svg">
<path fill-rule="evenodd" clip-rule="evenodd" d="M37.5385 24C37.5385 25.7779 37.1883 27.5384 36.5079 29.1809C35.8275 30.8235 34.8303 32.316 33.5731 33.5731C32.316 34.8303 30.8235 35.8275 29.181 36.5079C27.5384 37.1883 25.7779 37.5385 24 37.5385C22.2221 37.5385 20.4616 37.1883 18.8191 36.5079C17.1765 35.8275 15.684 34.8303 14.4269 33.5731C13.1697 32.316 12.1725 30.8235 11.4921 29.1809C10.8117 27.5384 10.4615 25.7779 10.4615 24C10.4615 22.2221 10.8117 20.4616 11.4921 18.819C12.1725 17.1765 13.1697 15.684 14.4269 14.4269C15.684 13.1697 17.1765 12.1725 18.8191 11.4921C20.4616 10.8117 22.2221 10.4615 24 10.4615C25.7779 10.4615 27.5384 10.8117 29.181 11.4921C30.8235 12.1725 32.316 13.1697 33.5731 14.4269C34.8303 15.684 35.8275 17.1765 36.5079 18.819C37.1883 20.4616 37.5385 22.2221 37.5385 24Z" fill="#1E1D51"/>
<path fill-rule="evenodd" clip-rule="evenodd" d="M23.9473 14.4977C22.791 14.5194 21.6818 14.7252 20.6505 15.0851V22.5174H23.9473V14.4977ZM17.9506 16.7126C16.2314 18.1718 15.019 20.1842 14.6068 22.4643H17.9506V16.7126ZM20.5339 25.1543V32.9243C21.5922 33.2836 22.7305 33.4891 23.9172 33.5108V25.1543H20.5339ZM14.5959 25.1754C14.9387 27.6035 16.1767 29.7512 17.9718 31.2865V25.1754H14.5959Z" fill="url(#paint0_linear_0_25)"/>
<path fill-rule="evenodd" clip-rule="evenodd" d="M24.1872 14.5934C29.2956 14.6932 33.4069 18.8679 33.4069 24.0002C33.4069 29.1325 29.2956 33.3049 24.1872 33.4048V14.5934Z" fill="url(#paint1_linear_0_25)"/>
<path fill-rule="evenodd" clip-rule="evenodd" d="M20.4049 15.2032V22.7281H23.8958V24.9495H20.4049V32.8167C19.5979 32.4835 18.8462 32.0446 18.1681 31.5167V24.9495H14.5312C14.5008 24.6407 14.4851 24.3276 14.4851 24.0109C14.4851 23.5758 14.5147 23.1477 14.5716 22.7281C14.5759 22.6961 14.5803 22.6642 14.585 22.6323C14.5804 22.6642 14.5759 22.6961 14.5716 22.7281H18.1681V16.5036C18.8462 15.9755 19.5979 15.5364 20.4049 15.2032Z" fill="url(#paint2_linear_0_25)"/>
<path fill-rule="evenodd" clip-rule="evenodd" d="M17.9991 16.7542C17.9712 16.7774 17.9434 16.8008 17.9158 16.8243C17.9435 16.8008 17.9711 16.7774 17.9991 16.7542Z" fill="#FFF38D"/>
<path fill-rule="evenodd" clip-rule="evenodd" d="M14.6463 25.0209C14.6493 25.0492 14.6524 25.0774 14.6557 25.1056C14.6524 25.0775 14.6493 25.0492 14.6463 25.0209Z" fill="#FFF38D"/>
<path fill-rule="evenodd" clip-rule="evenodd" d="M17.9158 31.1747C17.9434 31.1982 17.9712 31.2217 17.9991 31.2448C17.9711 31.2216 17.9435 31.1983 17.9158 31.1747Z" fill="#FFF38D"/>
<path d="M29.8047 17.7613H26.5686V18.2129H29.8047V17.7613Z" fill="#9D0D16"/>
<path fill-rule="evenodd" clip-rule="evenodd" d="M24.0395 9.77564C19.1145 9.7678 14.3192 12.3195 11.6816 16.8881C7.75578 23.6877 10.0884 32.3926 16.8881 36.3184C23.6877 40.2442 32.3927 37.9116 36.3184 31.1119C40.2442 24.3123 37.9116 15.6074 31.112 11.6816C28.8808 10.3934 26.4448 9.77947 24.0395 9.77564ZM24 10.4614C31.4732 10.4614 37.5386 16.5268 37.5386 24C37.5386 31.4732 31.4732 37.5386 24 37.5386C16.5268 37.5386 10.4614 31.4732 10.4614 24C10.4614 16.5268 16.5268 10.4614 24 10.4614ZM23.1849 10.9356V13.7418H24.04V12.7963L24.7305 13.7418L25.8556 13.9064L24.8805 12.6463C25.0945 12.6018 25.4958 12.3746 25.4958 11.8961C25.4958 11.1796 24.8506 10.9506 24.4454 10.9506L23.1849 10.9356ZM24.2653 11.5508C24.4979 11.5508 24.6628 11.7084 24.6703 11.881C24.6778 12.0536 24.5584 12.2408 24.2954 12.2408H24.0249L24.0104 11.5659L24.2653 11.5508ZM28.2963 11.7103C28.2812 11.7102 28.2658 11.7104 28.2507 11.7107C27.513 11.7257 26.8892 12.1731 26.7399 12.9036C26.5912 13.6312 27.252 14.4921 28.0597 14.6754C28.9361 14.8744 29.754 14.4582 29.9384 13.5136C30.0963 12.7048 29.5018 11.9106 28.619 11.7422C28.5104 11.7215 28.4025 11.7109 28.2963 11.7103ZM17.9483 12.4511L17.183 12.8561L17.5428 16.0221L18.3533 15.4219L18.2484 14.9421L19.1336 14.4167L19.5386 14.7168L20.469 14.342L17.9483 12.4511ZM28.3161 12.4859C28.3681 12.486 28.4209 12.4908 28.4741 12.5009C28.9001 12.5822 29.1704 12.9504 29.096 13.341C29.0215 13.7316 28.6301 13.9975 28.2041 13.9163C27.7782 13.8351 27.568 13.4226 27.6425 13.032C27.7077 12.6902 27.952 12.4849 28.3161 12.4859ZM17.9784 13.4563L18.6232 13.9516L18.1581 14.2215L17.9784 13.4563ZM32.2479 13.8617L29.8471 15.5273L30.5522 16.0823L31.7079 15.182L31.1223 16.6373L31.4224 16.9224L32.8932 16.3222L32.008 17.5226L32.548 18.2879L34.2437 15.857L33.7032 15.2121L32.3227 15.7672L32.8782 14.3716L32.2479 13.8617ZM24 14.2164C18.6015 14.2164 14.2159 18.602 14.2159 24.0005C14.2159 29.399 18.6015 33.7841 24 33.7841C29.3985 33.7841 33.7841 29.399 33.7841 24.0005C33.7841 18.602 29.3985 14.2164 24 14.2164ZM15.0372 14.5367L13.8669 15.8871L15.9073 17.7027L16.4779 17.0428L15.6976 16.3523L16.2676 15.7371L15.7724 15.2869L15.2023 15.9172L14.9172 15.6472L15.5325 14.9718L15.0372 14.5367ZM23.8109 14.5936V22.3584H20.7672V15.1623C21.7193 14.8138 22.7433 14.6147 23.8109 14.5936ZM24.1872 14.5936C27.7699 14.6637 30.862 16.7381 32.3895 19.7413C32.3697 19.7149 32.3497 19.6891 32.3293 19.6637C31.955 19.1988 31.4835 18.8904 31.0819 18.6322C31.0499 18.6117 31.0125 18.6014 30.9746 18.6025C30.9161 18.6042 30.8616 18.6331 30.8274 18.6806C30.7339 18.8101 30.5575 18.9177 30.3274 18.9177H28.5941C28.5071 18.9177 28.4245 18.9414 28.3533 18.9929C28.282 19.0445 28.2187 19.1368 28.2187 19.246V19.4436C28.2179 19.4447 28.2163 19.4477 28.2089 19.4534C28.1919 19.4665 28.1586 19.4802 28.1214 19.4802H26.628L26.6294 19.3556V19.3542V19.3532C26.6294 19.1259 26.5134 18.9193 26.3344 18.7888L26.3316 18.7865L26.3293 18.785L25.6764 18.3424L25.6755 18.3415L25.6745 18.341C25.5706 18.2724 25.4544 18.2399 25.3448 18.2422C25.3082 18.243 25.2724 18.2479 25.238 18.2564C25.1003 18.2901 24.9882 18.3771 24.9158 18.4882C24.771 18.7105 24.8043 19.0619 25.0828 19.2611L25.389 19.4953L25.3914 19.4972L25.3937 19.4986C25.4581 19.5447 25.4939 19.6004 25.4939 19.6157L25.4864 20.1119V20.1134V20.1148C25.4864 20.1208 25.4855 20.1223 25.485 20.1247C25.4764 20.1246 25.4599 20.1227 25.4257 20.1115C25.3533 20.0877 25.2983 20.0571 25.2131 20.0249C25.1278 19.9927 25.0182 19.9671 24.8772 19.9671C24.629 19.9671 24.425 20.0791 24.2973 20.2281C24.2525 20.2803 24.216 20.3363 24.1872 20.3942V14.5936ZM20.3909 15.3095V22.7347H23.8109V24.9266H20.3909V32.6896C19.6002 32.3609 18.8638 31.9277 18.1994 31.4069V24.9266H14.6364C14.6066 24.6219 14.5913 24.313 14.5913 24.0005C14.5913 23.5712 14.6202 23.1488 14.6759 22.7347H18.1994V16.5927C18.8638 16.0716 19.6002 15.6383 20.3909 15.3095ZM26.7686 16.7559C26.6149 16.7559 26.4901 16.8806 26.4901 17.0343C26.4901 17.188 26.6149 17.3128 26.7686 17.3128C26.9223 17.3128 27.047 17.188 27.047 17.0343C27.047 16.8806 26.9223 16.7559 26.7686 16.7559ZM27.4779 16.7559C27.3242 16.7559 27.1994 16.8806 27.1994 17.0343C27.1994 17.188 27.3242 17.3128 27.4779 17.3128C27.6316 17.3128 27.7564 17.188 27.7564 17.0343C27.7564 16.8806 27.6316 16.7559 27.4779 16.7559ZM28.1867 16.7559C28.033 16.7559 27.9083 16.8806 27.9083 17.0343C27.9083 17.188 28.033 17.3128 28.1867 17.3128C28.3405 17.3128 28.4652 17.188 28.4652 17.0343C28.4652 16.8806 28.3405 16.7559 28.1867 16.7559ZM28.8956 16.7559C28.7419 16.7559 28.6171 16.8806 28.6171 17.0343C28.6171 17.188 28.7419 17.3128 28.8956 17.3128C29.0493 17.3128 29.174 17.188 29.174 17.0343C29.174 16.8806 29.0493 16.7559 28.8956 16.7559ZM29.6049 16.7559C29.4512 16.7559 29.3264 16.8806 29.3264 17.0343C29.3264 17.188 29.4512 17.3128 29.6049 17.3128C29.7586 17.3128 29.8834 17.188 29.8834 17.0343C29.8834 16.8806 29.7586 16.7559 29.6049 16.7559ZM17.8232 16.904V22.3584H14.7343C15.1151 20.1962 16.2349 18.2879 17.8232 16.904ZM26.5687 17.4835V17.9351H29.8048V17.4835H26.5687ZM26.5687 18.0913V18.5428H29.8048V18.0913H26.5687ZM35.579 18.0931L33.0282 19.1284L33.7484 20.809L34.4233 20.524L34.0485 19.6684L34.3636 19.5183L34.7239 20.3438L35.3387 20.0884L34.9939 19.2935L35.294 19.1585L35.6538 20.0136L36.2841 19.7587L35.579 18.0931ZM12.2761 18.4083L11.9163 19.2032L14.4069 20.3589L15.2023 18.738L14.587 18.4229L14.1068 19.2634L12.2761 18.4083ZM25.3556 18.6176C25.3853 18.6159 25.4199 18.6236 25.4671 18.6548L26.1181 19.0964C26.1992 19.1556 26.2531 19.265 26.2531 19.3532L26.2455 19.9633V19.9643V19.9657C26.2455 20.2059 26.3671 20.4107 26.524 20.5536C26.6165 20.6379 26.7225 20.7044 26.8359 20.7451C26.7225 20.7857 26.6165 20.8522 26.524 20.9365C26.3671 21.0795 26.2455 21.2842 26.2455 21.5245V21.5259V21.5268L26.2531 22.1392C26.2531 22.2275 26.1936 22.3383 26.1124 22.3975L25.4652 22.8363C25.4023 22.8778 25.3638 22.8772 25.3274 22.8683C25.2909 22.8594 25.2552 22.8335 25.231 22.7963C25.1825 22.722 25.1615 22.6354 25.3015 22.5353L25.3039 22.5334L25.3062 22.5315L25.6176 22.294C25.7229 22.2186 25.8702 22.092 25.8702 21.8744V21.873V21.8716L25.8627 21.3725C25.8627 21.2661 25.8244 21.1459 25.7168 21.0644C25.6093 20.983 25.4556 20.973 25.3086 21.0212C25.2036 21.0556 25.135 21.0926 25.08 21.1134C25.025 21.1341 24.9784 21.1468 24.8772 21.1468C24.7354 21.1468 24.6484 21.0934 24.5828 21.0169C24.5172 20.9404 24.4835 20.8339 24.4835 20.7639V20.7262C24.4835 20.6563 24.5172 20.5497 24.5828 20.4732C24.6484 20.3967 24.7354 20.3434 24.8772 20.3434C24.9784 20.3434 25.025 20.356 25.08 20.3768C25.135 20.3975 25.2036 20.4345 25.3086 20.469C25.4556 20.5172 25.6093 20.5071 25.7168 20.4257C25.8244 20.3443 25.8627 20.2212 25.8627 20.1148L25.8702 19.6185V19.6171V19.6157C25.8702 19.3981 25.7182 19.2682 25.6129 19.1929L25.3062 18.9586L25.3039 18.9567L25.3015 18.9548C25.1615 18.8547 25.1825 18.7681 25.231 18.6938C25.2552 18.6566 25.2909 18.6308 25.3274 18.6218C25.3365 18.6196 25.3457 18.6182 25.3556 18.6176ZM31.0104 19.0358C31.3705 19.2711 31.744 19.5369 32.0362 19.8998C32.3642 20.3072 32.5964 20.8313 32.5964 21.604C32.5964 23.0556 31.2408 24.2215 29.937 24.2215H26.786C26.6964 24.2215 26.6049 24.2626 26.5494 24.326C26.4939 24.3894 26.4717 24.4659 26.4723 24.539C26.4729 24.6122 26.4964 24.687 26.5513 24.7493C26.6061 24.8116 26.6963 24.8532 26.786 24.8532H29.8622C30.9682 24.8532 31.5579 25.5651 31.5579 26.4055C31.5579 27.2244 30.9454 27.9944 29.8697 27.9944H26.6999C26.6231 27.9944 26.5415 28.0292 26.4911 28.0851C26.4407 28.1411 26.4196 28.2092 26.42 28.2742C26.4204 28.3393 26.4416 28.4063 26.4915 28.4614C26.5414 28.5166 26.6228 28.5517 26.6999 28.5517H29.0593C29.5671 28.5517 29.9991 29.0466 29.9991 29.5193C29.9991 29.759 29.9309 29.9802 29.7803 30.1411C29.6298 30.302 29.3891 30.4186 28.9845 30.4186H27.5696C27.5132 30.4186 27.4539 30.431 27.3994 30.4704C27.3448 30.5098 27.3001 30.585 27.3025 30.6632C27.3048 30.7414 27.3498 30.8084 27.4022 30.8457C27.4546 30.883 27.513 30.8965 27.5696 30.8965H28.508C28.6404 30.8965 28.7383 30.9544 28.8156 31.0485C28.893 31.1425 28.9379 31.2743 28.9379 31.3796C28.9379 31.5107 28.8895 31.632 28.8039 31.7079C28.7483 31.7571 28.6716 31.7913 28.5663 31.7996C28.5715 31.7454 28.5724 31.684 28.5362 31.6105C28.4933 31.5233 28.3736 31.4539 28.2719 31.4539H27.7089C27.5128 31.4539 27.2963 31.38 27.1364 31.2404C26.9765 31.1008 26.8669 30.9029 26.8669 30.6181C26.8669 30.3561 26.9764 30.1694 27.1317 30.0353C27.287 29.9012 27.4934 29.8311 27.6454 29.8311H29.0292C29.0916 29.8311 29.1525 29.8204 29.2107 29.785C29.2689 29.7497 29.3289 29.6753 29.3288 29.5828C29.3287 29.4902 29.2684 29.4158 29.2103 29.3805C29.1521 29.3453 29.0916 29.3349 29.0292 29.3349H26.8613C26.0271 29.3349 25.5626 28.7446 25.5626 28.1082C25.5626 27.5404 26.0489 26.8674 26.786 26.8674H30.0122C30.1001 26.8674 30.1904 26.8264 30.2441 26.7639C30.2978 26.7014 30.319 26.627 30.3184 26.556C30.3179 26.485 30.2959 26.412 30.2427 26.3504C30.1895 26.2889 30.1003 26.2474 30.0122 26.2474H26.7263C25.8076 26.2474 25.0809 25.5662 25.0809 24.5376C25.0809 23.6784 25.784 22.7973 26.8236 22.7973H29.802C29.9644 22.7973 30.1101 22.7242 30.1994 22.6176C30.2888 22.511 30.3286 22.3796 30.3293 22.2502C30.3299 22.1209 30.2914 21.9883 30.2018 21.881C30.1122 21.7737 29.9654 21.7008 29.802 21.7008H26.6242L26.6218 21.5226C26.6218 21.4125 26.6816 21.3019 26.7775 21.2145C26.8734 21.1271 27.0024 21.0771 27.0814 21.0771H28.8622C28.9311 21.0771 28.9993 21.0612 29.0663 21.0151C29.1334 20.9689 29.1957 20.8694 29.1957 20.7451C29.1957 20.617 29.1576 20.5523 29.0663 20.4751C28.9993 20.4289 28.9311 20.413 28.8622 20.413H27.0814C27.0025 20.413 26.8734 20.363 26.7775 20.2756C26.6816 20.1883 26.6218 20.0757 26.6218 19.9657L26.6232 19.8565H28.7968C28.9171 19.8565 29.0269 19.818 29.1134 19.7516C29.1998 19.6853 29.2705 19.5836 29.2705 19.4553V19.294H30.3274C30.6016 19.294 30.8398 19.1918 31.0104 19.0358ZM32.928 21.0292C33.2387 21.9632 33.4069 22.9623 33.4069 24.0005C33.4069 27.2868 31.7216 30.1793 29.1679 31.8612C29.2676 31.7194 29.3142 31.5484 29.3142 31.3796C29.3142 31.1784 29.242 30.9745 29.1063 30.8095C29.1009 30.803 29.0945 30.7971 29.0889 30.7907C29.5169 30.77 29.8428 30.6252 30.055 30.3984C30.2845 30.1533 30.3754 29.8312 30.3754 29.5193C30.3754 29.0585 30.1174 28.6152 29.7267 28.3707H29.8697C31.1303 28.3707 31.9342 27.4184 31.9342 26.4055C31.9342 25.5467 31.3755 24.7773 30.4464 24.548C31.7805 24.2974 32.9727 23.0969 32.9727 21.604C32.9727 21.3996 32.9569 21.2084 32.928 21.0292ZM24.1872 21.096C24.216 21.1539 24.2525 21.2098 24.2973 21.262C24.425 21.411 24.629 21.5231 24.8772 21.5231C25.0182 21.5231 25.1278 21.4974 25.2131 21.4652C25.2983 21.433 25.3533 21.4024 25.4257 21.3786C25.4599 21.3674 25.4764 21.3655 25.485 21.3655C25.4855 21.3678 25.4864 21.3695 25.4864 21.3754V21.3768V21.3782L25.4939 21.8772C25.4939 21.8926 25.4581 21.9454 25.3937 21.9915L25.3914 21.9929L25.389 21.9948L25.0781 22.2328C24.7996 22.432 24.771 22.7796 24.9158 23.0019C24.9774 23.0965 25.0679 23.1733 25.1783 23.215C24.8769 23.5923 24.7046 24.0637 24.7046 24.5376C24.7046 25.5828 25.3824 26.3751 26.2813 26.5739C25.608 26.8039 25.1863 27.4764 25.1863 28.1082C25.1863 28.9365 25.8423 29.7112 26.8613 29.7112H26.9351C26.9186 29.7241 26.9017 29.7364 26.8857 29.7502C26.6599 29.9452 26.4906 30.2458 26.4906 30.6181C26.4906 31.005 26.6542 31.3194 26.8885 31.524C27.1229 31.7285 27.4213 31.8302 27.7089 31.8302H28.1802C28.1704 31.8646 28.1595 31.8965 28.1595 31.8965C28.1364 31.9488 28.1383 32.0086 28.1646 32.0593C28.191 32.1099 28.2389 32.146 28.2949 32.1571C28.4296 32.1838 28.5569 32.1856 28.6722 32.166C27.3462 32.9263 25.8175 33.3731 24.1872 33.405V21.096ZM14.047 21.4238L11.1209 22.3843L11.016 23.2545L13.7921 24.7549L13.7771 23.7498L13.3575 23.5555L13.4205 22.5221L13.9121 22.3993L14.047 21.4238ZM35.564 21.5141C34.5846 21.5141 34.0936 22.3167 34.0936 23.1195C34.0936 23.9222 34.6744 24.7253 35.564 24.7253C36.4531 24.7253 37.0494 23.9973 37.0494 23.1195C37.0494 22.2567 36.5284 21.5141 35.564 21.5141ZM26.6284 22.0771H29.802C29.8663 22.0771 29.8899 22.0946 29.913 22.1223C29.9361 22.15 29.9532 22.1977 29.953 22.2484C29.9527 22.2991 29.9349 22.3474 29.9111 22.3758C29.8873 22.4043 29.8635 22.421 29.802 22.421H26.8236C26.7329 22.421 26.6443 22.4268 26.5579 22.4374C26.6035 22.3456 26.6294 22.2436 26.6294 22.1369V22.1359V22.1345L26.6284 22.0771ZM35.5828 22.3843C36.0145 22.3843 36.2662 22.7874 36.2662 23.1195C36.2662 23.444 36.0052 23.8547 35.5828 23.8547C35.1602 23.8547 34.9144 23.4984 34.9144 23.1195C34.9144 22.7406 35.1511 22.3843 35.5828 22.3843ZM12.762 22.6867L12.7263 23.2625L11.9313 22.8942L12.762 22.6867ZM14.6806 25.3029H17.8232V31.0955C16.1522 29.6402 14.9997 27.6045 14.6806 25.3029ZM20.7672 25.3029H23.8109V33.405C22.7433 33.3839 21.7193 33.1847 20.7672 32.8363V25.3029Z" fill="url(#paint3_linear_0_25)"/>
<path fill-rule="evenodd" clip-rule="evenodd" d="M25.3556 18.6176C25.3853 18.6159 25.4199 18.6236 25.4671 18.6548L26.1181 19.0964C26.1992 19.1556 26.2531 19.265 26.2531 19.3532L26.2455 19.9633V19.9643V19.9657C26.2455 20.2059 26.3671 20.4107 26.524 20.5536C26.6165 20.6379 26.7225 20.7044 26.8359 20.7451C26.7225 20.7857 26.6165 20.8522 26.524 20.9365C26.3671 21.0795 26.2455 21.2842 26.2455 21.5245V21.5259V21.5268L26.2531 22.1392C26.2531 22.2275 26.1936 22.3383 26.1124 22.3975L25.4652 22.8363C25.4023 22.8778 25.3638 22.8772 25.3274 22.8683C25.291 22.8594 25.2552 22.8335 25.231 22.7963C25.1825 22.722 25.1615 22.6354 25.3015 22.5353L25.3039 22.5334L25.3062 22.5315L25.6176 22.294C25.7229 22.2186 25.8702 22.092 25.8702 21.8744V21.873V21.8716L25.8627 21.3725C25.8627 21.2661 25.8244 21.1459 25.7169 21.0644C25.6093 20.983 25.4556 20.973 25.3086 21.0212C25.2036 21.0556 25.135 21.0926 25.08 21.1134C25.025 21.1341 24.9784 21.1468 24.8772 21.1468C24.7354 21.1468 24.6484 21.0934 24.5828 21.0169C24.5172 20.9404 24.4836 20.8339 24.4836 20.7639V20.7263C24.4836 20.6563 24.5172 20.5497 24.5828 20.4732C24.6484 20.3967 24.7354 20.3434 24.8772 20.3434C24.9784 20.3434 25.025 20.356 25.08 20.3768C25.135 20.3975 25.2036 20.4345 25.3086 20.469C25.4556 20.5172 25.6093 20.5071 25.7169 20.4257C25.8244 20.3443 25.8627 20.2212 25.8627 20.1148L25.8702 19.6185V19.6171V19.6157C25.8702 19.3981 25.7182 19.2682 25.6129 19.1929L25.3062 18.9586L25.3039 18.9567L25.3015 18.9548C25.1615 18.8547 25.1825 18.7681 25.231 18.6938C25.2552 18.6566 25.291 18.6308 25.3274 18.6218C25.3365 18.6196 25.3457 18.6182 25.3556 18.6176Z" fill="#9D0D16"/>
<path fill-rule="evenodd" clip-rule="evenodd" d="M31.0103 19.0358C31.3705 19.2711 31.744 19.5369 32.0362 19.8998C32.3642 20.3072 32.5964 20.8313 32.5964 21.604C32.5964 23.0556 31.2408 24.2215 29.937 24.2215H26.786C26.6964 24.2215 26.6049 24.2626 26.5494 24.326C26.4939 24.3894 26.4717 24.4659 26.4722 24.539C26.4728 24.6122 26.4964 24.687 26.5513 24.7493C26.6061 24.8116 26.6963 24.8532 26.786 24.8532H29.8622C30.9682 24.8532 31.5579 25.5651 31.5579 26.4055C31.5579 27.2244 30.9454 27.9944 29.8697 27.9944H26.6999C26.6231 27.9944 26.5414 28.0292 26.4911 28.0851C26.4407 28.1411 26.4196 28.2092 26.42 28.2742C26.4204 28.3393 26.4416 28.4063 26.4915 28.4614C26.5414 28.5166 26.6228 28.5517 26.6999 28.5517H29.0593C29.5671 28.5517 29.9991 29.0466 29.9991 29.5193C29.9991 29.759 29.9309 29.9802 29.7803 30.1411C29.6297 30.302 29.3891 30.4186 28.9845 30.4186H27.5696C27.5132 30.4186 27.4539 30.431 27.3993 30.4704C27.3448 30.5098 27.3001 30.585 27.3024 30.6632C27.3048 30.7414 27.3498 30.8084 27.4022 30.8457C27.4545 30.883 27.513 30.8965 27.5696 30.8965H28.508C28.6404 30.8965 28.7383 30.9544 28.8156 31.0485C28.893 31.1425 28.9379 31.2743 28.9379 31.3796C28.9379 31.5107 28.8895 31.632 28.8039 31.7079C28.7483 31.7571 28.6716 31.7913 28.5663 31.7996C28.5715 31.7454 28.5724 31.684 28.5362 31.6105C28.4933 31.5234 28.3736 31.4539 28.2719 31.4539H27.7088C27.5127 31.4539 27.2963 31.38 27.1364 31.2404C26.9765 31.1008 26.8669 30.9029 26.8669 30.6181C26.8669 30.3561 26.9764 30.1694 27.1317 30.0353C27.287 29.9012 27.4934 29.8311 27.6453 29.8311H29.0292C29.0916 29.8311 29.1525 29.8204 29.2107 29.785C29.2689 29.7497 29.3289 29.6753 29.3288 29.5828C29.3287 29.4902 29.2684 29.4158 29.2103 29.3805C29.1521 29.3453 29.0916 29.3349 29.0292 29.3349H26.8612C26.0271 29.3349 25.5626 28.7446 25.5626 28.1082C25.5626 27.5404 26.0489 26.8674 26.786 26.8674H30.0122C30.1 26.8674 30.1904 26.8264 30.2441 26.7639C30.2978 26.7014 30.3189 26.627 30.3184 26.556C30.3179 26.485 30.2959 26.412 30.2427 26.3504C30.1895 26.2889 30.1003 26.2474 30.0122 26.2474H26.7262C25.8076 26.2474 25.0809 25.5662 25.0809 24.5376C25.0809 23.6784 25.7839 22.7973 26.8236 22.7973H29.802C29.9644 22.7973 30.1101 22.7242 30.1994 22.6176C30.2888 22.511 30.3286 22.3796 30.3293 22.2502C30.3299 22.1209 30.2914 21.9884 30.2018 21.881C30.1122 21.7737 29.9654 21.7009 29.802 21.7009H26.6242L26.6218 21.5226C26.6218 21.4125 26.6816 21.3019 26.7775 21.2145C26.8734 21.1271 27.0024 21.0771 27.0814 21.0771H28.8622C28.9311 21.0771 28.9993 21.0612 29.0663 21.0151C29.1333 20.9689 29.1957 20.8694 29.1957 20.7451C29.1957 20.617 29.1576 20.5523 29.0663 20.4751C28.9993 20.4289 28.9311 20.413 28.8622 20.413H27.0814C27.0024 20.413 26.8734 20.363 26.7775 20.2756C26.6816 20.1883 26.6218 20.0757 26.6218 19.9657L26.6232 19.8565H28.7968C28.9171 19.8565 29.0269 19.818 29.1134 19.7516C29.1998 19.6853 29.2705 19.5836 29.2705 19.4553V19.294H30.3274C30.6016 19.294 30.8398 19.1918 31.0103 19.0358Z" fill="url(#paint4_linear_0_25)"/>
<defs>
<linearGradient id="paint0_linear_0_25" x1="17.8912" y1="17.8222" x2="23.9473" y2="34.2676" gradientUnits="userSpaceOnUse">
<stop stop-color="white"/>
<stop offset="1" stop-color="#53EEEF"/>
</linearGradient>
<linearGradient id="paint1_linear_0_25" x1="23.647" y1="15.2362" x2="29.9857" y2="33.4048" gradientUnits="userSpaceOnUse">
<stop stop-color="#2F7FBE"/>
<stop offset="1" stop-color="#225D8B"/>
</linearGradient>
<linearGradient id="paint2_linear_0_25" x1="16.323" y1="17.2583" x2="24.6584" y2="33.5474" gradientUnits="userSpaceOnUse">
<stop stop-color="#D50D16"/>
<stop offset="0.5" stop-color="#880D16"/>
<stop offset="1" stop-color="#520D16"/>
</linearGradient>
<linearGradient id="paint3_linear_0_25" x1="14.6773" y1="15.1573" x2="33.0882" y2="30.8825" gradientUnits="userSpaceOnUse">
<stop stop-color="#F8FFBF"/>
<stop offset="0.508929" stop-color="#F8E45E"/>
<stop offset="0.75" stop-color="#F8D35E"/>
<stop offset="1" stop-color="#EE8E0A"/>
</linearGradient>
<linearGradient id="paint4_linear_0_25" x1="26.4614" y1="20.376" x2="30.1956" y2="31.4797" gradientUnits="userSpaceOnUse">
<stop stop-color="#157031"/>
<stop offset="1" stop-color="#0F5324"/>
</linearGradient>
</defs>
</svg>
