<svg width="48" height="48" viewBox="0 0 48 48" fill="none" xmlns="http://www.w3.org/2000/svg">
<g clip-path="url(#clip0_0_59)">
<path d="M29.0002 13.0003L28.4589 14.6331H31.6342L32.1755 13.0003H29.0002ZM11.0761 15.4089L8 24.7182H11.2655L11.5993 23.2478H14.3055L14.6392 24.7182H17.9137L14.8287 15.4089H11.0761ZM16.6869 15.4089L19.754 24.7092L23.3442 24.7182L26.4293 15.4089H23.254L21.5491 21.0558L19.8622 15.4089H16.6869ZM28.2063 15.4089L25.1303 24.7182H28.3056L31.3816 15.4089H28.2063ZM33.1587 15.4089L30.0827 24.7182H33.3481L33.6819 23.2478H36.3881L36.7219 24.7182H39.9964L36.9113 15.4089H33.1587ZM12.9524 17.3122L13.7462 20.7942H12.1585L12.9524 17.3122ZM35.035 17.3122L35.8288 20.7942H34.2412L35.035 17.3122ZM8.0451 27.0997V28.6873H39.9783V27.0997H8.0451ZM8 29.7337V35.5611H39.9964V29.7337H8Z" fill="#ED1C24"/>
</g>
<defs>
<clipPath id="clip0_0_59">
<rect width="32" height="22.5625" fill="white" transform="translate(8 13)"/>
</clipPath>
</defs>
</svg>
