<svg width="48" height="48" viewBox="0 0 48 48" fill="none" xmlns="http://www.w3.org/2000/svg">
<g clip-path="url(#clip0_0_63)">
<path fill-rule="evenodd" clip-rule="evenodd" d="M26.7726 19.9139C25.8259 19.4535 24.9649 19.3036 23.9433 19.3036C23.0174 19.3036 22.0493 19.5 21.1706 19.8795C20.256 19.5613 18.0652 19.7503 17.5863 19.761C17.038 19.7736 14.7696 19.6366 14.2339 19.6366C13.6982 19.6366 12.5905 19.654 11.755 19.7112C10.4831 19.7987 9.04506 19.6746 8.87153 19.6314C8.78735 19.6108 8.72494 19.6617 8.72494 19.6617C8.68766 19.7112 8.30147 20.1472 8.30147 20.1472L8.33913 20.2724L9.24848 20.7331L9.12407 21.3316L10.0094 21.7307C10.0094 21.7307 10.0094 22.2284 10.0585 22.2908C10.1084 22.354 10.9937 22.5777 10.9937 22.5777C10.9937 22.5777 11.082 23.1596 11.1432 23.2131C11.247 23.3054 12.1782 23.4007 12.1782 23.4007C12.1782 23.4007 12.4643 23.9238 12.5887 23.9737C12.7135 24.0235 13.7107 24.1734 13.8972 24.1232C13.8972 24.1232 13.9799 24.5589 14.1564 24.6375C14.345 24.721 15.4301 24.6848 15.4301 24.6848C15.4301 24.6848 15.5649 25.1142 15.7809 25.1814C15.9828 25.2438 16.9258 24.9957 16.9258 24.9957C16.9258 24.9957 17.0635 25.3139 17.2005 25.3697C17.4094 25.4549 18.1711 25.1847 18.1711 25.1847C18.5629 26.7985 19.8676 27.9405 21.4043 28.5375L21.6192 28.9694L22.1242 28.7782L22.3882 29.1832L22.8494 28.9325L23.1636 29.3135L23.5778 29.0137L23.9429 29.3527L24.3066 29.0038L24.722 29.3076L25.0347 28.9273L25.4966 29.1788L25.7613 28.7771L26.2686 28.9717L26.4776 28.5393C27.902 27.9866 29.2208 26.8358 29.6494 25.3767C29.7827 25.4361 30.0356 25.5225 30.2446 25.5314C30.2446 25.5314 30.4827 25.4453 30.5795 25.1441C30.5795 25.1441 31.4061 25.4021 31.5571 25.356C31.5571 25.356 31.696 25.3486 31.8241 24.9259C31.9086 24.9646 31.9788 24.944 32.1047 24.9713C32.7482 25.1112 33.0288 25.0355 33.0288 25.0355C33.0288 25.0355 33.1728 25.0112 33.2869 24.4692C33.3441 24.4777 33.3851 24.4847 33.4283 24.4821C33.4283 24.4821 34.3838 24.5094 34.5492 24.4267C34.5492 24.4267 34.7002 24.3887 34.7545 23.8456C35.1484 23.9046 35.5028 23.9305 35.7897 23.8976C35.7897 23.8976 36.1109 23.7872 36.2346 23.1555C36.4514 23.1419 37.0904 23.0994 37.1698 23.0053C37.1698 23.0053 37.3271 22.9329 37.3271 22.3654C37.5771 22.3492 37.9836 22.2967 38.1301 22.1409C38.1301 22.1409 38.2852 21.9615 38.218 21.5292C38.8084 21.4055 39.0133 21.2131 39.0133 21.2131C39.0092 21.0041 38.8254 20.6198 38.8254 20.6198C38.8254 20.6198 39.4859 20.365 39.6465 20.2358L39.6985 20.1402C39.6985 20.1402 39.2987 19.661 39.2367 19.648C39.0945 19.6185 37.8167 19.8035 36.9908 19.8035C36.1641 19.8035 34.6743 19.678 34.0611 19.678C33.4475 19.678 31.5317 19.816 30.6304 19.816C29.7288 19.816 29.3792 19.678 28.7157 19.678C28.3033 19.678 27.3563 19.7042 26.7726 19.9139Z" fill="black"/>
<path d="M37.6104 20.8047C37.3963 20.8051 37.1829 20.8058 36.9695 20.8058C36.6047 20.8228 36.2133 20.8125 35.8367 20.8184C35.3409 20.8262 34.1993 20.8354 34.1413 20.8398C33.9047 20.8398 33.6676 20.8398 33.4313 20.8398C33.0285 20.8398 32.673 20.8383 32.2705 20.8383C32.2022 20.8413 31.7943 20.8524 31.6654 20.8516C31.6078 20.8502 31.5037 20.8431 31.4465 20.8516C31.3512 20.8664 31.1958 21.0669 31.383 21.0669C31.3911 21.065 31.3999 21.0636 31.4088 21.0624C31.4277 21.0599 31.4465 21.0569 31.4657 21.0536C31.5181 21.0373 31.5864 21.0569 31.6399 21.061C31.7396 21.068 31.8404 21.0757 31.9405 21.0828C32.2037 21.1008 32.4666 21.1186 32.7291 21.137C32.9178 21.1522 33.1072 21.168 33.2958 21.1828C34.6778 21.2699 36.0431 21.3936 37.4753 21.3936C37.8064 21.3936 38.1022 21.2485 38.2063 21.2153C38.2506 21.2009 38.3437 21.1906 38.3787 21.1592C38.4526 21.0946 38.3676 20.8601 38.2968 20.8173C38.2484 20.7878 37.6639 20.8018 37.6104 20.8047Z" fill="white"/>
<path d="M9.81065 20.9098C9.73828 20.9371 9.70653 20.9733 9.69693 21.0534C9.68916 21.1118 9.73347 21.2462 9.87524 21.3196C9.97641 21.3658 10.3608 21.5452 10.4597 21.5663C10.5513 21.5858 16.3375 21.2476 16.3467 21.2462C16.425 21.2104 16.6373 21.1517 16.6188 21.028C16.6137 20.9925 16.5579 20.9574 16.5269 20.9449C16.4616 20.9202 15.7486 20.9851 15.6954 20.9855C15.204 20.9855 9.94356 20.9098 9.81065 20.9098Z" fill="white"/>
<path d="M30.0909 20.9971C30.027 20.9956 29.9624 21.034 29.9373 21.103C29.9163 21.1599 29.9092 21.2374 29.9584 21.2769C30.0093 21.3175 30.0883 21.329 30.1522 21.3456C30.2552 21.3722 30.3586 21.3987 30.4608 21.4253C30.5797 21.4545 30.6787 21.4711 30.8164 21.4848C30.9227 21.4947 31.015 21.4711 31.0427 21.3858C31.0734 21.2869 31.0623 21.2208 30.9851 21.1769C30.9489 21.1565 30.8001 21.1145 30.5831 21.0746C30.3711 21.0358 30.154 21.0011 30.0909 20.9971Z" fill="white"/>
<path d="M17.683 20.9924C17.4811 21.0548 17.2725 21.0855 17.062 21.1246C16.9797 21.139 16.8711 21.1434 16.8043 21.19C16.7737 21.2114 16.7567 21.2439 16.7482 21.2782C16.7408 21.3125 16.7456 21.3532 16.7663 21.3775C16.7969 21.4141 16.9915 21.4986 17.1178 21.4768C17.3179 21.4285 17.4922 21.3646 17.6782 21.3044C17.7429 21.2856 17.827 21.2749 17.8736 21.2236C17.9245 21.1671 17.8909 21.1047 17.8507 21.0563C17.8089 21.0076 17.744 20.978 17.683 20.9924Z" fill="white"/>
<path d="M31.3566 21.3137C31.3327 21.3244 31.3086 21.3314 31.2894 21.3513C31.2241 21.4178 31.2082 21.5274 31.3349 21.5274C31.3862 21.5119 31.525 21.533 31.5745 21.5407C31.6664 21.5544 31.758 21.5688 31.8492 21.5832C32.2195 21.6415 32.5902 21.6999 32.9605 21.7582C33.4076 21.8313 33.8566 21.9059 34.311 21.9561C34.63 21.9915 34.9476 22.0476 35.2699 22.0783C35.7668 22.1255 36.2572 22.1953 36.7825 22.1953C36.8143 22.1942 36.8464 22.1924 36.8782 22.1913C36.8966 22.1891 36.9158 22.1879 36.9346 22.1872C36.9476 22.185 36.9616 22.1839 36.9745 22.1824C36.9885 22.1809 37.003 22.1795 37.0177 22.1776C37.0332 22.1765 37.0495 22.175 37.0653 22.1739C37.079 22.1717 37.0916 22.171 37.1049 22.1695C37.1152 22.1673 37.1251 22.1662 37.1347 22.1647C37.144 22.1636 37.1525 22.1617 37.1617 22.1606C37.1706 22.1591 37.1787 22.1577 37.1872 22.1562C37.196 22.1547 37.2053 22.1536 37.2138 22.1518C37.2614 22.1396 37.309 22.127 37.3559 22.1145C37.5224 22.0635 37.6073 21.9937 37.6653 21.8287C37.6779 21.7914 37.6937 21.739 37.6646 21.7054C37.6383 21.6759 37.5977 21.6707 37.5579 21.6688C37.3489 21.6688 37.1396 21.6681 36.9306 21.6681C36.6456 21.6578 36.3616 21.6471 36.0759 21.6367C35.0199 21.5872 33.9714 21.5027 32.9254 21.4355C32.571 21.4082 32.2165 21.3809 31.8617 21.3532C31.7152 21.3417 31.5099 21.3137 31.3566 21.3137Z" fill="white"/>
<path d="M17.9331 21.4592C17.7393 21.4969 17.5669 21.5799 17.3845 21.6412C17.3092 21.666 17.2124 21.6837 17.1567 21.745C17.1227 21.7823 17.1139 21.8299 17.126 21.8819C17.1338 21.9166 17.1493 21.9687 17.1737 21.996C17.2224 22.0514 17.3513 22.1031 17.438 22.1031C17.4864 22.1016 17.561 22.0865 17.5924 22.0739C17.7349 21.9971 17.8767 21.9207 18.0192 21.8439C18.0679 21.8177 18.1307 21.8099 18.1705 21.7686C18.3064 21.6287 18.0487 21.4396 17.9331 21.4592Z" fill="white"/>
<path d="M29.8244 21.5298C29.7432 21.5564 29.5586 21.6568 29.638 21.7465C29.6694 21.7827 29.7702 21.8167 29.8134 21.8314C29.8669 21.8547 29.8632 21.8613 29.9164 21.8846C29.9765 21.9123 30.0356 21.9403 30.0954 21.9677C30.2069 22.0219 30.2664 22.081 30.4067 22.081C30.5721 22.0773 30.6463 22.1028 30.7283 21.9463C30.7504 21.9056 30.7356 21.8602 30.712 21.8296C30.6733 21.779 30.4539 21.6993 30.3587 21.6668C30.1719 21.6033 29.8769 21.5158 29.8244 21.5298Z" fill="white"/>
<path d="M16.4956 21.4852C16.3649 21.4985 15.4098 21.5905 15.062 21.6126C14.8759 21.6277 11.6276 21.8297 11.3444 21.8338C11.292 21.8378 10.6052 21.8304 10.534 21.891C10.4971 21.9224 10.538 22.1081 10.5735 22.1421C10.6396 22.2059 10.7603 22.2248 10.8471 22.2488C11.0992 22.3196 11.3259 22.4001 11.6187 22.4001C11.6379 22.3986 16.7168 21.7511 16.8091 21.7511C16.8223 21.7381 16.8353 21.7289 16.833 21.7082C16.829 21.6621 16.6514 21.521 16.6071 21.5007C16.5742 21.486 16.5362 21.4852 16.4956 21.4852Z" fill="white"/>
<path d="M31.0562 21.6939C31.0063 21.7128 30.9469 21.7386 30.9595 21.8077C30.9679 21.8571 30.9894 21.9358 31.0304 21.9672C31.1005 22.0211 31.2578 22.0421 31.3475 22.0654C31.5967 22.13 31.847 22.1942 32.0966 22.2581C32.4654 22.353 32.8373 22.4312 33.2124 22.5199C33.6661 22.6277 34.1354 22.7222 34.6028 22.7979C34.8601 22.8389 35.1182 22.8854 35.3833 22.9197C35.5199 22.9371 35.6528 22.9622 35.7968 22.9622C35.8105 22.9611 35.823 22.9596 35.8367 22.9577C35.8607 22.9566 35.8865 22.9552 35.9109 22.9537C35.9283 22.9522 35.9452 22.9511 35.9633 22.9492C35.9759 22.9478 35.9888 22.9467 36.0021 22.9448C36.0213 22.9437 36.0405 22.9422 36.0586 22.9408C36.0782 22.9389 36.0966 22.9374 36.1154 22.9367C36.1346 22.9345 36.1531 22.9334 36.1723 22.9319C36.1871 22.9304 36.2011 22.9289 36.2155 22.9275C36.2288 22.926 36.2417 22.9245 36.255 22.9234C36.2679 22.9216 36.2812 22.9204 36.2941 22.919C36.3071 22.9171 36.32 22.916 36.3337 22.9142C36.3447 22.9131 36.3565 22.9116 36.3676 22.9101C36.3768 22.909 36.3853 22.9072 36.3946 22.9057C36.4031 22.9042 36.4119 22.9031 36.4208 22.9012C36.4296 22.8998 36.4381 22.8987 36.4462 22.8968C36.4555 22.8957 36.464 22.8939 36.4732 22.8924C36.5245 22.8688 36.5795 22.8699 36.6275 22.8377C36.6925 22.7938 36.8491 22.5771 36.766 22.5084C36.7003 22.4534 36.3436 22.4645 36.2328 22.4556C35.8954 22.429 35.5598 22.3881 35.2268 22.3559C34.7483 22.3109 34.2727 22.2263 33.8016 22.1658C33.2423 22.0938 32.6914 22.0026 32.1413 21.9107C31.8858 21.8667 31.6296 21.8235 31.3748 21.7792C31.2637 21.7526 31.181 21.6939 31.0562 21.6939Z" fill="white"/>
<path d="M16.4261 22.0223C16.1425 22.0722 15.8597 22.1213 15.5761 22.1707C15.1279 22.2527 13.365 22.5163 12.9304 22.5647C12.6491 22.5961 12.3685 22.6285 12.0805 22.6514C11.5536 22.626 11.4606 22.7127 11.5274 22.8534C11.5562 22.9139 11.5846 22.9941 11.6422 23.0376C11.7127 23.0904 12.2994 23.2093 12.5265 23.2093C12.7997 23.2185 14.0111 23.0258 14.2115 22.9763C14.5235 22.8999 16.8994 22.2604 16.9603 22.2202C17.0072 22.1888 16.9688 22.0459 16.9105 21.9732C16.8595 21.9101 16.5568 21.9987 16.4261 22.0223Z" fill="white"/>
<path d="M18.343 21.96C18.2581 21.964 17.6788 22.3244 17.6375 22.3786C17.6091 22.4156 17.6098 22.4602 17.6238 22.5049C17.6349 22.5403 17.6449 22.5773 17.6722 22.6046C17.7357 22.6685 17.8775 22.6703 17.9731 22.6703C17.9989 22.6603 18.0251 22.65 18.0514 22.6397C18.1023 22.6112 18.1433 22.568 18.1909 22.5311C18.2888 22.4517 18.3633 22.3956 18.4612 22.3166C18.511 22.2815 18.6255 22.2527 18.6576 22.1977C18.7399 22.0552 18.4409 21.9577 18.343 21.96Z" fill="white"/>
<path d="M29.448 21.9599C29.3516 21.9651 29.1747 22.0246 29.1585 22.1519C29.1541 22.1844 29.1596 22.2177 29.1836 22.2372C29.2268 22.2734 29.5683 22.4455 29.6772 22.5152C29.7599 22.5677 29.8238 22.6308 29.9335 22.6308C30.0811 22.626 30.1336 22.5898 30.1697 22.568C30.2336 22.5285 30.3104 22.4311 30.255 22.355C30.2063 22.2871 30.1025 22.2579 30.0317 22.2254C29.9534 22.1885 29.8755 22.1516 29.7968 22.1146C29.7444 22.0884 29.5332 21.9599 29.448 21.9599Z" fill="white"/>
<path d="M30.8641 22.2128C30.8128 22.2353 30.7619 22.2582 30.7105 22.2807C30.6404 22.3087 30.4643 22.3464 30.5064 22.4531C30.5407 22.5406 31.3711 22.7861 31.6254 22.877C32.2878 23.1062 32.8545 23.3019 33.5527 23.4559C34.06 23.5677 34.6001 23.694 35.1617 23.694C35.1846 23.6929 35.2082 23.6918 35.2304 23.69C35.247 23.6885 35.2621 23.687 35.2788 23.6859C35.288 23.684 35.2961 23.6829 35.305 23.6815C35.3433 23.6619 35.381 23.6534 35.4172 23.6287C35.4733 23.5884 35.5047 23.5286 35.5483 23.4802C35.5885 23.4359 35.6487 23.402 35.6727 23.3488C35.683 23.3241 35.6841 23.2919 35.6679 23.2698C35.6491 23.2458 35.6206 23.2388 35.5926 23.231C35.4637 23.2137 35.3345 23.1963 35.2049 23.1786C34.9535 23.138 34.7024 23.0974 34.4506 23.0568C34.1131 23.0003 33.7742 22.9268 33.4438 22.8548C32.9147 22.74 32.3952 22.6237 31.8798 22.4911C31.6402 22.428 31.4002 22.3656 31.1606 22.3028C31.11 22.287 31.0591 22.2718 31.0081 22.256C30.9598 22.2386 30.9199 22.2164 30.8641 22.2128Z" fill="white"/>
<path d="M18.852 22.3687C18.7656 22.3687 18.5138 22.6257 18.4207 22.701C18.3764 22.738 18.2675 22.8332 18.245 22.8867C18.2025 22.9916 18.2682 23.0477 18.3365 23.0983C18.3993 23.1452 18.5917 23.1153 18.677 23.0514C18.7393 23.0045 19.1399 22.6456 19.1639 22.6036C19.2799 22.3986 18.9867 22.3687 18.852 22.3687Z" fill="white"/>
<path d="M17.2404 22.3698C17.2064 22.379 17.1713 22.389 17.1374 22.3986C17.0476 22.4366 14.9638 23.0827 13.9762 23.2928C13.6912 23.3533 13.4028 23.3925 13.1089 23.4357C13.0188 23.449 12.828 23.4364 12.7652 23.4896C12.7246 23.5261 12.8446 23.7189 12.8789 23.7713C12.966 23.9009 13.988 23.9441 14.4425 23.8241C14.6264 23.7702 17.3327 22.8228 17.388 22.7523C17.4449 22.6795 17.4309 22.4983 17.4231 22.4654C17.4035 22.382 17.3231 22.3698 17.2404 22.3698Z" fill="white"/>
<path d="M28.9549 22.3829C28.8733 22.4047 28.747 22.3697 28.6961 22.4461C28.668 22.4871 28.6621 22.5535 28.6883 22.5938C28.7201 22.6414 29.1613 23.0029 29.2137 23.0298C29.2831 23.0652 29.3736 23.063 29.4603 23.063C29.5334 23.0616 29.6844 23.0003 29.6664 22.8843C29.6619 22.8537 29.6412 22.8264 29.618 22.805C29.5508 22.744 29.4681 22.7049 29.395 22.6539C29.3326 22.6119 29.2624 22.5587 29.2 22.5166C29.1432 22.4738 29.0933 22.4417 29.0365 22.3988C29.0117 22.3866 28.9851 22.3848 28.9549 22.3829Z" fill="white"/>
<path d="M28.2971 22.7315C28.2232 22.7496 28.1383 22.7806 28.1527 22.8792C28.1542 22.898 28.2697 22.9863 28.3137 23.0291C28.413 23.1288 28.4861 23.3016 28.6124 23.3695C28.7002 23.4171 28.8302 23.4751 28.9291 23.4245C29.0525 23.3643 29.0207 23.2432 29.0004 23.217C28.9099 23.0996 28.787 23.0095 28.6818 22.9043C28.6308 22.8534 28.5828 22.7795 28.5193 22.75C28.4584 22.7223 28.3716 22.7315 28.2971 22.7315Z" fill="white"/>
<path d="M19.3488 22.7474C19.282 22.7862 19.1993 22.8929 19.1465 22.9497C19.1074 22.9914 19.0693 23.0332 19.0309 23.0741C18.953 23.1535 18.7902 23.2898 18.929 23.3872C18.9866 23.4275 19.0823 23.4603 19.1454 23.4419C19.1964 23.4182 19.2444 23.4138 19.2887 23.3762C19.3326 23.3392 19.3621 23.285 19.3916 23.2381C19.4264 23.1856 19.543 23.0221 19.5722 22.9966C19.6324 22.9434 19.721 22.9032 19.6619 22.7958C19.6357 22.747 19.412 22.7112 19.3488 22.7474Z" fill="white"/>
<path d="M30.393 22.7532C30.3339 22.7786 30.1275 22.851 30.1312 22.9101C30.1375 22.9957 30.2615 23.0334 30.3368 23.0592C30.3937 23.0792 30.4446 23.1113 30.4971 23.1382C30.6041 23.1951 30.7119 23.2516 30.8186 23.3084C30.9889 23.3941 31.159 23.4798 31.3293 23.5654C31.5759 23.6954 31.8273 23.815 32.0839 23.9217C32.3475 24.0314 32.6171 24.1624 32.908 24.216C33.155 24.2614 33.4415 24.2481 33.714 24.2481C33.7358 24.2462 33.7579 24.2451 33.7793 24.2437C33.8159 24.2422 33.852 24.2407 33.8886 24.2392C33.9078 24.2377 33.9263 24.2363 33.9451 24.2352C33.9565 24.2329 33.9684 24.2322 33.9802 24.2304C33.9916 24.2289 34.0034 24.2278 34.0152 24.2259C34.0237 24.2245 34.0319 24.2233 34.0407 24.2215C34.0666 24.2101 34.0932 24.1982 34.1197 24.1872C34.1803 24.1443 34.3224 23.9974 34.2626 23.9217C34.2065 23.8523 33.9691 23.8357 33.8757 23.815C33.6715 23.7703 33.4688 23.7227 33.2698 23.6729C32.5495 23.4927 31.858 23.2575 31.169 23.0238C30.9918 22.9588 30.8142 22.8938 30.637 22.8285C30.5584 22.7993 30.4827 22.7561 30.393 22.7532Z" fill="white"/>
<path d="M17.6152 22.9274C17.4801 22.9333 16.9931 23.2147 16.7993 23.2955C16.2558 23.5267 15.6891 23.7227 15.122 23.9117C14.9717 23.9575 14.8207 24.0037 14.67 24.0487C14.5759 24.0753 14.4633 24.0904 14.3795 24.137C14.3547 24.1499 14.3337 24.1724 14.3296 24.2008C14.3211 24.2514 14.3636 24.2909 14.399 24.3175C14.4422 24.3492 14.4836 24.3862 14.5338 24.405C14.6124 24.4334 14.704 24.4316 14.7959 24.436C15.0105 24.446 15.4369 24.5132 15.7153 24.3913C15.9715 24.2798 17.0547 23.7094 17.3405 23.5547C17.4753 23.479 18.0671 23.2029 18.059 23.0936C18.0461 22.9212 17.7684 22.9274 17.6152 22.9274Z" fill="white"/>
<path d="M29.8485 23.1064C29.7997 23.1385 29.6705 23.2367 29.6871 23.3035C29.7063 23.3778 29.947 23.4889 29.9866 23.5177C30.3543 23.7938 30.7209 24.0678 31.1045 24.317C31.3157 24.4536 31.5302 24.5969 31.765 24.6851C31.9943 24.7711 32.2671 24.801 32.5378 24.801C32.5533 24.7999 32.5695 24.7985 32.5858 24.7974C32.6083 24.7874 32.6312 24.7785 32.6541 24.7693C32.7172 24.7302 32.8675 24.602 32.8217 24.5205C32.8103 24.5009 32.7911 24.4869 32.7711 24.4776C32.7154 24.4588 32.6596 24.4396 32.6039 24.4204C32.5075 24.3853 32.4108 24.3495 32.3148 24.3148C32.0161 24.1948 31.7248 24.0645 31.4349 23.9257C31.0377 23.7348 30.6471 23.5332 30.2638 23.322C30.1438 23.2537 30.0242 23.1847 29.9049 23.116C29.895 23.1134 29.8847 23.1108 29.8747 23.1075C29.8655 23.1075 29.8577 23.1068 29.8485 23.1064Z" fill="white"/>
<path d="M29.2734 23.3592C29.2508 23.3706 29.2302 23.3821 29.2143 23.4042C29.1862 23.4434 29.1766 23.4965 29.1589 23.5412C29.1415 23.5814 29.1235 23.6206 29.1054 23.6601C29.0998 23.6822 29.0995 23.7088 29.1087 23.7288C29.1316 23.7745 29.1921 23.7756 29.2328 23.7967C29.2675 23.8144 29.2992 23.838 29.3288 23.8654C29.5972 24.1183 29.8497 24.3848 30.1214 24.6241C30.2222 24.7138 30.3105 24.8246 30.4253 24.8859C30.5172 24.9357 30.6287 24.9597 30.7325 24.9866C30.8931 25.0276 31.0493 25.0845 31.2302 25.0845C31.2959 25.0516 31.4912 24.9914 31.4583 24.8851C31.4569 24.8811 31.455 24.877 31.4528 24.8729C31.4487 24.8667 31.4443 24.8596 31.4399 24.8534C31.3738 24.7803 31.2745 24.743 31.1947 24.6931C31.0452 24.6005 30.9001 24.503 30.7535 24.4066C30.3969 24.1718 30.059 23.9023 29.7149 23.6442C29.5879 23.5489 29.5015 23.4009 29.3428 23.364C29.3335 23.3629 29.3254 23.3621 29.3166 23.3603C29.3096 23.3595 29.3025 23.3595 29.2951 23.3595C29.2874 23.3592 29.2811 23.3592 29.2734 23.3592Z" fill="white"/>
<path d="M18.1953 23.363C18.0978 23.3903 15.8689 24.6117 15.8368 24.6645C15.7832 24.7509 15.9479 24.8849 16.0299 24.903C16.1521 24.9299 16.8274 24.8646 17.1201 24.6899C17.2054 24.6261 18.2145 23.833 18.2939 23.7669C18.3906 23.6842 18.7059 23.521 18.6708 23.4524C18.6309 23.3745 18.2872 23.3338 18.1953 23.363Z" fill="white"/>
<path d="M18.8186 23.6728C18.7569 23.665 18.4017 24.1055 17.5555 24.6977C17.4828 24.7479 17.3177 24.8535 17.2816 24.9285C17.2288 25.0747 17.4702 25.1112 17.5588 25.1112C17.5791 25.1094 18.0381 25.0507 18.2511 24.927C18.349 24.8698 19.3 23.9139 19.3296 23.8718C19.3429 23.853 19.3528 23.7559 19.3488 23.7474C19.2986 23.6713 19.1405 23.7237 19.0515 23.7123C18.9832 23.7027 18.8858 23.6831 18.8186 23.6728Z" fill="white"/>
<path d="M28.6106 23.6771C28.5276 23.703 28.4471 23.8016 28.4844 23.8998C28.5039 23.9526 28.5608 23.9636 28.6007 23.9969C28.6379 24.0294 28.6653 24.0663 28.6926 24.1051C28.8624 24.3399 29.0304 24.578 29.2124 24.8054C29.2822 24.8918 29.3538 25.0019 29.4495 25.0687C29.5732 25.1558 29.8201 25.2418 29.9881 25.2418C30.0483 25.2116 30.1975 25.206 30.2004 25.1145C30.2004 25.1108 30.2004 25.1063 30.1997 25.1023C30.1897 25.0151 30.0291 24.9014 29.9656 24.8416C29.7135 24.5998 29.4617 24.358 29.2087 24.1161C29.1563 24.0626 29.1035 24.0094 29.0507 23.9563C29.002 23.9009 28.961 23.8396 28.9012 23.792C28.8218 23.7277 28.7218 23.6805 28.6106 23.6771Z" fill="white"/>
<path d="M18.6112 25.5232C18.5728 25.5365 18.5861 25.6055 18.5968 25.641C18.6156 25.703 18.8634 26.1069 18.973 26.269C19.0672 26.4085 19.1572 26.5518 19.2691 26.6825C19.6919 27.1787 20.2025 27.6192 20.7518 27.9016C20.8357 27.9437 21.2927 28.1815 21.3965 28.1719C21.4183 28.17 21.4257 28.149 21.4216 28.1364C21.4146 28.1102 21.3917 28.0947 21.3703 28.0811C21.2665 28.0323 21.1624 27.9832 21.0583 27.9345C20.8792 27.8499 20.7028 27.7477 20.5347 27.6391C20.1408 27.3836 19.7775 27.0812 19.443 26.7131C19.2902 26.5452 19.1879 26.3713 19.0494 26.1704C18.9187 25.9817 18.7452 25.6358 18.7013 25.5645C18.6784 25.5269 18.6463 25.5025 18.6112 25.5232Z" fill="white"/>
<path d="M29.1688 25.564C29.1245 25.5876 28.8757 26.0484 28.6615 26.3596C28.4234 26.7045 28.1225 27.0368 27.7898 27.3048C27.5118 27.5293 27.2401 27.6928 26.9307 27.8545C26.7368 27.9487 26.4928 28.0587 26.447 28.0975C26.3857 28.1481 26.4167 28.1872 26.4884 28.1872C26.5511 28.161 26.8362 28.0417 27.1234 27.8833C27.7278 27.5503 28.3418 26.9998 28.763 26.4261C28.9443 26.1783 29.1895 25.7157 29.2161 25.6511C29.2367 25.6005 29.2253 25.5695 29.1688 25.564Z" fill="white"/>
<path fill-rule="evenodd" clip-rule="evenodd" d="M21.5547 20.0553C21.5547 20.0553 21.493 19.9401 21.6274 19.8729C21.7633 19.8053 22.7698 19.483 23.9597 19.483C25.2667 19.483 26.4024 19.9065 26.4685 19.9604C26.5586 20.0335 26.4766 20.1697 26.3751 20.1494C26.2747 20.1295 25.2446 19.6924 23.9734 19.6924C22.7022 19.6924 21.8142 20.0298 21.736 20.0756C21.6429 20.1295 21.5547 20.0553 21.5547 20.0553Z" fill="white"/>
<path d="M20.1779 24.1505C20.1779 22.5891 21.8485 21.3234 23.9098 21.3234C25.9715 21.3234 27.6425 22.5891 27.6425 24.1505C27.6425 25.7122 25.9715 26.9779 23.9098 26.9779C21.8485 26.9779 20.1779 25.7122 20.1779 24.1505Z" stroke="white" stroke-width="0.2" stroke-miterlimit="3.864"/>
<path d="M23.6298 21.8816C23.6006 21.8986 23.5511 21.8879 23.5164 21.892C23.3654 21.9119 23.2144 21.9307 23.0682 21.9584C22.6448 22.0371 22.2371 22.2025 21.8923 22.4391C21.8048 22.4993 21.7048 22.5684 21.635 22.6544C21.6331 22.6581 21.6309 22.6614 21.628 22.6655C21.6028 22.7072 21.5585 22.7389 21.5416 22.7847C21.5349 22.8032 21.5286 22.8316 21.5357 22.8523C21.5593 22.9199 21.6852 23.0362 21.7479 23.0734C21.7789 23.0923 21.8318 23.1281 21.8365 23.1672C21.8432 23.227 21.8299 23.2843 21.8262 23.3371C21.8255 23.4083 21.8255 23.4796 21.8255 23.5508V24.6009V25.0188C21.8244 25.0801 21.8229 25.1403 21.821 25.2012C21.8129 25.2315 21.6926 25.3474 21.6641 25.3799C21.6265 25.4231 21.6069 25.4774 21.5759 25.5231C21.5755 25.5268 21.5737 25.5302 21.5722 25.5335C21.5903 25.5505 21.587 25.5833 21.5995 25.604C21.6361 25.6642 21.697 25.7277 21.755 25.7724C22.2272 26.1412 22.9372 26.3446 23.5685 26.3952C23.8181 26.4148 24.0747 26.3963 24.3276 26.3963C24.349 26.3745 24.5059 26.3745 24.5491 26.3745C24.5694 26.3546 24.6794 26.3531 24.7149 26.3531C24.7356 26.3306 24.8046 26.3306 24.8371 26.3306C24.8497 26.3177 24.8736 26.3177 24.894 26.3177C24.9143 26.2963 24.9623 26.2963 24.9937 26.2963C25.0084 26.2796 25.0487 26.2745 25.0723 26.2745C25.0867 26.259 25.1236 26.2523 25.1461 26.2523C25.1605 26.2364 25.2019 26.2309 25.2244 26.2309C25.2469 26.2062 25.3127 26.1873 25.347 26.1873C25.364 26.1637 25.3946 26.16 25.4186 26.1489C25.4795 26.1194 25.5401 26.0899 25.6002 26.0603C25.8111 25.9359 26.0005 25.7679 26.112 25.5482C26.1341 25.5058 26.1663 25.4644 26.1663 25.4113C26.1836 25.3939 26.1877 25.3599 26.1877 25.333C26.2131 25.3079 26.2094 25.2499 26.2094 25.2112C26.2375 25.1794 26.2231 25.0823 26.2224 25.0369C26.2161 24.6053 25.8805 24.1899 25.5061 24.0297C25.4991 24.0267 25.4817 24.026 25.4817 24.0168C25.5091 23.9979 25.5463 23.9599 25.5825 23.9599C25.6102 23.9186 25.7011 23.8831 25.7431 23.8469C25.8314 23.7727 26.044 23.563 26.044 23.4508C26.0588 23.4367 26.0655 23.4157 26.0655 23.3939C26.0832 23.3773 26.0876 23.3448 26.0876 23.3193C26.1186 23.2868 26.1094 23.203 26.1094 23.1539C26.1371 23.124 26.1179 23.0531 26.112 23.0188C26.0743 22.8131 25.9913 22.6411 25.8498 22.4897C25.8177 22.4554 25.7819 22.4299 25.7501 22.3974C25.6501 22.2937 25.5187 22.2272 25.3961 22.1659C25.052 21.9939 24.6525 21.9019 24.2357 21.8824C24.033 21.882 23.8314 21.8816 23.6298 21.8816Z" fill="white"/>
<path d="M23.8427 22.2565C24.0786 22.2565 24.3116 22.2768 24.4932 22.3835C24.7753 22.5489 24.8591 22.8904 24.8174 23.2153C24.7915 23.4092 24.7269 23.5964 24.5804 23.7248C24.4371 23.85 24.2514 23.8806 24.0568 23.9058C23.626 23.9611 23.18 23.8112 23.0574 23.3974C23.0275 23.2973 23.0042 23.1873 23.0027 23.0758C23.0053 23.0208 23.0083 22.965 23.0109 22.9104C23.0293 22.8901 23.0323 22.8387 23.0323 22.8099C23.047 22.7952 23.0548 22.7664 23.0548 22.7446C23.0666 22.7339 23.0758 22.7139 23.0758 22.6966C23.0843 22.6888 23.0891 22.6785 23.0891 22.666C23.1128 22.6475 23.1549 22.5832 23.1549 22.5526C23.1888 22.5334 23.208 22.4957 23.2357 22.4695C23.3103 22.3998 23.4498 22.3134 23.5554 22.3134C23.5658 22.3015 23.5827 22.3004 23.599 22.3004C23.6215 22.2761 23.6861 22.2783 23.7212 22.2783C23.7474 22.2499 23.8106 22.2742 23.8427 22.2565Z" fill="black"/>
<path d="M23.7868 24.2482C24.0763 24.2482 24.3314 24.2522 24.5611 24.3582C25.051 24.5845 25.0964 25.3993 24.7575 25.773C24.512 26.0462 23.9833 26.0942 23.62 25.9986C23.5369 25.976 23.4535 25.9583 23.3796 25.9166C23.2818 25.8601 23.2046 25.7878 23.1378 25.6954C23.0433 25.5651 22.989 25.3779 22.9809 25.2066C22.9765 25.1103 22.989 25.0146 22.989 24.9231C23.0071 24.9053 23.0108 24.864 23.0108 24.8363C23.0267 24.8204 23.0322 24.7898 23.0322 24.7665C23.0466 24.7547 23.0547 24.7333 23.0547 24.7141C23.0706 24.7004 23.089 24.6672 23.089 24.6439C23.1278 24.6148 23.1533 24.5564 23.181 24.5177C23.2127 24.4734 23.3375 24.3704 23.39 24.3704C23.408 24.3471 23.4557 24.3261 23.486 24.3261C23.4996 24.3102 23.5336 24.3046 23.5554 24.3046C23.5724 24.2858 23.6159 24.2829 23.6429 24.2829C23.6746 24.2489 23.7514 24.2784 23.7868 24.2482Z" fill="black"/>
<path d="M27.258 20.139C27.3133 20.1228 27.3673 20.1353 27.4042 20.1752C27.4392 20.2136 27.4293 20.2782 27.3842 20.3033C27.3477 20.3236 27.2989 20.3255 27.258 20.3362C27.1527 20.3635 26.7913 20.4163 26.7714 20.5418C26.7606 20.6142 26.8563 20.698 26.8928 20.7238C26.9427 20.7674 26.8563 20.6854 26.9061 20.729C26.9788 20.7929 27.1409 20.9048 27.0534 21.0196C27.032 21.0473 26.9969 21.0602 26.9607 21.0565C26.7883 21.0391 26.5531 20.6969 26.5328 20.6404C26.5081 20.5703 26.5181 20.4983 26.5579 20.4403C26.6927 20.2472 27.0508 20.2099 27.258 20.139Z" fill="black"/>
<path d="M30.1341 20.6958C30.1248 20.8424 30.5447 20.8125 30.6469 20.8217C30.7987 20.8354 31.094 20.9447 31.1505 20.8941C31.2188 20.8332 31.2915 20.5444 31.169 20.5389C30.991 20.5315 30.9238 20.5515 30.7256 20.5666C30.5218 20.5792 30.1433 20.5529 30.1341 20.6958Z" fill="white"/>
<path d="M17.7072 20.7467C17.7131 20.8479 17.2837 20.8468 17.1818 20.856C17.0304 20.8697 16.7878 20.9738 16.7063 20.8837C16.6446 20.8162 16.5656 20.619 16.6889 20.6138C16.8661 20.6061 16.9913 20.6183 17.1888 20.6334C17.3937 20.6459 17.698 20.6002 17.7072 20.7467Z" fill="white"/>
<path d="M20.9599 20.1092C21.1607 20.1594 21.2755 20.1539 21.3915 20.3429C21.4498 20.4367 21.4535 20.5869 21.3557 20.7169C21.2925 20.8018 21.2685 20.8284 21.1991 20.913C21.1282 20.9986 21.1197 21.0566 20.9997 21.0739C20.9599 21.0798 20.9255 21.0702 20.9034 21.0381C20.824 20.9233 20.9927 20.7841 21.0817 20.6837C21.1157 20.6453 21.1925 20.5312 21.1799 20.4836C21.1563 20.3267 20.968 20.3292 20.8432 20.2905C20.7974 20.2757 20.6697 20.2521 20.6294 20.2266C20.5811 20.196 20.5954 20.1369 20.6242 20.0929C20.6468 20.0586 20.7634 20.063 20.9599 20.1092Z" fill="black"/>
<path d="M29.814 20.646C29.8572 20.6571 29.9119 20.6582 29.9204 20.711C29.93 20.7767 29.8801 20.8391 29.7468 20.8539C29.6542 20.8443 29.467 20.6789 29.3942 20.8247C29.3319 20.948 29.7243 20.9971 29.7066 21.1193C29.6926 21.2216 29.6553 21.2382 29.5648 21.2382C29.5238 21.2404 29.4271 21.1814 29.3942 21.1692C29.3041 21.1275 29.0907 20.958 29.0103 21.0939C28.9309 21.2282 29.4729 21.4106 29.4585 21.5155C29.4441 21.6148 29.3444 21.6931 29.2691 21.6672C29.165 21.6421 28.8316 21.2508 28.6802 21.4044C28.5406 21.5461 29.0981 21.7946 29.0705 21.881C29.0232 22.0261 28.8962 22.0693 28.7193 21.9224C28.627 21.8456 28.4816 21.7027 28.3985 21.8146C28.2962 21.9526 28.5908 22.1265 28.6167 22.1727C28.6813 22.289 28.5329 22.4234 28.435 22.4012C28.3442 22.389 28.2102 22.0464 28.0832 22.1642C27.9857 22.2539 28.2238 22.4677 28.1991 22.553C28.1891 22.6323 27.9872 22.7368 27.8934 22.6634C27.7645 22.5777 28.0684 22.1324 27.7701 21.7126C27.6257 21.5343 27.5083 21.2574 27.5002 21.2087C27.4888 21.1234 27.495 20.9768 27.5497 20.9037C27.7586 20.6235 28.7068 20.6423 29.1118 20.6235C29.3832 20.6106 29.536 20.646 29.814 20.646Z" fill="white"/>
<path d="M17.9638 20.6874C17.9092 20.6874 17.8619 20.6992 17.8538 20.7538C17.8435 20.821 17.8534 20.9277 17.9671 20.9307C18.1012 20.9329 18.2647 20.7546 18.343 20.8672C18.4316 20.9942 17.9738 21.0706 18.0469 21.2249C18.141 21.4221 18.3267 21.2415 18.3607 21.2294C18.453 21.1862 18.741 20.9296 18.858 21.0987C18.9618 21.2475 18.4888 21.4634 18.4316 21.5343C18.4153 21.555 18.3818 21.6665 18.3947 21.6938C18.498 21.9235 18.7591 21.7034 18.9341 21.5118C18.9991 21.4405 19.0463 21.4014 19.1113 21.3844C19.201 21.3612 19.2793 21.3789 19.3033 21.4594C19.3177 21.5052 19.304 21.5591 19.2704 21.5904C19.2339 21.6255 18.8263 21.9198 18.8399 22.0077C18.868 22.186 18.9758 22.2096 19.0548 22.1716C19.1397 22.1339 19.3782 21.7289 19.5189 21.7824C19.5562 21.7968 19.6027 21.8031 19.6175 21.8389C19.6382 21.888 19.63 21.9567 19.599 21.9981C19.5595 22.0512 19.485 22.121 19.4347 22.1653C19.3919 22.203 19.3443 22.2476 19.3188 22.2945C19.2524 22.4138 19.3509 22.4684 19.4598 22.4684C19.4982 22.4684 19.5189 22.447 19.5455 22.4241C19.612 22.3676 19.681 22.1158 19.8158 22.183C19.9568 22.2539 19.6958 22.4533 19.7216 22.5947C19.76 22.7014 19.9295 22.7232 19.9764 22.6438C20.028 22.5172 19.9974 22.3218 20.0495 22.1018C20.1001 21.9046 20.2418 21.603 20.3101 21.4841C20.3537 21.414 20.4065 21.359 20.4264 21.2751C20.4279 21.2692 20.429 21.2637 20.4301 21.2578C20.4416 21.1695 20.3858 21.0968 20.326 21.0429C20.2278 20.9532 20.0952 20.8982 19.9723 20.8572C19.6097 20.7365 19.2217 20.7254 18.806 20.7062C18.5265 20.6925 18.2488 20.6874 17.9638 20.6874Z" fill="white"/>
<path d="M27.735 22.9457C27.786 22.8427 28.0175 22.9557 28.0389 22.9753C28.1028 23.0314 28.1246 23.1233 28.1718 23.1905C28.2298 23.2732 28.3804 23.4482 28.3719 23.542C28.3649 23.6181 28.0721 23.8451 28.0083 23.7916C28.0064 23.7897 28.0049 23.7872 28.002 23.7849C27.9588 23.5021 27.8654 23.2304 27.7284 22.976C27.7284 22.9649 27.7313 22.9546 27.735 22.9457Z" fill="white"/>
<path d="M28.0519 23.9343C28.1324 23.9343 28.2697 23.9657 28.3255 24.0148C28.3716 24.0551 28.3949 24.1156 28.4278 24.1655L28.5976 24.4051L28.9919 24.9349L29.1724 25.1678C29.2061 25.2251 29.1968 25.2675 29.147 25.307L29.1163 25.3111C28.9328 25.3111 28.6478 25.2428 28.523 25.1328C28.4606 25.0774 28.4274 25.0117 28.3875 24.9456L28.1948 24.5893C28.1638 24.5361 28.053 24.3733 28.0335 24.3153C28.0312 24.3087 28.0283 24.2998 28.0261 24.2895C28.029 24.2434 28.0301 24.1972 28.0301 24.1503C28.0301 24.0887 28.0279 24.027 28.0235 23.9657C28.0301 23.948 28.0394 23.9362 28.0519 23.9343Z" fill="white"/>
<path d="M19.368 24.1122C19.4736 23.966 19.6109 23.8452 19.739 23.8648C19.7686 23.8659 19.79 23.877 19.804 23.8936C19.7944 23.9782 19.79 24.0642 19.79 24.1506L19.7911 24.1904L19.7878 24.1993C19.7516 24.3289 19.7383 24.299 19.6508 24.4685C19.5179 24.7251 19.3728 25.0921 19.2871 25.1316C19.1623 25.1892 18.9722 25.1821 18.8349 25.2165C18.6384 25.2663 18.4989 25.2154 18.4989 25.1238C18.4996 25.0064 19.2893 24.2311 19.368 24.1122Z" fill="white"/>
<path d="M19.42 25.3243C19.5355 25.3354 19.5721 25.4893 19.7083 25.5218C19.7947 25.5425 19.8948 25.496 19.9627 25.4568C20.0066 25.4314 20.0679 25.3811 20.1263 25.3874C20.5176 26.0734 21.2247 26.632 22.1089 26.958C22.1108 26.9617 22.1122 26.965 22.1141 26.9687C22.1211 27.0031 22.1111 27.0315 22.0993 27.0459C22.0528 27.0991 21.6027 27.8072 21.5108 27.8294C21.4303 27.8578 21.1213 27.6599 21.0101 27.5993C20.4235 27.2818 19.8685 26.8565 19.4392 26.3034C19.3033 26.1295 18.9197 25.6832 18.9241 25.4989C18.9278 25.369 19.352 25.3213 19.42 25.3243Z" fill="white"/>
<path d="M28.4339 25.4294C28.4826 25.4098 28.833 25.5394 28.8389 25.6254C28.8356 25.6963 28.6211 25.9968 28.3807 26.3192C27.9595 26.8848 27.437 27.2677 26.8533 27.5929C26.7278 27.6627 26.5945 27.7262 26.4616 27.7812L26.349 27.8255C26.3139 27.8255 26.2821 27.8163 26.26 27.7927C26.2149 27.7461 25.7597 27.0675 25.7383 27.0384C25.7209 27.0151 25.7258 26.9752 25.742 26.9475C26.5716 26.6341 27.2425 26.1161 27.6386 25.4803C27.7054 25.4619 27.8225 25.5623 27.8734 25.5874C27.962 25.631 28.0739 25.6749 28.1832 25.6446C28.2977 25.6132 28.3442 25.4703 28.4339 25.4294Z" fill="white"/>
<path d="M24.5277 27.2369C24.5739 27.2642 24.5979 27.3162 24.6152 27.3513C24.6503 27.4229 24.7614 28.0687 24.8194 28.3209C24.8371 28.4047 24.8604 28.5343 24.8467 28.6225C24.8349 28.6997 24.7456 28.8075 24.6525 28.82C24.5754 28.8315 24.421 28.7148 24.3948 28.6565C24.3609 28.5793 24.3664 28.4848 24.3583 28.3947C24.338 28.123 24.2981 27.4684 24.2981 27.3982C24.2981 27.3569 24.3117 27.293 24.355 27.2535C24.4129 27.2487 24.4705 27.2435 24.5277 27.2369Z" fill="white"/>
<path d="M25.0597 27.1482C25.0845 27.17 25.1029 27.1969 25.1177 27.2165C25.1664 27.283 25.3939 27.9154 25.4969 28.1609C25.5305 28.2418 25.577 28.3692 25.5785 28.4604C25.5803 28.5409 25.5094 28.6657 25.4182 28.6945C25.3414 28.7199 25.1653 28.6302 25.1288 28.5752C25.0801 28.5036 25.069 28.4072 25.0442 28.3171C24.9755 28.0461 24.8183 27.3919 24.8057 27.3214C24.7998 27.2878 24.8002 27.2383 24.8194 27.1951C24.901 27.1814 24.9804 27.1656 25.0597 27.1482Z" fill="white"/>
<path d="M25.5456 27.0158C25.5774 27.0354 25.6025 27.0631 25.6224 27.0837C25.6786 27.1436 25.9817 27.7439 26.1139 27.9746C26.1563 28.0511 26.2187 28.1714 26.232 28.2619C26.2427 28.3413 26.1877 28.4734 26.1006 28.5141C26.0278 28.548 25.8417 28.4805 25.7986 28.4306C25.7417 28.3653 25.7192 28.2711 25.6837 28.1847C25.5822 27.9241 25.3466 27.2938 25.3256 27.2251C25.3142 27.1886 25.3086 27.1306 25.33 27.0812C25.4028 27.0609 25.4751 27.0394 25.5456 27.0158Z" fill="white"/>
<path d="M23.9948 27.2708C24.0369 27.3043 24.0539 27.3583 24.0671 27.3944C24.0934 27.4705 24.1255 28.1251 24.1513 28.3828C24.1591 28.4674 24.1668 28.5995 24.1425 28.6848C24.1207 28.7601 24.0195 28.8561 23.9258 28.8576C23.8475 28.8587 23.7079 28.7251 23.6898 28.6638C23.6647 28.5829 23.6828 28.4899 23.685 28.3987C23.6983 28.1269 23.7375 27.4723 23.7463 27.4033C23.7511 27.3634 23.771 27.3051 23.8146 27.2708C23.8471 27.2715 23.8789 27.2715 23.9099 27.2715C23.9383 27.2715 23.9667 27.2715 23.9948 27.2708Z" fill="white"/>
<path d="M23.5023 27.2565C23.5363 27.2953 23.5444 27.3503 23.551 27.3869C23.5654 27.4662 23.4946 28.1172 23.4805 28.3763C23.4742 28.4609 23.4613 28.5927 23.424 28.6732C23.3904 28.7441 23.2756 28.8231 23.1833 28.8098C23.105 28.7991 22.9895 28.6444 22.9806 28.5812C22.9688 28.4971 23.0006 28.4085 23.0168 28.3191C23.0725 28.0525 23.2143 27.412 23.2335 27.3451C23.2428 27.3119 23.266 27.2676 23.3026 27.2381C23.3686 27.2451 23.4355 27.2514 23.5023 27.2565Z" fill="white"/>
<path d="M23.006 27.1958C23.0477 27.2427 23.0459 27.3099 23.0466 27.3535C23.0466 27.434 22.8638 28.0627 22.8044 28.3149C22.7837 28.398 22.7483 28.525 22.6973 28.5984C22.6523 28.662 22.5256 28.7199 22.437 28.6908C22.3624 28.6664 22.2742 28.4947 22.2764 28.4305C22.2794 28.3459 22.3263 28.2639 22.3588 28.1787C22.4592 27.9258 22.7099 27.3199 22.7405 27.2571C22.7564 27.2261 22.7867 27.1855 22.8291 27.1622C22.8867 27.1752 22.9462 27.1859 23.006 27.1958Z" fill="white"/>
<path d="M22.52 27.0894C22.5496 27.141 22.5374 27.2031 22.5315 27.244C22.5197 27.3231 22.2405 27.9164 22.1423 28.1564C22.1091 28.235 22.0537 28.355 21.9924 28.4189C21.9378 28.4754 21.803 28.5123 21.72 28.4698C21.6506 28.434 21.5907 28.2505 21.6029 28.1874C21.6188 28.1047 21.6779 28.0308 21.7233 27.9518C21.8621 27.7177 22.2044 27.1588 22.2446 27.1012C22.2612 27.0775 22.2889 27.0491 22.3236 27.0318C22.3882 27.0524 22.4543 27.0713 22.52 27.0894Z" fill="white"/>
<path d="M19.8939 22.9225C19.9622 22.9055 20.098 22.8534 20.1231 22.9203C19.9777 23.1754 19.8769 23.4479 19.8267 23.7325C19.7739 23.7632 19.6409 23.686 19.5047 23.6288C19.3205 23.5501 19.5952 23.394 19.6908 23.2529C19.7425 23.1765 19.8281 22.9749 19.8939 22.9225Z" fill="white"/>
<path d="M19.8096 24.4657C19.8469 24.7363 19.9277 24.9958 20.0488 25.241C20.0219 25.2908 19.7505 25.3938 19.604 25.2702C19.5213 25.1679 19.7158 24.4538 19.8096 24.4657Z" fill="white"/>
<path d="M38.5691 19.8377C38.6359 19.8377 38.695 19.8377 38.7474 19.8647C38.8198 19.9016 39.0335 20.1135 39.0313 20.1988C39.0298 20.2442 38.7629 20.3277 38.6429 20.3731C38.5536 20.4133 38.3524 20.4938 38.318 20.5049C38.2955 20.513 38.1356 20.5145 38.109 20.5138C38.0729 20.5149 37.8237 20.5174 37.7192 20.5174C37.6771 20.5189 36.918 20.5389 36.6599 20.5389C36.373 20.5389 36.0913 20.5455 35.8056 20.5455C35.7417 20.5455 35.4153 20.5507 35.3961 20.5529H34.1715H33.906L33.8015 20.557L33.7361 20.561H32.9475C32.8877 20.561 32.489 20.5728 32.311 20.5832C32.0655 20.6035 31.7037 20.6341 31.6878 20.6352C31.6398 20.6352 31.5438 20.6533 31.5294 20.5998C31.5143 20.5426 31.6328 20.5156 31.6701 20.5086C32.1091 20.4222 32.5495 20.317 33.0465 20.2549C33.8731 20.1512 34.2711 20.1386 34.4059 20.0988C34.4842 20.0748 34.4683 19.9729 34.4059 19.9651C33.5194 19.8606 31.5368 20.2494 31.2521 20.3085C30.7234 20.4226 30.3317 20.451 30.2013 20.4521H28.9686C28.2829 20.451 27.9861 20.5263 27.9392 20.5355C27.8067 20.5658 27.6815 20.6075 27.5637 20.6685C27.3141 20.7966 27.1554 20.9546 27.2606 21.2544C27.2979 21.319 27.3333 21.408 27.3695 21.4726C27.4544 21.6413 27.5637 21.8492 27.652 22.0142C27.7158 22.1316 27.7554 22.2789 27.7554 22.4263L27.7199 22.6094C27.7177 22.6408 27.6409 22.7759 27.6006 22.7519C27.5966 22.7489 27.5896 22.7412 27.5804 22.7309C27.532 22.66 27.4807 22.5902 27.426 22.5226C27.4083 22.4979 27.3943 22.4779 27.388 22.4706C27.3241 22.3871 27.5087 22.273 27.4917 22.1671C27.457 21.957 27.1484 21.5549 26.9165 21.3633C26.7807 21.2511 26.6547 21.1023 26.534 20.9649C26.4842 20.8966 26.4284 20.8401 26.3778 20.7726C26.3335 20.7128 26.3128 20.6755 26.2948 20.6024C26.2597 20.4565 26.3472 20.3679 26.4413 20.293C26.4975 20.2483 26.6038 20.1818 26.6906 20.1464C26.9246 20.05 27.4736 19.9526 27.7985 19.9101C27.9064 19.8994 28.17 19.868 28.3671 19.864C28.5872 19.864 28.7969 19.8706 29.0029 19.8865C29.4046 19.9179 29.7971 19.9928 30.2146 19.9987C30.8224 20.0083 31.4072 19.9703 31.9968 19.9419C32.2597 19.9293 32.537 19.9119 32.8183 19.8883C33.2499 19.8514 34.5658 19.868 34.76 19.8802C34.8556 19.8857 35.7269 19.9215 36.1674 19.9555C36.2652 19.9629 36.3446 19.9721 36.4077 19.9832C36.6012 19.9791 36.7932 19.9876 36.9826 19.9762C37.3367 19.9537 37.6918 19.9145 38.0415 19.8865L38.5691 19.8377Z" fill="white"/>
<path d="M14.1967 19.8033C14.7586 19.8033 15.2556 19.8506 15.7983 19.8768C16.077 19.8893 16.347 19.8952 16.6257 19.9082C16.9067 19.9215 17.195 19.9429 17.4808 19.9429C17.9932 19.9429 18.4762 19.9096 18.975 19.8864L19.3586 19.8853C19.5978 19.8812 19.8622 19.8712 20.104 19.8945C20.2547 19.9085 20.4068 19.9096 20.5526 19.9266C20.7509 19.9495 21.0935 19.9901 21.2375 20.0551C21.3704 20.1142 21.4671 20.2039 21.5181 20.2604C21.6159 20.3682 21.7618 20.5366 21.6801 20.6636C21.6466 20.7274 21.5531 20.8205 21.5044 20.8766C21.4394 20.9493 20.9318 21.371 20.8055 21.5504C20.6911 21.7103 20.6578 21.8306 20.5873 21.9562C20.4909 22.1175 20.5969 22.2375 20.5614 22.332C20.4566 22.4435 20.3602 22.5598 20.2742 22.6817C20.2554 22.692 20.2388 22.6953 20.2255 22.6857C20.1383 22.6248 20.1553 22.4945 20.1764 22.3254C20.1856 22.198 20.2879 21.9347 20.3252 21.8668C20.3968 21.7317 20.6279 21.4481 20.6464 21.3968C20.7944 20.9818 20.382 20.7252 20.0686 20.6229C19.9645 20.589 19.8603 20.5502 19.7511 20.5303C19.3471 20.4572 18.9144 20.4653 18.4788 20.4516C18.1793 20.4424 17.8637 20.4306 17.5587 20.4306L16.9004 20.4291C16.6903 20.4125 16.4777 20.4003 16.2816 20.3538C15.9456 20.274 15.6639 20.2009 15.3279 20.1267C15.0422 20.064 14.7335 20.0093 14.4282 19.9901C14.2203 19.9772 13.8585 19.9543 13.6429 19.9543C13.4841 19.9543 12.3082 19.9421 12.1343 19.9905C12.0741 20.0023 12.0837 20.1157 12.1243 20.1256C12.3503 20.1902 13.1891 20.2087 13.7451 20.1895C14.0719 20.2054 14.437 20.246 14.7461 20.2903C15.1459 20.3471 15.5151 20.4199 15.8858 20.5373L16.2816 20.6407C16.347 20.661 16.4322 20.7045 16.3429 20.7658C16.0981 20.7658 15.8718 20.7182 15.6237 20.7145C14.999 20.7145 14.0977 20.6957 13.4712 20.6957C13.4058 20.6916 10.3684 20.6591 10.0058 20.6385C9.60227 20.6152 9.23858 20.4217 9.10271 20.3549C9.05102 20.332 8.89891 20.2139 8.90815 20.1906C8.93731 20.1157 9.10271 19.8332 9.23232 19.8229C9.50701 19.8487 9.84556 19.8853 10.1288 19.8978C10.1288 19.8978 12.1575 19.8753 12.2174 19.8709C12.5231 19.8469 13.2493 19.8155 13.5631 19.81C13.737 19.807 14.0313 19.7959 14.1967 19.8033Z" fill="white"/>
<path d="M28.0399 24.6061C28.1337 24.5943 28.329 25.4032 28.2049 25.4645C28.0794 25.5313 27.7807 25.3781 27.746 25.3375C27.7394 25.3305 27.7357 25.322 27.735 25.3131C27.849 25.0982 27.9321 24.8723 27.9805 24.6371C27.9967 24.6205 28.0152 24.6112 28.0399 24.6061Z" fill="white"/>
<path d="M23.9806 19.866C22.9645 19.866 21.8749 20.1532 21.8343 20.2152C21.7402 20.3633 21.9425 20.3574 21.9374 20.563C21.9311 20.8148 21.7354 20.9835 21.6674 21.0563C21.4086 21.331 21.0786 21.4709 20.8504 21.7777C20.833 21.8006 20.8161 21.904 20.8393 21.9357C20.8995 22.0162 21.0409 21.9272 21.0749 21.9003C21.5549 21.5248 22.0053 21.3742 22.5495 21.2051C22.6846 21.1626 23.3702 21.0194 24.2549 21.0574C25.0368 21.091 25.7579 21.2955 26.3856 21.664C26.6362 21.8109 26.86 21.9937 27.0978 22.1912C27.1842 22.264 27.2517 22.1576 27.2547 22.1181C27.258 22.0723 27.2207 22.0077 27.1971 21.9693C27.0165 21.6677 26.6182 21.3952 26.342 21.071C26.2054 20.9104 26.1371 20.8525 26.0858 20.7605C25.917 20.4751 26.1751 20.4589 26.1426 20.3282C26.1175 20.2241 25.1166 19.866 23.9806 19.866Z" fill="white"/>
</g>
<defs>
<clipPath id="clip0_0_63">
<rect width="32" height="10.6562" fill="white" transform="translate(8 19)"/>
</clipPath>
</defs>
</svg>
