<svg width="48" height="48" viewBox="0 0 48 48" fill="none" xmlns="http://www.w3.org/2000/svg">
<path d="M34.5869 16.9295L34.0308 16.8682L23.9939 15.7487V16.1239L33.9909 17.2374L34.5869 16.9295Z" fill="#A1C1E4"/>
<path d="M34.587 16.9291L34.0309 16.8677L23.994 15.7483V16.1234L33.991 17.2369L34.587 16.9291Z" fill="url(#paint0_linear_0_159)"/>
<path d="M23.9939 16.1224L33.9909 17.2359L32.4814 19.9244C32.4814 19.9244 32.2956 23.5399 32.1723 24.9607C32.0491 26.3826 32.0182 27.4955 30.9398 27.9588C28.7819 28.8865 26.1208 29.7159 23.9939 30.1798V16.1224Z" fill="#D3E2F5"/>
<path d="M23.994 16.1206L33.991 17.234L32.4815 19.9225C32.4815 19.9225 32.2957 23.5381 32.1724 24.9588C32.0492 26.3807 32.0182 27.4936 30.9399 27.9569C28.782 28.8846 26.1209 29.714 23.994 30.1779V16.1206Z" fill="url(#paint1_linear_0_159)"/>
<path d="M34.5866 16.9288L33.9906 17.2367L32.4811 19.9251L32.8497 19.9787L34.3121 17.4183L34.5866 16.9288Z" fill="#415050"/>
<path d="M34.5865 16.9279L33.9904 17.2358L32.481 19.9242L32.8496 19.9778L34.3119 17.4174L34.5865 16.9279Z" fill="url(#paint2_linear_0_159)"/>
<path d="M13.4006 16.9313L13.9568 16.87L23.9936 15.7506V16.1257L13.9978 17.2392L15.5073 19.9276C15.5073 19.9276 15.6925 23.5432 15.8157 24.9639C15.9384 26.3859 15.9688 27.4988 17.0483 27.962C19.2051 28.8897 21.8679 29.7192 23.9936 30.183V30.5653C21.7357 30.0729 18.9812 29.197 16.9025 28.3038C15.6812 27.778 15.5823 26.5996 15.4674 25.2355L15.4471 24.9967C15.3346 23.7075 15.1661 20.5409 15.1376 19.9812L13.6751 17.4208L13.4006 16.9313Z" fill="#F6F8FD"/>
<path d="M13.4005 16.9328L13.9566 16.8714L23.9935 15.752V16.1271L13.9977 17.2406L15.5072 19.9291C15.5072 19.9291 15.6923 23.5446 15.8156 24.9654C15.9383 26.3873 15.9687 27.5002 17.0482 27.9634C19.2049 28.8912 21.8677 29.7206 23.9935 30.1845V30.5667C21.7356 30.0743 18.981 29.1984 16.9023 28.3052C15.6811 27.7794 15.5822 26.6011 15.4673 25.2369L15.447 24.9981C15.3345 23.709 15.166 20.5424 15.1374 19.9826L13.675 17.4222L13.4005 16.9328Z" fill="url(#paint3_linear_0_159)"/>
<path d="M13.4006 16.9295L13.9568 16.8682L23.9936 15.7487V16.1239L13.9978 17.2374L13.4006 16.9295Z" fill="#BECDE1"/>
<path d="M13.4005 16.9291L13.9566 16.8677L23.9935 15.7483V16.1234L13.9977 17.2369L13.4005 16.9291Z" fill="url(#paint4_linear_0_159)"/>
<path d="M23.9936 16.1224L13.9978 17.2359L15.5073 19.9244C15.5073 19.9244 15.6925 23.5399 15.8157 24.9607C15.9384 26.3826 15.9688 27.4955 17.0483 27.9588C19.2051 28.8865 21.8679 29.7159 23.9936 30.1798V16.1224Z" fill="#F4F6FD"/>
<path d="M23.9935 16.1206L13.9977 17.234L15.5072 19.9225C15.5072 19.9225 15.6924 23.5381 15.8156 24.9588C15.9383 26.3807 15.9687 27.4936 17.0483 27.9569C19.205 28.8846 21.8678 29.714 23.9935 30.1779V16.1206Z" fill="url(#paint5_linear_0_159)"/>
<path d="M13.4006 16.9288L13.9978 17.2367L15.5073 19.9251L15.1376 19.9787L13.6751 17.4183L13.4006 16.9288Z" fill="#415050"/>
<path d="M13.4005 16.9279L13.9977 17.2358L15.5072 19.9242L15.1374 19.9778L13.675 17.4174L13.4005 16.9279Z" fill="url(#paint6_linear_0_159)"/>
<path d="M32.4815 19.9277C32.4815 19.9277 32.2957 23.5432 32.1724 24.964C32.0492 26.3859 32.0182 27.4988 30.9399 27.962C28.782 28.8897 26.1209 29.7192 23.994 30.1831V30.5653C26.2525 30.0729 29.0071 29.197 31.0858 28.3038C32.307 27.778 32.4059 26.5997 32.5202 25.2355L32.5404 24.9967C32.6536 23.7076 32.8203 20.541 32.8501 19.9812L32.4815 19.9277Z" fill="#7D8283"/>
<path d="M32.8221 19.9765C32.7941 20.4939 32.625 23.695 32.5125 24.9943C32.5125 25.0014 32.4922 25.2295 32.4916 25.2372C32.3773 26.5955 32.2785 27.7596 31.0745 28.277C28.9904 29.1737 26.243 30.0455 23.994 30.5361L23.966 30.1556C26.0918 29.6918 28.7552 28.8629 30.9119 27.9358C31.9909 27.472 32.0224 26.3704 32.1445 24.9484C32.2683 23.5277 32.453 19.9115 32.453 19.9115L32.8221 19.9765Z" fill="#787E80"/>
<path d="M32.7929 19.9724C32.769 20.4464 32.597 23.682 32.4844 24.992C32.4827 25.0075 32.4642 25.2243 32.4636 25.2391C32.3493 26.5908 32.2511 27.7406 31.0631 28.2503C28.9719 29.1495 26.2328 30.0182 23.9939 30.5059L23.938 30.1302C26.0649 29.6657 28.7266 28.8363 30.8833 27.9091C31.9623 27.4453 31.9944 26.3544 32.1177 24.9331C32.2415 23.5112 32.4261 19.8956 32.4261 19.8956L32.7929 19.9724Z" fill="#737A7C"/>
<path d="M32.7649 19.9687C32.7429 20.3993 32.5702 23.6701 32.4565 24.9896C32.4547 25.0128 32.4362 25.2182 32.435 25.2414C32.3213 26.5854 32.2225 27.7215 31.0524 28.2252C28.9558 29.1255 26.2221 29.9907 23.994 30.4772L23.91 30.1021C26.0364 29.6382 28.6992 28.8094 30.8565 27.8817C31.9349 27.4178 31.9671 26.3377 32.0897 24.9163C32.2136 23.495 32.3981 19.8794 32.3981 19.8794L32.7649 19.9687Z" fill="#6E7578"/>
<path d="M32.7369 19.9646C32.7161 20.3523 32.5429 23.657 32.4274 24.9872C32.425 25.0176 32.4077 25.2129 32.4059 25.2433C32.2934 26.5807 32.1951 27.7031 31.0412 28.1979C28.938 29.1024 26.2126 29.9646 23.994 30.4475L23.882 30.0765C26.0078 29.6115 28.6713 28.7826 30.828 27.8549C31.9069 27.3917 31.9397 26.3228 32.0629 24.9003C32.1856 23.4784 32.3714 19.8634 32.3714 19.8634L32.7369 19.9646Z" fill="#687173"/>
<path d="M32.7077 19.9604C32.6905 20.3052 32.5154 23.6445 32.3993 24.9842C32.3958 25.0229 32.3808 25.2075 32.3772 25.2444C32.2641 26.5765 32.1665 27.6834 31.0286 28.1729C28.9213 29.0785 26.2013 29.9366 23.9939 30.4183L23.854 30.0491C25.9809 29.5847 28.6432 28.7546 30.7999 27.8299C31.8783 27.3648 31.9122 26.3055 32.0355 24.8848C32.1587 23.4635 32.3433 19.8473 32.3433 19.8473L32.7077 19.9604Z" fill="#646D70"/>
<path d="M32.6798 19.9563C32.6649 20.2576 32.4881 23.632 32.3714 24.9819C32.3666 25.0283 32.3528 25.2016 32.3493 25.2469C32.2367 26.5717 32.1385 27.6638 31.0185 28.1461C28.904 29.0548 26.1918 29.9092 23.994 30.3886L23.8266 30.0224C25.953 29.5585 28.6159 28.7285 30.772 27.8013C31.8509 27.3381 31.8848 26.2901 32.0075 24.8688C32.132 23.4468 32.3153 19.8319 32.3153 19.8319L32.6798 19.9563Z" fill="#5F696C"/>
<path d="M32.6518 19.9522C32.6387 20.2106 32.4607 23.6196 32.3428 24.9796C32.338 25.0337 32.3244 25.1969 32.319 25.2481C32.2088 26.5676 32.1105 27.6454 31.0066 28.12C28.8868 29.0316 26.1811 29.8819 23.994 30.3588L23.7981 29.9944C25.9256 29.5318 28.5867 28.7023 30.7446 27.7746C31.8236 27.3113 31.8569 26.2741 31.9801 24.8527C32.104 23.4314 32.2886 19.8158 32.2886 19.8158L32.6518 19.9522Z" fill="#5A6569"/>
<path d="M32.6227 19.9479C32.6119 20.1635 32.4333 23.607 32.3142 24.9765C32.3094 25.0384 32.2957 25.1915 32.291 25.2504C32.1808 26.5628 32.0832 27.6262 30.9953 28.0937C28.8695 29.0071 26.1709 29.855 23.994 30.3302L23.7707 29.9687C25.897 29.5043 28.5593 28.6748 30.7166 27.7477C31.7944 27.2845 31.8301 26.2591 31.9539 24.8366C32.0766 23.4146 32.2606 19.7991 32.2606 19.7991L32.6227 19.9479Z" fill="#556266"/>
<path d="M32.5947 19.9437C32.5857 20.1164 32.4059 23.5938 32.285 24.9741C32.2797 25.0432 32.2677 25.1849 32.2618 25.2522C32.1528 26.5586 32.0545 27.6078 30.9839 28.0668C28.8522 28.9838 26.1608 29.8282 23.994 30.301L23.7421 29.9413C25.8684 29.4775 28.5319 28.648 30.6886 27.7209C31.7676 27.2576 31.8021 26.2424 31.9254 24.8205C32.0492 23.3997 32.2344 19.7836 32.2344 19.7836L32.5947 19.9437Z" fill="#515E62"/>
<path d="M32.5661 19.9396C32.5595 20.0688 32.3785 23.5808 32.2576 24.9723C32.2511 25.0492 32.2398 25.1796 32.2332 25.254C32.1243 26.5533 32.0266 27.5882 30.9733 28.0413C28.835 28.9595 26.1501 29.8008 23.994 30.2712L23.7153 29.914C25.8411 29.4519 28.5039 28.6224 30.6601 27.6941C31.739 27.2303 31.7753 26.2264 31.898 24.805C32.0224 23.3831 32.2064 19.7675 32.2064 19.7675L32.5661 19.9396Z" fill="#4C5A5F"/>
<path d="M32.538 19.9355C32.5333 20.0218 32.3511 23.5683 32.2296 24.97C32.2219 25.0552 32.2118 25.1742 32.2052 25.2558C32.0956 26.5491 31.9991 27.5691 30.9631 28.0151C28.8177 28.9375 26.1411 29.7735 23.994 30.2415L23.6873 29.8872C25.8124 29.4246 28.4753 28.5951 30.6332 27.6674C31.711 27.2041 31.7479 26.2103 31.8711 24.7884C31.9944 23.3671 32.179 19.7515 32.179 19.7515L32.538 19.9355Z" fill="#48575C"/>
<path d="M32.5089 19.9313C32.5065 19.9742 32.3231 23.5558 32.2011 24.9676C32.1927 25.0599 32.1844 25.1689 32.1766 25.2576C32.0677 26.5444 31.9706 27.5507 30.9512 27.9889C28.8005 28.9131 26.1304 29.7467 23.994 30.2123L23.6587 29.8616C25.7851 29.3978 28.4474 28.5677 30.6041 27.6406C31.6836 27.1773 31.7193 26.1948 31.8432 24.7729C31.9664 23.351 32.1516 19.7348 32.1516 19.7348L32.5089 19.9313Z" fill="#435459"/>
<path d="M23.6308 29.8348C25.7565 29.3709 28.4188 28.5409 30.5761 27.6138C31.6557 27.1505 31.6925 26.1781 31.8152 24.7568C31.9397 23.3355 32.1243 19.7199 32.1243 19.7199L32.4815 19.9277C32.4815 19.9277 32.2957 23.5433 32.1725 24.964C32.1629 25.0646 32.1564 25.1635 32.1481 25.26C32.0397 26.539 31.9426 27.5316 30.9399 27.9621C28.782 28.8898 26.1209 29.7193 23.994 30.1831L23.6308 29.8348Z" fill="#3F5257"/>
<path d="M15.5014 19.9277C15.5014 19.9277 15.6865 23.5432 15.8092 24.964C15.9324 26.3859 15.9634 27.4988 17.0418 27.962C19.1991 28.8897 21.8619 29.7192 23.9871 30.1831V30.5653C21.7291 30.0729 18.9746 29.197 16.8965 28.3038C15.6752 27.778 15.5758 26.5997 15.4614 25.2355L15.4406 24.9967C15.3292 23.7076 15.1608 20.541 15.131 19.9812L15.5014 19.9277Z" fill="#7D8283"/>
<path d="M15.1602 19.9765C15.187 20.4939 15.3567 23.695 15.4698 24.9943C15.4704 25.0014 15.4894 25.2295 15.49 25.2372C15.6043 26.5955 15.7032 27.7596 16.9084 28.277C18.9925 29.1737 21.7393 30.0455 23.9871 30.5361L24.0156 30.1556C21.8893 29.6918 19.2271 28.8629 17.0704 27.9358C15.992 27.472 15.9598 26.3704 15.8366 24.9484C15.7133 23.5277 15.5287 19.9115 15.5287 19.9115L15.1602 19.9765Z" fill="#787E80"/>
<path d="M15.1887 19.9724C15.2131 20.4464 15.384 23.682 15.4983 24.992C15.4983 25.0075 15.518 25.2243 15.5192 25.2391C15.6323 26.5908 15.7312 27.7406 16.9185 28.2503C19.0097 29.1495 21.7493 30.0182 23.987 30.5059L24.0442 30.1302C21.9179 29.6657 19.2538 28.8363 17.0977 27.9091C16.0194 27.4453 15.9884 26.3544 15.8645 24.9331C15.7413 23.5112 15.5567 19.8956 15.5567 19.8956L15.1887 19.9724Z" fill="#737A7C"/>
<path d="M15.2167 19.9687C15.2393 20.3993 15.4114 23.6701 15.5257 24.9896C15.5281 25.0128 15.5454 25.2182 15.5472 25.2414C15.6603 26.5854 15.7592 27.7215 16.9298 28.2252C19.027 29.1255 21.7595 29.9907 23.987 30.4772L24.071 30.1021C21.9452 29.6382 19.2836 28.8094 17.1257 27.8817C16.0474 27.4178 16.0152 26.3377 15.8914 24.9163C15.7687 23.495 15.5847 19.8794 15.5847 19.8794L15.2167 19.9687Z" fill="#6E7578"/>
<path d="M15.2453 19.9646C15.2655 20.3523 15.4394 23.657 15.5543 24.9872C15.5573 25.0176 15.5734 25.2129 15.5764 25.2433C15.6889 26.5807 15.7877 27.7031 16.9411 28.1979C19.0448 29.1024 21.7696 29.9646 23.9871 30.4475L24.0996 30.0765C21.9732 29.6115 19.311 28.7826 17.1543 27.8549C16.0754 27.3917 16.0426 26.3228 15.9194 24.9003C15.7955 23.4784 15.6115 19.8634 15.6115 19.8634L15.2453 19.9646Z" fill="#687173"/>
<path d="M15.2739 19.9604C15.2912 20.3052 15.4668 23.6445 15.5835 24.9842C15.5864 25.0229 15.6019 25.2075 15.6049 25.2444C15.7169 26.5765 15.8157 27.6834 16.9519 28.1729C19.0615 29.0785 21.7803 29.9366 23.9871 30.4183L24.1276 30.0491C22.0018 29.5847 19.339 28.7546 17.1817 27.8299C16.1039 27.3648 16.0694 26.3055 15.9461 24.8848C15.8234 23.4635 15.6383 19.8473 15.6383 19.8473L15.2739 19.9604Z" fill="#646D70"/>
<path d="M15.303 19.9563C15.3173 20.2576 15.4941 23.632 15.6114 24.9819C15.615 25.0283 15.6293 25.2016 15.6341 25.2469C15.7448 26.5717 15.8425 27.6638 16.9638 28.1461C19.0776 29.0548 21.7904 29.9092 23.987 30.3886L24.1555 30.0224C22.0292 29.5585 19.3669 28.7285 17.2102 27.8013C16.1301 27.3381 16.0973 26.2901 15.9741 24.8688C15.8508 23.4468 15.6651 19.8319 15.6651 19.8319L15.303 19.9563Z" fill="#5F696C"/>
<path d="M15.3311 19.9522C15.3442 20.2106 15.5216 23.6196 15.6395 24.9796C15.6442 25.0337 15.658 25.1969 15.6621 25.2481C15.7729 26.5676 15.8717 27.6454 16.9751 28.12C19.0961 29.0316 21.8018 29.8819 23.9871 30.3588L24.183 29.9944C22.0572 29.5318 19.395 28.7023 17.2371 27.7746C16.1594 27.3113 16.1242 26.2741 16.0009 24.8527C15.8795 23.4314 15.6937 19.8158 15.6937 19.8158L15.3311 19.9522Z" fill="#5A6569"/>
<path d="M15.3584 19.9479C15.3709 20.1635 15.549 23.607 15.6681 24.9765C15.6734 25.0384 15.6859 25.1915 15.6901 25.2504C15.8014 26.5628 15.8991 27.6262 16.9864 28.0937C19.1133 29.0071 21.8107 29.855 23.9871 30.3302L24.2109 29.9687C22.0858 29.5043 19.423 28.6748 17.2657 27.7477C16.1873 27.2845 16.1521 26.2591 16.0289 24.8366C15.9056 23.4146 15.7205 19.7991 15.7205 19.7991L15.3584 19.9479Z" fill="#556266"/>
<path d="M15.3876 19.9437C15.3959 20.1164 15.5764 23.5938 15.6955 24.9741C15.702 25.0432 15.7151 25.1849 15.7198 25.2522C15.83 26.5586 15.9277 27.6078 16.9965 28.0668C19.13 28.9838 21.8214 29.8282 23.987 30.301L24.2389 29.9413C22.1132 29.4775 19.4503 28.648 17.2936 27.7209C16.2153 27.2576 16.1801 26.2424 16.0575 24.8205C15.933 23.3997 15.7485 19.7836 15.7485 19.7836L15.3876 19.9437Z" fill="#515E62"/>
<path d="M15.4156 19.9396C15.4227 20.0688 15.6044 23.5808 15.7241 24.9723C15.7312 25.0492 15.7413 25.1796 15.7485 25.254C15.8569 26.5533 15.9557 27.5882 17.0084 28.0413C19.1473 28.9595 21.831 29.8008 23.9871 30.2712L24.2669 29.914C22.1412 29.4519 19.4784 28.6224 17.3211 27.6941C16.2433 27.2303 16.207 26.2264 16.0837 24.805C15.9599 23.3831 15.7752 19.7675 15.7752 19.7675L15.4156 19.9396Z" fill="#4C5A5F"/>
<path d="M15.4442 19.9355C15.449 20.0218 15.6311 23.5683 15.7532 24.97C15.7603 25.0552 15.7705 25.1742 15.7776 25.2558C15.886 26.5491 15.9837 27.5691 17.0203 28.0151C19.164 28.9375 21.8405 29.7735 23.9871 30.2415L24.2949 29.8872C22.1691 29.4246 19.5069 28.5951 17.349 27.6674C16.2713 27.2041 16.2355 26.2103 16.1123 24.7884C15.9884 23.3671 15.8032 19.7515 15.8032 19.7515L15.4442 19.9355Z" fill="#48575C"/>
<path d="M15.4733 19.9313C15.4751 19.9742 15.6585 23.5558 15.7817 24.9676C15.7895 25.0599 15.7984 25.1689 15.8056 25.2576C15.9139 26.5444 16.0116 27.5507 17.0316 27.9889C19.1817 28.9131 21.8512 29.7467 23.987 30.2123L24.3228 29.8616C22.1971 29.3978 19.5343 28.5677 17.377 27.6406C16.2992 27.1773 16.2617 26.1948 16.1384 24.7729C16.0152 23.351 15.8312 19.7348 15.8312 19.7348L15.4733 19.9313Z" fill="#435459"/>
<path d="M24.3508 29.8348C22.2251 29.3709 19.5623 28.5409 17.4056 27.6138C16.3272 27.1505 16.2897 26.1781 16.1664 24.7568C16.0425 23.3355 15.8568 19.7199 15.8568 19.7199L15.5013 19.9277C15.5013 19.9277 15.6865 23.5433 15.8091 24.964C15.8187 25.0646 15.8264 25.1635 15.8347 25.26C15.9431 26.539 16.0396 27.5316 17.0418 27.9621C19.1991 28.8898 21.8619 29.7193 23.987 30.1831L24.3508 29.8348Z" fill="#3F5257"/>
<path d="M23.9925 16.1092L13.9955 17.2215L13.9741 17.2245L13.9848 17.2436L15.4943 19.932L15.4925 19.9255C15.4943 19.9618 15.6795 23.5583 15.801 24.9636L15.8206 25.2029C15.9307 26.504 16.0171 27.5335 17.0419 27.9736C19.0991 28.8578 21.762 29.7087 23.9901 30.1952L23.9937 30.1958L23.9967 30.1952C26.2272 29.7087 28.8889 28.8578 30.945 27.9736C31.9715 27.5335 32.0572 26.504 32.1662 25.2029L32.1871 24.9636C32.3091 23.5583 32.4931 19.9618 32.4949 19.9255L32.4931 19.932L34.0032 17.2436L34.0139 17.2245L33.9919 17.2215L23.9955 16.1092H23.9925ZM33.9782 17.2287L32.4681 19.9183L32.4657 19.9207V19.9249C32.4634 19.9606 32.2794 23.5565 32.1573 24.9612L32.1376 25.2006C32.0281 26.4933 31.9429 27.5127 30.9337 27.9468C28.8782 28.8292 26.2183 29.6807 23.9901 30.166H23.9967C21.7697 29.6807 19.1092 28.8292 17.0531 27.9468C16.0456 27.5127 15.9593 26.4933 15.8503 25.2006L15.8301 24.9612C15.708 23.5565 15.5241 19.9606 15.5223 19.9249V19.9207L15.5205 19.9183L14.0092 17.2287L13.9985 17.2513L23.9955 16.1384H23.9925L33.9889 17.2513L33.9782 17.2287Z" fill="white"/>
<path d="M20.0191 9.2693C14.3474 10.9246 9.44208 15.1541 9.44208 22.2941C9.44208 29.6372 15.7449 35.8954 24.0002 36.3211L23.9966 37.7567C16.7405 37.7567 8.37918 31.7969 8.37918 22.68C8.37918 14.8439 13.2375 10.8901 19.0336 9.0216C19.105 9.00611 19.1818 9.01207 19.2479 9.02517C19.4962 9.07459 19.7499 9.12818 20.0191 9.2693Z" fill="#D7D8D9"/>
<path d="M24.0068 38.2055C14.6952 38.2055 8 30.2818 8 22.7542C8 19.9812 9.90131 13.8004 14.1016 13.8004C13.2299 14.6721 10.8135 17.5636 10.8135 21.705C10.8135 27.3903 14.6565 33.5711 23.9967 34.5143C26.4821 34.765 28.6811 38.2055 24.0068 38.2055Z" fill="#D7D8D9"/>
<path d="M23.914 34.5325C26.0183 34.7355 27.8046 37.1626 25.6128 37.9045C25.1859 38.0474 24.6131 38.1302 23.8658 38.1266C15.0376 38.054 8.63237 30.9342 8.09409 23.7346C8.06908 23.403 8.05663 23.0707 8.05782 22.7402C8.06556 20.4954 9.27193 16.2617 11.7859 14.5963C12.4361 14.1747 13.1804 13.9353 14.0224 13.9627C13.3245 14.7011 11.6567 16.7226 11.05 19.6022C10.9059 20.2953 10.8218 21.0366 10.826 21.822C10.8635 27.5181 14.7715 33.6262 23.914 34.5325Z" fill="#D3D5D6"/>
<path d="M23.8307 34.5538C25.9576 34.7485 27.6499 37.1535 25.4586 37.8478C25.0299 37.9806 24.4612 38.0557 23.7258 38.0461C14.9662 37.9032 8.66514 30.8978 8.14948 23.7125C8.12447 23.3826 8.11259 23.0539 8.11437 22.7252C8.13104 20.4256 9.35944 16.2712 11.821 14.6611C12.4391 14.2752 13.1429 14.071 13.942 14.1252C13.2519 14.8981 11.6311 16.916 11.0481 19.7391C10.9094 20.428 10.832 21.164 10.8392 21.941C10.9112 27.646 14.8858 33.6833 23.8307 34.5538Z" fill="#CED0D1"/>
<path d="M23.7467 34.5737C25.8963 34.76 27.4944 37.1436 25.3044 37.7897C24.8727 37.9123 24.3082 37.9802 23.5853 37.9671C14.8942 37.7516 8.69853 30.8628 8.20311 23.6895C8.17989 23.3626 8.16971 23.0357 8.17149 22.7111C8.1971 20.3561 9.44582 16.2797 11.8562 14.7238C12.4403 14.3749 13.1066 14.2057 13.8629 14.2867C13.1805 15.0936 11.6049 17.1097 11.0463 19.875C10.9135 20.5604 10.8403 21.2898 10.851 22.0585C10.9606 27.7742 15.0008 33.7394 23.7467 34.5737Z" fill="#CBCDCF"/>
<path d="M23.6633 34.5939C25.8337 34.7713 27.339 37.1329 25.1495 37.7313C24.7166 37.8456 24.1557 37.9058 23.4442 37.8879C14.8227 37.6003 8.73121 30.8271 8.25783 23.6668C8.2352 23.3417 8.22631 23.019 8.2281 22.6968C8.26323 20.2865 9.53331 16.2886 11.8913 14.7881C12.4421 14.4755 13.0697 14.3409 13.7824 14.4493C13.1078 15.2895 11.5787 17.3027 11.044 20.012C10.9171 20.6932 10.8499 21.4172 10.8641 22.1764C11.0088 27.9016 15.1151 33.7954 23.6633 34.5939Z" fill="#C7C9CB"/>
<path d="M23.58 34.6142C25.7724 34.7845 27.1836 37.1228 24.9947 37.6736C24.5595 37.7784 24.0039 37.8296 23.3043 37.807C14.7518 37.4497 8.76402 30.7908 8.31207 23.6443C8.29123 23.3221 8.28168 23.0012 8.28525 22.682C8.32812 20.2175 9.61905 16.2982 11.9264 14.8525C12.4439 14.5762 13.0322 14.4762 13.7027 14.6119C13.0352 15.486 11.5531 17.4963 11.0422 20.1472C10.9207 20.8254 10.8593 21.5435 10.876 22.2944C11.0582 28.0303 15.2288 33.852 23.58 34.6142Z" fill="#C3C6C7"/>
<path d="M23.4966 34.6339C25.7105 34.7958 27.0276 37.1133 24.8399 37.6165C24.404 37.7112 23.8521 37.7552 23.1625 37.7284C14.6798 37.2973 8.79851 30.7557 8.36681 23.6217C8.34716 23.3013 8.33823 22.9833 8.34181 22.6677C8.3942 20.1472 9.70721 16.3078 11.9622 14.9162C12.4457 14.6762 12.9959 14.6113 13.6223 14.7745C12.9631 15.6825 11.5263 17.6892 11.041 20.2836C10.9255 20.9588 10.8683 21.6692 10.8892 22.4123C11.1065 28.1584 15.3443 33.9086 23.4966 34.6339Z" fill="#BFC2C4"/>
<path d="M23.4138 34.654C25.6491 34.807 26.8728 37.1025 24.6857 37.5586C24.2462 37.6438 23.6996 37.6807 23.0226 37.6485C14.6071 37.146 8.8301 30.7199 8.42103 23.5983C8.40198 23.2815 8.39484 22.9659 8.39901 22.6527C8.45974 20.078 9.79412 16.316 11.9973 14.9804C12.4474 14.7767 12.9583 14.7464 13.543 14.9363C12.8904 15.8783 11.5007 17.882 11.038 20.4198C10.9291 21.0915 10.8773 21.7959 10.9017 22.5307C11.1553 28.2863 15.4586 33.9651 23.4138 34.654Z" fill="#BCBFC1"/>
<path d="M23.3298 34.675C25.5884 34.8203 26.7173 37.0931 24.5308 37.5016C24.0896 37.576 23.5466 37.6064 22.8815 37.5688C14.5369 36.9948 8.86404 30.6837 8.47581 23.5758C8.45854 23.262 8.45134 22.9494 8.4567 22.6386C8.52458 20.0085 9.88042 16.3256 12.0324 15.0442C12.4492 14.8763 12.9214 14.8817 13.4639 15.0984C12.8184 16.0749 11.4739 18.0756 11.0362 20.5563C10.9326 21.2232 10.8862 21.9222 10.9142 22.6481C11.2053 28.4138 15.5729 34.0212 23.3298 34.675Z" fill="#B8BCBE"/>
<path d="M23.2465 34.6942C25.527 34.8312 26.562 37.0838 24.3761 37.4434C23.9337 37.5089 23.3942 37.5303 22.7422 37.4898C14.4643 36.8438 8.89736 30.6493 8.53057 23.5534C8.5127 23.2414 8.50792 22.9317 8.51269 22.6251C8.5901 19.939 9.96741 16.3348 12.0682 15.1081C12.451 14.9771 12.8845 15.017 13.3835 15.2612C12.7458 16.271 11.4471 18.2688 11.0345 20.6928C10.9368 21.3562 10.8963 22.0493 10.9273 22.7662C11.253 28.5426 15.6879 34.0779 23.2465 34.6942Z" fill="#B5B8BA"/>
<path d="M23.1625 34.7142C25.4651 34.844 26.4071 37.074 24.2224 37.386C23.7764 37.442 23.2423 37.4557 22.601 37.4098C14.3933 36.6917 8.92951 30.6122 8.58475 23.5299C8.56926 23.2209 8.56389 22.9142 8.56984 22.6099C8.65618 19.8691 10.0549 16.3434 12.1026 15.1716C12.4539 15.0775 12.8475 15.1519 13.3042 15.4235C12.6736 16.4673 11.4208 18.462 11.0326 20.8284C10.9403 21.4887 10.9046 22.1747 10.9403 22.8838C11.3023 28.6698 15.8021 34.1342 23.1625 34.7142Z" fill="#B1B5B7"/>
<path d="M23.0798 34.7346C25.4044 34.856 26.2511 37.0634 24.0676 37.3277C23.6198 37.3742 23.0899 37.3807 22.4599 37.3301C14.3213 36.5412 8.96227 30.5777 8.63894 23.5074C8.62406 23.2007 8.62053 22.8964 8.62768 22.5963C8.72295 19.7995 10.1418 16.3531 12.1378 15.2354C12.4558 15.1777 12.8113 15.2878 13.2239 15.5855C12.6011 16.6627 11.3953 18.6557 11.0315 20.9642C10.9446 21.6216 10.9142 22.3022 10.9517 23.0024C11.3512 28.7985 15.9172 34.1903 23.0798 34.7346Z" fill="#AEB1B3"/>
<path d="M22.9958 34.7553C25.343 34.8673 26.0963 37.0538 23.9122 37.2699C23.4626 37.3062 22.9363 37.3044 22.32 37.2502C14.2499 36.3898 8.99502 30.5419 8.69432 23.4853C8.68003 23.1804 8.67707 22.8785 8.68422 22.582C8.78723 19.7304 10.2282 16.3619 12.1735 15.2996C12.4576 15.2782 12.7731 15.4223 13.1447 15.748C12.529 16.8597 11.3691 18.8491 11.0297 21.1005C10.9481 21.7537 10.9237 22.4283 10.9648 23.1197C11.4006 28.9271 16.0314 34.2474 22.9958 34.7553Z" fill="#AAAEB1"/>
<path d="M22.9118 34.7751C25.2805 34.8793 25.9397 37.0444 23.7586 37.2129C23.3066 37.2391 22.785 37.2296 22.1795 37.1712C14.1784 36.2381 9.02839 30.5057 8.74734 23.4622C8.73602 23.1609 8.73305 22.862 8.7408 22.5666C8.85334 19.6608 10.3158 16.371 12.2081 15.3635C12.4588 15.3784 12.7368 15.5576 13.0649 15.9107C12.4564 17.0552 11.3435 19.0422 11.0273 21.237C10.9517 21.8866 10.932 22.5553 10.9779 23.2383C11.4489 29.0546 16.1464 34.3035 22.9118 34.7751Z" fill="#A6ABAD"/>
<path d="M22.8291 34.7949C25.2198 34.892 25.7849 37.0332 23.6037 37.1547C23.15 37.1719 22.632 37.1547 22.0389 37.0922C14.1064 36.0876 9.06171 30.4708 8.80328 23.4403C8.79078 23.1402 8.78903 22.8443 8.79856 22.5525C8.91824 19.5913 10.4027 16.3807 12.2438 15.428C12.4618 15.478 12.6999 15.6929 12.9852 16.0728C12.3838 17.2518 11.3167 19.2358 11.0255 21.3735C10.9565 22.019 10.9416 22.6811 10.991 23.3564C11.4995 29.1828 16.2601 34.3602 22.8291 34.7949Z" fill="#A2A7AA"/>
<path d="M22.7457 34.8149C25.1579 34.9036 25.6301 37.0234 23.449 37.0972C22.9929 37.1044 22.4801 37.08 21.8978 37.0115C14.0349 35.9355 9.09447 30.4348 8.85867 23.4168C8.84676 23.1197 8.84557 22.8273 8.85569 22.5379C8.98431 19.5214 10.4896 16.3893 12.2795 15.4908C12.4635 15.5789 12.663 15.8284 12.9054 16.2351C12.3117 17.4486 11.2905 19.4285 11.0226 21.5096C10.9606 22.1515 10.9499 22.8077 11.0029 23.4734C11.5477 29.31 16.375 34.4153 22.7457 34.8149Z" fill="#9FA4A7"/>
<path d="M22.6618 34.8352C25.0972 34.9156 25.4741 37.014 23.2942 37.039C22.8363 37.0372 22.3277 37.0039 21.7584 36.9324C13.9634 35.7838 9.12781 30.3985 8.91167 23.3937C8.90274 23.0995 8.90274 22.8096 8.91167 22.5237C9.04981 19.4518 10.5759 16.3984 12.3141 15.5552C12.4653 15.6791 12.6255 15.9631 12.8255 16.3966C12.239 17.6446 11.2649 19.6215 11.022 21.646C10.9648 22.2838 10.9594 22.9334 11.0148 23.592C11.5971 29.4387 16.49 34.4726 22.6618 34.8352Z" fill="#9CA1A3"/>
<path d="M22.5785 34.855C25.0359 34.9282 25.3199 37.0028 23.14 36.9825C22.6803 36.9694 22.1747 36.9295 21.618 36.8521C13.892 35.6326 9.16061 30.3641 8.96709 23.3712C8.95816 23.08 8.95938 22.7924 8.96891 22.5095C9.11539 19.3823 10.6635 16.408 12.3486 15.6184C12.4677 15.7792 12.5892 16.099 12.7458 16.5592C12.167 17.8412 11.2381 19.8151 11.0196 21.7819C10.9684 22.4173 10.9689 23.0609 11.0279 23.71C11.6454 29.5668 16.6043 34.5293 22.5785 34.855Z" fill="#989EA1"/>
<path d="M22.4956 34.8752C24.9739 34.9407 25.1638 36.9938 22.9851 36.9241C22.5236 36.9015 22.0234 36.8556 21.4762 36.7723C13.8199 35.4819 9.19394 30.3277 9.02186 23.3485C9.01292 23.0597 9.01469 22.775 9.026 22.4946C9.18141 19.3131 10.7498 16.4168 12.3849 15.6833C12.4689 15.8792 12.5517 16.2346 12.666 16.7217C12.095 18.0377 11.2119 20.0086 11.0178 21.9188C10.9719 22.5494 10.9779 23.1865 11.041 23.8278C11.6936 29.6948 16.7192 34.5852 22.4956 34.8752Z" fill="#959B9D"/>
<path d="M22.4117 34.8957C24.9125 34.9523 25.0078 36.9846 22.8303 36.8667C22.3664 36.8351 21.871 36.7797 21.3363 36.6922C13.7485 35.3304 9.22667 30.2917 9.07542 23.3256C9.06887 23.0386 9.07122 22.7575 9.08313 22.4806C9.24628 19.2432 10.8367 16.4255 12.4194 15.7467C12.4706 15.9795 12.5147 16.3689 12.5873 16.884C12.0217 18.2327 11.1857 20.2012 11.0166 22.0543C10.9755 22.6813 10.9868 23.3131 11.0535 23.9454C11.743 29.8219 16.8335 34.6421 22.4117 34.8957Z" fill="#91979A"/>
<path d="M22.3289 34.9158C24.85 34.9646 24.853 36.9743 22.6755 36.8087C22.2104 36.7682 21.7186 36.7051 21.1952 36.614C13.6771 35.1796 9.26006 30.2564 9.13025 23.3028C9.12489 23.0193 9.12786 22.7407 9.13977 22.4662C9.31245 19.1739 10.9243 16.4354 12.4552 15.8108C12.4731 16.0806 12.4784 16.5045 12.5058 17.0464C11.9491 18.4302 11.1601 20.3952 11.0131 22.1911C10.9791 22.8145 10.9964 23.4403 11.0655 24.0643C11.7925 29.9515 16.9478 34.6979 22.3289 34.9158Z" fill="#8E9496"/>
<path d="M22.2449 34.9354C24.7893 34.9764 24.6976 36.9635 22.5206 36.7515C22.0526 36.7003 21.5662 36.6294 21.0547 36.5335C13.6056 35.0283 9.29272 30.2206 9.18494 23.2806C9.17958 22.999 9.18436 22.7227 9.19686 22.4518C9.37788 19.1042 11.0106 16.4443 12.4909 15.8751C12.4748 16.1805 12.4409 16.6396 12.4272 17.2095C11.8776 18.626 11.1332 20.5886 11.0118 22.3267C10.9832 22.9466 11.0052 23.5659 11.0791 24.1816C11.8407 30.0789 17.0627 34.7543 22.2449 34.9354Z" fill="#8A9194"/>
<path d="M22.1616 34.9559C24.7279 34.9887 24.5422 36.9542 22.3665 36.6934C21.8973 36.6327 21.4143 36.5541 20.9141 36.4547C13.5335 34.8767 9.32552 30.1852 9.23978 23.2565C9.23561 22.9791 9.24033 22.7057 9.25402 22.4366C9.44278 19.0342 11.0981 16.4535 12.5254 15.9373C12.476 16.2797 12.4046 16.7739 12.3468 17.3705C11.805 18.8216 11.1065 20.7813 11.0095 22.4628C10.9868 23.0797 11.0142 23.6924 11.0916 24.3004C11.8901 30.2066 17.1771 34.8106 22.1616 34.9559Z" fill="#878D90"/>
<path d="M22.077 34.9766C24.6666 35.0004 24.3862 36.9446 22.2122 36.6361C21.7394 36.5659 21.2613 36.4801 20.7742 36.3747C13.4627 34.7259 9.35824 30.1499 9.29393 23.235C9.29095 22.9587 9.29695 22.6883 9.31065 22.424C9.50834 18.965 11.1845 16.4623 12.5606 16.0026C12.4784 16.3808 12.367 16.9107 12.2676 17.5329C11.7323 19.0186 11.0815 20.9752 11.0082 22.5996C10.991 23.2129 11.0226 23.8197 11.1035 24.4181C11.9389 30.3351 17.2914 34.8676 22.077 34.9766Z" fill="#838A8D"/>
<path d="M21.9949 34.9958C24.6041 35.0125 24.2314 36.9334 22.0574 36.578C21.584 36.4976 21.1089 36.4047 20.6331 36.2945C13.3907 34.5743 9.39222 30.1144 9.34756 23.2125C9.34577 22.938 9.3529 22.6701 9.36719 22.4087C9.57381 18.8949 11.272 16.4708 12.5963 16.0659C12.4802 16.481 12.3301 17.0443 12.1872 17.6957C11.6602 19.2135 11.0553 21.1677 11.0065 22.7356C10.9952 23.3441 11.0326 23.9449 11.1166 24.5356C11.9877 30.4627 17.4069 34.9232 21.9949 34.9958Z" fill="#81878A"/>
<path d="M21.9109 35.0165C24.5428 35.0248 24.076 36.9243 21.9026 36.52C21.4262 36.4307 20.9576 36.3289 20.4938 36.2151C13.3192 34.4228 9.42439 30.0784 9.40355 23.1903C9.40236 22.9194 9.40891 22.6532 9.42499 22.3948C9.63995 18.8268 11.359 16.4814 12.6315 16.1301C12.482 16.582 12.2933 17.1798 12.1075 17.8587C11.5877 19.411 11.0291 21.3617 11.0047 22.8717C10.9987 23.4773 11.0416 24.0722 11.1291 24.6545C12.0366 30.5911 17.5213 34.9802 21.9109 35.0165Z" fill="#7D8387"/>
<path d="M21.7484 36.4632C13.7455 34.7989 9.4577 30.4801 9.4577 23.1674C9.4577 19.0862 11.3596 16.5109 12.6672 16.1935C12.0723 17.7786 11.0029 20.9083 11.0029 23.0078C11.0029 29.8459 17.2307 35.0359 21.827 35.0359C24.4815 35.0359 23.9205 36.9145 21.7484 36.4632Z" fill="#798083"/>
<path d="M27.3856 9.69852C27.3797 9.70507 27.3743 9.71162 27.3707 9.71936L27.3452 9.78188C31.9795 11.2306 37.1796 15.2892 37.1796 21.7016C37.1796 27.2732 33.302 33.7171 23.9969 34.5162L24.0005 34.8854C33.3061 34.0845 37.4868 27.375 37.4868 21.9046C37.4868 15.494 32.8983 11.152 27.3856 9.69852Z" fill="#3C535A"/>
<path d="M27.3858 9.69982C27.3799 9.70637 27.3745 9.71292 27.3709 9.72066L27.3453 9.78318C31.9797 11.2319 37.1798 15.2905 37.1798 21.7029C37.1798 27.2745 33.3022 33.7184 23.9971 34.5175L24.0007 34.8867C33.3063 34.0858 37.487 27.3763 37.487 21.9059C37.487 15.4953 32.8985 11.1533 27.3858 9.69982Z" fill="url(#paint7_linear_0_159)"/>
<path d="M27.9732 9.26409C33.6442 10.9206 38.5662 15.1549 38.5662 22.2949C38.5662 29.6379 32.255 35.8961 24.0003 36.3219L23.9968 37.7575C31.2541 37.7575 39.613 31.7929 39.613 22.676C39.613 14.8411 34.7541 10.8855 28.9586 9.01816C28.8866 9.00208 28.7937 9.0128 28.7264 9.02233C28.6186 9.03722 28.4733 9.07295 28.3066 9.12296C28.1917 9.16346 28.0524 9.22419 27.9732 9.26409Z" fill="#DEE4E9"/>
<path d="M27.3856 9.69934C32.8983 11.1528 37.4868 15.4948 37.4868 21.9054L38.5663 22.2966C38.5663 15.1566 33.6443 10.9224 27.9733 9.26585C27.7083 9.39149 27.497 9.5737 27.3856 9.69934Z" fill="#C6DAF1"/>
<path d="M27.3858 9.70119C32.8985 11.1547 37.487 15.4967 37.487 21.9073L38.5665 22.2985C38.5665 15.1585 33.6445 10.9242 27.9735 9.2677C27.7085 9.39334 27.4972 9.57555 27.3858 9.70119Z" fill="url(#paint8_linear_0_159)"/>
<path d="M38.5662 22.2932C38.5662 29.6362 32.2604 35.8944 24.0069 36.3213V34.8833C33.3119 34.0824 37.4867 27.3723 37.4867 21.902L38.5662 22.2932Z" fill="white"/>
<path d="M38.5662 22.2917C38.5662 29.6348 32.2604 35.8929 24.0069 36.3199V34.8819C33.312 34.081 37.4867 27.3709 37.4867 21.9005L38.5662 22.2917Z" fill="url(#paint9_linear_0_159)"/>
<path d="M20.6066 9.70364C15.0934 11.1571 10.5043 15.4991 10.5043 21.9097C10.5043 27.3795 14.6932 34.0849 24.0001 34.8858V36.3232C15.7448 35.8974 9.44199 29.6393 9.44199 22.2962C9.44199 15.1562 14.3473 10.9267 20.019 9.27135C20.2238 9.36483 20.4846 9.55597 20.6066 9.70364Z" fill="#7093AE"/>
<path d="M20.6065 9.70506C15.0932 11.1586 10.5041 15.5006 10.5041 21.9112C10.5041 27.3809 14.693 34.0863 23.9999 34.8872V36.3246C15.7446 35.8988 9.4418 29.6407 9.4418 22.2976C9.4418 15.1576 14.3471 10.9281 20.0188 9.27277C20.2236 9.36625 20.4844 9.55739 20.6065 9.70506Z" fill="url(#paint10_linear_0_159)"/>
<path d="M10.8136 21.7069C10.8136 15.2928 16.0137 11.236 20.6475 9.78664L20.6225 9.72412C20.6177 9.71638 20.6129 9.70983 20.607 9.70328C15.0937 11.1568 10.5046 15.4988 10.5046 21.9094C10.5046 27.3792 14.6936 34.0845 24.0004 34.8854L23.9969 34.5162C14.6977 33.7171 10.8136 27.1761 10.8136 21.7069Z" fill="#3C535A"/>
<path d="M10.8138 21.7082C10.8138 15.2941 16.0138 11.2373 20.6476 9.78794L20.6226 9.72542C20.6178 9.71768 20.6131 9.71113 20.6071 9.70458C15.0938 11.1581 10.5048 15.5001 10.5048 21.9107C10.5048 27.3805 14.6937 34.0858 24.0006 34.8867L23.997 34.5175C14.6979 33.7184 10.8138 27.1774 10.8138 21.7082Z" fill="url(#paint11_linear_0_159)"/>
<path d="M27.3773 9.70496C28.7647 10.0712 30.0723 10.6136 31.2656 11.3174C32.4993 12.0451 33.5819 12.9281 34.4846 13.9428C35.4313 15.0062 36.1673 16.2031 36.6699 17.4964C37.2046 18.8695 37.4749 20.3516 37.4749 21.9015C37.4749 23.2913 37.1992 24.7502 36.6782 26.1203C36.1155 27.5976 35.2896 28.9481 34.2249 30.1348C33.0638 31.4293 31.652 32.485 30.0276 33.2752C28.2431 34.1434 26.2156 34.6804 23.9993 34.8716L24.0011 34.8948C26.2192 34.7031 28.2514 34.166 30.0389 33.296C31.6645 32.5047 33.0787 31.4472 34.2428 30.1503C35.3087 28.9618 36.1351 27.6077 36.699 26.1292C37.2218 24.7555 37.4987 23.2937 37.4987 21.9015C37.4987 20.3486 37.2271 18.8641 36.6912 17.4881C36.1869 16.1912 35.4509 14.9937 34.5018 13.9273C33.5979 12.9109 32.5136 12.026 31.2781 11.2978C30.086 10.5951 28.7802 10.0533 27.397 9.6853C27.3916 9.68471 27.3719 9.70317 27.3773 9.70496Z" fill="#EDF1FB"/>
<path d="M23.8678 38.4952C33.1794 38.4952 40.0002 30.2822 40.0002 22.7545C40.0002 19.9815 38.0978 13.8008 33.8987 13.8008C34.7704 14.6725 37.1867 17.564 37.1867 21.7053C37.1867 27.3907 33.3437 33.5714 24.0035 34.5146C21.5169 34.7653 19.1929 38.4952 23.8678 38.4952Z" fill="#DEE4E9"/>
<path d="M23.941 38.4209C33.1884 38.3411 39.8961 30.3002 39.8961 22.782C39.8961 19.9465 37.9949 13.9378 33.9315 13.9224C34.7902 14.828 37.1439 17.7314 37.1439 21.7745C37.1439 27.5153 33.1866 33.6484 24.0714 34.5469C21.5777 34.7857 19.3102 38.456 23.941 38.4209Z" fill="#D6DCE1"/>
<path d="M24.0137 38.3444C33.1996 38.1872 39.7918 30.316 39.7918 22.8098C39.7918 19.9117 37.8899 14.0746 33.9653 14.0442C34.8103 14.9838 37.0992 17.8985 37.0992 21.844C37.0992 27.6395 33.0293 33.7261 24.1398 34.5794C21.639 34.8063 19.4281 38.4177 24.0137 38.3444Z" fill="#CFD5DA"/>
<path d="M24.0868 38.269C33.2109 38.0332 39.6882 30.3341 39.6882 22.8374C39.6882 19.8768 37.7857 14.2117 33.9986 14.1659C34.8311 15.14 37.0557 18.0655 37.0557 21.915C37.0557 27.7647 32.8721 33.8037 24.2083 34.6124C21.6991 34.8273 19.5453 38.3786 24.0868 38.269Z" fill="#C8CED2"/>
<path d="M24.1602 38.1941C33.2211 37.8803 39.584 30.3514 39.584 22.8643C39.584 19.8424 37.6816 14.3482 34.0327 14.2874C34.852 15.2955 37.0117 18.2329 37.0117 21.9842C37.0117 27.8887 32.715 33.8812 24.2775 34.6452C21.7593 34.8483 19.6622 38.3394 24.1602 38.1941Z" fill="#C0C7CB"/>
<path d="M24.2322 38.119C33.2324 37.7266 39.4792 30.3686 39.4792 22.8922C39.4792 19.8077 37.578 14.4844 34.0666 14.4094C34.8722 15.4514 36.9694 18.4001 36.9694 22.0544C36.9694 28.0148 32.5572 33.9592 24.3459 34.6773C21.82 34.8678 19.7806 38.3018 24.2322 38.119Z" fill="#BAC0C4"/>
<path d="M24.3054 38.0432C33.2437 37.5728 39.3756 30.3846 39.3756 22.9195C39.3756 19.7719 37.4743 14.6213 34.0999 14.5314C34.8931 15.6073 36.9248 18.5661 36.9248 22.1239C36.9248 28.1392 32.4005 34.0365 24.415 34.7105C21.8801 34.8898 19.8985 38.263 24.3054 38.0432Z" fill="#B2B9BD"/>
<path d="M24.378 37.969C33.2538 37.4194 39.2713 30.4027 39.2713 22.9471C39.2713 19.7376 37.3707 14.7585 34.1339 14.6531C34.9127 15.7624 36.8807 18.7337 36.8807 22.1938C36.8807 28.2638 32.2427 34.1141 24.4828 34.7429C21.9409 34.9102 20.0152 38.2251 24.378 37.969Z" fill="#ABB2B6"/>
<path d="M24.4507 37.8925C33.2645 37.2655 39.1672 30.4197 39.1672 22.9736C39.1672 19.7028 37.2659 14.8957 34.1684 14.7748C34.9335 15.9181 36.8372 18.9013 36.8372 22.2638C36.8372 28.388 32.0849 34.1906 24.5519 34.7754C22.0022 34.9302 20.1331 38.1855 24.4507 37.8925Z" fill="#A4ABAF"/>
<path d="M24.5246 37.8174C33.2765 37.1118 39.0636 30.4374 39.0636 23.0015C39.0636 19.6676 37.1618 15.032 34.2018 14.8962C34.9545 16.074 36.7932 19.0673 36.7932 22.3334C36.7932 28.5129 31.9284 34.2686 24.6217 34.8074C22.0624 34.9515 20.2498 38.1473 24.5246 37.8174Z" fill="#9DA3A7"/>
<path d="M24.5966 37.7429C33.2866 36.9581 38.9594 30.4546 38.9594 23.0294C38.9594 19.633 37.0575 15.1689 34.2351 15.0182C34.974 16.2294 36.7503 19.2346 36.7503 22.4036C36.7503 28.6379 31.7711 34.3465 24.6889 34.8407C22.1231 34.9717 20.3678 38.1079 24.5966 37.7429Z" fill="#979DA1"/>
<path d="M24.6692 37.6667C33.2973 36.8039 38.8552 30.4719 38.8552 23.0562C38.8552 19.5978 36.9533 15.3059 34.269 15.1397C34.996 16.3848 36.7056 19.4013 36.7056 22.4733C36.7056 28.7624 31.6134 34.4239 24.758 34.8729C22.1832 34.9926 20.485 38.0698 24.6692 37.6667Z" fill="#8F9699"/>
<path d="M24.7431 37.5915C33.308 36.6519 38.7516 30.489 38.7516 23.084C38.7516 19.5631 36.8497 15.4426 34.303 15.2616C35.0151 16.5412 36.6633 19.5691 36.6633 22.5439C36.6633 28.8878 31.4568 34.5017 24.8265 34.9066C22.244 35.0144 20.6023 38.0316 24.7431 37.5915Z" fill="#888F92"/>
<path d="M24.8151 37.5168C33.3193 36.4968 38.6468 30.506 38.6468 23.1111C38.6468 19.5277 36.7455 15.5799 34.3357 15.3834C35.036 16.6964 36.6193 19.7355 36.6193 22.6128C36.6193 29.012 31.2995 34.5795 24.8955 34.9385C22.3053 35.0344 20.7202 37.9926 24.8151 37.5168Z" fill="#81878A"/>
<path d="M24.8877 37.4411C33.3294 36.3437 38.5425 30.5232 38.5425 23.1384C38.5425 19.4931 36.6413 15.7162 34.3691 15.5054C35.0568 16.8523 36.5752 19.9022 36.5752 22.6835C36.5752 29.137 31.1423 34.6568 24.964 34.9718C22.3654 35.0545 20.8375 37.9538 24.8877 37.4411Z" fill="#7A7F83"/>
<path d="M24.9616 37.3661C33.3407 36.1901 38.439 30.5405 38.439 23.1653C38.439 19.4586 36.5372 15.8526 34.4031 15.6269C35.0771 17.0083 36.5312 20.0695 36.5312 22.752C36.5312 29.2615 30.9834 34.7348 25.033 35.004C22.4268 35.0754 20.9554 37.9157 24.9616 37.3661Z" fill="#73787B"/>
<path d="M25.0343 37.2909C33.3515 36.0351 38.3347 30.5576 38.3347 23.1925C38.3347 19.4233 36.4335 15.9894 34.4363 15.7488C35.0973 17.1636 36.4883 20.2373 36.4883 22.8221C36.4883 29.3852 30.8268 34.8121 25.1021 35.036C22.4869 35.0961 21.0721 37.8769 25.0343 37.2909Z" fill="#6C7174"/>
<path d="M25.1069 37.2154C33.3616 35.8834 38.2311 30.5756 38.2311 23.22C38.2311 19.3889 36.3299 16.127 34.4703 15.8704C35.1175 17.3191 36.4442 20.4035 36.4442 22.8925C36.4442 29.5115 30.6701 34.8896 25.1694 35.0694C22.5482 35.117 21.1894 37.8376 25.1069 37.2154Z" fill="#656A6C"/>
<path d="M25.1796 37.1411C33.3729 35.7287 38.1264 30.5917 38.1264 23.2481C38.1264 19.3544 36.2245 16.2641 34.5048 15.9919C35.1378 17.4746 36.4008 20.5709 36.4008 22.9617C36.4008 29.636 30.5118 34.9671 25.2385 35.1023C22.6084 35.1386 21.308 37.7996 25.1796 37.1411Z" fill="#5D6265"/>
<path d="M25.2522 37.0651C33.3843 35.5759 38.0228 30.6098 38.0228 23.2757C38.0228 19.3195 36.1209 16.4007 34.5382 16.1142C35.1587 17.6303 36.3568 20.7385 36.3568 23.0328C36.3568 29.7595 30.3552 35.0453 25.307 35.1352C22.6692 35.1591 21.4247 37.7606 25.2522 37.0651Z" fill="#565A5C"/>
<path d="M25.3254 36.9905C33.395 35.4221 37.918 30.6257 37.918 23.3029C37.918 19.2848 36.0173 16.5374 34.5715 16.2361C35.1801 17.7861 36.3138 20.905 36.3138 23.1022C36.3138 29.885 30.198 35.1226 25.376 35.1672C22.7299 35.1791 21.542 37.7223 25.3254 36.9905Z" fill="#4F5355"/>
<path d="M25.3986 36.9148C33.405 35.2678 37.8143 30.6447 37.8143 23.3308C37.8143 19.249 35.913 16.6749 34.6054 16.3575C35.1997 17.942 36.2697 21.0723 36.2697 23.1719C36.2697 30.01 30.0407 35.1999 25.4445 35.1999C22.7899 35.1999 21.6592 37.6829 25.3986 36.9148Z" fill="#474B4C"/>
<path d="M23.997 37.7787C25.9578 37.7787 28.0294 37.3393 29.9872 36.5086C31.9778 35.6643 33.8225 34.4252 35.3218 32.927C36.664 31.5837 37.7167 30.0599 38.4515 28.3957C39.2422 26.5998 39.643 24.6765 39.643 22.6799C39.643 20.7936 39.3572 19.0483 38.7921 17.4954C38.2681 16.0526 37.4922 14.742 36.4835 13.5988C34.7073 11.5808 32.1808 10.0338 28.9737 9.00011C28.9624 8.99714 28.9499 9.00309 28.9458 9.015C28.9416 9.02631 28.9488 9.03942 28.9601 9.04299C32.1594 10.0743 34.6793 11.6165 36.4508 13.6273C37.4547 14.767 38.2276 16.074 38.751 17.5103C39.3137 19.059 39.5989 20.7983 39.5989 22.6799C39.5989 24.8587 39.122 26.9422 38.1806 28.8726C37.3124 30.6512 36.0804 32.2494 34.5162 33.6201C33.0561 34.9009 31.3186 35.9531 29.4918 36.6611C27.687 37.3631 25.7857 37.7341 23.997 37.7341C23.9845 37.7341 23.9755 37.7436 23.9755 37.7567C23.9755 37.7686 23.9845 37.7787 23.997 37.7787Z" fill="#E5E6E6"/>
<path d="M20.6033 9.68831C19.2087 10.0557 17.894 10.6005 16.6953 11.3085C15.4616 12.0368 14.3796 12.921 13.4769 13.9362C12.532 15.0015 11.7972 16.1989 11.2946 17.4952C10.7599 18.8713 10.4902 20.3558 10.4902 21.9081C10.4902 23.3009 10.7677 24.7633 11.2916 26.1358C11.8549 27.6143 12.6832 28.9677 13.7514 30.1568C16.2106 32.8941 19.7548 34.5328 23.9985 34.8996L24.0015 34.8698C19.7643 34.5048 16.2279 32.8685 13.7741 30.1366C12.7076 28.9505 11.8817 27.6012 11.319 26.1257C10.7962 24.7555 10.5199 23.2967 10.5199 21.9081C10.5199 20.3593 10.7891 18.8779 11.322 17.5065C11.8234 16.2132 12.5564 15.0194 13.499 13.9559C14.3999 12.9418 15.48 12.06 16.7096 11.3341C17.9065 10.6279 19.2272 10.0837 20.6199 9.71629L20.6033 9.68831Z" fill="#EDF1FB"/>
<path d="M28.2346 9.87865C29.6767 9.90187 30.5622 10.1174 31.9948 11.0064C30.5389 10.9522 29.3004 10.3336 28.2346 9.87865Z" fill="#E5E6E6"/>
<path d="M31.9951 11.0042C30.5624 10.1152 29.677 9.89964 28.2349 9.87641C29.7003 10.1938 30.6625 10.4873 31.9951 11.0042Z" fill="#232E30"/>
<path d="M31.9953 11.0024C30.5627 10.1134 29.6773 9.89784 28.2351 9.87461C29.7005 10.192 30.6627 10.4855 31.9953 11.0024Z" fill="url(#paint12_linear_0_159)"/>
<path d="M32.0952 10.3195C32.6032 11.2162 33.535 12.0737 34.6521 12.8847C34.19 11.7652 33.9745 11.2942 32.0952 10.3195Z" fill="#7093AE"/>
<path d="M32.095 10.3204C32.6029 11.2171 33.5348 12.0746 34.6519 12.8856C34.1898 11.7661 33.9743 11.2951 32.095 10.3204Z" fill="url(#paint13_linear_0_159)"/>
<path d="M34.6521 12.8847C33.9209 11.9736 33.1498 11.0531 32.0952 10.3195C32.6032 11.2162 33.535 12.0737 34.6521 12.8847Z" fill="#232E30"/>
<path d="M34.6519 12.8856C33.9206 11.9746 33.1496 11.054 32.095 10.3204C32.6029 11.2171 33.5348 12.0746 34.6519 12.8856Z" fill="url(#paint14_linear_0_159)"/>
<path d="M33.5422 12.9171C34.7325 13.2416 35.3339 13.4733 36.2932 14.8863C34.8838 14.3075 34.6051 14.0407 33.5422 12.9171Z" fill="#9CB3CF"/>
<path d="M33.5421 12.9188C34.7324 13.2433 35.3338 13.475 36.2931 14.888C34.8837 14.3092 34.605 14.0424 33.5421 12.9188Z" fill="url(#paint15_linear_0_159)"/>
<path d="M33.5422 12.9171C34.3294 13.3214 35.3304 14.0157 36.2932 14.8863C35.3339 13.4733 34.7325 13.2416 33.5422 12.9171Z" fill="#232E30"/>
<path d="M33.5421 12.9188C34.3293 13.3231 35.3302 14.0174 36.2931 14.888C35.3338 13.475 34.7324 13.2433 33.5421 12.9188Z" fill="url(#paint16_linear_0_159)"/>
<path d="M36.2598 13.4725C36.3854 14.6544 36.8821 15.8828 37.6681 17.0648C37.6454 15.859 37.7603 14.8855 36.2598 13.4725Z" fill="#9CB3CF"/>
<path d="M36.2595 13.4736C36.3852 14.6556 36.8818 15.884 37.6678 17.066C37.6452 15.8602 37.7601 14.8866 36.2595 13.4736Z" fill="url(#paint17_linear_0_159)"/>
<path d="M36.184 16.2135C37.4827 17.1864 38.0305 17.9903 38.2615 19.5099C37.5166 18.7168 36.9087 18.0743 36.184 16.2135Z" fill="#9CB3CF"/>
<path d="M36.1842 16.2126C37.4829 17.1855 38.0307 17.9894 38.2618 19.509C37.5169 18.7158 36.9089 18.0733 36.1842 16.2126Z" fill="url(#paint18_linear_0_159)"/>
<path d="M36.184 16.2135C37.1814 17.3693 37.7072 18.2547 38.2615 19.5099C38.0305 17.9903 37.4827 17.1864 36.184 16.2135Z" fill="#232E30"/>
<path d="M36.1842 16.2126C37.1816 17.3683 37.7074 18.2538 38.2618 19.509C38.0307 17.9894 37.4829 17.1855 36.1842 16.2126Z" fill="url(#paint19_linear_0_159)"/>
<path d="M39.159 19.0318C38.9631 19.8434 38.7422 20.0524 38.6725 20.6776C38.6041 21.304 38.6279 22.4515 38.5928 23.2392C38.9971 22.405 39.9909 21.5815 39.159 19.0318Z" fill="#9CB3CF"/>
<path d="M39.1588 19.0303C38.9629 19.8419 38.742 20.0509 38.6723 20.6762C38.6038 21.3026 38.6277 22.45 38.5926 23.2378C38.9969 22.4036 39.9906 21.5801 39.1588 19.0303Z" fill="url(#paint20_linear_0_159)"/>
<path d="M38.6725 20.6776C38.6041 21.304 38.6279 22.4515 38.5928 23.2392C39.0733 21.6417 39.2221 20.5204 39.159 19.0318C38.9631 19.8434 38.7422 20.0524 38.6725 20.6776Z" fill="#232E30"/>
<path d="M38.6723 20.6762C38.6038 21.3026 38.6277 22.45 38.5926 23.2378C39.0731 21.6402 39.2219 20.519 39.1588 19.0303C38.9629 19.8419 38.742 20.0509 38.6723 20.6762Z" fill="url(#paint21_linear_0_159)"/>
<path d="M37.6107 22.1392C37.9578 23.2634 38.72 24.2834 37.8536 26.3228C37.8072 25.3612 37.1248 24.758 37.6107 22.1392Z" fill="#9CB3CF"/>
<path d="M37.6109 22.1385C37.958 23.2627 38.7202 24.2827 37.8538 26.3221C37.8074 25.3604 37.125 24.7573 37.6109 22.1385Z" fill="url(#paint22_linear_0_159)"/>
<path d="M37.8535 26.3228C38.7199 24.2834 37.9578 23.2634 37.6106 22.1392C37.7893 23.8636 38.0715 24.8961 37.8535 26.3228Z" fill="#232E30"/>
<path d="M37.8537 26.3221C38.7201 24.2827 37.9579 23.2627 37.6108 22.1385C37.7894 23.8629 38.0716 24.8954 37.8537 26.3221Z" fill="url(#paint23_linear_0_159)"/>
<path d="M39.2515 25.7916C38.7198 26.546 37.8766 26.78 36.6053 29.1868C38.3262 28.3074 38.8698 27.5184 39.2515 25.7916Z" fill="#9CB3CF"/>
<path d="M39.2514 25.7932C38.7197 26.5476 37.8766 26.7816 36.6053 29.1884C38.3261 28.309 38.8698 27.52 39.2514 25.7932Z" fill="url(#paint24_linear_0_159)"/>
<path d="M36.6053 29.1868C37.9749 27.9072 38.6942 27.0748 39.2515 25.7916C38.7198 26.546 37.8766 26.78 36.6053 29.1868Z" fill="#232E30"/>
<path d="M36.6053 29.1884C37.9748 27.9088 38.6941 27.0764 39.2514 25.7932C38.7197 26.5476 37.8766 26.7816 36.6053 29.1884Z" fill="url(#paint25_linear_0_159)"/>
<path d="M36.5402 26.7138C35.9935 27.7415 35.7553 28.3138 35.6547 28.6454C35.5541 28.9771 35.4963 30.3395 35.4272 30.6259C36.1984 29.753 36.3162 29.1295 36.3936 28.7824C36.4692 28.4346 36.5783 27.4784 36.5402 26.7138Z" fill="#9CB3CF"/>
<path d="M36.5404 26.7142C35.9938 27.742 35.7556 28.3142 35.6549 28.6459C35.5543 28.9775 35.4966 30.3399 35.4275 30.6263C36.1986 29.7534 36.3164 29.13 36.3939 28.7828C36.4695 28.4351 36.5785 27.4788 36.5404 26.7142Z" fill="url(#paint26_linear_0_159)"/>
<path d="M35.4272 30.6268C35.8435 29.63 36.318 27.8776 36.5402 26.7147C35.9935 27.7424 35.7553 28.3146 35.6547 28.6463C35.557 28.9673 35.4963 30.3404 35.4272 30.6268C35.4284 30.6262 35.4272 30.6274 35.4272 30.6268Z" fill="#232E30"/>
<path d="M35.4275 30.6277C35.8437 29.6309 36.3183 27.8785 36.5404 26.7156C35.9938 27.7434 35.7556 28.3156 35.6549 28.6473C35.5573 28.9682 35.4966 30.3413 35.4275 30.6277C35.4287 30.6271 35.4275 30.6283 35.4275 30.6277Z" fill="url(#paint27_linear_0_159)"/>
<path d="M33.8515 30.6003C33.1268 31.2797 32.6957 31.6971 32.3491 32.2383C32.0026 32.7796 31.9025 33.409 31.5399 33.9413C33.4816 32.86 33.5204 31.6352 33.8515 30.6003Z" fill="#9CB3CF"/>
<path d="M33.8515 30.6003C33.1268 31.2797 32.6957 31.6971 32.3491 32.2383C32.0026 32.7796 31.9025 33.409 31.5399 33.9413C33.4816 32.86 33.5204 31.6352 33.8515 30.6003Z" fill="url(#paint28_linear_0_159)"/>
<path d="M32.3491 32.2383C32.0026 32.7796 31.9025 33.409 31.5399 33.9413C32.3366 33.1732 33.2268 31.8209 33.8515 30.6003C33.1268 31.2797 32.6957 31.6971 32.3491 32.2383Z" fill="#232E30"/>
<path d="M32.3491 32.2383C32.0026 32.7796 31.9025 33.409 31.5399 33.9413C32.3366 33.1732 33.2268 31.8209 33.8515 30.6003C33.1268 31.2797 32.6957 31.6971 32.3491 32.2383Z" fill="url(#paint29_linear_0_159)"/>
<path d="M36.779 31.0696C36.1717 31.3435 35.5863 31.44 34.9635 31.7127C34.3412 31.9872 33.575 32.7404 33.1153 33.0441C34.7706 32.9357 35.977 32.4034 36.779 31.0696Z" fill="#9CB3CF"/>
<path d="M36.7788 31.0682C36.1714 31.3421 35.5861 31.4386 34.9632 31.7113C34.341 31.9858 33.5747 32.739 33.115 33.0427C34.7704 32.9343 35.9767 32.402 36.7788 31.0682Z" fill="url(#paint30_linear_0_159)"/>
<path d="M26.5802 35.9063C27.1584 35.3728 27.3382 34.8738 27.8926 34.4451C28.4469 34.0163 29.3604 33.5537 29.9481 33.3792C29.2675 34.2027 28.4059 35.5466 26.5802 35.9063Z" fill="#9CB3CF"/>
<path d="M26.58 35.9044C27.1582 35.3708 27.338 34.8719 27.8924 34.4431C28.4468 34.0144 29.3602 33.5517 29.9479 33.3773C29.2673 34.2008 28.4057 35.5447 26.58 35.9044Z" fill="url(#paint31_linear_0_159)"/>
<path d="M26.5802 35.9063C28.0129 35.1239 28.6447 34.2247 29.9481 33.3792C29.3604 33.5537 28.4469 34.0163 27.8926 34.4451C27.3382 34.8738 27.1584 35.3728 26.5802 35.9063Z" fill="#232E30"/>
<path d="M26.58 35.9044C28.0127 35.1219 28.6445 34.2228 29.9479 33.3773C29.3602 33.5517 28.4468 34.0144 27.8924 34.4431C27.338 34.8719 27.1582 35.3708 26.58 35.9044Z" fill="url(#paint32_linear_0_159)"/>
<path d="M30.6777 35.5951C29.4409 35.6755 29.22 35.4611 28.6204 35.4551C30.4234 34.737 30.7468 34.6793 32.8964 34.8186C32.1913 35.3748 31.5083 35.5284 30.6777 35.5951Z" fill="#9CB3CF"/>
<path d="M30.6777 35.5951C29.4409 35.6755 29.22 35.4611 28.6204 35.4551C30.4234 34.737 30.7468 34.6793 32.8964 34.8186C32.1913 35.3748 31.5083 35.5284 30.6777 35.5951Z" fill="url(#paint33_linear_0_159)"/>
<path d="M28.6202 35.4531C30.1345 35.0137 31.5439 35.3382 32.8962 34.8166C30.7466 34.6773 30.4233 34.735 28.6202 35.4531Z" fill="#232E30"/>
<path d="M28.6201 35.4512C30.1343 35.0118 31.5437 35.3363 32.896 34.8147C30.7464 34.6753 30.4231 34.7331 28.6201 35.4512Z" fill="url(#paint34_linear_0_159)"/>
<path d="M26.5632 37.1234C25.364 37.0329 24.5965 36.5441 24.0909 36.3481C25.2914 36.238 26.4846 36.1511 27.2337 36.2898C27.9988 36.4303 28.3144 36.7995 28.8634 36.8227C27.9387 37.1478 27.1986 37.1717 26.5632 37.1234Z" fill="#9CB3CF"/>
<path d="M26.5633 37.1224C25.3641 37.0319 24.5965 36.5431 24.091 36.3472C25.2914 36.237 26.4847 36.1501 27.2338 36.2888C27.9989 36.4293 28.3145 36.7985 28.8635 36.8217C27.9387 37.1468 27.1986 37.1707 26.5633 37.1224Z" fill="url(#paint35_linear_0_159)"/>
<path d="M24.0909 36.349C25.6736 36.533 27.0026 36.8122 28.8634 36.8236C28.3144 36.8003 27.9988 36.4312 27.2337 36.2906C26.4846 36.1519 25.2914 36.2388 24.0909 36.349Z" fill="#232E30"/>
<path d="M24.091 36.3487C25.6737 36.5326 27.0027 36.8119 28.8635 36.8232C28.3145 36.8 27.9989 36.4308 27.2338 36.2903C26.4847 36.1516 25.2914 36.2385 24.091 36.3487Z" fill="url(#paint36_linear_0_159)"/>
<path d="M33.1153 33.0441C34.0745 32.513 35.4857 32.1908 36.779 31.0696C36.1717 31.3435 35.5863 31.44 34.9635 31.7127C34.3412 31.9872 33.575 32.7404 33.1153 33.0441Z" fill="#232E30"/>
<path d="M33.115 33.0427C34.0743 32.5116 35.4855 32.1894 36.7788 31.0682C36.1714 31.3421 35.5861 31.4386 34.9632 31.7113C34.341 31.9858 33.5747 32.739 33.115 33.0427Z" fill="url(#paint37_linear_0_159)"/>
<path d="M36.2598 13.4725C36.3854 14.6544 36.8821 15.8828 37.6681 17.0648C37.3507 15.5756 36.9344 14.8468 36.2598 13.4725Z" fill="#232E30"/>
<path d="M36.2595 13.4736C36.3852 14.6556 36.8818 15.884 37.6678 17.066C37.3505 15.5767 36.9342 14.8479 36.2595 13.4736Z" fill="url(#paint38_linear_0_159)"/>
<path d="M19.772 9.87641C18.3322 9.89964 17.4462 10.1152 16.0135 11.0042C17.4688 10.95 18.7085 10.3313 19.772 9.87641Z" fill="#F1F5FC"/>
<path d="M19.7719 9.87461C18.3321 9.89784 17.4461 10.1134 16.0135 11.0024C17.4687 10.9482 18.7085 10.3295 19.7719 9.87461Z" fill="url(#paint39_radial_0_159)"/>
<path d="M16.0135 11.0042C17.4462 10.1152 18.3322 9.89964 19.772 9.87641C18.334 10.2087 17.3461 10.4873 16.0135 11.0042Z" fill="#232E30"/>
<path d="M16.0135 11.0024C17.4461 10.1134 18.3321 9.89784 19.7719 9.87461C18.3339 10.2069 17.3461 10.4855 16.0135 11.0024Z" fill="url(#paint40_linear_0_159)"/>
<path d="M15.913 10.3195C15.4057 11.2162 14.4732 12.0737 13.3556 12.8847C13.8176 11.7652 14.0332 11.2942 15.913 10.3195Z" fill="#232E30"/>
<path d="M15.9131 10.3204C15.4058 11.2171 14.4733 12.0746 13.3556 12.8856C13.8177 11.7661 14.0333 11.2951 15.9131 10.3204Z" fill="url(#paint41_linear_0_159)"/>
<path d="M13.3556 12.8847C14.2321 11.9308 14.5828 11.371 15.913 10.3195C15.4057 11.2162 14.4732 12.0737 13.3556 12.8847Z" fill="#587089"/>
<path d="M13.3556 12.8856C14.2321 11.9317 14.5829 11.372 15.9131 10.3204C15.4058 11.2171 14.4733 12.0746 13.3556 12.8856Z" fill="url(#paint42_linear_0_159)"/>
<path d="M14.4642 12.9171C13.2751 13.2416 12.6738 13.4733 11.7139 14.8863C13.1239 14.3075 13.4025 14.0407 14.4642 12.9171Z" fill="#F1F5FC"/>
<path d="M14.4642 12.9188C13.2751 13.2433 12.6738 13.475 11.7139 14.888C13.1239 14.3092 13.4025 14.0424 14.4642 12.9188Z" fill="url(#paint43_radial_0_159)"/>
<path d="M14.4642 12.9171C13.6788 13.3214 12.6881 14.0532 11.7139 14.8863C12.6738 13.4733 13.2751 13.2416 14.4642 12.9171Z" fill="#232E30"/>
<path d="M14.4642 12.9188C13.6788 13.3231 12.6881 14.0549 11.7139 14.888C12.6738 13.475 13.2751 13.2433 14.4642 12.9188Z" fill="url(#paint44_linear_0_159)"/>
<path d="M11.7493 13.4725C11.6219 14.6544 11.1998 15.8316 10.3394 17.0648C10.3632 15.859 10.3345 14.9164 11.7493 13.4725Z" fill="#9CB3CF"/>
<path d="M11.7491 13.4736C11.6217 14.6556 11.1995 15.8328 10.3391 17.066C10.3629 15.8602 10.3343 14.9176 11.7491 13.4736Z" fill="url(#paint45_linear_0_159)"/>
<path d="M11.7493 13.4725C11.6219 14.6544 11.1164 15.8816 10.3394 17.0648C10.7443 15.4071 11.1932 14.7854 11.7493 13.4725Z" fill="#232E30"/>
<path d="M11.7491 13.4736C11.6217 14.6556 11.1162 15.8828 10.3391 17.066C10.744 15.4082 11.1929 14.7866 11.7491 13.4736Z" fill="url(#paint46_linear_0_159)"/>
<path d="M11.8309 16.2187C10.5245 17.1809 9.96957 17.98 9.72662 19.4984C10.4781 18.7106 11.0908 18.0729 11.8309 16.2187Z" fill="#F1F5FC"/>
<path d="M11.8307 16.2198C10.5243 17.1821 9.96935 17.9812 9.72641 19.4996C10.4779 18.7118 11.0905 18.0741 11.8307 16.2198Z" fill="url(#paint47_radial_0_159)"/>
<path d="M11.8309 16.2187C11.1086 16.9916 9.89394 18.9571 9.72662 19.4984C9.96957 17.98 10.5245 17.1809 11.8309 16.2187Z" fill="#232E30"/>
<path d="M11.8307 16.2198C11.1084 16.9927 9.89373 18.9583 9.72641 19.4996C9.96935 17.9812 10.5243 17.1821 11.8307 16.2198Z" fill="url(#paint48_linear_0_159)"/>
<path d="M9.3338 20.6776C9.40346 21.304 9.38023 22.4515 9.41477 23.2392C8.97354 21.9162 8.92119 20.5425 8.84854 19.0318C9.04444 19.8434 9.26472 20.0524 9.3338 20.6776Z" fill="#232E30"/>
<path d="M9.33377 20.6762C9.40343 21.3026 9.3802 22.45 9.41474 23.2378C8.97351 21.9147 8.92116 20.541 8.84851 19.0303C9.04441 19.8419 9.26469 20.0509 9.33377 20.6762Z" fill="url(#paint49_linear_0_159)"/>
<path d="M10.3972 22.1392C10.0507 23.2634 9.28791 24.2834 10.1543 26.3228C10.2013 25.3612 10.8825 24.758 10.3972 22.1392Z" fill="#F1F5FC"/>
<path d="M10.3971 22.1385C10.0505 23.2627 9.28779 24.2827 10.1542 26.3221C10.2012 25.3604 10.8824 24.7573 10.3971 22.1385Z" fill="url(#paint50_radial_0_159)"/>
<path d="M10.1543 26.3228C9.28791 24.2834 10.0507 23.2634 10.3972 22.1392C10.3633 23.9011 9.87264 24.8961 10.1543 26.3228Z" fill="#232E30"/>
<path d="M10.1542 26.3221C9.28779 24.2827 10.0505 23.2627 10.3971 22.1385C10.3631 23.9004 9.87252 24.8954 10.1542 26.3221Z" fill="url(#paint51_linear_0_159)"/>
<path d="M8.75681 25.7916C9.28795 26.546 10.1317 26.78 11.403 29.1868C9.68092 28.3074 9.1373 27.5184 8.75681 25.7916Z" fill="#9CB3CF"/>
<path d="M8.75677 25.7932C9.28791 26.5476 10.1316 26.7816 11.4029 29.1884C9.68089 28.309 9.13727 27.52 8.75677 25.7932Z" fill="url(#paint52_linear_0_159)"/>
<path d="M11.4685 26.7138C12.0145 27.7415 12.2538 28.3138 12.3538 28.6454C12.4539 28.9771 12.5116 30.3395 12.5807 30.6259C11.8102 29.753 11.5988 29.148 11.522 28.8009C11.4452 28.4525 11.4297 27.4784 11.4685 26.7138Z" fill="#232E30"/>
<path d="M11.4683 26.7142C12.0144 27.742 12.2537 28.3142 12.3537 28.6459C12.4538 28.9775 12.5115 30.3399 12.5806 30.6263C11.8101 29.7534 11.5987 29.1484 11.5219 28.8013C11.4451 28.453 11.4296 27.4788 11.4683 26.7142Z" fill="url(#paint53_linear_0_159)"/>
<path d="M12.5806 30.6268C12.0048 29.764 11.8179 27.8031 11.4683 26.7147C12.0143 27.7424 12.2537 28.3146 12.3537 28.6463C12.4502 28.9673 12.5115 30.3404 12.5806 30.6268C12.5806 30.6274 12.58 30.6262 12.5806 30.6268Z" fill="#F1F5FC"/>
<path d="M12.5804 30.6277C12.0046 29.7649 11.8176 27.8041 11.4681 26.7156C12.0141 27.7434 12.2535 28.3156 12.3535 28.6473C12.45 28.9682 12.5113 30.3413 12.5804 30.6277C12.5804 30.6283 12.5798 30.6271 12.5804 30.6277Z" fill="url(#paint54_radial_0_159)"/>
<path d="M14.1557 30.6003C14.881 31.2797 15.3121 31.6971 15.6587 32.2383C16.0058 32.7796 16.1064 33.409 16.4685 33.9413C14.5261 32.86 14.4886 31.6352 14.1557 30.6003Z" fill="#232E30"/>
<path d="M14.1557 30.6003C14.881 31.2797 15.3121 31.6971 15.6587 32.2383C16.0058 32.7796 16.1064 33.409 16.4685 33.9413C14.5261 32.86 14.4886 31.6352 14.1557 30.6003Z" fill="url(#paint55_linear_0_159)"/>
<path d="M15.6587 32.2383C16.0058 32.7796 16.1064 33.409 16.4685 33.9413C16.0171 33.6442 14.6142 31.4946 14.1557 30.6003C14.881 31.2797 15.3121 31.6971 15.6587 32.2383Z" fill="#F1F5FC"/>
<path d="M15.6587 32.2383C16.0058 32.7796 16.1064 33.409 16.4685 33.9413C16.0171 33.6442 14.6142 31.4946 14.1557 30.6003C14.881 31.2797 15.3121 31.6971 15.6587 32.2383Z" fill="url(#paint56_radial_0_159)"/>
<path d="M11.2296 31.0691C11.8375 31.3401 12.4234 31.4329 13.0475 31.7027C13.6709 31.9736 14.4414 32.7221 14.904 33.024C13.2475 32.9234 12.0376 32.397 11.2296 31.0691Z" fill="#9CB3CF"/>
<path d="M11.2294 31.0675C11.8373 31.3384 12.4232 31.4313 13.0473 31.701C13.6707 31.9719 14.4412 32.7204 14.9038 33.0223C13.2473 32.9217 12.0374 32.3953 11.2294 31.0675Z" fill="url(#paint57_linear_0_159)"/>
<path d="M14.904 33.024C13.94 32.4988 12.6229 32.1368 11.2296 31.0691C11.8375 31.3401 12.4234 31.4329 13.0475 31.7027C13.6709 31.9736 14.4414 32.7221 14.904 33.024Z" fill="#232E30"/>
<path d="M14.9038 33.0223C13.9398 32.4971 12.6227 32.1351 11.2294 31.0675C11.8373 31.3384 12.4232 31.4313 13.0473 31.701C13.6707 31.9719 14.4412 32.7204 14.9038 33.0223Z" fill="url(#paint58_linear_0_159)"/>
<path d="M21.4282 35.9063C20.8494 35.3728 20.6702 34.8738 20.1159 34.4451C19.5609 34.0163 18.648 33.5537 18.0585 33.3792C18.7403 34.2027 19.6014 35.5466 21.4282 35.9063Z" fill="#232E30"/>
<path d="M21.4284 35.9044C20.8496 35.3708 20.6704 34.8719 20.1161 34.4431C19.5611 34.0144 18.6482 33.5517 18.0587 33.3773C18.7405 34.2008 19.6016 35.5447 21.4284 35.9044Z" fill="url(#paint59_linear_0_159)"/>
<path d="M21.4282 35.9063C20.1986 35.2281 19.4775 34.2926 18.0585 33.3792C18.648 33.5537 19.5609 34.0163 20.1159 34.4451C20.6702 34.8738 20.8494 35.3728 21.4282 35.9063Z" fill="#F1F5FC"/>
<path d="M21.4284 35.9044C20.1988 35.2261 19.4777 34.2907 18.0587 33.3773C18.6482 33.5517 19.5611 34.0144 20.1161 34.4431C20.6704 34.8719 20.8496 35.3708 21.4284 35.9044Z" fill="url(#paint60_radial_0_159)"/>
<path d="M17.3307 35.5951C18.5668 35.6755 18.7889 35.4611 19.3879 35.4551C17.5855 34.737 17.261 34.6793 15.112 34.8186C15.817 35.3748 16.4994 35.5284 17.3307 35.5951Z" fill="#9CB3CF"/>
<path d="M17.3307 35.5951C18.5668 35.6755 18.7889 35.4611 19.3879 35.4551C17.5855 34.737 17.261 34.6793 15.112 34.8186C15.817 35.3748 16.4994 35.5284 17.3307 35.5951Z" fill="url(#paint61_linear_0_159)"/>
<path d="M19.3881 35.4531C17.806 35.1352 16.4639 35.3382 15.1122 34.8166C17.2612 34.6773 17.5857 34.735 19.3881 35.4531Z" fill="#232E30"/>
<path d="M19.3883 35.4512C17.8062 35.1332 16.4641 35.3363 15.1124 34.8147C17.2614 34.6753 17.5859 34.7331 19.3883 35.4512Z" fill="url(#paint62_linear_0_159)"/>
<path d="M21.4434 37.1234C22.6439 37.0329 23.4114 36.5441 23.9169 36.3481C22.7171 36.238 21.5244 36.1511 20.7741 36.2898C20.009 36.4303 19.6934 36.7995 19.1444 36.8227C20.0692 37.1478 20.8093 37.1717 21.4434 37.1234Z" fill="#9CB3CF"/>
<path d="M21.4434 37.1224C22.6438 37.0319 23.4113 36.5431 23.9169 36.3472C22.717 36.237 21.5244 36.1501 20.7741 36.2888C20.009 36.4293 19.6934 36.7985 19.1444 36.8217C20.0691 37.1468 20.8093 37.1707 21.4434 37.1224Z" fill="url(#paint63_linear_0_159)"/>
<path d="M23.9169 36.349C22.3342 36.533 21.0052 36.8122 19.1444 36.8236C19.6934 36.8003 20.009 36.4312 20.7741 36.2906C21.5244 36.1519 22.7171 36.2388 23.9169 36.349Z" fill="#232E30"/>
<path d="M23.9169 36.3487C22.3342 36.5326 21.0052 36.8119 19.1444 36.8232C19.6934 36.8 20.009 36.4308 20.7741 36.2903C21.5244 36.1516 22.717 36.2385 23.9169 36.3487Z" fill="url(#paint64_linear_0_159)"/>
<path d="M11.403 29.1868C10.5783 28.3609 9.27782 27.1933 8.75681 25.7916C9.28795 26.546 10.1317 26.78 11.403 29.1868Z" fill="#232E30"/>
<path d="M11.4029 29.1884C10.5782 28.3626 9.27779 27.1949 8.75677 25.7932C9.28791 26.5476 10.1316 26.7816 11.4029 29.1884Z" fill="url(#paint65_linear_0_159)"/>
<path d="M32.8975 34.8082C30.7628 34.6695 30.4437 34.7177 28.6151 35.4471C28.6073 35.4495 28.6032 35.4584 28.6061 35.465C28.6097 35.4733 28.6186 35.4769 28.6258 35.4745C30.4484 34.7481 30.7676 34.6998 32.8945 34.8374C32.9035 34.8392 32.9106 34.8308 32.9106 34.8231C32.9112 34.8154 32.9047 34.8082 32.8975 34.8082Z" fill="#818384"/>
<path d="M36.7681 31.0482C36.4626 31.1857 36.1554 31.281 35.8577 31.3721C35.5653 31.462 35.2622 31.5555 34.9544 31.6907C34.5512 31.8693 34.0922 32.2421 33.6873 32.5713C33.4694 32.7494 33.2645 32.9167 33.1008 33.0239L33.0805 33.0382L33.1079 33.0798L33.1288 33.0656C33.2937 32.9566 33.4997 32.7887 33.7183 32.61C34.1214 32.2819 34.5769 31.911 34.9741 31.7377C35.2801 31.6025 35.5814 31.5091 35.872 31.4191C36.1715 31.3274 36.48 31.2328 36.7884 31.0934L36.8116 31.0827L36.7914 31.0381L36.7681 31.0482Z" fill="#88898A"/>
<path d="M38.2738 19.4995L38.2625 19.4888C37.5123 18.6885 36.9198 18.0573 36.1993 16.2097C36.1951 16.2007 36.1868 16.1966 36.1785 16.1995C36.1695 16.2031 36.1654 16.212 36.1689 16.221C36.8918 18.0758 37.4861 18.7093 38.2387 19.5108L38.25 19.5227C38.2554 19.5293 38.2661 19.5299 38.2733 19.5233C38.2798 19.5174 38.2804 19.5061 38.2738 19.4995Z" fill="#D0D1D3"/>
<path d="M37.7102 17.0647L37.7066 16.7872C37.6959 15.6981 37.6864 14.7579 36.2871 13.4426L36.2299 13.5027C37.6024 14.7948 37.6113 15.7184 37.6232 16.7878L37.6268 17.0659L37.7102 17.0647Z" fill="#EBF1FB"/>
<path d="M36.2993 14.8694C34.9012 14.2948 34.6249 14.0352 33.5555 12.9039C33.5483 12.8967 33.5382 12.8967 33.5305 12.9027C33.5245 12.9086 33.5245 12.9193 33.5305 12.9259C34.6053 14.062 34.8815 14.3222 36.2868 14.8998C36.2951 14.904 36.3047 14.8998 36.3088 14.8915C36.3124 14.8825 36.3088 14.873 36.2993 14.8694Z" fill="#C3C4C6"/>
<path d="M15.1132 34.8329C17.2396 34.6948 17.5593 34.743 19.3814 35.4695C19.3897 35.4724 19.3981 35.4689 19.4016 35.4611C19.4046 35.4534 19.4011 35.445 19.3933 35.4421C17.5641 34.7132 17.2449 34.665 15.1108 34.8032C15.1031 34.8049 15.0966 34.8115 15.0966 34.8192C15.0972 34.8276 15.1049 34.8335 15.1132 34.8329Z" fill="#939596"/>
<path d="M19.1462 36.8378C19.4285 36.8253 19.6464 36.7247 19.8995 36.6086C20.1353 36.4978 20.4032 36.374 20.7777 36.3043C21.5375 36.1644 22.7445 36.2567 23.9158 36.3632C23.9235 36.3638 23.9312 36.3579 23.9324 36.3495C23.9336 36.3418 23.9277 36.3341 23.9181 36.3329C22.7445 36.2269 21.5346 36.134 20.7712 36.2751C20.3949 36.3454 20.1245 36.4704 19.8864 36.5812C19.6357 36.6961 19.4207 36.7961 19.1444 36.808C19.1361 36.808 19.1295 36.8152 19.1301 36.8235C19.1307 36.8319 19.1367 36.8378 19.1462 36.8378Z" fill="#838486"/>
<path d="M28.8872 36.8378C28.6049 36.8253 28.3864 36.7247 28.1339 36.6086C27.8975 36.4978 27.6296 36.374 27.2562 36.3043C26.4952 36.1644 25.2883 36.2567 24.1176 36.3632C24.1087 36.3638 24.1021 36.3579 24.1003 36.3495C24.0998 36.3418 24.1063 36.3341 24.1146 36.3329C25.2883 36.2269 26.4976 36.134 27.2616 36.2751C27.6391 36.3454 27.9082 36.4704 28.147 36.5812C28.3971 36.6961 28.6115 36.7961 28.8889 36.808C28.8973 36.808 28.9032 36.8152 28.9032 36.8235C28.9032 36.8319 28.8961 36.8378 28.8872 36.8378Z" fill="#838486"/>
<path d="M8.83424 19.0372C8.92355 19.4039 9.01645 19.6469 9.09862 19.8624C9.19687 20.1185 9.28142 20.3394 9.31953 20.6812C9.3618 21.0647 9.37014 21.6512 9.37788 22.218C9.38205 22.5711 9.38622 22.9367 9.40051 23.2422C9.40111 23.2505 9.40706 23.2559 9.41599 23.2559C9.42433 23.2553 9.43028 23.2482 9.43028 23.241C9.41659 22.9356 9.41123 22.5711 9.40587 22.2174C9.39932 21.65 9.39217 21.0623 9.34811 20.6782C9.3106 20.3323 9.22485 20.1102 9.1266 19.8505C9.04384 19.6374 8.95214 19.395 8.86401 19.0306C8.86163 19.0223 8.85389 19.0181 8.84555 19.0193C8.83721 19.0217 8.83245 19.03 8.83424 19.0372Z" fill="#94A3AF"/>
<path d="M11.2238 31.0846C11.5322 31.2222 11.8419 31.3157 12.1408 31.4068C12.4325 31.4937 12.7344 31.5854 13.0417 31.7182C13.4412 31.8915 13.8997 32.2606 14.304 32.5863C14.5232 32.7638 14.7304 32.9311 14.8959 33.0389C14.9031 33.0425 14.912 33.0413 14.9162 33.0341C14.9209 33.027 14.9185 33.018 14.912 33.0133C14.7482 32.9073 14.5416 32.74 14.3225 32.5631C13.9176 32.2362 13.4567 31.8664 13.0536 31.6908C12.7446 31.5574 12.4421 31.4657 12.1491 31.377C11.8508 31.2877 11.5435 31.1936 11.2351 31.0578C11.228 31.0548 11.219 31.0578 11.2155 31.0656C11.2125 31.0721 11.2155 31.0816 11.2238 31.0846Z" fill="#818384"/>
<path d="M8.74373 25.799C8.91165 26.0366 9.11172 26.2248 9.34275 26.4415C9.83936 26.9066 10.5194 27.5437 11.3893 29.1937C11.3935 29.2008 11.4024 29.2032 11.409 29.1991C11.4161 29.1961 11.4191 29.1865 11.4155 29.1794C10.542 27.5258 9.86139 26.8857 9.3636 26.4195C9.13316 26.2034 8.93428 26.0176 8.76934 25.7818C8.76398 25.7746 8.75445 25.774 8.74731 25.7776C8.74076 25.7836 8.73957 25.7925 8.74373 25.799Z" fill="#838486"/>
<path d="M11.7347 13.4695C11.6013 14.7164 11.1404 15.8894 10.327 17.0553C10.3223 17.0618 10.3234 17.0708 10.3306 17.0761C10.3377 17.0803 10.3467 17.0785 10.3508 17.072C11.1678 15.9025 11.6293 14.7241 11.7644 13.4719C11.765 13.4641 11.7591 13.457 11.7507 13.4558C11.7424 13.4552 11.7352 13.4606 11.7347 13.4695Z" fill="#BABBBD"/>
<path d="M27.975 9.27808C31.0046 10.1605 33.5686 11.6992 35.3901 13.7285C36.3922 14.8443 37.1681 16.1073 37.6963 17.481C38.2637 18.9559 38.5513 20.5749 38.5513 22.2946C38.5513 24.0922 38.1768 25.8506 37.4372 27.5179C36.7209 29.1399 35.6884 30.6106 34.3707 31.8902C31.6525 34.5328 27.972 36.1018 24.0051 36.3061C23.9968 36.3067 23.9902 36.3138 23.9914 36.3216C23.9914 36.3311 23.998 36.3365 24.0069 36.3365C27.9797 36.131 31.6685 34.5602 34.3915 31.9117C35.7116 30.6291 36.7453 29.1547 37.4658 27.531C38.2054 25.8589 38.5811 24.0976 38.5811 22.2946C38.5811 20.5714 38.2923 18.9482 37.7242 17.4703C37.1937 16.093 36.4166 14.8271 35.4121 13.7094C33.5871 11.6754 31.0177 10.1331 27.9833 9.24891C27.975 9.24712 27.9636 9.25962 27.9613 9.26796C27.9589 9.2751 27.9672 9.2757 27.975 9.27808Z" fill="white"/>
<path d="M24.0009 36.307C20.0341 36.1021 16.3542 34.5331 13.6354 31.8911C12.3194 30.6109 11.2875 29.1402 10.57 27.5182C9.83165 25.8509 9.4577 24.0925 9.4577 22.2949C9.4577 20.577 9.74412 18.9592 10.3104 17.486C10.8391 16.1123 11.6144 14.8506 12.6154 13.7353C14.4351 11.7066 16.9967 10.1674 20.0227 9.28314C20.0311 9.28076 20.0448 9.28314 20.043 9.2754C20.04 9.26826 20.0049 9.25754 20.0001 9.25873C16.9758 10.1448 14.4142 11.6858 12.5927 13.7157C11.5894 14.8333 10.8129 16.098 10.2836 17.4753C9.71553 18.952 9.42734 20.574 9.42734 22.2949C9.42734 24.0979 9.80247 25.8592 10.542 27.5313C11.2619 29.155 12.2956 30.6294 13.6151 31.9132C16.3387 34.5605 20.0257 36.1313 23.9992 36.3368C24.0081 36.3368 24.0146 36.3314 24.0146 36.3231C24.0158 36.3141 24.0087 36.3076 24.0009 36.307Z" fill="white"/>
<path d="M24.0051 30.2072C26.1314 29.7446 28.7937 28.902 30.951 27.9755C31.2178 27.8618 31.4154 27.6855 31.5756 27.4593V25.8176L24.0051 24.014V30.2072Z" fill="#D3E2F5"/>
<path d="M24.0051 30.2072C26.1314 29.7446 28.7937 28.902 30.951 27.9755C31.2178 27.8618 31.4154 27.6855 31.5756 27.4593V25.8176L24.0051 24.014V30.2072Z" fill="url(#paint66_linear_0_159)"/>
<path d="M27.9666 18.6691H32.3182L32.8815 17.7468H27.8112V20.3221H24.0897V17.7468H23.9307V19.5968H16.3239L16.3798 19.6939C16.3798 19.6939 16.3798 19.707 16.3798 19.7314H23.9307V21.0378H16.3941C16.3941 21.0813 16.3947 21.1331 16.3953 21.1771H23.9307V22.9117H16.4156C16.4162 22.9546 16.4167 23.0028 16.4167 23.0457H20.0978V25.5275H16.4561C16.4561 25.5305 16.4561 25.5329 16.4561 25.534C16.4668 25.8931 16.5031 26.2087 16.5787 26.4808H20.102V27.3263H17.1224C17.2617 27.4305 17.429 27.5127 17.6279 27.5741C18.4264 27.8176 19.3523 28.0695 20.2348 28.2951V25.6627L23.9307 25.6585V29.0972C23.9444 29.099 23.961 29.102 23.9759 29.1044C24.0033 29.1002 24.0617 29.0948 24.0897 29.0913V26.3969H31.5197C31.5292 26.3546 31.5388 26.3028 31.5477 26.2587H24.0897V24.9618H31.6298C31.631 24.9207 31.6317 24.8517 31.6335 24.8064H24.0897V23.0457H31.6578C31.6578 23.0028 31.6585 22.9462 31.659 22.9028H27.9666V20.4519H31.6865C31.6912 19.9904 31.6954 19.6939 31.6954 19.6939L31.8246 19.4807H27.9666V18.6691Z" fill="#BCD0ED"/>
<path d="M27.9667 18.6686H32.3182L32.8816 17.7462H27.8113V20.3215H24.0897V17.7462H23.9308V19.5963H16.3239L16.3799 19.6933C16.3799 19.6933 16.3799 19.7064 16.3799 19.7308H23.9308V21.0372H16.3942C16.3942 21.0807 16.3948 21.1325 16.3954 21.1766H23.9308V22.9111H16.4156C16.4162 22.954 16.4168 23.0022 16.4168 23.0451H20.0979V25.5269H16.4561C16.4561 25.5299 16.4561 25.5323 16.4561 25.5335C16.4668 25.8925 16.5031 26.2081 16.5788 26.4802H20.102V27.3258H17.1224C17.2618 27.43 17.4291 27.5122 17.628 27.5735C18.4265 27.817 19.3524 28.0689 20.2348 28.2946V25.6621L23.9308 25.6579V29.0966C23.9445 29.0984 23.9611 29.1014 23.976 29.1038C24.0034 29.0996 24.0618 29.0943 24.0897 29.0907V26.3963H31.5198C31.5293 26.354 31.5388 26.3022 31.5478 26.2581H24.0897V24.9613H31.6299C31.6311 24.9202 31.6317 24.8511 31.6335 24.8058H24.0897V23.0451H31.6579C31.6579 23.0022 31.6585 22.9457 31.6591 22.9022H27.9667V20.4513H31.6865C31.6913 19.9899 31.6955 19.6933 31.6955 19.6933L31.8246 19.4802H27.9667V18.6686Z" fill="url(#paint67_linear_0_159)"/>
<path d="M31.1791 26.675L24.2594 28.8823L24.048 29.1407V26.3558H31.5721L31.1791 26.675Z" fill="#606969"/>
<path d="M24.2594 28.8823L31.1791 26.675L31.5721 26.3558L31.5602 26.4076C31.4065 27.0537 31.057 27.4324 30.4592 27.6146C28.4716 28.2214 25.6342 28.902 24.0962 29.133L24.048 29.1407L24.2594 28.8823Z" fill="#E3EBF7"/>
<path d="M16.9186 25.0719L20.1388 23.0045V25.5709H16.4167L16.9186 25.0719Z" fill="#E3EBF7"/>
<path d="M16.9187 25.0719L16.4167 25.5709L16.4155 25.5298C16.4048 25.157 16.3917 24.3216 16.375 23.0468V23.0045H20.1389L16.9187 25.0719Z" fill="#606969"/>
<path d="M23.7246 25.9099L23.9711 25.6169V29.1462L23.9235 29.139C23.0762 29.014 21.7388 28.721 20.2496 28.3405L20.2186 28.3334L23.7246 25.9099Z" fill="#E3EBF7"/>
<path d="M23.7246 25.9099L20.2186 28.3334V25.6169H23.9711L23.7246 25.9099Z" fill="#606969"/>
<path d="M17.1902 27.1304L19.8923 26.6642L20.1436 26.4403V27.3686H17.1223L17.1902 27.1304Z" fill="#E3EBF7"/>
<path d="M19.8923 26.6642L17.1902 27.1304L17.1223 27.3686H17.1074L17.0967 27.3609C16.8282 27.162 16.6448 26.8774 16.5388 26.4927L16.5239 26.4403H20.1436L19.8923 26.6642Z" fill="#606969"/>
<path d="M23.8354 21.2922L16.7799 22.626L16.3738 22.9547L16.3732 22.9125L16.353 21.1779V21.1356H23.9712L23.8354 21.2922Z" fill="#606969"/>
<path d="M16.7799 22.626L23.8353 21.2922L23.9711 21.1356V22.9547H16.3738L16.7799 22.626Z" fill="#E3EBF7"/>
<path d="M24.3588 20.0683L27.5403 18.0604L27.8529 17.7056V20.3642H24.048L24.3588 20.0683Z" fill="#E3EBF7"/>
<path d="M27.5403 18.0604L24.3588 20.0683L24.048 20.3642V17.7056H27.8529L27.5403 18.0604Z" fill="#606969"/>
<path d="M23.7747 19.8742L23.9712 19.6902V21.0806H16.3524L23.7747 19.8742Z" fill="#E3EBF7"/>
<path d="M23.7747 19.8742L16.3524 21.0806L16.3512 21.0383L16.3393 19.7325L16.3387 19.6902H23.9712L23.7747 19.8742Z" fill="#606969"/>
<path d="M16.4197 19.4371L23.7955 17.8997L23.9712 17.7056V19.639H16.3006L16.4197 19.4371Z" fill="#E3EBF7"/>
<path d="M23.7955 17.8997L16.4197 19.4371L16.3006 19.639L16.2887 19.6193L15.158 17.7681L15.1198 17.7056H23.9712L23.7955 17.8997Z" fill="#606969"/>
<path d="M31.2565 20.9068L28.2947 22.6372L27.9255 22.9451V20.4108H31.7287L31.2565 20.9068Z" fill="#606969"/>
<path d="M28.2947 22.6372L31.2565 20.9068L31.7287 20.4108V20.4525L31.7013 22.904L31.7001 22.9451H27.9255L28.2947 22.6372Z" fill="#E3EBF7"/>
<path d="M31.9264 18.8602L28.1536 19.3532L27.9255 19.5229V18.6285H32.3414L31.9264 18.8602Z" fill="#606969"/>
<path d="M28.1536 19.3532L31.9264 18.8602L32.3414 18.6285L32.3021 18.6916L31.8079 19.5026L31.796 19.5229H27.9255L28.1536 19.3532Z" fill="#E3EBF7"/>
<path d="M31.2779 25.2053L24.2647 26.1032L24.048 26.3003V24.9219H31.6733L31.2779 25.2053Z" fill="#606969"/>
<path d="M24.2647 26.1032L31.2779 25.2053L31.6733 24.9219V24.9635L31.659 25.5364C31.6513 25.8168 31.6286 26.0556 31.5875 26.2664L31.5822 26.3003H24.048L24.2647 26.1032Z" fill="#E3EBF7"/>
<path d="M31.4619 23.2308L24.304 24.6116L24.048 24.848V23.0045H31.6995L31.4619 23.2308Z" fill="#606969"/>
<path d="M24.304 24.6116L31.4619 23.2308L31.6995 23.0045L31.6983 23.0468C31.6894 23.7768 31.6816 24.3687 31.6751 24.8075L31.6739 24.848H24.048L24.304 24.6116Z" fill="#E3EBF7"/>
<path d="M27.6504 21.4185L24.3147 21.955L24.048 22.1902V21.2488H27.8529L27.6504 21.4185Z" fill="#606969"/>
<path d="M24.3147 21.955L27.6504 21.4185L27.8529 21.2488V22.1902H24.048L24.3147 21.955Z" fill="#E3EBF7"/>
<path d="M20.3717 24.6166L23.8021 24.0289L23.9712 23.8336V24.7738H20.2157L20.3717 24.6166Z" fill="#E3EBF7"/>
<path d="M23.8021 24.0289L20.3717 24.6166L20.2157 24.7738V23.8336H23.9712L23.8021 24.0289Z" fill="#606969"/>
<path d="M24.0894 29.09C25.5227 28.8744 28.3612 28.2087 30.4465 27.5728C31.0651 27.3834 31.3783 26.9934 31.5195 26.3956H24.0894V29.09Z" fill="#D4B066"/>
<path d="M24.0892 29.0881C25.5225 28.8726 28.361 28.2069 30.4463 27.5709C31.0649 27.3816 31.3781 26.9915 31.5193 26.3937H24.0892V29.0881Z" fill="url(#paint68_linear_0_159)"/>
<path d="M20.0979 23.0464H16.4168C16.4299 24.0991 16.4448 25.0977 16.4562 25.5282H20.0979V23.0464Z" fill="#D91121"/>
<path d="M20.0981 23.0468H16.417C16.4301 24.0996 16.445 25.0981 16.4563 25.5287H20.0981V23.0468Z" fill="url(#paint69_linear_0_159)"/>
<path d="M20.2597 25.6589V28.3003C21.7024 28.6683 23.0512 28.9678 23.9306 29.0976V25.6589H20.2597Z" fill="#D91121"/>
<path d="M20.2597 25.6589V28.3003C21.7024 28.6683 23.0512 28.9678 23.9306 29.0976V25.6589H20.2597Z" fill="url(#paint70_linear_0_159)"/>
<path d="M20.1019 26.4799H16.5787C16.6787 26.8413 16.8485 27.1248 17.1224 27.3254H20.1019V26.4799Z" fill="#003971"/>
<path d="M20.102 26.4785H16.5787C16.6787 26.84 16.8485 27.1234 17.1224 27.3241H20.102V26.4785Z" fill="url(#paint71_linear_0_159)"/>
<path d="M23.9309 21.1758H16.3954C16.4008 21.704 16.408 22.3066 16.4157 22.9103H23.9309V21.1758Z" fill="#D4B066"/>
<path d="M23.9311 21.1739H16.3957C16.401 21.7021 16.4082 22.3047 16.4159 22.9085H23.9311V21.1739Z" fill="url(#paint72_linear_0_159)"/>
<path d="M24.0896 20.3224H27.8112V17.7473H24.0896V20.3224Z" fill="#D91121"/>
<path d="M27.8108 20.3197V17.7443H24.0892V20.3197H27.8108Z" fill="url(#paint73_linear_0_159)"/>
<path d="M23.9305 17.747H15.1935L16.3236 19.5971H23.9305V17.747Z" fill="#D4B066"/>
<path d="M23.9304 17.7467H15.1934L16.3235 19.5968H23.9304V17.7467Z" fill="url(#paint74_linear_0_159)"/>
<path d="M27.9664 22.9043H31.6588C31.6701 21.9975 31.6803 21.0799 31.6862 20.4535H27.9664V22.9043Z" fill="#D91121"/>
<path d="M27.9662 22.9053H31.6586C31.6699 21.9985 31.68 21.0809 31.686 20.4545H27.9662V22.9053Z" fill="url(#paint75_linear_0_159)"/>
<path d="M27.9664 18.6701V19.4817H31.7726L32.2662 18.6701H27.9664Z" fill="#003971"/>
<path d="M27.9662 18.6707V19.4823H31.7723L32.266 18.6707H27.9662Z" fill="url(#paint76_linear_0_159)"/>
<path d="M24.0896 26.2594H31.5476C31.5887 26.0415 31.6095 25.8009 31.6179 25.5348C31.6215 25.3925 31.6262 25.2132 31.6298 24.9625H24.0896V26.2594Z" fill="#141314"/>
<path d="M24.0894 24.8057H31.6332C31.641 24.3186 31.6498 23.6922 31.6576 23.045H24.0894V24.8057Z" fill="#D4B066"/>
<path d="M24.0892 24.8042H31.633C31.6408 24.3172 31.6496 23.6908 31.6574 23.0435H24.0892V24.8042Z" fill="url(#paint77_linear_0_159)"/>
<path d="M20.2579 24.7322H23.9307V23.8743H20.2579V24.7322Z" fill="#003971"/>
<path d="M23.931 24.729H20.2583V23.8709H23.931V24.729Z" fill="url(#paint78_linear_0_159)"/>
<path d="M24.0896 22.1489H27.8112V21.2895H24.0896V22.1489Z" fill="#003971"/>
<path d="M27.8108 22.1495H24.0892V21.2903H27.8108V22.1495Z" fill="url(#paint79_linear_0_159)"/>
<path d="M23.9307 19.7319H16.3798C16.3822 19.8689 16.3869 20.3738 16.3941 21.0383H23.9307V19.7319Z" fill="#141314"/>
<path d="M31.4669 26.4399C31.3132 27.0318 30.9929 27.3646 30.4344 27.5355C28.4706 28.1339 25.6773 28.8068 24.1327 29.0438V26.4399H31.4669Z" fill="#D4B066"/>
<path d="M31.4671 26.4403C31.3135 27.0322 30.9931 27.365 30.4346 27.5359C28.4708 28.1343 25.6775 28.8072 24.1329 29.0442V26.4403H31.4671Z" fill="url(#paint80_linear_0_159)"/>
<path d="M32.2663 18.6697H27.9666V19.4813H28.0267V18.7293H32.2663V18.6697Z" fill="#233B4D"/>
<path d="M27.8112 21.2895H24.0896V22.1487H24.1492V21.3484H27.8112V21.2895Z" fill="#233B4D"/>
<path d="M27.8112 17.7473H24.0896V20.3226H24.1492V17.8068H27.8112V17.7473Z" fill="#96423A"/>
<path d="M23.9306 17.7473H15.1936L16.3238 19.5973H16.3917L15.3044 17.8068H23.9306V17.7473Z" fill="#716543"/>
<path d="M23.9307 21.1779H16.3917L16.4114 22.9124H16.4745L16.4548 21.2368H23.9307V21.1779Z" fill="#716543"/>
<path d="M20.0977 23.0462H16.4125L16.4518 25.528H16.5203L16.4798 23.1058H20.0977V23.0462Z" fill="#95473F"/>
<path d="M31.6863 20.4525H27.9666V22.9022H28.0267V20.5121H31.6863V20.4525Z" fill="#96423A"/>
<path d="M23.9306 23.8743H20.2579V24.7323H20.3169V23.9338H23.9306V23.8743Z" fill="#264865"/>
<path d="M23.9337 25.6592H20.2597V28.3006L20.3193 28.3179V25.7181H23.9337V25.6592Z" fill="#95473F"/>
<path d="M31.5143 26.3976H24.0896V29.0967H24.1492V26.4571H31.5143V26.3976Z" fill="#716543"/>
<path d="M31.6578 23.0462H24.0896V24.807H24.1492V23.1058H31.6578V23.0462Z" fill="#716543"/>
<path d="M16.5786 26.4815C16.5828 26.4958 16.5876 26.5095 16.5917 26.5244L16.5965 26.541C16.6906 26.8465 16.9026 27.1353 17.1354 27.327H17.2295C16.9984 27.155 16.7614 26.8632 16.6584 26.541H20.1019V26.4815H16.5786Z" fill="#264865"/>
<path d="M32.9314 17.6956C32.6933 18.1547 32.2848 18.8532 31.7751 19.6594C31.7584 21.4214 31.7155 24.4046 31.6923 25.5246C31.6673 26.7274 31.3148 27.3741 30.5502 27.6218C29.8089 27.8629 25.4687 29.027 24.011 29.1557L24.0473 29.1086C25.6479 28.927 29.7922 27.8058 30.5324 27.5658C31.2689 27.3264 31.6072 26.6959 31.6334 25.5246C31.6566 24.4016 31.6994 21.4112 31.7143 19.6505L31.7155 19.6428L31.7191 19.635L32.8576 17.7677L32.9314 17.6956Z" fill="#E3EBF7"/>
<path d="M32.9314 17.6956H15.0972L15.1263 17.7415L16.3238 19.6898C16.3399 21.4154 16.3923 24.3599 16.4179 25.5544C16.4429 26.728 16.7823 27.336 17.5576 27.5872C18.3757 27.8534 22.4539 28.9788 24.011 29.1557L24.0146 29.1562L24.0182 29.1557C25.6205 28.9746 29.7762 27.8498 30.5175 27.6087C31.2815 27.361 31.634 26.7137 31.659 25.5133C31.6834 24.3909 31.7263 21.4083 31.7411 19.6469L32.9029 17.7409L32.9314 17.6956ZM31.6816 19.6297V19.638C31.6673 21.3981 31.6238 24.3885 31.6006 25.5115C31.575 26.6833 31.2356 27.3133 30.499 27.5521C29.7589 27.7927 25.6152 28.9145 24.0146 29.0955C22.4593 28.9193 18.3936 27.7968 17.5754 27.5313C16.8198 27.2853 16.5006 26.7125 16.4768 25.5532C16.4518 24.3569 16.3982 21.4053 16.3833 19.6809V19.6719L16.3786 19.6648L15.2043 17.7552H32.8237L31.6864 19.6225L31.6816 19.6297Z" fill="#606E7B"/>
<path d="M37.1341 34.3718C37.249 34.4868 37.3062 34.6261 37.3062 34.7898C37.3062 34.9542 37.249 35.0947 37.1341 35.2108C37.0192 35.3269 36.8799 35.3847 36.7161 35.3847C36.5518 35.3847 36.4124 35.3269 36.2981 35.2108C36.1838 35.0947 36.1266 34.9542 36.1266 34.7898C36.1266 34.6261 36.1844 34.4868 36.2987 34.3718C36.4142 34.2557 36.5536 34.1974 36.7161 34.1974C36.8793 34.1974 37.0186 34.2557 37.1341 34.3718ZM37.202 34.3051C37.0686 34.1718 36.9061 34.1051 36.7161 34.1051C36.5268 34.1051 36.3654 34.1718 36.2326 34.3051C36.0986 34.4391 36.0308 34.6005 36.0308 34.7898C36.0308 34.9804 36.0975 35.1429 36.2308 35.2775C36.3642 35.4121 36.5262 35.4788 36.7161 35.4788C36.9061 35.4788 37.0686 35.4121 37.202 35.2775C37.3366 35.1423 37.4033 34.9798 37.4033 34.7898C37.4033 34.5999 37.3366 34.4385 37.202 34.3051ZM36.8179 34.7577C36.79 34.769 36.7477 34.7744 36.6917 34.7744H36.572V34.5016H36.6852C36.759 34.5016 36.812 34.5106 36.8453 34.5296C36.8787 34.5481 36.8954 34.585 36.8954 34.6398C36.8954 34.6975 36.8697 34.7374 36.8179 34.7577ZM36.4392 35.165H36.572V34.8672H36.6762C36.7471 34.8672 36.7965 34.8756 36.8245 34.8917C36.8715 34.919 36.8954 34.9774 36.8954 35.0649V35.1245L36.8983 35.1489C36.8989 35.1525 36.8995 35.1543 36.9007 35.1572C36.9007 35.1596 36.9013 35.1626 36.9025 35.165H37.0264L37.0216 35.1554C37.0186 35.1489 37.0168 35.1364 37.015 35.1161C37.0138 35.0959 37.0133 35.0774 37.0133 35.0602V35.0048C37.0133 34.9667 36.9996 34.928 36.9722 34.8881C36.9454 34.8476 36.9013 34.8232 36.8418 34.8142C36.8888 34.8065 36.9251 34.7946 36.9519 34.7773C37.0007 34.7458 37.0258 34.6958 37.0258 34.6285C37.0258 34.5338 36.9865 34.4707 36.9085 34.4379C36.865 34.4201 36.7965 34.4105 36.7024 34.4105H36.4392V35.165Z" fill="black"/>
<defs>
<linearGradient id="paint0_linear_0_159" x1="35.9272" y1="17.0763" x2="35.8865" y2="17.445" gradientUnits="userSpaceOnUse">
<stop stop-color="#A1C1E4"/>
<stop offset="1" stop-color="#CCDCF3"/>
</linearGradient>
<linearGradient id="paint1_linear_0_159" x1="29.8261" y1="33.0632" x2="22.3269" y2="31.2541" gradientUnits="userSpaceOnUse">
<stop stop-color="#D3E2F5"/>
<stop offset="1" stop-color="#9EBDE2"/>
</linearGradient>
<linearGradient id="paint2_linear_0_159" x1="35.0631" y1="15.3338" x2="35.3845" y2="15.5154" gradientUnits="userSpaceOnUse">
<stop stop-color="#415050"/>
<stop offset="1" stop-color="#576162"/>
</linearGradient>
<linearGradient id="paint3_linear_0_159" x1="27.0259" y1="16.0266" x2="25.3193" y2="30.4934" gradientUnits="userSpaceOnUse">
<stop stop-color="#F6F8FD"/>
<stop offset="1" stop-color="#4B616C"/>
</linearGradient>
<linearGradient id="paint4_linear_0_159" x1="25.0862" y1="14.2355" x2="25.3606" y2="15.1335" gradientUnits="userSpaceOnUse">
<stop stop-color="#BECDE1"/>
<stop offset="1" stop-color="#D7E6F7"/>
</linearGradient>
<linearGradient id="paint5_linear_0_159" x1="23.0946" y1="31.369" x2="14.7493" y2="31.369" gradientUnits="userSpaceOnUse">
<stop stop-color="#F4F6FD"/>
<stop offset="1" stop-color="#C9DCF2"/>
</linearGradient>
<linearGradient id="paint6_linear_0_159" x1="16.3352" y1="21.3733" x2="16.0129" y2="21.5553" gradientUnits="userSpaceOnUse">
<stop stop-color="#415050"/>
<stop offset="1" stop-color="#576162"/>
</linearGradient>
<linearGradient id="paint7_linear_0_159" x1="44.6893" y1="16.0051" x2="37.9896" y2="38.2042" gradientUnits="userSpaceOnUse">
<stop stop-color="#3C535A"/>
<stop offset="1" stop-color="#87A3C1"/>
</linearGradient>
<linearGradient id="paint8_linear_0_159" x1="26.5897" y1="25.1936" x2="23.1309" y2="10.2661" gradientUnits="userSpaceOnUse">
<stop stop-color="#C6DAF1"/>
<stop offset="1" stop-color="#84A3C2"/>
</linearGradient>
<linearGradient id="paint9_linear_0_159" x1="40.8608" y1="61.4186" x2="22.5675" y2="37.3683" gradientUnits="userSpaceOnUse">
<stop stop-color="white"/>
<stop offset="1" stop-color="#C6DAF1"/>
</linearGradient>
<linearGradient id="paint10_linear_0_159" x1="24.4542" y1="6.39171" x2="35.3914" y2="31.4868" gradientUnits="userSpaceOnUse">
<stop stop-color="#7093AE"/>
<stop offset="1" stop-color="#F6F8FD"/>
</linearGradient>
<linearGradient id="paint11_linear_0_159" x1="25.2871" y1="9.74899" x2="27.1955" y2="34.1865" gradientUnits="userSpaceOnUse">
<stop stop-color="#3C535A"/>
<stop offset="1" stop-color="#8AAACA"/>
</linearGradient>
<linearGradient id="paint12_linear_0_159" x1="32.7136" y1="8.18099" x2="33.1816" y2="8.67871" gradientUnits="userSpaceOnUse">
<stop stop-color="#232E30"/>
<stop offset="1" stop-color="#7F919D"/>
</linearGradient>
<linearGradient id="paint13_linear_0_159" x1="30.7834" y1="6.22019" x2="35.3985" y2="8.87428" gradientUnits="userSpaceOnUse">
<stop stop-color="#7093AE"/>
<stop offset="1" stop-color="#F6F8FD"/>
</linearGradient>
<linearGradient id="paint14_linear_0_159" x1="34.5696" y1="7.85309" x2="37.1265" y2="10.4175" gradientUnits="userSpaceOnUse">
<stop stop-color="#232E30"/>
<stop offset="1" stop-color="#7F919D"/>
</linearGradient>
<linearGradient id="paint15_linear_0_159" x1="35.9121" y1="17.947" x2="33.4954" y2="16.6793" gradientUnits="userSpaceOnUse">
<stop stop-color="#9CB3CF"/>
<stop offset="1" stop-color="#F1F5FC"/>
</linearGradient>
<linearGradient id="paint16_linear_0_159" x1="32.1559" y1="15.5227" x2="31.7697" y2="14.4236" gradientUnits="userSpaceOnUse">
<stop stop-color="#232E30"/>
<stop offset="1" stop-color="#7F919D"/>
</linearGradient>
<linearGradient id="paint17_linear_0_159" x1="39.1667" y1="13.434" x2="39.3449" y2="14.3846" gradientUnits="userSpaceOnUse">
<stop stop-color="#9CB3CF"/>
<stop offset="1" stop-color="#F1F5FC"/>
</linearGradient>
<linearGradient id="paint18_linear_0_159" x1="34.0863" y1="16.3826" x2="34.3835" y2="15.9368" gradientUnits="userSpaceOnUse">
<stop stop-color="#9CB3CF"/>
<stop offset="1" stop-color="#F1F5FC"/>
</linearGradient>
<linearGradient id="paint19_linear_0_159" x1="39.7305" y1="16.8739" x2="39.8642" y2="17.7655" gradientUnits="userSpaceOnUse">
<stop stop-color="#232E30"/>
<stop offset="1" stop-color="#7F919D"/>
</linearGradient>
<linearGradient id="paint20_linear_0_159" x1="36.4444" y1="22.8252" x2="36.8343" y2="20.7944" gradientUnits="userSpaceOnUse">
<stop stop-color="#9CB3CF"/>
<stop offset="1" stop-color="#F1F5FC"/>
</linearGradient>
<linearGradient id="paint21_linear_0_159" x1="39.0416" y1="24.4831" x2="38.5956" y2="24.4682" gradientUnits="userSpaceOnUse">
<stop stop-color="#232E30"/>
<stop offset="1" stop-color="#7F919D"/>
</linearGradient>
<linearGradient id="paint22_linear_0_159" x1="35.8639" y1="26.3531" x2="35.6189" y2="22.3041" gradientUnits="userSpaceOnUse">
<stop stop-color="#9CB3CF"/>
<stop offset="1" stop-color="#F1F5FC"/>
</linearGradient>
<linearGradient id="paint23_linear_0_159" x1="39.9773" y1="22.0398" x2="40.2284" y2="26.1778" gradientUnits="userSpaceOnUse">
<stop stop-color="#232E30"/>
<stop offset="1" stop-color="#7F919D"/>
</linearGradient>
<linearGradient id="paint24_linear_0_159" x1="33.7581" y1="26.1599" x2="35.5411" y2="24.4835" gradientUnits="userSpaceOnUse">
<stop stop-color="#9CB3CF"/>
<stop offset="1" stop-color="#F1F5FC"/>
</linearGradient>
<linearGradient id="paint25_linear_0_159" x1="39.1849" y1="30.5253" x2="37.521" y2="30.7184" gradientUnits="userSpaceOnUse">
<stop stop-color="#232E30"/>
<stop offset="1" stop-color="#7F919D"/>
</linearGradient>
<linearGradient id="paint26_linear_0_159" x1="35.2692" y1="32.1617" x2="34.779" y2="31.9983" gradientUnits="userSpaceOnUse">
<stop stop-color="#9CB3CF"/>
<stop offset="1" stop-color="#F1F5FC"/>
</linearGradient>
<linearGradient id="paint27_linear_0_159" x1="35.1156" y1="32.0758" x2="34.7593" y2="31.9719" gradientUnits="userSpaceOnUse">
<stop stop-color="#232E30"/>
<stop offset="1" stop-color="#7F919D"/>
</linearGradient>
<linearGradient id="paint28_linear_0_159" x1="31.4999" y1="35.7846" x2="31.054" y2="35.532" gradientUnits="userSpaceOnUse">
<stop stop-color="#9CB3CF"/>
<stop offset="1" stop-color="#F1F5FC"/>
</linearGradient>
<linearGradient id="paint29_linear_0_159" x1="31.534" y1="35.5573" x2="30.8865" y2="35.3269" gradientUnits="userSpaceOnUse">
<stop stop-color="#232E30"/>
<stop offset="1" stop-color="#7F919D"/>
</linearGradient>
<linearGradient id="paint30_linear_0_159" x1="34.0799" y1="29.3808" x2="35.4764" y2="29.559" gradientUnits="userSpaceOnUse">
<stop stop-color="#9CB3CF"/>
<stop offset="1" stop-color="#F1F5FC"/>
</linearGradient>
<linearGradient id="paint31_linear_0_159" x1="26.1392" y1="37.7688" x2="25.8458" y2="37.5073" gradientUnits="userSpaceOnUse">
<stop stop-color="#9CB3CF"/>
<stop offset="1" stop-color="#F1F5FC"/>
</linearGradient>
<linearGradient id="paint32_linear_0_159" x1="25.6208" y1="37.3377" x2="25.2652" y2="36.9681" gradientUnits="userSpaceOnUse">
<stop stop-color="#232E30"/>
<stop offset="1" stop-color="#7F919D"/>
</linearGradient>
<linearGradient id="paint33_linear_0_159" x1="28.4941" y1="33.4225" x2="30.7743" y2="33.2812" gradientUnits="userSpaceOnUse">
<stop stop-color="#9CB3CF"/>
<stop offset="1" stop-color="#F1F5FC"/>
</linearGradient>
<linearGradient id="paint34_linear_0_159" x1="27.3091" y1="35.7194" x2="27.2159" y2="35.008" gradientUnits="userSpaceOnUse">
<stop stop-color="#232E30"/>
<stop offset="1" stop-color="#7F919D"/>
</linearGradient>
<linearGradient id="paint35_linear_0_159" x1="24.4727" y1="34.0369" x2="26.3696" y2="34.3504" gradientUnits="userSpaceOnUse">
<stop stop-color="#9CB3CF"/>
<stop offset="1" stop-color="#F1F5FC"/>
</linearGradient>
<linearGradient id="paint36_linear_0_159" x1="22.7276" y1="35.8836" x2="22.7742" y2="35.6363" gradientUnits="userSpaceOnUse">
<stop stop-color="#232E30"/>
<stop offset="1" stop-color="#7F919D"/>
</linearGradient>
<linearGradient id="paint37_linear_0_159" x1="36.4793" y1="34.7081" x2="33.9104" y2="35.5195" gradientUnits="userSpaceOnUse">
<stop stop-color="#232E30"/>
<stop offset="1" stop-color="#7F919D"/>
</linearGradient>
<linearGradient id="paint38_linear_0_159" x1="34.7006" y1="16.5332" x2="34.4629" y2="15.4188" gradientUnits="userSpaceOnUse">
<stop stop-color="#232E30"/>
<stop offset="1" stop-color="#7F919D"/>
</linearGradient>
<radialGradient id="paint39_radial_0_159" cx="0" cy="0" r="1" gradientUnits="userSpaceOnUse" gradientTransform="translate(17.201 8.83468) scale(1.99744 1.99744)">
<stop stop-color="#7F9FBD"/>
<stop offset="1" stop-color="#F1F5FC"/>
</radialGradient>
<linearGradient id="paint40_linear_0_159" x1="19.5904" y1="12.7938" x2="18.6397" y2="13.2097" gradientUnits="userSpaceOnUse">
<stop stop-color="#232E30"/>
<stop offset="1" stop-color="#7F919D"/>
</linearGradient>
<linearGradient id="paint41_linear_0_159" x1="18.3474" y1="12.9054" x2="15.7431" y2="15.3581" gradientUnits="userSpaceOnUse">
<stop stop-color="#232E30"/>
<stop offset="1" stop-color="#7F919D"/>
</linearGradient>
<linearGradient id="paint42_linear_0_159" x1="12.8037" y1="14.5517" x2="12.5137" y2="14.336" gradientUnits="userSpaceOnUse">
<stop stop-color="#587089"/>
<stop offset="1" stop-color="#E0ECF9"/>
</linearGradient>
<radialGradient id="paint43_radial_0_159" cx="0" cy="0" r="1" gradientUnits="userSpaceOnUse" gradientTransform="translate(12.2091 12.6157) scale(2.08423 2.08427)">
<stop stop-color="#7F9FBD"/>
<stop offset="1" stop-color="#F1F5FC"/>
</radialGradient>
<linearGradient id="paint44_linear_0_159" x1="10.3275" y1="15.805" x2="10.1049" y2="15.4934" gradientUnits="userSpaceOnUse">
<stop stop-color="#232E30"/>
<stop offset="1" stop-color="#7F919D"/>
</linearGradient>
<linearGradient id="paint45_linear_0_159" x1="11.781" y1="11.8482" x2="12.1802" y2="11.9978" gradientUnits="userSpaceOnUse">
<stop stop-color="#9CB3CF"/>
<stop offset="1" stop-color="#F1F5FC"/>
</linearGradient>
<linearGradient id="paint46_linear_0_159" x1="12.0076" y1="11.9393" x2="12.384" y2="12.0779" gradientUnits="userSpaceOnUse">
<stop stop-color="#232E30"/>
<stop offset="1" stop-color="#7F919D"/>
</linearGradient>
<radialGradient id="paint47_radial_0_159" cx="0" cy="0" r="1" gradientUnits="userSpaceOnUse" gradientTransform="translate(9.41791 16.4403) scale(2.30299 2.30303)">
<stop stop-color="#7F9FBD"/>
<stop offset="1" stop-color="#F1F5FC"/>
</radialGradient>
<linearGradient id="paint48_linear_0_159" x1="12.1067" y1="20.9956" x2="11.2153" y2="21.2928" gradientUnits="userSpaceOnUse">
<stop stop-color="#232E30"/>
<stop offset="1" stop-color="#7F919D"/>
</linearGradient>
<linearGradient id="paint49_linear_0_159" x1="8.68817" y1="17.7693" x2="9.12362" y2="17.7396" gradientUnits="userSpaceOnUse">
<stop stop-color="#232E30"/>
<stop offset="1" stop-color="#7F919D"/>
</linearGradient>
<radialGradient id="paint50_radial_0_159" cx="0" cy="0" r="1" gradientUnits="userSpaceOnUse" gradientTransform="translate(8.98966 24.1111) scale(2.05244 2.05248)">
<stop stop-color="#7F9FBD"/>
<stop offset="1" stop-color="#F1F5FC"/>
</radialGradient>
<linearGradient id="paint51_linear_0_159" x1="10.4246" y1="27.5617" x2="9.94924" y2="27.5815" gradientUnits="userSpaceOnUse">
<stop stop-color="#232E30"/>
<stop offset="1" stop-color="#7F919D"/>
</linearGradient>
<linearGradient id="paint52_linear_0_159" x1="12.51" y1="30.4526" x2="12.2723" y2="30.6606" gradientUnits="userSpaceOnUse">
<stop stop-color="#9CB3CF"/>
<stop offset="1" stop-color="#F1F5FC"/>
</linearGradient>
<linearGradient id="paint53_linear_0_159" x1="12.5106" y1="32.0467" x2="12.0747" y2="32.126" gradientUnits="userSpaceOnUse">
<stop stop-color="#232E30"/>
<stop offset="1" stop-color="#7F919D"/>
</linearGradient>
<radialGradient id="paint54_radial_0_159" cx="0" cy="0" r="1" gradientUnits="userSpaceOnUse" gradientTransform="translate(10.4217 29.2109) scale(2.16793 2.16802)">
<stop stop-color="#7F9FBD"/>
<stop offset="1" stop-color="#F1F5FC"/>
</radialGradient>
<linearGradient id="paint55_linear_0_159" x1="17.3456" y1="35.3565" x2="16.9296" y2="35.6537" gradientUnits="userSpaceOnUse">
<stop stop-color="#232E30"/>
<stop offset="1" stop-color="#7F919D"/>
</linearGradient>
<radialGradient id="paint56_radial_0_159" cx="0" cy="0" r="1" gradientUnits="userSpaceOnUse" gradientTransform="translate(13.2134 33.517) scale(2.89365 2.89363)">
<stop stop-color="#7F9FBD"/>
<stop offset="1" stop-color="#F1F5FC"/>
</radialGradient>
<linearGradient id="paint57_linear_0_159" x1="16.1108" y1="29.9448" x2="16.5268" y2="31.6976" gradientUnits="userSpaceOnUse">
<stop stop-color="#9CB3CF"/>
<stop offset="1" stop-color="#F1F5FC"/>
</linearGradient>
<linearGradient id="paint58_linear_0_159" x1="9.65295" y1="30.8922" x2="9.87088" y2="30.3177" gradientUnits="userSpaceOnUse">
<stop stop-color="#232E30"/>
<stop offset="1" stop-color="#7F919D"/>
</linearGradient>
<linearGradient id="paint59_linear_0_159" x1="21.0575" y1="31.2581" x2="23.3713" y2="32.6339" gradientUnits="userSpaceOnUse">
<stop stop-color="#232E30"/>
<stop offset="1" stop-color="#7F919D"/>
</linearGradient>
<radialGradient id="paint60_radial_0_159" cx="0" cy="0" r="1" gradientUnits="userSpaceOnUse" gradientTransform="translate(19.1283 35.251) scale(1.20932 1.20931)">
<stop stop-color="#7F9FBD"/>
<stop offset="1" stop-color="#F1F5FC"/>
</radialGradient>
<linearGradient id="paint61_linear_0_159" x1="20.7036" y1="34.7167" x2="20.6442" y2="35.7418" gradientUnits="userSpaceOnUse">
<stop stop-color="#9CB3CF"/>
<stop offset="1" stop-color="#F1F5FC"/>
</linearGradient>
<linearGradient id="paint62_linear_0_159" x1="13.8121" y1="35.0488" x2="13.8566" y2="34.4104" gradientUnits="userSpaceOnUse">
<stop stop-color="#232E30"/>
<stop offset="1" stop-color="#7F919D"/>
</linearGradient>
<linearGradient id="paint63_linear_0_159" x1="25.2055" y1="36.1345" x2="25.2501" y2="36.6691" gradientUnits="userSpaceOnUse">
<stop stop-color="#9CB3CF"/>
<stop offset="1" stop-color="#F1F5FC"/>
</linearGradient>
<linearGradient id="paint64_linear_0_159" x1="17.8579" y1="37.0546" x2="17.7837" y2="36.3121" gradientUnits="userSpaceOnUse">
<stop stop-color="#232E30"/>
<stop offset="1" stop-color="#7F919D"/>
</linearGradient>
<linearGradient id="paint65_linear_0_159" x1="7.57946" y1="24.5922" x2="7.91623" y2="24.3347" gradientUnits="userSpaceOnUse">
<stop stop-color="#232E30"/>
<stop offset="1" stop-color="#7F919D"/>
</linearGradient>
<linearGradient id="paint66_linear_0_159" x1="29.821" y1="33.0886" x2="22.3222" y2="31.2796" gradientUnits="userSpaceOnUse">
<stop stop-color="#D3E2F5"/>
<stop offset="1" stop-color="#748A9B"/>
</linearGradient>
<linearGradient id="paint67_linear_0_159" x1="36.9592" y1="28.9053" x2="22.3862" y2="35.8642" gradientUnits="userSpaceOnUse">
<stop stop-color="#BCD0ED"/>
<stop offset="1" stop-color="#C7D9EF"/>
</linearGradient>
<linearGradient id="paint68_linear_0_159" x1="27.8534" y1="25.2028" x2="36.2609" y2="25.2028" gradientUnits="userSpaceOnUse">
<stop stop-color="#D4B066"/>
<stop offset="1" stop-color="#E7CC8F"/>
</linearGradient>
<linearGradient id="paint69_linear_0_159" x1="16.2277" y1="21.8559" x2="23.6972" y2="21.8559" gradientUnits="userSpaceOnUse">
<stop stop-color="#D91121"/>
<stop offset="1" stop-color="#DC7866"/>
</linearGradient>
<linearGradient id="paint70_linear_0_159" x1="20.2597" y1="24.4678" x2="23.8095" y2="24.4678" gradientUnits="userSpaceOnUse">
<stop stop-color="#D91121"/>
<stop offset="1" stop-color="#DC7866"/>
</linearGradient>
<linearGradient id="paint71_linear_0_159" x1="16.1891" y1="25.2879" x2="23.6502" y2="25.2879" gradientUnits="userSpaceOnUse">
<stop stop-color="#003971"/>
<stop offset="1" stop-color="#5687C0"/>
</linearGradient>
<linearGradient id="paint72_linear_0_159" x1="16.1665" y1="19.9829" x2="23.7019" y2="19.9829" gradientUnits="userSpaceOnUse">
<stop stop-color="#D4B066"/>
<stop offset="1" stop-color="#E7CC8F"/>
</linearGradient>
<linearGradient id="paint73_linear_0_159" x1="26.2372" y1="16.5535" x2="41.6685" y2="16.5535" gradientUnits="userSpaceOnUse">
<stop stop-color="#D91121"/>
<stop offset="1" stop-color="#DC7866"/>
</linearGradient>
<linearGradient id="paint74_linear_0_159" x1="14.9653" y1="16.5558" x2="23.7023" y2="16.5558" gradientUnits="userSpaceOnUse">
<stop stop-color="#D4B066"/>
<stop offset="1" stop-color="#E7CC8F"/>
</linearGradient>
<linearGradient id="paint75_linear_0_159" x1="26.2368" y1="19.2636" x2="41.6638" y2="19.2636" gradientUnits="userSpaceOnUse">
<stop stop-color="#D91121"/>
<stop offset="1" stop-color="#DC7866"/>
</linearGradient>
<linearGradient id="paint76_linear_0_159" x1="26.745" y1="17.48" x2="37.9242" y2="17.48" gradientUnits="userSpaceOnUse">
<stop stop-color="#003971"/>
<stop offset="1" stop-color="#5687C0"/>
</linearGradient>
<linearGradient id="paint77_linear_0_159" x1="27.8536" y1="21.8526" x2="36.2615" y2="21.8526" gradientUnits="userSpaceOnUse">
<stop stop-color="#D4B066"/>
<stop offset="1" stop-color="#E7CC8F"/>
</linearGradient>
<linearGradient id="paint78_linear_0_159" x1="16.19" y1="22.6798" x2="23.6506" y2="22.6798" gradientUnits="userSpaceOnUse">
<stop stop-color="#003971"/>
<stop offset="1" stop-color="#5687C0"/>
</linearGradient>
<linearGradient id="paint79_linear_0_159" x1="26.7454" y1="20.0992" x2="37.9261" y2="20.0992" gradientUnits="userSpaceOnUse">
<stop stop-color="#003971"/>
<stop offset="1" stop-color="#5687C0"/>
</linearGradient>
<linearGradient id="paint80_linear_0_159" x1="27.8548" y1="25.2492" x2="36.2628" y2="25.2492" gradientUnits="userSpaceOnUse">
<stop stop-color="#D4B066"/>
<stop offset="1" stop-color="#E7CC8F"/>
</linearGradient>
</defs>
</svg>
