<svg width="48" height="48" viewBox="0 0 48 48" fill="none" xmlns="http://www.w3.org/2000/svg">
<g clip-path="url(#clip0_0_638)">
<path d="M11.2155 19.1197C11.3584 18.7985 11.4811 18.5376 12.3801 18.5376H17.57C17.8562 18.5376 18.142 18.3971 18.142 17.996V16.5718C18.142 16.4103 18.3057 16.1894 18.7347 16.1894H29.4824C29.7888 16.1894 30.0343 16.3501 30.0343 16.7314V17.8555C30.0343 18.1564 30.1772 18.4774 30.6267 18.4774H39.2493C39.5556 18.4774 39.9643 18.5574 39.7806 18.9391C39.5965 19.32 36.7974 24.8975 36.6076 25.2701C36.5347 25.4129 36.4779 25.6034 35.9112 25.6034H30.6108C30.3595 25.6034 29.9467 25.6034 29.9467 26.0806V27.408C29.9467 27.5989 29.8013 27.8853 29.3398 27.8853H18.7057C18.3737 27.8853 18.131 27.7177 18.131 27.3921V26.2234C18.131 25.969 17.9932 25.5958 17.6049 25.5958H8.67844C8.39492 25.5958 8.12794 25.3809 8.29797 24.968C8.468 24.5543 11.2155 19.1197 11.2155 19.1197Z" fill="#C7D6EE"/>
<path d="M8.98029 24.3475L9.22838 24.3482L11.6673 19.5821L11.4191 19.5814L8.98029 24.3475Z" fill="url(#paint0_linear_0_638)"/>
<path d="M17.626 25.0206H9.2774C8.98614 25.0206 8.88399 24.8899 8.99738 24.6675C9.62955 23.4326 11.7084 19.3714 11.7623 19.2636C11.8255 19.1368 11.9785 18.9818 12.2612 18.9818H17.8635C18.4447 18.9818 18.5437 18.7323 18.5437 18.2816V16.9394C18.5437 16.7589 18.6656 16.6389 18.8801 16.6389H29.141C29.4166 16.6389 29.5386 16.7284 29.5386 16.9089V17.9005C29.5386 18.2912 29.4634 18.9219 30.3502 18.9219H38.8289C39.2097 18.9219 39.3086 19.1741 39.107 19.5733C38.3567 21.0599 36.5104 24.5848 36.453 24.7044C36.3802 24.8564 36.1544 24.9901 35.7937 24.9901H30.2282C29.769 24.9901 29.3105 25.2906 29.3105 25.7416V26.887C29.3105 27.0957 29.1829 27.2435 28.956 27.2435H18.9997C18.6917 27.2435 18.5742 27.0721 18.5742 26.8435V25.8015C18.5742 25.4411 18.3295 25.0206 17.626 25.0206Z" fill="#E9CF98"/>
<path d="M28.7596 24.7517L29.929 25.9488C29.929 25.9488 30.0124 25.6863 30.3295 25.6212L29.0199 24.4214C29.0199 24.4214 28.8096 24.5383 28.7596 24.7517Z" fill="white"/>
<path d="M17.6532 25.6045C17.6532 25.6045 18.1209 25.6212 18.1209 26.228L19.2064 24.653L18.9058 24.4396L17.6532 25.6045Z" fill="white"/>
<path d="M29.1912 19.6407L30.4242 18.4603C30.4242 18.4603 30.257 18.4402 30.0896 18.1732L28.8669 19.3947L29.1912 19.6407Z" fill="white"/>
<path d="M28.6579 17.2289L29.7971 16.2747C29.7971 16.2747 29.9226 16.3463 29.9748 16.4594L28.7834 17.537L28.6579 17.2289Z" fill="white"/>
<path d="M18.1501 16.6202C18.1501 16.4226 18.337 16.1894 18.643 16.1894L19.5073 17.2388C19.5073 17.2388 19.2486 17.2388 19.208 17.3325C19.1668 17.4262 19.1261 17.627 19.1261 17.627L18.1501 16.6202Z" fill="white"/>
<path d="M17.7771 18.5103C17.7771 18.5103 18.1464 18.4528 18.1464 18.065L19.0031 19.055L18.4571 19.4426L17.7771 18.5103Z" fill="white"/>
<path d="M24.1119 16.1894L24.0725 16.6408H29.0092C29.1712 16.6408 29.2623 16.6808 29.3234 16.8001L29.8701 16.3227C29.8701 16.3227 29.7327 16.1894 29.4825 16.1894H24.1119Z" fill="url(#paint1_linear_0_638)"/>
<path d="M18.643 16.1894C18.5114 16.1894 18.3594 16.2533 18.2787 16.3524L18.633 16.7303C18.633 16.7303 18.7038 16.6408 18.9873 16.6408H24.0725L24.1119 16.1894H18.643Z" fill="url(#paint2_linear_0_638)"/>
<path d="M18.1502 16.6203V17.996C18.1502 18.212 18.1062 18.2649 18.1062 18.2649L18.497 18.6729C18.497 18.6729 18.5529 18.532 18.5529 18.4454V17.0823C18.5529 16.9962 18.5608 16.8708 18.5608 16.8708L18.1938 16.4244C18.1938 16.4244 18.1502 16.5024 18.1502 16.6203Z" fill="url(#paint3_linear_0_638)"/>
<path d="M29.5466 16.8289C29.5466 16.8289 29.536 16.9889 29.536 17.075C29.536 17.161 29.5466 18.3231 29.5466 18.4094C29.5466 18.4954 29.6742 18.655 29.6742 18.655L30.1419 18.2485C30.1419 18.2485 30.031 18.212 30.031 17.996V16.6203C30.031 16.5024 29.9329 16.4244 29.9329 16.4244L29.5466 16.8289Z" fill="url(#paint4_linear_0_638)"/>
<path d="M17.5996 18.5392C17.453 18.5392 12.4168 18.5449 12.1484 18.5449C11.7591 18.5449 11.5301 18.7136 11.5301 18.7136L11.8504 19.1369C11.8504 19.1369 11.9785 18.9818 12.2613 18.9818H17.9441C18.142 18.9818 18.2907 18.8938 18.2907 18.8938L17.9194 18.4558C17.9194 18.4558 17.7371 18.5392 17.5996 18.5392Z" fill="url(#paint5_linear_0_638)"/>
<path d="M8.82977 24.7044L8.24905 25.1044C8.24905 25.1044 8.20301 25.2697 8.28978 25.4003C8.37675 25.5305 8.50955 25.5508 8.50955 25.5508L9.26539 25.0205C9.26539 25.0205 8.83762 25.0007 9.0156 24.6895C9.19358 24.3783 9.18393 24.261 9.18393 24.261C9.18393 24.261 8.97625 24.2946 8.82977 24.7044Z" fill="url(#paint6_linear_0_638)"/>
<path d="M10.4244 20.7877C9.96131 21.7238 8.40593 24.7311 8.35151 24.8385C8.29699 24.9455 8.24237 25.1326 8.24237 25.1326L8.84176 24.7044L11.6503 19.2088C11.6503 19.2088 10.8876 19.851 10.4244 20.7877Z" fill="url(#paint7_linear_0_638)"/>
<path d="M9.27739 25.0335L8.50702 25.5778C8.50702 25.5778 17.282 25.5991 17.5037 25.5991C17.7251 25.5991 17.8181 25.6406 17.8181 25.6406L18.2133 25.1996C18.2133 25.1996 17.8358 25.0335 17.6261 25.0335H9.27739Z" fill="url(#paint8_linear_0_638)"/>
<path d="M18.0432 25.8818C18.0432 25.8818 18.124 26.0413 18.124 26.1686V27.3082C18.124 27.4713 18.1887 27.6126 18.1887 27.6126L18.5743 27.1665V25.8014C18.5743 25.5836 18.452 25.4003 18.452 25.4003L18.0432 25.8818Z" fill="url(#paint9_linear_0_638)"/>
<path d="M29.3093 25.6604V27.0256L29.9143 27.5455C29.9143 27.5455 29.9294 27.4069 29.9294 27.2443V26.1041C29.9294 25.977 29.9668 25.897 29.9668 25.897L29.4379 25.3775C29.4379 25.3775 29.3093 25.4422 29.3093 25.6604Z" fill="url(#paint10_linear_0_638)"/>
<path d="M28.8567 27.2534H24.0998V27.8875H29.3636C29.5425 27.8875 29.7512 27.7707 29.7908 27.741L29.1943 27.1853C29.1943 27.1853 29.155 27.2534 28.8567 27.2534Z" fill="url(#paint11_linear_0_638)"/>
<path d="M18.3701 27.8084C18.3701 27.8084 18.4926 27.8937 18.835 27.8937C19.177 27.8937 24.0997 27.8875 24.0997 27.8875V27.2534H19.0189C18.9269 27.2534 18.8654 27.2366 18.8654 27.2366L18.3701 27.8084Z" fill="url(#paint12_linear_0_638)"/>
<path d="M19.7365 17.2258C19.461 17.2258 19.1858 17.3763 19.1858 17.6768V19.1491C19.1858 19.4492 19.0021 19.5695 18.7881 19.5695H12.6966C12.4491 19.5695 12.2577 19.6709 12.1477 19.8754C12.0576 20.0434 10.5364 23.038 10.0448 24.0058C9.93819 24.2157 10.0313 24.3433 10.3049 24.3433H18.819C19.1858 24.3433 19.2472 24.674 19.2472 25.0042V26.1483C19.2472 26.3591 19.4611 26.5994 19.7059 26.5994H23.989V17.2258H19.7365Z" fill="url(#paint13_linear_0_638)"/>
<path d="M29.7104 25.1591L30.2008 25.6543C30.2008 25.6543 30.3232 25.5877 30.8956 25.5877H36.1263C36.235 25.5877 36.3849 25.5341 36.3849 25.5341L33.6199 24.9856C33.6199 24.9856 30.4187 24.9878 30.2689 24.9856C30.2633 24.9855 30.2577 24.9854 30.252 24.9854C29.9275 24.9854 29.7104 25.1591 29.7104 25.1591Z" fill="url(#paint14_linear_0_638)"/>
<path d="M29.8945 18.8343C29.8945 18.8343 30.1335 18.9128 30.3288 18.9128H38.5647C38.8153 18.9128 38.9616 18.9311 38.9616 18.9311L39.6272 18.5415C39.6272 18.5415 39.4136 18.4816 39.2 18.4816H30.6467C30.433 18.4816 30.3439 18.4325 30.3439 18.4325L29.8945 18.8343Z" fill="url(#paint15_linear_0_638)"/>
<path d="M39.2043 19.1418C39.2043 19.1418 39.2419 19.347 39.1708 19.4865C39.0998 19.6259 36.6105 24.4344 36.4982 24.6552C36.3854 24.8759 36.1315 24.9574 36.1315 24.9574L36.4151 25.5145C36.4151 25.5145 36.5157 25.4395 36.575 25.3638C36.6341 25.2883 39.697 19.1669 39.7917 18.9522C39.8861 18.7372 39.8032 18.6595 39.8032 18.6595L39.2043 19.1418Z" fill="url(#paint16_linear_0_638)"/>
<path d="M35.8674 24.9988C35.5405 24.9988 33.7015 25.0126 33.7015 25.0126L36.3168 25.5341C36.3168 25.5341 36.4804 25.4677 36.5621 25.3333C36.644 25.1996 36.5619 25.1596 36.4667 25.2397C36.3715 25.3204 36.2081 25.1866 36.2895 25.0929C36.3715 24.9988 36.453 24.7044 36.453 24.7044C36.453 24.7044 36.1945 24.9988 35.8674 24.9988Z" fill="url(#paint17_linear_0_638)"/>
<path d="M11.5372 24.5848C9.82437 24.6971 9.27737 25.0152 9.27737 25.0152H17.4565C18.3866 25.0152 18.2804 25.1401 18.2752 25.1457L18.9411 24.4541C18.9411 24.4541 17.3234 24.4541 16.2956 24.4355C16.1649 24.4331 16.0183 24.432 15.8583 24.432C14.7597 24.432 13.0323 24.487 11.5372 24.5848ZM18.275 25.1459C18.275 25.1459 18.2751 25.1458 18.2752 25.1457L18.275 25.1459Z" fill="url(#paint18_linear_0_638)"/>
<path d="M30.8289 24.4355C30.1012 24.4541 28.9554 24.4541 28.9554 24.4541L29.719 25.1603C29.719 25.1603 29.7976 24.9951 30.4714 24.9951C31.1455 24.9951 36.0037 24.9786 36.0037 24.9786C36.0037 24.9786 36.0856 24.7177 34.6551 24.6175C33.5283 24.5385 31.8278 24.4336 31.0057 24.4336C30.9411 24.4336 30.8821 24.4342 30.8289 24.4355Z" fill="url(#paint19_linear_0_638)"/>
<path d="M29.0983 19.6434C29.0983 19.6434 30.2443 19.6434 30.9722 19.662C31.7 19.6807 36.1117 19.4842 37.3252 19.3719C38.5384 19.2598 38.9255 18.9418 38.9255 18.9418C38.9255 18.9418 31.2118 18.9823 30.5379 18.9823C29.8644 18.9823 29.9583 18.8511 29.9583 18.8511L29.0983 19.6434Z" fill="url(#paint20_linear_0_638)"/>
<path d="M18.4926 25.4205C18.4926 25.4205 18.5744 25.6811 18.5744 25.8818V26.7849C18.5744 27.0256 18.6562 27.1463 18.6562 27.1463L19.3509 26.4637C19.3509 26.4637 19.2472 26.2231 19.2472 26.0425V25.0243C19.2472 24.7889 19.1873 24.5974 19.1873 24.5974L18.4926 25.4205Z" fill="url(#paint21_linear_0_638)"/>
<path d="M28.6858 25.0186C28.6858 25.254 28.6696 25.884 28.6696 26.065C28.6696 26.2451 28.6273 26.4637 28.6273 26.4637L29.3219 27.1463C29.3219 27.1463 29.4039 27.0256 29.4039 26.7849V25.8818C29.4039 25.6811 29.4857 25.4205 29.4857 25.4205L28.7417 24.5783C28.7417 24.5783 28.6858 24.7837 28.6858 25.0186Z" fill="url(#paint22_linear_0_638)"/>
<path d="M18.881 27.2263L23.9482 27.2663L23.9687 27.2659V26.5994L19.5552 26.5838L18.881 27.2263Z" fill="url(#paint23_linear_0_638)"/>
<path d="M23.989 26.5994H23.9687V27.2659L29.1789 27.2065L28.3413 26.5838L23.989 26.5994Z" fill="url(#paint24_linear_0_638)"/>
<path d="M18.9494 16.637C18.8063 16.637 18.674 16.7128 18.674 16.7128L19.3456 17.3618C19.3456 17.3618 19.4118 17.2208 19.885 17.2208H23.989V16.637H18.9494Z" fill="url(#paint25_linear_0_638)"/>
<path d="M23.989 16.637V17.2208H28.0929C28.5662 17.2208 28.6642 17.4231 28.6642 17.4231L29.3356 16.7744C29.3356 16.7744 29.1718 16.637 29.0288 16.637H23.989Z" fill="url(#paint26_linear_0_638)"/>
<path d="M18.5459 17.2041V18.3826C18.5459 18.5224 18.4835 18.6881 18.4835 18.6881L19.1412 19.4213C19.1412 19.4213 19.1856 19.3603 19.1856 19.055C19.1856 18.7494 19.2121 17.5538 19.2121 17.5538L18.5546 16.8293C18.5546 16.8293 18.5459 17.0209 18.5459 17.2041Z" fill="url(#paint27_linear_0_638)"/>
<path d="M28.6917 17.5678V19.0332C28.6917 19.3387 28.8372 19.4213 28.8372 19.4213L29.641 18.626C29.641 18.626 29.5362 18.4596 29.5362 18.3202C29.5362 18.1804 29.5294 17.3283 29.5294 17.1451C29.5294 16.9618 29.5376 16.7924 29.5376 16.7924L28.6917 17.5678Z" fill="url(#paint28_linear_0_638)"/>
<path d="M18.0022 18.9981H12.363C12.1996 18.9981 11.9338 19.0583 11.8521 19.1387L12.363 19.6606C12.363 19.6606 12.5059 19.5603 12.8534 19.5603H18.7173C18.881 19.5603 19.0442 19.4998 19.0442 19.4998L18.3907 18.8378C18.3907 18.8378 18.227 18.9981 18.0022 18.9981Z" fill="url(#paint29_linear_0_638)"/>
<path d="M35.5665 24.3654C35.5665 24.3654 35.8822 24.2488 35.981 24.6172C35.981 24.6172 36.0598 24.7338 36.2769 24.4232C36.4939 24.1133 38.5467 19.966 38.5264 19.9074C38.5066 19.8494 38.0922 19.7717 38.0922 19.7717L35.5665 24.3654Z" fill="url(#paint30_linear_0_638)"/>
<path d="M38.1516 19.811C38.2505 19.8689 38.3491 19.9466 38.211 20.2372C38.073 20.5274 36.4941 23.5514 36.1589 24.1326C35.8234 24.7139 36.119 24.9466 36.119 24.9466C36.119 24.9466 36.3759 24.83 36.453 24.7044C36.5307 24.5784 38.9412 19.8883 39.1071 19.5734C39.2731 19.2583 39.1579 19.1323 39.1579 19.1323L38.1516 19.811Z" fill="url(#paint31_linear_0_638)"/>
<path d="M23.989 17.2258V26.5994H28.2091C28.4536 26.5994 28.6678 26.5092 28.6678 26.2383V24.8404C28.6678 24.57 28.8511 24.3601 29.0655 24.3601H35.4316C35.6551 24.3601 35.8556 24.2318 35.9721 24.0204C36.4922 23.0757 37.9249 20.3362 38.0333 20.1153C38.1656 19.8457 38.0837 19.6895 37.7771 19.6895H29.3407C28.9738 19.6895 28.698 19.4194 28.698 19.0888V17.5565C28.698 17.3462 28.5759 17.2258 28.3006 17.2258H23.989Z" fill="url(#paint32_linear_0_638)"/>
<path d="M9.20844 24.7543L10.0252 24.2679C10.0252 24.2679 9.93161 24.2279 10.0786 23.9388C10.2258 23.6497 11.6048 20.8882 11.6048 20.8882L11.2971 20.8228L9.20844 24.7543Z" fill="url(#paint33_linear_0_638)"/>
<path d="M9.1345 24.3967C8.9301 24.7581 8.97126 24.8983 8.97126 24.8983L9.4615 24.5772C9.4615 24.5772 11.6477 20.4231 11.8724 19.9413C12.0973 19.4598 11.7622 19.2637 11.7622 19.2637C11.7622 19.2637 9.33889 24.0356 9.1345 24.3967Z" fill="url(#paint34_linear_0_638)"/>
<path d="M9.4653 25.0323C9.43284 25.0537 9.13405 25.0899 9.07571 25.0323C9.01716 24.9753 8.91947 24.9307 8.99754 24.8667C9.07571 24.8026 10.0367 24.2416 10.0367 24.2416C10.0367 24.2416 9.92001 24.3053 10.9074 24.3053H18.8061C19.014 24.3053 19.2087 24.4454 19.2348 24.5349C19.2609 24.6244 19.2088 24.6625 19.1439 24.6499C19.0792 24.637 18.91 24.5859 18.8711 24.522C18.8322 24.4583 18.9231 24.4073 18.3514 24.4073C17.7798 24.4073 13.4147 24.4712 12.4276 24.5604C11.4402 24.6499 10.1406 24.5859 9.4653 25.0323Z" fill="white"/>
<path d="M38.6401 18.9585C38.6724 18.9376 38.9715 18.9015 39.0299 18.9585C39.0882 19.016 39.1859 19.0606 39.1078 19.1246C39.0299 19.1883 38.0686 19.7497 38.0686 19.7497C38.0686 19.7497 38.1851 19.686 37.198 19.686H29.2991C29.0912 19.686 28.8964 19.5459 28.8705 19.4564C28.8444 19.3668 28.8963 19.3284 28.961 19.3414C29.0264 19.3543 29.1951 19.4054 29.2342 19.4689C29.2732 19.533 29.1821 19.5836 29.7539 19.5836C30.3257 19.5836 34.6902 19.5201 35.678 19.4309C36.6651 19.3414 37.9647 19.4054 38.6401 18.9585Z" fill="white"/>
<path d="M12.0156 19.6967C12.0156 19.6064 12.0666 19.4359 12.0258 19.386C11.9849 19.3357 12.1075 19.2754 12.1893 19.3253C12.271 19.3757 12.4446 19.4157 12.465 19.456C12.4854 19.496 12.4548 19.5962 12.3425 19.6365C12.23 19.6765 12.1279 19.7668 11.9543 20.1378C11.7805 20.5095 10.7894 22.3958 10.7894 22.3958C10.7894 22.3958 10.9326 22.0949 10.8713 22.0846C10.81 22.0747 10.6671 22.3256 10.6671 22.3256L12.0156 19.6967Z" fill="white"/>
<path d="M18.8465 19.5193C18.762 19.5276 18.7383 19.4366 18.8104 19.4248C18.883 19.4129 18.979 19.4073 19.0631 19.0819C19.1476 18.7567 19.0875 17.7698 19.0753 17.5926C19.0631 17.4152 18.9791 17.2026 19.0996 17.1081C19.2197 17.0133 19.3041 17.2144 19.6171 17.2144C19.9299 17.2144 20.6401 17.1908 20.6401 17.1908C20.6401 17.1908 19.6412 17.2613 19.4724 17.2853C19.304 17.3089 19.1595 17.4387 19.1835 17.6753C19.2078 17.9118 19.1476 19.1295 19.0996 19.2594C19.0513 19.3893 18.9669 19.5074 18.8465 19.5193Z" fill="white"/>
<path d="M25.5861 17.1981C25.4536 17.2041 28.1239 17.2289 28.2922 17.2289C28.4608 17.2289 28.6533 17.2791 28.6895 17.4444C28.7256 17.6102 28.7 18.1526 28.7 18.1526C28.7 18.1526 28.783 17.4563 28.9034 17.3264C29.0237 17.1961 28.9876 17.0072 28.8311 17.0422C28.6746 17.078 27.4354 17.1162 25.5861 17.1981Z" fill="white"/>
<path d="M29.152 24.445C29.068 24.4328 28.9719 24.4214 28.9476 24.4922C28.9236 24.5626 29.0556 24.6099 28.9236 24.6804C28.7918 24.7512 28.6936 24.7947 28.6936 24.7357C28.6936 24.6766 28.7617 24.3738 29.0139 24.3738C29.2661 24.3738 35.4902 24.362 35.5869 24.362C35.6825 24.362 35.8028 24.3738 35.8507 24.4683C35.8986 24.5626 35.9585 24.7985 35.9948 24.8693C36.0307 24.9402 35.9707 24.9402 35.8625 24.7985C35.7546 24.6568 35.4786 24.5982 35.2626 24.6099C35.0463 24.6217 29.152 24.445 29.152 24.445Z" fill="white"/>
<path d="M36.0186 24.6454C36.0186 24.6454 35.9587 24.5159 35.9227 24.4328C35.8866 24.3505 35.7787 24.3155 35.7787 24.3155C35.7787 24.3155 35.8986 24.1734 36.0666 23.8672C36.2348 23.561 37.0271 22.0983 37.1111 21.8979C37.1111 21.8979 36.9309 22.4408 37.2793 21.9924C37.2793 21.9924 36.1507 24.0908 36.0786 24.2325C36.0068 24.3742 36.0186 24.6454 36.0186 24.6454Z" fill="white"/>
<path d="M19.3219 26.2958C19.3219 26.2958 19.3362 26.4653 19.236 26.5357C19.1356 26.6062 19.0925 26.733 19.1786 26.7895C19.2648 26.8459 19.3221 26.8176 19.3795 26.733C19.4369 26.6485 19.638 26.578 19.7671 26.6062C19.7671 26.6062 19.3219 26.6622 19.3219 26.2958Z" fill="white"/>
<path d="M25.5087 26.5979C25.5087 26.5979 27.9313 26.7232 28.0748 26.7296C28.2179 26.7361 28.3188 26.7407 28.3188 26.7407C28.3188 26.7407 28.0617 26.7007 28.1377 26.6195L25.5087 26.5979Z" fill="white"/>
<path d="M28.3801 26.5781C28.3801 26.5781 28.3084 26.6908 28.4232 26.7468C28.5381 26.8032 28.6531 26.8596 28.7248 26.775C28.7964 26.6905 28.6674 26.4649 28.6816 26.3099C28.6816 26.3099 28.739 26.5498 28.3801 26.5781Z" fill="white"/>
<path d="M31.3348 26.7822H31.2007V27.0054H31.3348C31.4031 27.0054 31.4234 26.9788 31.4234 26.9349V26.8523C31.4234 26.7959 31.3967 26.7822 31.3348 26.7822ZM31.3348 27.0777H31.2007V27.2614H31.119V26.7086H31.3348C31.457 26.7086 31.5051 26.762 31.5051 26.8523V26.9349C31.5051 26.9948 31.484 27.0351 31.4234 27.0618L31.5749 27.2614H31.4781L31.3348 27.0777ZM31.3097 27.4298C31.5978 27.4298 31.749 27.2358 31.749 26.9977C31.749 26.7597 31.5978 26.5628 31.3097 26.5628C31.0213 26.5628 30.8665 26.7597 30.8665 26.9977C30.8665 27.2358 31.0213 27.4298 31.3097 27.4298ZM31.3097 26.4897C31.629 26.4897 31.8239 26.7164 31.8239 26.9967C31.8239 27.2732 31.629 27.5032 31.3097 27.5032C30.9885 27.5032 30.7919 27.2732 30.7919 26.9967C30.7919 26.7164 30.9885 26.4897 31.3097 26.4897Z" fill="black"/>
<path d="M14.8879 30.1335H13.9965V29.0193H13.1362V31.7894H13.9965V30.595H14.8879V31.7894H15.749V29.0193H14.8879V30.1335Z" fill="black"/>
<path d="M30.7133 31.3283V29.0192H29.8528V31.7893H31.9448V31.3283H30.7133Z" fill="black"/>
<path d="M35.6053 29.0193V29.4812H36.3884V31.7894H37.2485V29.4812H38.0322V29.0193H35.6053Z" fill="black"/>
<path d="M10.0322 29.5959C10.0322 29.2497 10.2451 29.0191 10.5645 29.0191H12.2901V29.4807H11.053C10.9568 29.4807 10.8935 29.5506 10.8935 29.654V31.1543C10.8935 31.2585 10.9568 31.3282 11.053 31.3282H12.2901V31.7892H10.5645C10.2451 31.7892 10.0322 31.5581 10.0322 31.2123V29.5959Z" fill="black"/>
<path d="M24.9992 30.6656L25.7431 31.7894H24.8284L24.1698 30.6467V30.2856H24.5253C24.6211 30.2856 24.6848 30.2155 24.6848 30.1122V29.6542C24.6848 29.5508 24.6211 29.4812 24.5253 29.4812H23.9233V31.7894H23.0623V29.0193H25.0134C25.3337 29.0193 25.5455 29.2499 25.5455 29.5961L25.5464 30.156C25.5464 30.461 25.3589 30.6656 25.0764 30.6656H24.9992Z" fill="black"/>
<path d="M27.9823 31.3283C28.0775 31.3283 28.1416 31.2587 28.1416 31.1549V29.6541C28.1416 29.5509 28.0775 29.4808 27.9823 29.4808H27.3821C27.2864 29.4808 27.2221 29.5509 27.2221 29.6541V31.1549C27.2221 31.2587 27.2864 31.3283 27.3821 31.3283H27.9823ZM26.3617 29.596C26.3617 29.2498 26.5738 29.0192 26.8935 29.0192H28.4703C28.7894 29.0192 29.0028 29.2498 29.0028 29.596V31.2126C29.0028 31.5583 28.7894 31.7893 28.4703 31.7893H26.8935C26.5738 31.7893 26.3617 31.5583 26.3617 31.2126V29.596Z" fill="black"/>
<path d="M19.5782 29.0193H20.5011L21.0519 31.1608C21.056 31.1803 21.0701 31.1917 21.0901 31.1917C21.1096 31.1917 21.1249 31.1803 21.1285 31.1608L21.664 29.0193H22.3863L21.7191 31.3964C21.6383 31.6671 21.4924 31.7894 21.186 31.7894H20.7565C20.5595 31.7894 20.3988 31.6895 20.3022 31.3944L19.5782 29.0193Z" fill="black"/>
<path d="M17.4794 31.2409C17.4794 31.294 17.5112 31.3278 17.5596 31.3278H18.9739V31.7894H17.1506C16.8314 31.7894 16.6187 31.5583 16.6187 31.213V29.596C16.6187 29.2498 16.8314 29.0193 17.1506 29.0193H18.9739V29.4812H17.5596C17.5112 29.4812 17.4794 29.5156 17.4794 29.5678V30.1331H18.8116V30.5951H17.4794V31.2409Z" fill="black"/>
<path d="M33.4051 31.2409C33.4051 31.294 33.4366 31.3278 33.4841 31.3278H34.8992V31.7894H33.0758C32.7567 31.7894 32.5427 31.5583 32.5427 31.213V29.596C32.5427 29.2498 32.7567 29.0193 33.0758 29.0193H34.8992V29.4812H33.4841C33.4366 29.4812 33.4051 29.5156 33.4051 29.5678V30.1331H34.7364V30.5951H33.4051V31.2409Z" fill="black"/>
</g>
<defs>
<linearGradient id="paint0_linear_0_638" x1="11.5016" y1="19.6629" x2="11.4891" y2="24.3738" gradientUnits="userSpaceOnUse">
<stop stop-color="#C7D6EE"/>
<stop offset="0.185394" stop-color="#91AFC8"/>
<stop offset="1" stop-color="#002334"/>
</linearGradient>
<linearGradient id="paint1_linear_0_638" x1="25.3927" y1="14.9313" x2="28.2867" y2="17.8778" gradientUnits="userSpaceOnUse">
<stop stop-color="#E1E8F5"/>
<stop offset="0.89888" stop-color="#92A5C1"/>
<stop offset="0.955063" stop-color="#476886"/>
<stop offset="1" stop-color="#E1E8F5"/>
</linearGradient>
<linearGradient id="paint2_linear_0_638" x1="19.7846" y1="17.8614" x2="22.7452" y2="14.8471" gradientUnits="userSpaceOnUse">
<stop stop-color="#E1E8F5"/>
<stop offset="0.0393219" stop-color="#476886"/>
<stop offset="0.0898895" stop-color="#92A5C1"/>
<stop offset="1" stop-color="#E1E8F5"/>
</linearGradient>
<linearGradient id="paint3_linear_0_638" x1="17.8537" y1="17.9991" x2="18.8189" y2="17.0827" gradientUnits="userSpaceOnUse">
<stop stop-color="#E1E8F5"/>
<stop offset="0.157303" stop-color="#C7D6EE"/>
<stop offset="1" stop-color="#E1E8F5"/>
</linearGradient>
<linearGradient id="paint4_linear_0_638" x1="30.3446" y1="18.0351" x2="29.3227" y2="17.0648" gradientUnits="userSpaceOnUse">
<stop stop-color="#E1E8F5"/>
<stop offset="0.157303" stop-color="#C7D6EE"/>
<stop offset="1" stop-color="#E1E8F5"/>
</linearGradient>
<linearGradient id="paint5_linear_0_638" x1="13.2108" y1="20.473" x2="16.5312" y2="17.0923" gradientUnits="userSpaceOnUse">
<stop stop-color="#476886"/>
<stop offset="0.129211" stop-color="#92A5C1"/>
<stop offset="1" stop-color="#E1E8F5"/>
</linearGradient>
<linearGradient id="paint6_linear_0_638" x1="8.97428" y1="25.1639" x2="8.58755" y2="24.6015" gradientUnits="userSpaceOnUse">
<stop stop-color="#002334"/>
<stop offset="0.106735" stop-color="white"/>
<stop offset="0.185394" stop-color="#91AFC8"/>
<stop offset="0.241577" stop-color="#002334"/>
<stop offset="0.533707" stop-color="#5E738F"/>
<stop offset="0.758423" stop-color="#002334"/>
<stop offset="1" stop-color="#002334"/>
</linearGradient>
<linearGradient id="paint7_linear_0_638" x1="11.8037" y1="21.2423" x2="8.77517" y2="22.8115" gradientUnits="userSpaceOnUse">
<stop stop-color="#91AFC8"/>
<stop offset="1" stop-color="#002334"/>
</linearGradient>
<linearGradient id="paint8_linear_0_638" x1="13.4641" y1="25.9672" x2="13.2382" y2="24.6628" gradientUnits="userSpaceOnUse">
<stop stop-color="#A5B9CC"/>
<stop offset="1" stop-color="#002334"/>
</linearGradient>
<linearGradient id="paint9_linear_0_638" x1="18.1389" y1="26.5065" x2="18.5277" y2="26.5065" gradientUnits="userSpaceOnUse">
<stop stop-color="#5E738F"/>
<stop offset="0.48877" stop-color="#91AFC8"/>
<stop offset="1" stop-color="#91AFC8"/>
</linearGradient>
<linearGradient id="paint10_linear_0_638" x1="29.8482" y1="26.4615" x2="29.3669" y2="26.4615" gradientUnits="userSpaceOnUse">
<stop stop-color="#5E738F"/>
<stop offset="0.320221" stop-color="#91AFC8"/>
<stop offset="1" stop-color="#91AFC8"/>
</linearGradient>
<linearGradient id="paint11_linear_0_638" x1="26.2322" y1="28.7103" x2="27.5135" y2="26.4508" gradientUnits="userSpaceOnUse">
<stop stop-color="#A5B9CC"/>
<stop offset="1" stop-color="#002334"/>
</linearGradient>
<linearGradient id="paint12_linear_0_638" x1="20.6845" y1="26.5946" x2="21.9758" y2="28.8716" gradientUnits="userSpaceOnUse">
<stop stop-color="#002334"/>
<stop offset="0.775284" stop-color="#A5B9CC"/>
<stop offset="1" stop-color="#A5B9CC"/>
</linearGradient>
<linearGradient id="paint13_linear_0_638" x1="15.4136" y1="18.0236" x2="21.1799" y2="28.1925" gradientUnits="userSpaceOnUse">
<stop stop-color="#FFEFCF"/>
<stop offset="0.460678" stop-color="#FFE4A6"/>
<stop offset="1" stop-color="#BC956E"/>
</linearGradient>
<linearGradient id="paint14_linear_0_638" x1="31.9155" y1="26.5861" x2="33.5443" y2="24.7375" gradientUnits="userSpaceOnUse">
<stop stop-color="#5E738F"/>
<stop offset="0.606735" stop-color="#91AFC8"/>
<stop offset="1" stop-color="#C7DFF4"/>
</linearGradient>
<linearGradient id="paint15_linear_0_638" x1="33.5757" y1="16.6717" x2="35.7231" y2="20.4585" gradientUnits="userSpaceOnUse">
<stop stop-color="#E1E8F5"/>
<stop offset="0.814606" stop-color="#7F97B4"/>
<stop offset="0.904495" stop-color="#476886"/>
<stop offset="1" stop-color="#002334"/>
</linearGradient>
<linearGradient id="paint16_linear_0_638" x1="36.1346" y1="25.2388" x2="39.634" y2="19.0675" gradientUnits="userSpaceOnUse">
<stop stop-color="#8CA0B5"/>
<stop offset="0.140442" stop-color="#E1E8F5"/>
<stop offset="0.814606" stop-color="#7F97B4"/>
<stop offset="0.904495" stop-color="#476886"/>
<stop offset="1" stop-color="#002334"/>
</linearGradient>
<linearGradient id="paint17_linear_0_638" x1="34.8911" y1="25.3421" x2="36.153" y2="24.6003" gradientUnits="userSpaceOnUse">
<stop stop-color="#002334"/>
<stop offset="0.814606" stop-color="#A5B9CC"/>
<stop offset="0.887634" stop-color="#002334"/>
<stop offset="1" stop-color="#002334"/>
</linearGradient>
<linearGradient id="paint18_linear_0_638" x1="11.9371" y1="22.6012" x2="16.0276" y2="26.766" gradientUnits="userSpaceOnUse">
<stop stop-color="#D4BC7B"/>
<stop offset="0.331467" stop-color="#7F5F39"/>
<stop offset="1" stop-color="#D4BC7B"/>
</linearGradient>
<linearGradient id="paint19_linear_0_638" x1="34.0397" y1="23.184" x2="31.1179" y2="26.1588" gradientUnits="userSpaceOnUse">
<stop stop-color="#D4BC7B"/>
<stop offset="0.331467" stop-color="#7F5F39"/>
<stop offset="1" stop-color="#D4BC7B"/>
</linearGradient>
<linearGradient id="paint20_linear_0_638" x1="36.5308" y1="16.8186" x2="31.8082" y2="21.6269" gradientUnits="userSpaceOnUse">
<stop stop-color="#D4BC7B"/>
<stop offset="0.331467" stop-color="#7F5F39"/>
<stop offset="1" stop-color="#D4BC7B"/>
</linearGradient>
<linearGradient id="paint21_linear_0_638" x1="18.6475" y1="25.8719" x2="19.2756" y2="25.8719" gradientUnits="userSpaceOnUse">
<stop stop-color="#D3BD8B"/>
<stop offset="1" stop-color="#7F5F39"/>
</linearGradient>
<linearGradient id="paint22_linear_0_638" x1="29.3308" y1="25.8624" x2="28.7025" y2="25.8624" gradientUnits="userSpaceOnUse">
<stop stop-color="#D3BD8B"/>
<stop offset="1" stop-color="#7F5F39"/>
</linearGradient>
<linearGradient id="paint23_linear_0_638" x1="20.9636" y1="26.1282" x2="22.0999" y2="28.1321" gradientUnits="userSpaceOnUse">
<stop stop-color="#7F5F39"/>
<stop offset="0.646072" stop-color="#D3BD8B"/>
<stop offset="0.887634" stop-color="#FFE4A6"/>
<stop offset="1" stop-color="#FFE4A6"/>
</linearGradient>
<linearGradient id="paint24_linear_0_638" x1="27.0235" y1="26.1381" x2="25.7821" y2="28.3272" gradientUnits="userSpaceOnUse">
<stop stop-color="#7F5F39"/>
<stop offset="0.455063" stop-color="#D3BD8B"/>
<stop offset="0.887634" stop-color="#FFE4A6"/>
<stop offset="1" stop-color="#FFE4A6"/>
</linearGradient>
<linearGradient id="paint25_linear_0_638" x1="20.1321" y1="18.1449" x2="22.7798" y2="15.4492" gradientUnits="userSpaceOnUse">
<stop stop-color="#D4BC7B"/>
<stop offset="0.0393219" stop-color="#7F5F39"/>
<stop offset="0.106735" stop-color="#D1AC75"/>
<stop offset="1" stop-color="#D4BC7B"/>
</linearGradient>
<linearGradient id="paint26_linear_0_638" x1="27.8853" y1="18.1989" x2="25.1914" y2="15.4561" gradientUnits="userSpaceOnUse">
<stop stop-color="#D4BC7B"/>
<stop offset="0.0393219" stop-color="#7F5F39"/>
<stop offset="0.106735" stop-color="#D1AC75"/>
<stop offset="1" stop-color="#D4BC7B"/>
</linearGradient>
<linearGradient id="paint27_linear_0_638" x1="18.3467" y1="18.5844" x2="19.3324" y2="17.6485" gradientUnits="userSpaceOnUse">
<stop stop-color="#FFE292"/>
<stop offset="0.157303" stop-color="#D1AC75"/>
<stop offset="1" stop-color="#FFE292"/>
</linearGradient>
<linearGradient id="paint28_linear_0_638" x1="29.6928" y1="18.5714" x2="28.6652" y2="17.5957" gradientUnits="userSpaceOnUse">
<stop stop-color="#FFE292"/>
<stop offset="0.157303" stop-color="#D1AC75"/>
<stop offset="1" stop-color="#FFE292"/>
</linearGradient>
<linearGradient id="paint29_linear_0_638" x1="13.8077" y1="20.9306" x2="16.8833" y2="17.7992" gradientUnits="userSpaceOnUse">
<stop stop-color="#7F5F39"/>
<stop offset="1" stop-color="#BD9B6A"/>
</linearGradient>
<linearGradient id="paint30_linear_0_638" x1="36.3988" y1="21.4988" x2="37.7074" y2="22.8311" gradientUnits="userSpaceOnUse">
<stop stop-color="#7F5F39"/>
<stop offset="1" stop-color="#D4BC7B"/>
</linearGradient>
<linearGradient id="paint31_linear_0_638" x1="35.9565" y1="24.8049" x2="38.8143" y2="19.2003" gradientUnits="userSpaceOnUse">
<stop stop-color="#A78A5E"/>
<stop offset="0.764038" stop-color="#7F5F39"/>
<stop offset="0.915726" stop-color="#674C2B"/>
<stop offset="1" stop-color="#674C2B"/>
</linearGradient>
<linearGradient id="paint32_linear_0_638" x1="33.4837" y1="26.0711" x2="25.3022" y2="16.1437" gradientUnits="userSpaceOnUse">
<stop stop-color="#FFEFCF"/>
<stop offset="0.460678" stop-color="#FFE4A6"/>
<stop offset="1" stop-color="#BC956E"/>
</linearGradient>
<linearGradient id="paint33_linear_0_638" x1="8.88028" y1="24.2945" x2="11.7173" y2="21.4059" gradientUnits="userSpaceOnUse">
<stop stop-color="#7F5F39"/>
<stop offset="1" stop-color="#E9CF98"/>
</linearGradient>
<linearGradient id="paint34_linear_0_638" x1="8.36971" y1="24.1225" x2="12.1902" y2="20.2327" gradientUnits="userSpaceOnUse">
<stop stop-color="#7F5F39"/>
<stop offset="1" stop-color="#E4CB90"/>
</linearGradient>
<clipPath id="clip0_0_638">
<rect width="32" height="16" fill="white" transform="translate(8 16)"/>
</clipPath>
</defs>
</svg>
