<svg width="48" height="48" viewBox="0 0 48 48" fill="none" xmlns="http://www.w3.org/2000/svg">
<path fill-rule="evenodd" clip-rule="evenodd" d="M39.0337 37.2916C36.24 34.8963 27.9401 28.0803 24 28.0803C20.0582 28.0803 11.7646 34.8917 8.96924 37.2887C8.95245 36.7225 8.93682 36.3785 8.93682 35.8742C8.93682 35.8742 8.8685 35.0416 9.60498 34.2084C15.6648 28.7178 22.0181 26.0313 22.2132 25.9491C24.1077 25.1483 24.0012 25.2988 23.9994 22.0854C23.9994 22.0854 24.084 22.0802 24.1378 22.086C26.8058 22.3274 33.979 29.2893 38.2242 33.996C38.2317 34.0041 39.062 34.9652 39.062 35.9784C39.0632 36.4532 39.0493 36.9216 39.0337 37.2916ZM38.9196 33.3625C38.4686 32.8623 27.8457 21.1364 24 21.1364C20.1555 21.1364 9.53203 32.8623 9.08157 33.3619L9.08099 33.3625C9.03698 33.4117 8 34.597 8 35.979C8 37.0548 8.07122 38.1375 8.07237 38.1479C8.07469 38.1977 8.09959 38.6551 8.35377 38.7796C8.39488 38.7999 8.43946 38.8103 8.4852 38.8103C8.57958 38.8103 8.68495 38.768 8.79902 38.6847C8.91366 38.5833 19.7357 29.0247 24 29.0247C28.2649 29.0247 39.0875 38.5833 39.1958 38.68C39.3139 38.7669 39.4204 38.8103 39.516 38.8103C39.5623 38.8103 39.6057 38.7999 39.6474 38.7802C39.901 38.6563 39.9259 38.1983 39.9282 38.1468C39.9288 38.1387 40 37.056 40 35.9802C40 34.597 38.963 33.4117 38.9196 33.3625ZM39.0186 26.139C36.2278 23.7465 27.936 16.9375 24.0006 16.9375C20.0628 16.9375 11.7774 23.7425 8.98487 26.1366C8.96808 25.5715 8.95245 25.227 8.95245 24.7239C8.95245 24.7239 8.88413 23.8919 9.62003 23.0599C15.674 17.5744 22.021 14.8908 22.2155 14.8086C24.1083 14.0084 24.0017 14.1589 24 10.949C24 10.949 24.084 10.9438 24.1384 10.9496C26.8035 11.191 33.9697 18.1459 38.2103 22.8474C38.2178 22.8555 39.0476 23.8154 39.0476 24.8281C39.0481 25.3017 39.0337 25.7696 39.0186 26.139ZM38.9045 22.2139C38.4535 21.7143 27.8416 10 24 10C20.1595 10 9.5465 21.7143 9.09662 22.2134L9.09604 22.2139C9.05204 22.2632 8.01563 23.4472 8.01563 24.8281C8.01563 25.9027 8.08743 26.9843 8.08801 26.9947C8.09032 27.0445 8.11522 27.5013 8.36882 27.6258C8.40993 27.6461 8.45451 27.6559 8.50025 27.6559C8.59463 27.6559 8.69943 27.6137 8.81349 27.5303C8.92871 27.429 19.7397 17.8801 24 17.8801C28.2608 17.8801 39.0724 27.429 39.1807 27.5257C39.2983 27.6125 39.4048 27.6554 39.5003 27.6554C39.5466 27.6554 39.5901 27.6455 39.6318 27.6252C39.8848 27.5013 39.9103 27.0439 39.912 26.9924C39.9126 26.9843 39.9838 25.9027 39.9838 24.8281C39.9844 23.4472 38.9485 22.2632 38.9045 22.2139Z" fill="#6E6E6E"/>
</svg>
