<svg width="48" height="48" viewBox="0 0 48 48" fill="none" xmlns="http://www.w3.org/2000/svg">
<g clip-path="url(#clip0_0_931)">
<path d="M14.6321 13.0971C17.6889 14.1604 20.7295 15.2727 23.7935 16.3145C23.9019 16.3564 24.0092 16.3564 24.1176 16.3145C27.1765 15.2676 30.215 14.1645 33.2667 13.0971C32.184 14.8229 31.0911 16.5425 29.9849 18.2529C29.4737 18.0331 28.9472 17.8501 28.432 17.6395C28.7305 17.114 29.0515 16.6008 29.3541 16.0773C28.3686 16.5732 27.3656 17.0342 26.3872 17.5444C27.0712 17.8051 27.7562 18.0607 28.435 18.3357C28.8133 18.4901 29.2192 18.7876 29.2447 19.2313C29.3051 19.7241 28.9687 20.1269 28.7305 20.5215C27.2562 22.828 25.7902 25.1406 24.3088 27.4429C24.3169 26.8357 24.2474 26.2222 24.319 25.619C24.9017 23.7696 25.4773 21.9181 26.0079 20.0533C26.1122 19.7762 25.8024 19.628 25.6031 19.5309C25.0408 19.2824 24.5143 18.9532 23.9387 18.7406C23.3549 18.9931 22.7946 19.2988 22.2221 19.5758C22.0452 19.6576 21.7958 19.8192 21.897 20.0502C22.4235 21.916 23.0052 23.7665 23.5839 25.617C23.6483 26.2212 23.587 26.8346 23.59 27.4429C22.1321 25.161 20.6773 22.876 19.2215 20.5931C18.9679 20.1729 18.5999 19.7435 18.6633 19.219C18.697 18.7784 19.1008 18.486 19.4791 18.3326C20.1518 18.0587 20.8348 17.8082 21.5126 17.5434C20.5362 17.0353 19.5374 16.5701 18.5528 16.0783C18.8544 16.6018 19.1755 17.114 19.473 17.6405C18.9546 17.847 18.4302 18.0382 17.9139 18.2498C16.8118 16.5374 15.7209 14.8167 14.6321 13.0971Z" fill="black"/>
<path d="M21.1098 33.9779C21.12 32.9698 21.1026 31.9628 21.119 30.9548C22.7772 30.966 24.4365 30.9517 26.0948 30.9609C26.4189 30.9496 26.7972 31.1122 26.8616 31.4619C26.9015 31.8043 26.8923 32.1519 26.8677 32.4944C26.8473 32.8727 26.4506 33.1017 26.101 33.0772C24.7484 33.0803 23.3958 33.0751 22.0422 33.0782C22.0432 33.3808 22.0442 33.6824 22.0483 33.985C21.7355 33.9932 21.4226 33.9891 21.1098 33.9779ZM22.0391 31.6387C22.0432 31.8739 22.0452 32.109 22.0503 32.3452C23.3344 32.3329 24.6185 32.3564 25.9026 32.3339C26.1357 32.199 25.9772 31.8749 26.0212 31.6581C24.6952 31.6132 23.3661 31.6489 22.0391 31.6387Z" fill="black"/>
<path d="M8.1186 31.4199C8.2515 31.1194 8.59604 30.9517 8.91604 30.9588C10.5416 30.9548 12.1672 30.9609 13.7937 30.9568C13.7968 31.2349 13.7978 31.514 13.7999 31.7921C12.207 31.8033 10.6121 31.7778 9.02032 31.8043C8.99067 31.8279 8.9324 31.8759 8.90275 31.9004C8.88435 32.3002 8.90684 32.702 8.89048 33.1027C9.03463 33.1385 9.18083 33.1753 9.33112 33.1692C10.8197 33.1651 12.3082 33.1712 13.7968 33.1651C13.7978 33.434 13.7989 33.7029 13.7989 33.9718C12.2397 34.0167 10.6786 33.9779 9.11949 33.9942C8.73713 34.0096 8.26275 33.936 8.11144 33.527C8.02863 33.1651 8.08588 32.7899 8.07054 32.4229C8.07566 32.0896 8.02658 31.7461 8.1186 31.4199Z" fill="#010101"/>
<path d="M14.5748 33.2438C14.5718 32.4811 14.5697 31.7185 14.5789 30.9568C14.9122 30.9578 15.2465 30.9558 15.5808 30.9619C15.5921 31.6929 15.5686 32.4249 15.5951 33.1559C16.8322 33.1804 18.0703 33.1661 19.3073 33.1641C19.3585 32.43 19.3196 31.6939 19.3309 30.9599C19.6682 30.9578 20.0056 30.9588 20.343 30.9548C20.3502 31.7164 20.3522 32.4791 20.345 33.2418C20.3491 33.6507 19.9617 33.9922 19.5619 33.985C18.4005 34.0198 17.2381 33.9738 16.0757 33.9942C15.7403 33.9932 15.3988 34.0137 15.0707 33.9309C14.7926 33.8266 14.5595 33.5516 14.5748 33.2438Z" fill="#010101"/>
<path d="M27.6539 30.9568C29.2826 30.9609 30.9112 30.9568 32.5398 30.9578C32.8915 30.9507 33.3056 31.1337 33.3935 31.5048C33.418 31.8452 33.417 32.1888 33.3925 32.5292C33.3413 32.8155 33.0888 32.9657 32.8578 33.0987C33.0786 33.3788 33.2749 33.6763 33.4732 33.9728C33.0704 33.9472 32.459 34.1885 32.2341 33.7325C32.0992 33.5178 31.9714 33.299 31.8405 33.0823C30.764 33.0731 29.6874 33.0782 28.6109 33.0792C28.6129 33.3757 28.6139 33.6722 28.617 33.9697C28.295 33.9983 27.9719 33.9994 27.6509 33.9779C27.656 32.9709 27.6468 31.9638 27.6539 30.9568ZM28.6211 31.605C28.6129 31.8503 28.6129 32.0967 28.6139 32.3421C29.8858 32.3329 31.1586 32.3595 32.4294 32.3298C32.4611 32.3073 32.5245 32.2613 32.5572 32.2378C32.5388 32.0313 32.6625 31.7195 32.4151 31.6173C31.1514 31.5907 29.8858 31.6162 28.6211 31.605Z" fill="#010101"/>
<path d="M34.1909 31.7082C34.1776 31.2472 34.6592 30.9261 35.0865 30.9578C36.6998 30.9568 38.3131 30.9609 39.9264 30.9558C39.9315 31.9628 39.9438 32.9709 39.9141 33.9779C39.634 33.9902 39.3508 34.0167 39.0717 33.982C38.9449 33.7172 39.0523 33.3716 39.0216 33.0782C37.7252 33.0772 36.4289 33.0782 35.1325 33.0772C35.1305 33.3798 35.1325 33.6834 35.1346 33.9871C34.8207 33.9953 34.5079 33.9912 34.195 33.9779C34.2042 33.2213 34.1756 32.4648 34.1909 31.7082ZM35.1366 31.6479C35.1325 31.88 35.1335 32.1121 35.1376 32.3452C36.4299 32.338 37.7232 32.3431 39.0165 32.3421C39.0185 32.108 39.0195 31.8749 39.0226 31.6408C37.7273 31.6408 36.4319 31.6275 35.1366 31.6479Z" fill="#010101"/>
</g>
<defs>
<clipPath id="clip0_0_931">
<rect width="32" height="21.0607" fill="white" transform="translate(8 13)"/>
</clipPath>
</defs>
</svg>
