<svg width="48" height="48" viewBox="0 0 48 48" fill="none" xmlns="http://www.w3.org/2000/svg">
<g clip-path="url(#clip0_0_24629)">
<path fill-rule="evenodd" clip-rule="evenodd" d="M9.79818 15V17.6864H19.7402V19.0408V20.3953H9.79818V23.0817H20.7755C21.0273 23.0817 21.1933 23.0118 21.3649 22.8393L24.2551 20.028L27.1453 22.8393C27.3169 23.0118 27.4829 23.0817 27.7347 23.0817H38.712V20.3953H28.77V19.0408V17.6864H38.712V15H27.7347C27.4829 15 27.3169 15.0699 27.1453 15.2424L24.2551 18.0537L21.3649 15.2424C21.1933 15.0699 21.0273 15 20.7755 15H9.79818Z" fill="#241F21"/>
<path fill-rule="evenodd" clip-rule="evenodd" d="M8 29.1145V30.2246L12.0859 30.2508C12.1834 30.2508 12.2374 30.2732 12.2995 30.3352L12.734 30.7107C12.7658 30.7425 12.7803 30.7628 12.7803 30.7956C12.7803 30.8283 12.7658 30.8487 12.734 30.8805L12.2995 31.256C12.2374 31.3181 12.1834 31.3404 12.0859 31.3404L8 31.3666V32.4768H12.5975C12.7616 32.4768 12.8426 32.4499 12.9479 32.3446L14.2616 30.9867C14.3111 30.9372 14.3435 30.8599 14.3435 30.7956C14.3435 30.7312 14.3111 30.6541 14.2616 30.6046L12.9479 29.2466C12.8426 29.1413 12.7616 29.1145 12.5975 29.1145H8Z" fill="#241F21"/>
<path d="M18.3722 29.1145C18.2999 29.1145 18.2589 29.129 18.2306 29.1574L15.0052 32.3959C14.9714 32.4299 14.9867 32.4768 15.0393 32.4768H16.6076L18.2709 30.7514C18.3054 30.7169 18.3313 30.7024 18.3722 30.7024C18.4131 30.7024 18.4391 30.7169 18.4736 30.7514L20.1369 32.4768H21.7051C21.7578 32.4768 21.7731 32.4299 21.7392 32.3959L18.5139 29.1574C18.4855 29.129 18.4445 29.1145 18.3722 29.1145Z" fill="#241F21"/>
<path fill-rule="evenodd" clip-rule="evenodd" d="M28.7713 29.1145V30.2246L24.6855 30.2508C24.5879 30.2508 24.5339 30.2732 24.4719 30.3352L24.0374 30.7107C24.0056 30.7425 23.991 30.7628 23.991 30.7956C23.991 30.8283 24.0056 30.8487 24.0374 30.8805L24.4719 31.256C24.5339 31.3181 24.5879 31.3404 24.6855 31.3404L28.7713 31.3666V32.4768H24.1739C24.0097 32.4768 23.9287 32.4499 23.8234 32.3446L22.5097 30.9867C22.4603 30.9372 22.4279 30.8599 22.4279 30.7956C22.4279 30.7312 22.4603 30.6541 22.5097 30.6046L23.8234 29.2466C23.9287 29.1413 24.0097 29.1145 24.1739 29.1145H28.7713Z" fill="#241F21"/>
<path d="M31.9759 29.1145H30.6907V32.4768H31.9759V29.1145Z" fill="#241F21"/>
<path d="M36.615 29.1145C36.5427 29.1145 36.5017 29.129 36.4734 29.1574L33.248 32.3959C33.2142 32.4299 33.2294 32.4768 33.2821 32.4768H34.8504L36.5136 30.7514C36.5482 30.7169 36.5741 30.7024 36.615 30.7024C36.6559 30.7024 36.6819 30.7169 36.7164 30.7514L38.3797 32.4768H39.9479C40.0006 32.4768 40.0158 32.4299 39.982 32.3959L36.7567 29.1574C36.7283 29.129 36.6873 29.1145 36.615 29.1145Z" fill="#241F21"/>
</g>
<defs>
<clipPath id="clip0_0_24629">
<rect width="32" height="17.4768" fill="white" transform="translate(8 15)"/>
</clipPath>
</defs>
</svg>
