<svg width="48" height="48" viewBox="0 0 48 48" fill="none" xmlns="http://www.w3.org/2000/svg">
<path fill-rule="evenodd" clip-rule="evenodd" d="M16.6312 19.2021C23.7014 19.2021 33.6184 19.8448 38.3013 21.7731C38.7605 21.9569 39.0818 22.0945 39.0818 22.4158C39.0818 22.8748 38.1178 23.1503 37.2455 23.4258C33.7563 24.5279 27.558 25.8131 18.4219 26.4562L10.0201 18.0085C9.19365 18.0085 8.50507 18.0546 8 18.1002L16.7232 26.8234L14.3357 30.2667C28.4305 28.0171 34.8123 25.8133 37.6588 24.5279C38.2556 24.2065 40 23.4717 40 22.4158C40 21.7729 39.4032 21.4057 38.6689 21.0844C35.7305 19.8448 30.8637 19.0182 26.043 18.6051C21.0388 18.1 14.3816 17.9624 10.7087 18.0083L18.5596 25.8592C20.0746 25.7672 21.5437 25.6294 22.921 25.4917L16.6312 19.2021Z" fill="black"/>
</svg>
