<svg width="48" height="48" viewBox="0 0 48 48" fill="none" xmlns="http://www.w3.org/2000/svg">
<g clip-path="url(#clip0_0_970)">
<path fill-rule="evenodd" clip-rule="evenodd" d="M35.3866 22.1058L31.5619 26.534H33.4358L37.2528 22.1093L35.3866 22.1058V22.1058ZM38.0272 22.1058L34.2026 26.534H36.0765L39.8934 22.1093L38.0272 22.1058V22.1058Z" fill="#D50000"/>
<path fill-rule="evenodd" clip-rule="evenodd" d="M16.0677 23.1703C15.5245 23.1686 13.6186 23.2167 13.6186 24.0882C13.6186 24.7015 14.5103 24.8781 15.2464 24.9575C15.7675 25.0136 16.2092 25.011 16.2092 25.011C16.2092 25.011 16.6233 25.0275 17.1249 24.9991C17.9032 24.9548 18.8939 24.7794 18.8939 24.0879C18.8939 23.175 16.307 23.1718 16.2074 23.1718C16.195 23.1718 16.1452 23.1705 16.0677 23.1703ZM10.9512 23.1958L8.42413 23.1968C8.42419 23.1968 8.30573 23.1866 8.23518 23.2418C8.1693 23.2932 8.16868 23.4093 8.16868 23.4093L8.14993 24.7817C8.14993 24.9943 8.39119 24.9775 8.39119 24.9775L11.0394 24.9755C11.0394 24.9755 11.9098 24.9971 12.5034 24.796C12.8926 24.6643 13.0926 24.4118 13.0926 24.091C13.0926 23.7321 12.7469 23.4843 12.2784 23.3543C11.6899 23.191 10.9512 23.1958 10.9512 23.1958H10.9512ZM22.2179 23.1958L19.6917 23.1968C19.6917 23.1968 19.5732 23.1866 19.5027 23.2418C19.4367 23.2932 19.4362 23.4093 19.4362 23.4093L19.4172 24.7817C19.4172 24.9943 19.6584 24.9775 19.6584 24.9775L22.3075 24.9755C22.3075 24.9755 23.1766 24.9971 23.7706 24.796C24.1597 24.6643 24.3606 24.4118 24.3606 24.091C24.3606 23.7321 24.015 23.4843 23.5453 23.3543C22.9578 23.191 22.2179 23.1958 22.2179 23.1958ZM29.7789 23.1978C29.7558 23.1978 26.8477 23.2 26.8477 23.2C26.8477 23.2 26.6301 23.1988 26.3408 23.2248C25.761 23.2767 24.8906 23.4536 24.8906 24.0882C24.8906 24.3835 25.0506 24.5927 25.327 24.7247C25.9286 24.9969 26.9757 24.9765 26.9757 24.9765H29.592C29.8211 24.9765 29.8442 24.8411 29.8442 24.7497C29.8442 24.6584 29.8506 24.2965 29.8506 24.0882C29.8506 23.8801 29.6253 23.8977 29.6253 23.8977H27.297C27.1946 23.8977 27.1946 23.9811 27.1946 23.9811C27.1946 23.9811 27.1894 24.0883 27.1894 24.1836C27.1894 24.2791 27.2867 24.2765 27.2867 24.2765H28.6294C28.7178 24.2765 28.728 24.3478 28.728 24.3478V24.5091C28.728 24.592 28.6397 24.5975 28.6397 24.5975H27.0986C26.8605 24.5975 26.0259 24.5975 26.0259 24.0882C26.0259 23.579 27.0115 23.5743 27.0115 23.5743H29.7648C29.8762 23.5743 29.8608 23.4403 29.8608 23.4403V23.2725C29.8608 23.1996 29.8019 23.1978 29.7789 23.1978ZM30.6826 23.199C30.4765 23.199 30.4099 23.2326 30.4035 23.423C30.3984 23.5735 30.3818 24.5139 30.3818 24.7315C30.3818 24.9489 30.5021 24.9765 30.6454 24.9765H34.8643C34.959 24.9765 34.9552 24.9031 34.9552 24.8863V24.6767C34.9552 24.597 34.8387 24.5975 34.8387 24.5975H31.6477C31.5235 24.5975 31.5274 24.5205 31.5274 24.5205C31.5274 24.5205 31.5286 24.4475 31.5286 24.366C31.5286 24.2847 31.6029 24.2715 31.6387 24.2715H34.6416C34.7299 24.2715 34.7286 24.1886 34.7286 24.1886V23.9811C34.7286 23.8913 34.6198 23.8948 34.6198 23.8948H31.6285C31.5286 23.8948 31.5274 23.7935 31.5274 23.7935L31.5299 23.6805C31.5299 23.5825 31.6285 23.5743 31.6285 23.5743H34.7926C34.8861 23.5743 34.8989 23.5068 34.8989 23.4403V23.2725C34.8989 23.1917 34.7875 23.199 34.7875 23.199H30.6826ZM16.216 23.5483C16.4805 23.5483 17.759 23.5713 17.759 24.0945C17.7605 24.6565 16.566 24.624 16.216 24.624C15.8659 24.624 14.7626 24.6025 14.7626 24.0945C14.7626 23.5323 15.9514 23.5483 16.216 23.5483ZM10.9748 23.5743C10.9748 23.5743 11.3301 23.588 11.6017 23.691C11.8146 23.7718 11.9583 23.9175 11.9583 24.089C11.9583 24.2334 11.8648 24.3789 11.6956 24.4565C11.4062 24.5889 10.9735 24.597 10.9735 24.597L9.34305 24.598C9.34305 24.598 9.25104 24.6003 9.25104 24.515C9.25104 24.515 9.26554 23.6705 9.26554 23.6595C9.26554 23.6484 9.26448 23.5753 9.36173 23.5753C9.47361 23.5753 10.9748 23.5743 10.9748 23.5743ZM22.2416 23.5743C22.2416 23.5743 22.5974 23.588 22.8688 23.691C23.0826 23.7718 23.2259 23.9175 23.2259 24.089C23.2259 24.2334 23.1325 24.3789 22.9622 24.4565C22.673 24.5889 22.2403 24.597 22.2403 24.597L20.6102 24.598C20.6102 24.598 20.5186 24.6003 20.5186 24.515C20.5186 24.515 20.5328 23.6705 20.5328 23.6595C20.5328 23.6484 20.5318 23.5753 20.6291 23.5753C20.7408 23.5753 22.2416 23.5743 22.2416 23.5743Z" fill="black"/>
</g>
<defs>
<clipPath id="clip0_0_970">
<rect width="32" height="4.68429" fill="white" transform="translate(8 22)"/>
</clipPath>
</defs>
</svg>
