<svg width="48" height="48" viewBox="0 0 48 48" fill="none" xmlns="http://www.w3.org/2000/svg">
<g clip-path="url(#clip0_0_976)">
<path d="M32.9619 8.00221C33.5151 8.00221 33.9625 8.4448 33.9625 8.99218V38.9794C33.9625 39.5263 33.5151 39.9693 32.9619 39.9693H15.0427C14.49 39.9693 14.0425 39.5263 14.0425 38.9794V8.99218C14.0425 8.4448 14.49 8.00221 15.0427 8.00221H32.9619Z" fill="white"/>
<path d="M14.4314 12.4475H33.5866V38.9195C33.5866 39.1396 33.549 39.2757 33.4005 39.4234C33.2393 39.5835 33.098 39.5979 32.8428 39.5979L15.0034 39.5997C14.8628 39.5997 14.755 39.5549 14.6386 39.4565C14.4945 39.333 14.4314 39.179 14.4314 39.0161V12.4475Z" fill="#FFF200"/>
<path d="M33.5866 11.1157H14.4314V12.4757H33.5866V11.1157Z" fill="#ED1C24"/>
<path d="M33.5866 9.75296H14.4314V11.113H33.5866V9.75296Z" fill="white"/>
<path d="M14.9729 8.36963H33.0326C33.3218 8.36963 33.5885 8.64844 33.5885 8.92055V9.78874H14.4314L14.4332 9.02522V8.96169C14.4332 8.65385 14.6704 8.40006 14.9729 8.36963Z" fill="#009A4E"/>
<path d="M32.9619 8.00221C33.5151 8.00221 33.9625 8.4448 33.9625 8.99218V38.9794C33.9625 39.5263 33.5151 39.9693 32.9619 39.9693H15.0427C14.49 39.9693 14.0425 39.5263 14.0425 38.9794V8.99218C14.0425 8.4448 14.49 8.00221 15.0427 8.00221H32.9619ZM32.9619 8.39738H15.0427C14.7106 8.39738 14.4422 8.66409 14.4422 8.99218V38.9794C14.4422 39.3079 14.7107 39.5728 15.0427 39.5728H32.9619C33.294 39.5728 33.5625 39.3079 33.5625 38.9794V8.99218C33.5625 8.66415 33.294 8.39738 32.9619 8.39738Z" fill="black"/>
<path d="M23.6501 14.1276C23.6501 14.1276 23.638 14.243 23.6116 14.3106C23.5857 14.3732 23.5181 14.4154 23.5226 14.4574C23.527 14.4986 23.5709 14.5482 23.6389 14.5826C23.7056 14.6175 23.7324 14.6444 23.8009 14.6619C23.8644 14.6776 23.945 14.7241 23.9678 14.6708C23.9907 14.6167 23.9562 14.5509 23.9177 14.4878C23.8506 14.3777 23.8166 14.3508 23.7177 14.1996C23.6966 14.167 23.6801 14.132 23.6501 14.1276Z" fill="black"/>
<path d="M23.1484 26.0207C23.1551 26.001 23.3135 26.1013 23.3958 26.1496C23.569 26.2534 23.6469 26.3152 23.8 26.4297C23.9213 26.5219 23.9799 26.5694 24.1016 26.6741C24.2511 26.803 24.3316 26.913 24.372 26.888C24.4301 26.8182 24.2767 26.6141 24.141 26.5032C24.009 26.3939 23.8725 26.3054 23.7673 26.2364C23.6317 26.146 23.6196 26.1254 23.4169 25.9893C23.199 25.8435 23.011 25.66 23.011 25.66L22.7993 25.4936L22.4677 25.2138L22.099 24.8742L21.8206 24.564C21.8206 24.564 21.604 24.2991 21.5696 24.248C21.5347 24.1975 21.4326 24.0336 21.3485 23.895C21.2733 23.7705 21.1274 23.5772 21.114 23.5607C21.0352 23.4653 20.8553 23.5038 20.6463 23.3808C20.3926 23.2308 20.3312 23.0939 20.3312 23.0939C20.3312 23.0939 20.3218 23.0738 20.312 23.063C20.3025 23.0518 20.2833 23.038 20.2833 23.038L20.1504 22.9453L20.0743 22.8952C20.0743 22.8952 20.0166 22.8473 19.9441 22.8164C19.8711 22.7842 19.7087 22.6897 19.7087 22.6897L19.4182 22.5045C19.4182 22.5045 19.3046 22.4132 19.267 22.3828C19.2285 22.3537 19.1569 22.3121 19.1569 22.3121C19.1569 22.3121 19.1112 22.2892 19.0974 22.2883C19.0835 22.2874 19.0231 22.2821 19.0231 22.2821C19.0231 22.2821 18.9672 22.2673 18.9103 22.334C18.8535 22.4012 18.8674 22.3653 18.96 22.743C18.9967 22.8916 18.9931 23.4157 19.0325 23.5754C19.0826 23.7804 19.2267 24.0453 19.2415 24.0766C19.2559 24.1075 19.2661 24.2221 19.2661 24.2221C19.2661 24.2221 19.2599 24.3148 19.2697 24.3734C19.3136 24.6441 19.7096 24.466 19.7969 24.8375C19.8829 25.204 19.7455 25.5696 19.7455 25.5696C19.7455 25.5696 19.6604 25.7514 19.54 25.78C19.4201 25.8078 19.2339 25.5419 19.0992 25.3267C18.9663 25.1149 18.8576 24.8375 18.8227 24.7493C18.7878 24.6611 18.7694 24.6419 18.7291 24.5779C18.6696 24.4826 18.6217 24.5001 18.5551 24.3497C18.4879 24.1993 18.5474 24.1389 18.5175 24.0078C18.5 23.9353 18.4844 23.9272 18.4616 23.8234C18.4396 23.72 18.4101 23.3911 18.4101 23.3911L18.368 23.085C18.368 23.085 18.3532 22.9453 18.334 22.8576C18.2673 22.5515 18.2441 22.2552 18.2441 22.2552L18.2316 22.1335L18.2271 22.0078C18.2271 22.0078 18.2231 21.9473 18.2378 21.8851C18.2526 21.823 18.2826 21.7715 18.2826 21.7715C18.2826 21.7715 18.3444 21.6681 18.3551 21.6422C18.3654 21.6176 18.4916 21.4708 18.4916 21.4708C18.4916 21.4708 18.5578 21.4157 18.6657 21.3499C18.7741 21.2841 18.8712 21.2886 18.8712 21.2886C18.8712 21.2886 18.8998 21.2859 19.0914 21.3097C19.2829 21.3333 19.6767 21.4381 19.7761 21.4636C19.8741 21.4901 19.9914 21.5312 20.0674 21.5737C20.2863 21.6927 20.3525 21.6422 20.1784 21.5057C20.0611 21.414 20.0281 21.3728 19.9336 21.2869C19.8539 21.2135 19.7913 21.1647 19.7318 21.0971C19.6723 21.0282 19.5027 20.7781 19.5027 20.7781L19.3966 20.6214C19.3966 20.6214 19.3398 20.557 19.3303 20.5525C19.3214 20.5471 19.2927 20.5252 19.2927 20.5252C19.2927 20.5252 19.2225 20.5288 19.15 20.5149C19.0766 20.5001 19.0426 20.6031 19.0426 20.6031C19.0426 20.6031 18.885 20.8971 18.7248 21.0771C18.4653 21.3692 18.2791 21.568 18.1838 21.7237C18.05 21.9394 18.0795 22.1758 18.0106 22.2849C17.9703 22.3489 17.9484 22.3583 17.9265 22.4142C17.8593 22.5839 18.1032 22.6769 18.0473 22.8649C17.9582 23.163 17.2601 23.4579 17.1674 23.4086C17.0712 23.3581 17.15 22.9549 17.1822 22.8246C17.2153 22.6935 17.3133 22.5002 17.3223 22.4904C17.3308 22.4809 17.3545 22.4353 17.3616 22.3968C17.3693 22.3583 17.3719 22.2711 17.3764 22.2227C17.3809 22.1739 17.401 22.097 17.401 22.097C17.401 22.097 17.4037 22.0804 17.4654 21.9466C17.5276 21.812 17.755 21.4986 17.9179 21.1997C18.0253 21.0046 18.0701 20.8865 18.1775 20.6908C18.2764 20.5114 18.446 20.2375 18.446 20.2375C18.446 20.2375 18.5175 20.0979 18.5511 20.046C18.5851 19.9927 18.6567 19.892 18.7238 19.7926C18.7914 19.6937 18.808 19.6194 18.8961 19.538C18.9691 19.47 19.0188 19.4337 19.1141 19.4033C19.2559 19.3563 19.3531 19.3814 19.4981 19.4217C19.6484 19.4628 19.7518 19.5317 19.8503 19.6132C19.9483 19.6956 20.0212 19.7864 20.0212 19.7864L20.0691 19.8571L20.0986 19.8746L20.19 19.9332L20.399 20.0714C20.399 20.0714 20.8948 20.4089 20.9226 20.4272C20.949 20.4447 21.038 20.5176 21.0555 20.5235C21.0739 20.5288 21.2059 20.3856 21.465 20.2071C21.7648 19.9989 21.8709 20.0146 21.9703 19.9605C22.0683 19.9063 22.1086 19.8616 22.1856 19.7846C22.302 19.6682 22.3028 19.606 22.4349 19.4436C22.5678 19.2816 22.6922 19.1907 22.6922 19.1907C22.6922 19.1907 22.7105 19.1724 22.9473 18.9048C23.1836 18.6381 23.2883 18.4362 23.2883 18.4362L23.4181 18.1762C23.4181 18.1762 23.6061 17.7721 23.6665 17.6123C23.7274 17.4521 23.7274 17.3988 23.7274 17.3988C23.7274 17.3988 23.7363 17.3567 23.6906 17.2753C23.6436 17.1942 23.5953 17.2309 23.5053 17.2493C23.3331 17.286 23.2283 17.2412 23.0543 17.2109C22.895 17.1844 22.8117 17.1366 22.6519 17.1102C22.4899 17.0829 22.3955 17.0561 22.233 17.0717C22.2084 17.0744 22.1588 17.0847 22.135 17.0927C22.0432 17.1231 22.0177 17.1303 21.9497 17.1697C21.871 17.2064 21.8191 17.218 21.7318 17.2202C21.6713 17.222 21.6347 17.2239 21.5788 17.2019C21.5402 17.1871 21.5183 17.176 21.4879 17.1487C21.4696 17.1321 21.4597 17.1213 21.4458 17.0999C21.4441 17.0829 21.4387 17.0837 21.4552 17.0561C21.4714 17.0278 21.4915 17.0229 21.4915 17.0229L21.5658 17.0046C21.5658 17.0046 21.6705 16.9773 21.6803 16.9745C21.6898 16.9719 21.7896 16.9396 21.8334 16.9258C21.8777 16.9119 21.9261 16.8864 21.9261 16.8864C21.9261 16.8864 21.9529 16.8435 21.9426 16.8188C21.9296 16.791 21.8701 16.7884 21.8701 16.7884C21.8701 16.7884 21.7868 16.8188 21.7775 16.8215C21.7685 16.8233 21.6355 16.8653 21.6355 16.8653C21.6355 16.8653 21.5313 16.8882 21.4503 16.9074C21.3688 16.9257 21.2525 16.9352 21.2525 16.9352L21.2176 16.9257C21.2176 16.9257 21.1782 16.8993 21.172 16.8716C21.1661 16.847 21.1625 16.8286 21.1581 16.8005C21.1406 16.6975 21.1196 16.6353 21.1442 16.5338C21.1536 16.4912 21.1635 16.4675 21.1818 16.4282C21.1974 16.3955 21.2077 16.3767 21.2279 16.3458L21.2919 16.241L21.4128 16.0625C21.4544 16.0204 21.4817 15.9994 21.534 15.9699C21.611 15.9269 21.6557 15.9148 21.752 15.9041C21.8464 15.8938 21.8594 15.8947 21.9932 15.8647C22.1279 15.8342 22.2232 15.781 22.2232 15.781C22.2232 15.781 22.545 15.6628 22.741 15.5666C22.9464 15.4659 23.0359 15.3585 23.2485 15.2753C23.3385 15.2404 23.3908 15.2238 23.4835 15.2001C23.4951 15.1925 23.5009 15.1853 23.5045 15.1714C23.5135 15.1379 23.4616 15.1222 23.4257 15.1258C23.3935 15.1284 23.3201 15.1625 23.3036 15.1258C23.291 15.0976 23.3706 15.081 23.3706 15.081C23.3706 15.081 23.4082 15.0636 23.4092 15.0426C23.4101 15.0103 23.3551 15.0313 23.3304 15.0287C23.2055 15.0147 23.1957 14.9919 23.1093 14.9709C23.0077 14.9455 22.9527 14.9141 22.8471 14.9096C22.754 14.906 22.6667 14.9257 22.6081 14.9396C22.5504 14.9544 22.5486 14.8975 22.5714 14.8863C22.7348 14.8102 22.7383 14.804 22.8538 14.7986C22.9169 14.7959 23.0051 14.8094 23.0149 14.8143C23.0243 14.8196 23.1505 14.8134 23.1828 14.7803C23.2159 14.748 23.0794 14.7498 23.0149 14.7243C22.9555 14.7006 22.8646 14.6939 22.8664 14.6545C22.8695 14.6151 22.9134 14.637 22.9447 14.629C22.984 14.6196 23.0069 14.6205 23.0472 14.6152C23.1197 14.6053 23.1259 14.5986 23.2333 14.5897C23.3394 14.5794 23.4925 14.6246 23.4925 14.6246C23.4925 14.6246 23.6531 14.6958 23.7319 14.7334C23.8107 14.77 23.906 14.7893 23.906 14.7893C23.906 14.7893 24.0178 14.8049 24.1029 14.7517C24.1893 14.6989 24.1405 14.664 24.1105 14.6152C24.0809 14.5695 24.0434 14.5033 24.0984 14.378C24.1472 14.2688 24.1727 14.1413 24.1866 14.1296C24.2041 14.1158 24.2717 14.2138 24.3155 14.2541C24.4726 14.4009 24.6803 14.4734 24.8763 14.7803C24.8915 14.8049 24.964 14.7656 25.1913 14.8005C25.4186 14.8354 25.6174 15.0788 25.6675 15.137C25.7195 15.1956 25.7866 15.1925 25.7866 15.1925L25.8958 15.2073L26.2922 15.214C26.2922 15.214 26.4722 15.1817 26.576 15.2212C26.6485 15.2485 26.8902 15.41 26.7801 15.4713C26.7031 15.5143 26.6306 15.4199 26.5608 15.4154C26.4784 15.41 26.4426 15.4257 26.3692 15.444C26.2153 15.4825 25.885 15.5823 26.0049 15.6226C26.0138 15.6261 26.0309 15.6288 26.0309 15.6288L26.0899 15.6391C26.0899 15.6391 26.235 15.6722 26.3227 15.7066C26.4551 15.759 26.5178 15.8168 26.6395 15.8883C26.7093 15.9286 26.7398 15.9689 26.8158 15.9917C26.8856 16.0119 26.9304 15.9917 27.002 16.0038C27.096 16.0204 27.1487 16.0397 27.2347 16.0808C27.3627 16.1421 27.4092 16.2164 27.5238 16.2988C27.5811 16.3404 27.6294 16.3466 27.6724 16.4026C27.6823 16.4151 27.6904 16.4219 27.6948 16.4366C27.7101 16.4876 27.6106 16.4576 27.5579 16.4492C27.4997 16.4393 27.4755 16.4106 27.4218 16.386C27.3422 16.3484 27.3046 16.3073 27.2177 16.2916C27.1551 16.2795 27.1175 16.2889 27.0531 16.2925C26.9904 16.2952 26.9573 16.3046 26.8946 16.3055C26.7881 16.3073 26.7281 16.2979 26.6234 16.2759C26.5061 16.2513 26.4479 16.2057 26.3316 16.1815C26.2 16.1542 25.9674 16.0414 25.9897 16.1542C26.0013 16.2083 26.1249 16.254 26.1249 16.254C26.1249 16.254 26.2099 16.2996 26.2904 16.3354C26.371 16.3703 26.4157 16.4236 26.4157 16.4236L26.4712 16.4648C26.4712 16.4648 26.5285 16.5436 26.6037 16.6326C26.6771 16.7203 26.8077 16.7176 26.8077 16.7176C26.8077 16.7176 26.8865 16.7176 27.0565 16.7525C27.2257 16.7874 27.4003 16.8921 27.4003 16.8921C27.4003 16.8921 27.5318 16.9825 27.6088 17.0734C27.6849 17.1643 27.641 17.2099 27.6312 17.2193C27.6223 17.2291 27.6258 17.2246 27.6151 17.2291C27.6062 17.2336 27.5113 17.1145 27.5113 17.1145L27.4433 17.0568C27.4433 17.0568 27.377 17.0103 27.2911 16.9825C27.2052 16.9552 27.1765 16.9736 27.1765 16.9736C27.1765 16.9736 26.9939 17.0246 26.8346 17.0201C26.6771 17.0156 26.5947 16.9525 26.5947 16.9525L26.4945 16.8853C26.4945 16.8853 26.3441 16.7444 26.3387 16.8111C26.3351 16.8563 26.4049 16.9064 26.4049 16.9064C26.4049 16.9064 26.4533 16.9552 26.4855 16.9861C26.5464 17.046 26.5715 17.0761 26.6413 17.1382C26.7111 17.2009 26.754 17.2009 26.754 17.2009C26.754 17.2009 26.7916 17.2098 26.8059 17.2126C26.8203 17.2152 26.8454 17.222 26.8454 17.222C26.8454 17.222 26.8687 17.2309 26.9778 17.2753C27.0861 17.3191 27.2034 17.4145 27.2034 17.4145C27.2034 17.4145 27.2141 17.4234 27.2303 17.4266C27.2463 17.4284 27.2785 17.4445 27.2875 17.4472C27.2973 17.4494 27.3251 17.4494 27.3878 17.4583C27.4513 17.4677 27.4271 17.508 27.4271 17.508L27.4164 17.5232L27.3644 17.5581C27.3644 17.5581 27.2973 17.5774 27.2517 17.5796C27.2051 17.5823 27.1389 17.5564 27.1389 17.5564L26.9983 17.5035C26.9983 17.5035 26.8561 17.4659 26.8256 17.461C26.7952 17.4565 26.6681 17.431 26.6466 17.4266C26.626 17.4217 26.5625 17.3988 26.5455 17.389C26.5285 17.3796 26.4972 17.3733 26.4202 17.3357C26.3441 17.2981 26.3137 17.2547 26.2188 17.2247C26.1231 17.1943 26.0649 17.1881 25.9932 17.2378C25.8697 17.3228 26.1794 17.3367 26.3334 17.4136C26.5608 17.5255 26.6887 17.6078 26.7424 17.7287C26.797 17.8499 26.8516 17.8938 26.8516 17.8938C26.8516 17.8938 27.0118 17.9744 27.0834 18.0589C27.1228 18.1045 27.1282 18.1422 27.1675 18.1878C27.2552 18.2907 27.4253 18.2849 27.4594 18.3722C27.4916 18.4536 27.3215 18.4169 27.2329 18.4088C27.0736 18.3932 27.0351 18.2473 26.8865 18.1887C26.8024 18.1551 26.7487 18.1551 26.6627 18.1256C26.5061 18.0741 26.4327 18.0066 26.276 17.9578C26.1811 17.9287 26.0093 17.8039 26.0308 17.9C26.0343 17.9233 26.0486 17.9412 26.0549 17.9551C26.063 17.969 26.1023 18.02 26.1023 18.02C26.1023 18.02 26.1551 18.0898 26.1793 18.1082C26.2017 18.1275 26.3028 18.2035 26.4478 18.2823C26.591 18.3611 26.7163 18.5123 26.7163 18.5123C26.7163 18.5123 26.7593 18.5741 26.7799 18.6171C26.8013 18.6655 26.7861 18.6802 26.8201 18.7473C26.8514 18.814 26.8667 18.827 26.9096 18.8682C27.0152 18.9698 27.1262 18.9496 27.2605 19.0047C27.2972 19.0203 27.2998 19.0257 27.3392 19.0677C27.3786 19.1093 27.332 19.1272 27.332 19.1272C27.332 19.1272 27.1826 19.1657 27.0859 19.1576C26.9606 19.1478 26.9042 19.1093 26.7825 19.0484C26.659 18.988 26.5946 18.8793 26.5821 18.8726C26.5713 18.8654 26.5409 18.8332 26.5176 18.8166C26.4944 18.8001 26.4343 18.7875 26.3806 18.7728C26.3261 18.758 26.2956 18.7553 26.241 18.7405C26.1667 18.7195 26.0897 18.6868 26.0548 18.6757C26.0199 18.6636 25.9402 18.6492 25.8821 18.6837C25.7657 18.7526 26.0628 18.7991 26.1551 18.8981C26.2025 18.9478 26.2221 18.9827 26.2669 19.0351C26.301 19.0753 26.3153 19.1035 26.3574 19.1348C26.386 19.1558 26.4388 19.1786 26.4388 19.1786C26.4388 19.1786 26.5104 19.2118 26.6151 19.2695C26.7198 19.3272 26.8424 19.4906 26.8424 19.4906L26.9167 19.6042L26.9606 19.6691L26.9722 19.6991L26.9883 19.7358C26.9883 19.7358 27.042 19.8056 27.0814 19.8284C27.1208 19.8522 27.1136 19.8728 27.1136 19.8728C27.1136 19.8728 27.1092 19.8871 27.0814 19.9028C27.0545 19.9194 27.0393 19.9054 27 19.8938C26.9606 19.8826 26.9346 19.8451 26.9007 19.8177C26.8648 19.7891 26.8272 19.7197 26.7637 19.6803C26.7073 19.6464 26.6339 19.6343 26.6053 19.6253C26.5775 19.6151 26.5077 19.5712 26.4799 19.5591C26.4531 19.5483 26.3806 19.5152 26.3806 19.5152C26.3806 19.5152 26.241 19.4374 26.164 19.4164C26.087 19.3948 26.1362 19.4419 26.1362 19.4419C26.1362 19.4419 26.2052 19.5493 26.2714 19.5922C26.3574 19.649 26.4781 19.6992 26.4387 19.7452C26.4119 19.7752 26.3761 19.7645 26.3367 19.76C26.2723 19.7524 26.1944 19.6754 26.1944 19.6754C26.1944 19.6754 26.1622 19.6544 26.0181 19.6087C25.8749 19.5617 25.9277 19.6405 25.9608 19.683C25.9931 19.7242 26.0369 19.7479 26.0369 19.7479L26.1345 19.7918L26.1793 19.8056C26.1793 19.8056 26.2187 19.8128 26.3485 19.8432C26.4782 19.8728 26.5499 19.9359 26.5499 19.9359C26.5499 19.9359 26.6196 20.0008 26.7163 20.0724C26.8147 20.1449 26.9114 20.1633 26.9651 20.1704C27.0188 20.1771 27.017 20.2147 27.017 20.2147C27.017 20.2147 27.0242 20.2492 27.0207 20.2604C27.0189 20.272 27.0072 20.2814 26.9955 20.2814C26.9848 20.2814 26.9795 20.2859 26.9652 20.2935C26.9509 20.3007 26.8954 20.3096 26.8954 20.3096C26.8954 20.3096 26.7504 20.3052 26.6358 20.2769C26.5231 20.2492 26.4227 20.1704 26.412 20.166C26.4031 20.1615 26.2974 20.1029 26.2241 20.0796C26.1534 20.0559 26.0397 20.0662 26.0271 20.0707C26.0155 20.0752 25.9761 20.0814 25.909 20.1011C25.841 20.119 25.926 20.1449 25.926 20.1449L25.9743 20.1494L26.0898 20.1584C26.0898 20.1584 26.2097 20.1722 26.3109 20.2098C26.412 20.2465 26.4783 20.3208 26.5454 20.3888C26.6125 20.4555 26.6868 20.4994 26.6868 20.4994L26.7405 20.5343L26.7683 20.5553L26.7754 20.5736C26.7754 20.5736 26.7728 20.583 26.7683 20.5946C26.7638 20.6067 26.7468 20.6156 26.7468 20.6156C26.7468 20.6156 26.7217 20.6111 26.711 20.6111C26.6985 20.6111 26.6224 20.5709 26.5661 20.5463C26.5079 20.5208 26.4783 20.4966 26.4157 20.4813C26.3619 20.4684 26.2904 20.4625 26.2742 20.4675C26.2582 20.472 26.1399 20.4885 26.0486 20.4948C25.9574 20.5019 25.8786 20.5033 25.7712 20.4903C25.6182 20.472 25.415 20.3511 25.389 20.3847C25.3362 20.4554 25.4973 20.4755 25.5761 20.5207C25.6835 20.5829 25.8697 20.6389 25.8697 20.6389C25.8697 20.6389 26.0057 20.6689 26.0854 20.7064C26.2599 20.7875 26.3127 20.9074 26.4532 21.0336C26.5302 21.1043 26.5929 21.1347 26.6967 21.15C26.7862 21.163 26.7844 21.1522 26.9258 21.1245C27.0681 21.0963 27.1541 20.9616 27.1952 21.0108C27.2033 21.0203 27.1997 21.0292 27.1979 21.0431C27.1952 21.0569 27.1837 21.0825 27.1837 21.0825C27.1837 21.0825 27.1675 21.1053 27.1425 21.1312C27.1165 21.1567 27.0189 21.21 26.9679 21.231C26.9169 21.2521 26.7916 21.287 26.6341 21.282C26.4765 21.2776 26.2546 21.1567 26.2546 21.1567L26.0953 21.0896C26.0953 21.0896 26.0219 21.0551 25.9718 21.0363C25.8393 20.9862 25.7552 20.9907 25.6191 20.9549C25.535 20.9321 25.4795 20.9083 25.4034 20.8927C25.3264 20.8762 25.3703 20.9066 25.3775 20.9173C25.4132 20.966 25.4615 20.9817 25.5224 21.0099C25.603 21.0493 25.6594 21.0413 25.7417 21.0762C25.8339 21.1134 25.9145 21.1657 25.9656 21.1988C26.0157 21.2311 26.0533 21.2678 26.1025 21.3188L26.2717 21.4638C26.2717 21.4638 26.311 21.496 26.3155 21.5095C26.3199 21.5234 26.3387 21.5582 26.3298 21.6142C26.3199 21.6702 26.2743 21.6308 26.2743 21.6308L26.2296 21.6021L26.1848 21.561L26.114 21.5024C26.114 21.5024 26.0532 21.4473 25.9485 21.394C25.8447 21.3399 25.7193 21.3264 25.7193 21.3264C25.7193 21.3264 25.6083 21.3099 25.6119 21.3448C25.6173 21.3793 25.6422 21.3824 25.73 21.4052C25.8186 21.4281 25.8768 21.4728 25.8768 21.4728C25.8768 21.4728 25.9672 21.54 26.0325 21.6142C26.0969 21.6885 26.1158 21.7606 26.1158 21.7606C26.1158 21.7606 26.1489 21.8214 26.2321 21.902C26.3154 21.9834 26.3593 21.9552 26.3547 21.9946C26.3503 22.034 26.3135 22.0412 26.3135 22.0412C26.3135 22.0412 26.2921 22.0393 26.2832 22.0393C26.2742 22.0393 26.2527 22.0273 26.2295 22.0183C26.2062 22.0094 26.1185 21.9485 26.1185 21.9485C26.1185 21.9485 25.9807 21.8367 25.9654 21.8259C25.9484 21.8138 25.8186 21.7167 25.8186 21.7167C25.8186 21.7167 25.7417 21.6675 25.687 21.6397C25.6307 21.6124 25.5564 21.5838 25.5143 21.5699C25.4732 21.5565 25.3961 21.552 25.3961 21.552C25.3961 21.552 25.304 21.5381 25.2476 21.5171C25.159 21.4831 25.056 21.3886 25.0444 21.3841C25.0319 21.3793 24.9495 21.351 24.9334 21.3537C24.9174 21.3555 24.8797 21.5113 24.8708 21.6012C24.8332 21.9781 24.9334 22.2282 25.0892 22.5737C25.3138 23.0758 25.9394 23.7001 25.9394 23.7001C25.9394 23.7001 26.097 23.7892 26.1633 23.8424C26.3503 23.9888 26.66 24.196 26.9348 24.4699C27.1693 24.7048 27.4808 25.1214 27.4808 25.1214C27.4808 25.1214 27.6616 25.373 27.7457 25.5511C27.8478 25.7695 27.9302 26.1025 27.9302 26.1025C27.9302 26.1025 27.9373 26.1598 27.9427 26.1723C27.9498 26.1839 27.9659 26.1992 27.9767 26.1992L28.0859 26.2028C28.0966 26.2028 28.221 26.1939 28.3034 26.1732C28.3849 26.1526 28.5782 26.064 28.7071 25.9969C28.8342 25.9288 28.9872 25.8 28.9872 25.8C28.9872 25.8 29.0167 25.7749 29.1654 25.6084C29.3158 25.442 29.4124 25.1923 29.4491 25.0978C29.4849 25.0043 29.5145 24.824 29.5359 24.516C29.5592 24.2068 29.5171 23.881 29.5171 23.881C29.5171 23.881 29.4608 23.4263 29.4267 23.2714C29.3927 23.1175 29.3104 22.865 29.3104 22.865C29.3104 22.865 29.2531 22.6405 29.2352 22.4986C29.2163 22.3567 29.2137 22.1258 29.2137 22.1258C29.2137 22.1258 29.2137 21.9844 29.2593 21.723C29.3068 21.463 29.4661 21.2008 29.4661 21.2008C29.4661 21.2008 29.5109 21.1125 29.6828 20.9067C29.8591 20.6959 29.9154 20.6628 30.0891 20.537C30.227 20.4381 30.405 20.2788 30.4633 20.3164C30.5277 20.3566 30.4005 20.4372 30.3576 20.4793C30.2493 20.5867 30.0471 20.7764 29.8832 21.0624C29.74 21.3099 29.6863 21.4737 29.6506 21.6353C29.6147 21.7964 29.63 21.9736 29.6345 22.034C29.6399 22.0945 29.673 22.0725 29.673 22.0725C29.673 22.0725 30.0211 21.7928 30.21 21.5811C30.415 21.352 30.5975 20.9443 30.6691 20.9407C30.7174 20.9376 30.7398 21.0468 30.7282 21.0974C30.6835 21.309 30.6683 21.3354 30.5993 21.476C30.5206 21.6371 30.4472 21.7087 30.338 21.8573C30.2234 22.013 30.167 22.0725 30.0749 22.2788C29.9416 22.5755 30.0194 22.8047 30.0194 22.8047C30.0194 22.8047 30.0355 22.9439 30.0981 22.9421C30.2029 22.9385 30.4329 22.648 30.5833 22.4104C30.6943 22.2363 30.7345 22.0349 30.8071 21.9292C30.8733 21.8357 30.9315 22.0814 30.9029 22.2264C30.8697 22.3987 30.7847 22.5536 30.5976 22.7975C30.4151 23.0355 30.4204 23.262 30.4204 23.262C30.4204 23.262 30.4016 23.3654 30.3864 23.591C30.3721 23.8156 30.4365 24.1567 30.4365 24.1567C30.4365 24.1567 30.4937 24.4417 30.5055 24.6579C30.5162 24.8753 30.509 25.369 30.3058 25.7534C30.2253 25.9074 30.0525 26.1204 30.0525 26.1204C30.0525 26.1204 29.9191 26.2574 29.8099 26.337C29.7007 26.4167 29.4384 26.5411 29.4384 26.5411C29.4384 26.5411 29.2568 26.6037 29.2317 26.6092C29.2048 26.6163 29.1888 26.6387 29.1888 26.6387C29.1888 26.6387 29.2048 26.6736 29.212 26.6879C29.2182 26.7023 29.2692 26.8275 29.2692 26.8275C29.2692 26.8275 29.3238 27.0047 29.3444 27.1453C29.365 27.2858 29.3408 27.318 29.3212 27.4254C29.3015 27.5284 29.2568 27.4809 29.2451 27.6832C29.2353 27.8623 29.3158 27.9517 29.3015 28.1523C29.2953 28.24 29.1959 28.0413 29.1475 27.9572C29.0455 27.7745 29.0696 27.4935 29.0679 27.4237C29.0651 27.3539 29.0597 27.2769 29.0338 27.1892C29.0025 27.0746 28.9551 26.986 28.9023 26.9162C28.8485 26.8472 28.7921 26.8079 28.7734 26.8151C28.7546 26.8213 28.7528 26.858 28.7528 26.8759C28.7518 26.8956 28.7894 26.9619 28.7975 26.9762C28.8073 26.9896 28.8745 27.1123 28.8745 27.1123C28.8745 27.1123 28.904 27.2072 28.9156 27.3916C28.9273 27.5742 28.8709 27.8015 28.8709 27.8015C28.8709 27.8015 28.7974 28.0566 28.7205 28.207C28.6345 28.3725 28.4439 28.5981 28.4439 28.5981C28.4439 28.5981 28.307 28.7234 28.204 28.9293C28.1029 29.1351 28.1897 29.2247 28.1521 29.2515C28.1127 29.2774 28.0321 29.1324 28.0106 29.0349C27.9901 28.9436 27.9999 28.9006 28.0375 28.7985C28.0724 28.7001 28.1548 28.5577 28.1548 28.5577L28.2774 28.3492C28.2774 28.3492 28.426 28.0664 28.4726 27.8605C28.5191 27.6564 28.4654 27.4291 28.4654 27.4291C28.4654 27.4291 28.4592 27.3539 28.4081 27.3575C28.3562 27.3602 28.3205 27.405 28.2989 27.4595C28.2568 27.5723 28.3169 27.5518 28.2523 27.7397C28.2023 27.8874 28.1879 27.8677 28.161 27.9554C28.1288 28.0601 28.1118 28.1675 28.1137 28.2329C28.1164 28.2973 28.0806 28.2705 28.0806 28.2705C28.0806 28.2705 28.0179 28.1541 28.0179 28.0091C28.0179 27.9304 28.0215 27.8856 28.0305 27.8068C28.0448 27.6806 28.0967 27.4873 28.0967 27.4873C28.0967 27.4873 28.1522 27.2966 28.1406 27.123C28.1272 26.9475 28.0663 26.9154 28.0663 26.9154C28.0663 26.9154 28.0503 26.8921 27.9822 26.8956C27.9151 26.9011 27.9187 27.0218 27.9187 27.0218C27.9187 27.0218 27.8981 27.1946 27.8712 27.302C27.7969 27.5982 27.6976 27.754 27.5222 28.0037C27.3629 28.2293 27.1472 28.428 27.0388 28.5211C26.9314 28.616 26.6002 28.8568 26.6002 28.8568L26.2118 29.1154C26.2118 29.1154 26.0578 29.2658 25.988 29.4448C25.9164 29.623 25.9199 29.7626 25.9611 29.9263C26.0023 30.0911 26.0614 30.1662 26.0927 30.2127C26.1231 30.2576 26.1832 30.338 26.2028 30.433C26.2153 30.4911 26.2064 30.526 26.21 30.5851C26.2136 30.637 26.2207 30.6657 26.2189 30.7185C26.2171 30.8008 26.2323 30.8589 26.1849 30.9261C26.1509 30.9771 26.0578 31.0218 26.0578 31.0218C26.0578 31.0218 25.9522 31.0683 25.8895 31.1068C25.2289 31.5052 24.9944 31.7638 24.6221 32.2078C24.5039 32.3501 24.5908 32.3412 24.4646 32.5094C24.388 32.6097 24.2113 32.6097 24.1473 32.7296C24.0582 32.8934 24.3478 33.0545 24.0134 33.1987C23.5825 33.3848 22.8409 33.2514 22.8261 33.1933C22.7859 33.0339 22.9711 32.8496 23.0369 32.7762C23.3385 32.4468 23.608 32.4387 23.7069 32.1658C23.7283 32.1076 23.7199 32.0575 23.9601 31.8793C24.1289 31.7549 24.8029 31.2474 25.0974 30.9091C25.1985 30.7927 25.2853 30.7158 25.3292 30.5904C25.374 30.4632 25.2853 30.3836 25.2853 30.3836L25.1645 30.1867L24.9327 29.7723C24.9327 29.7723 24.8351 29.5521 24.7823 29.425C24.7277 29.2979 24.6266 28.9559 24.6266 28.9559C24.6266 28.9559 24.5523 28.6481 24.5397 28.4475C24.5174 28.0877 24.5666 27.8783 24.6615 27.5292C24.7841 27.0764 25.0625 26.8866 25.1735 26.4372C25.2058 26.3066 25.2129 26.0828 25.1466 26.0936C25.0839 26.1052 25.0786 26.2815 25.0303 26.3997C24.8513 26.8454 24.6149 27.0406 24.4852 27.5024C24.3984 27.8147 24.3626 28.0001 24.3634 28.3241C24.3644 28.5093 24.3572 28.4753 24.4046 28.7967C24.4234 28.9148 24.452 28.9783 24.487 29.0938C24.512 29.1761 24.5791 29.3301 24.5791 29.3301C24.5791 29.3301 24.6714 29.5333 24.7036 29.6756C24.7134 29.7249 24.726 29.7525 24.7223 29.8018C24.7161 29.8868 24.7313 29.9048 24.6902 29.9817C24.6391 30.0775 24.6704 30.1339 24.5075 30.1696C24.3625 30.2 24.0663 30.1034 24.0663 30.1034C24.0663 30.1034 22.8485 29.7346 22.0712 29.8411C21.9172 29.8617 21.8344 29.9181 21.6796 29.9154C21.5386 29.9136 21.467 29.8035 21.326 29.8456C21.2974 29.8537 21.2884 29.8742 21.2625 29.8913C21.0566 30.0344 21.2141 30.2725 20.6718 30.149C20.3388 30.0729 19.9356 29.8689 20.0054 29.7409C20.0989 29.5708 20.2242 29.543 20.4874 29.4347C20.7689 29.3201 21.1913 29.3524 21.2746 29.347C21.3762 29.3389 21.5221 29.2682 21.7037 29.2638C22.0179 29.2584 22.0738 29.296 22.0738 29.296L22.6072 29.3434L23.6281 29.356C23.6281 29.356 23.8107 29.3425 23.8832 29.3282C23.9566 29.3138 24.0143 29.1697 24.0545 29.1008C24.094 29.0328 24.0528 28.9325 24.0528 28.9325L24.0224 28.8851L23.9252 28.7285L23.7458 28.4259L23.5466 28.0286C23.5466 28.0286 23.4164 27.752 23.3471 27.5703C23.2781 27.3895 23.2379 27.2874 23.1922 27.1004C23.1443 26.9079 23.1148 26.7522 23.1085 26.5974C23.101 26.3752 23.0862 26.2024 23.1484 26.0207Z" fill="black"/>
<path d="M29.7754 25.652C29.9902 25.3763 30.0109 25.1202 30.0233 24.7596C30.0332 24.4973 29.9339 24.0932 29.9339 24.0932L29.9204 24.0637C29.9204 24.0637 29.8828 24.0148 29.8597 24.0793C29.8632 24.1362 29.8704 24.1818 29.8704 24.1818L29.8829 24.7023C29.8829 24.7023 29.8668 24.9645 29.7773 25.2349C29.6269 25.6913 29.2278 25.8945 29.1696 26.0592C29.0701 26.3322 29.5185 25.984 29.7754 25.652Z" fill="white"/>
<path d="M27.5235 26.4943C27.5235 26.4943 27.4358 26.5193 27.434 26.6061C27.4322 26.6929 27.4554 26.7681 27.4528 26.8728C27.451 27.0063 27.3284 27.1601 27.4071 27.2103C27.5423 27.2962 27.6586 26.6911 27.6175 26.6017C27.5763 26.5121 27.536 26.4933 27.5235 26.4943Z" fill="white"/>
<path d="M26.0073 30.6893C26.0073 30.6893 25.9821 30.676 25.933 30.6948C25.8847 30.7135 25.8882 30.7637 25.8882 30.7637C25.8882 30.7637 25.8783 30.8174 25.9177 30.8228C25.9572 30.83 26.0216 30.7333 26.0216 30.7225C26.0216 30.7117 26.0073 30.6893 26.0073 30.6893Z" fill="white"/>
<path d="M24.5805 31.7034C24.5805 31.7034 24.5662 31.7178 24.5787 31.7276C24.5921 31.7393 24.611 31.7249 24.611 31.7249C24.611 31.7249 24.8571 31.5325 25.003 31.3973C25.1569 31.2524 25.379 31.0026 25.379 31.0026C25.379 31.0026 25.3941 30.9839 25.3772 30.9677C25.3592 30.9516 25.3172 30.9766 25.2823 30.9928C25.2518 31.0089 25.2339 31.0259 25.2107 31.0447C25.1892 31.0644 25.1158 31.1396 25.1158 31.1396L24.926 31.324L24.806 31.4367L24.6897 31.5477L24.6414 31.6033C24.6414 31.6033 24.6288 31.6247 24.6253 31.6301C24.6217 31.6363 24.6092 31.6524 24.6092 31.6524C24.6092 31.6524 24.5912 31.6695 24.5912 31.6748C24.5912 31.6793 24.5859 31.6838 24.5859 31.6892C24.5841 31.6963 24.5805 31.7034 24.5805 31.7034Z" fill="white"/>
<path d="M24.1549 31.9828C24.1549 31.9828 24.1285 31.9613 24.0869 31.9818C24.0449 32.0042 24.0001 32.0614 23.9964 32.0678C23.9925 32.0759 23.9696 32.1063 23.9853 32.1331C24.001 32.16 24.0542 32.1206 24.0623 32.1188C24.0699 32.1188 24.1393 32.0634 24.1393 32.0634C24.1393 32.0634 24.1795 32.0382 24.1549 31.9828Z" fill="white"/>
<path d="M23.34 32.808C23.34 32.808 23.3051 32.7436 23.2594 32.7704C23.2137 32.7973 23.1887 32.8062 23.1466 32.8643C23.1395 32.8742 23.0943 32.9324 23.0862 32.9476C23.0782 32.962 23.033 33.0479 23.1247 33.0541C23.2823 33.063 23.1788 32.962 23.233 32.9225C23.2769 32.8922 23.3592 32.9002 23.3601 32.868C23.361 32.8358 23.34 32.808 23.34 32.808Z" fill="white"/>
<path d="M20.5474 29.5105C20.5474 29.5105 20.453 29.5338 20.4458 29.5661C20.4382 29.6001 20.5008 29.6323 20.5107 29.634C20.5218 29.6358 20.5429 29.6609 20.606 29.6179C20.6682 29.5759 20.6655 29.5401 20.6655 29.5401C20.6655 29.5401 20.7022 29.4971 20.5474 29.5105Z" fill="white"/>
<path d="M22.0833 29.4604C22.0833 29.4604 22.0824 29.4255 22.0157 29.43C21.9477 29.4337 21.9334 29.4461 21.9316 29.4569C21.9294 29.4667 21.9352 29.4838 21.9956 29.4891C22.0569 29.4927 22.0815 29.489 22.0833 29.4604Z" fill="white"/>
<path d="M23.5355 29.5025C23.4134 29.5016 23.4519 29.5052 23.3767 29.5088C23.2402 29.5159 23.1659 29.5105 23.0312 29.5016C22.8423 29.489 22.5501 29.4425 22.5501 29.4425C22.5501 29.4425 22.5134 29.4336 22.4986 29.4577C22.4852 29.4801 22.5344 29.532 22.5783 29.5455C22.8177 29.6198 22.8307 29.6073 22.9936 29.6099C23.0845 29.6108 23.135 29.6018 23.2254 29.5964C23.34 29.5876 23.3932 29.6054 23.5181 29.5723C23.5507 29.5642 23.5821 29.5034 23.5355 29.5025Z" fill="white"/>
<path d="M24.3536 29.2599C24.3536 29.2599 24.329 29.2314 24.2784 29.2564C24.2284 29.2805 24.1979 29.3351 24.1979 29.3351C24.1979 29.3351 24.1742 29.3727 24.2248 29.3674C24.274 29.3602 24.3183 29.3388 24.3299 29.3316C24.3429 29.3243 24.3796 29.2904 24.3536 29.2599Z" fill="white"/>
<path d="M23.6416 19.4406C23.6416 19.4406 23.9871 19.1171 24.2345 18.6893C24.3813 18.4342 24.4453 17.8403 24.3191 17.988C24.2622 18.0556 24.1933 18.3635 24.0841 18.5917C23.9284 18.9165 23.5959 19.3766 23.5959 19.3766C23.5959 19.3766 23.5244 19.5297 23.6416 19.4406Z" fill="white"/>
<path d="M22.2605 20.2628C22.2605 20.2628 22.2238 20.2914 22.2404 20.3371C22.2579 20.3836 22.3282 20.3487 22.3282 20.3487C22.3282 20.3487 22.4879 20.2883 22.6553 20.2821C22.8231 20.2749 23.0558 20.325 23.0558 20.325C23.0558 20.325 23.1668 20.3554 23.1852 20.3626C23.2035 20.3702 23.2639 20.3993 23.2742 20.4028C23.2832 20.4069 23.3409 20.4351 23.3732 20.406C23.4054 20.3764 23.1713 20.1639 22.9324 20.1317C22.5345 20.0775 22.2732 20.2489 22.2732 20.2489L22.2605 20.2628Z" fill="white"/>
<path d="M20.6217 21.664C20.6498 21.6882 20.7828 21.4349 20.8937 21.2746C20.9752 21.1574 21.1238 20.9614 21.1238 20.9614C21.1238 20.9614 21.1909 20.8714 21.0773 20.9216C21.0312 20.9422 20.905 21.0384 20.8159 21.2152C20.7407 21.3655 20.5921 21.6403 20.6217 21.664Z" fill="white"/>
<path d="M19.7025 20.5635C19.7025 20.5635 19.6738 20.6615 19.7884 20.7841C19.9038 20.9072 19.9334 21.0088 20.0068 20.9354C20.027 20.9153 19.9352 20.7497 19.8887 20.7036C19.8408 20.6579 19.8067 20.6203 19.8067 20.6203L19.7768 20.5957L19.7383 20.5743L19.7163 20.5654C19.7163 20.5654 19.7105 20.5599 19.7025 20.5635Z" fill="white"/>
<path d="M19.33 19.6237C19.33 19.6237 19.2056 19.6469 19.1752 19.7073C19.1443 19.7678 19.3184 19.7311 19.3184 19.7311C19.3184 19.7311 19.4338 19.7373 19.4366 19.6935C19.4392 19.6487 19.4218 19.6443 19.33 19.6237Z" fill="white"/>
<path d="M17.3533 22.8996C17.2898 22.8813 17.2791 23.0062 17.2705 23.0464C17.2634 23.0867 17.2992 23.1672 17.3139 23.1672C17.3282 23.1663 17.3788 23.0876 17.3815 23.0491C17.3842 23.0097 17.4093 22.9171 17.3533 22.8996Z" fill="white"/>
<path d="M19.4062 25.3396C19.4062 25.3396 19.2925 25.2496 19.2751 25.2854C19.2581 25.3212 19.3686 25.4792 19.3686 25.4792C19.3686 25.4792 19.4026 25.5311 19.455 25.5078C19.5064 25.4828 19.4881 25.4255 19.4881 25.4255C19.4881 25.4255 19.4532 25.3521 19.4062 25.3396Z" fill="white"/>
<path d="M18.5492 22.7009C18.5492 22.7009 18.5201 22.6934 18.5098 22.7282C18.499 22.7631 18.5 22.82 18.4923 22.8888C18.4861 22.9426 18.5062 23.0858 18.5062 23.0858C18.5062 23.0858 18.5174 23.1995 18.5402 23.2671C18.5648 23.3413 18.6302 23.447 18.6302 23.447C18.6302 23.447 18.6548 23.5012 18.6852 23.4985C18.7152 23.4953 18.708 23.46 18.708 23.46C18.708 23.46 18.6127 23.0823 18.61 23.0438C18.5988 22.9181 18.5988 22.765 18.5988 22.765L18.5979 22.7421C18.5979 22.7421 18.597 22.7018 18.5492 22.7009Z" fill="white"/>
<path d="M18.6977 21.5486C18.6977 21.5486 18.6454 21.5387 18.5971 21.6394C18.5483 21.7414 18.5586 21.7826 18.563 21.7871C18.5666 21.7916 18.6051 21.7907 18.6669 21.6963C18.7282 21.6027 18.7143 21.5669 18.7143 21.5669C18.7143 21.5669 18.7107 21.5486 18.6977 21.5486Z" fill="white"/>
<path d="M20.1379 22.5926C20.1379 22.5926 20.201 22.687 20.0802 22.6651C19.9589 22.6432 19.7043 22.4422 19.6004 22.3881C19.4979 22.334 19.3292 22.3169 19.3999 22.2534C19.4129 22.2427 19.4164 22.2323 19.4366 22.2315C19.4576 22.2306 19.5275 22.2579 19.5319 22.261C19.5355 22.2627 19.7149 22.337 19.7216 22.3388C19.7279 22.3415 19.8286 22.3845 19.9002 22.4265C19.9718 22.469 20.0881 22.5505 20.0881 22.5505L20.1379 22.5926Z" fill="white"/>
<path d="M23.4948 25.4828C23.5279 25.5866 23.1126 25.2635 22.8902 25.0921C22.3008 24.6382 21.5794 23.7079 21.6693 23.6255C21.7436 23.5579 22.0394 23.984 22.4731 24.4534C22.9367 24.9538 23.4756 25.421 23.4948 25.4828Z" fill="white"/>
<path d="M25.2285 25.0379C25.0996 25.1753 25.054 25.3512 25.1283 25.4828C25.2007 25.6107 25.2231 25.2957 25.3037 25.203C25.3735 25.122 25.4165 25.135 25.531 25.0536C25.7262 24.9162 25.3915 24.863 25.2285 25.0379Z" fill="white"/>
<path d="M24.491 22.1012C24.4024 22.0869 24.4051 22.2216 24.4176 22.317C24.4767 22.7439 24.6683 23.0728 24.9242 23.3825C25.08 23.5714 25.5069 23.9079 25.5561 23.8538C25.5741 23.8345 25.1497 23.5065 24.8794 23.085C24.6879 22.786 24.5858 22.5332 24.5617 22.2866C24.5591 22.2552 24.5662 22.1133 24.491 22.1012Z" fill="white"/>
<path d="M22.8378 15.7736C22.6453 15.8778 22.3115 15.9696 22.3115 15.9696C22.3115 15.9696 22.2962 16.0027 22.3392 15.9992C22.6253 15.9763 22.7344 15.9405 22.8866 15.8734C23.0388 15.8076 23.1493 15.625 23.1493 15.625C23.1493 15.625 23.2111 15.5113 23.0965 15.6049C23.0607 15.6335 22.9434 15.7158 22.8378 15.7736Z" fill="white"/>
<path d="M25.1596 15.0401C25.1596 15.0401 25.0943 15.0257 25.0504 15.0531C25.0065 15.0808 25.019 15.1028 25.019 15.1028C25.019 15.1028 25.0871 15.1547 25.1354 15.1632C25.1838 15.1704 25.2876 15.2156 25.2841 15.1807C25.2795 15.1449 25.2214 15.0809 25.2007 15.0635C25.182 15.045 25.1596 15.0401 25.1596 15.0401Z" fill="white"/>
<path d="M24.0668 17.0451C24.0779 17.0679 24.2731 17.0146 24.3483 16.9725C24.4069 16.9394 24.4301 16.8284 24.4301 16.8284C24.4301 16.8284 24.4463 16.721 24.4212 16.7626C24.3098 16.9448 24.056 17.0217 24.0668 17.0451Z" fill="white"/>
<path d="M24.0605 16.5442C24.1393 16.393 23.8443 16.7013 23.694 16.781C23.6022 16.8293 23.4527 16.8937 23.4527 16.8937C23.4527 16.8937 23.4133 16.9429 23.4684 16.9385C23.5234 16.9349 23.6635 16.9823 23.7772 16.8946C23.8041 16.8731 23.9222 16.7013 23.9222 16.7013C23.9222 16.7013 24.0229 16.6158 24.0605 16.5442Z" fill="white"/>
<path d="M24.0148 17.1878C24.0211 17.2124 24.3518 17.2043 24.4346 17.1793C24.5 17.1614 24.5357 17.0459 24.5357 17.0459C24.5357 17.0459 24.5751 16.9448 24.5411 16.9788C24.3912 17.1319 24.0091 17.1632 24.0148 17.1878Z" fill="white"/>
<path d="M18.7031 20.2171C18.7031 20.2171 18.653 20.1988 18.5908 20.2923C18.529 20.3854 18.2506 20.8083 18.2999 20.8705C18.3585 20.9439 18.5997 20.4928 18.6732 20.4087C18.7474 20.3232 18.717 20.2373 18.717 20.2373C18.717 20.2373 18.7161 20.218 18.7031 20.2171Z" fill="white"/>
<path d="M24.7667 27.8422C24.7362 27.9827 24.772 28.2701 24.8204 28.3264C24.9385 28.4687 24.866 28.1036 24.883 27.9755C24.8973 27.8565 24.9116 27.8153 24.9708 27.6882C25.0764 27.4591 24.8285 27.5432 24.7667 27.8422Z" fill="white"/>
<path d="M23.7507 15.6215C23.7507 15.6215 23.659 15.6241 23.5874 15.6635C23.5149 15.7029 23.497 15.7589 23.497 15.7589C23.497 15.7589 23.4822 15.7991 23.4921 15.8211C23.5131 15.869 23.6125 15.7965 23.6818 15.8202C23.7378 15.8403 23.7646 15.8569 23.8076 15.9083C23.8452 15.9531 23.911 16.0175 23.9522 15.9808C23.9946 15.945 23.979 15.8533 23.979 15.8533C23.979 15.8533 23.9302 15.7038 23.8663 15.6617C23.8018 15.6188 23.7507 15.6215 23.7507 15.6215Z" fill="white"/>
<path d="M22.2265 16.6727C22.2265 16.6727 22.175 16.6807 22.1871 16.7434C22.1992 16.8047 22.2328 16.7953 22.2328 16.7953C22.2328 16.7953 22.3393 16.7496 22.333 16.6857C22.3254 16.6212 22.2265 16.6727 22.2265 16.6727Z" fill="white"/>
<path d="M21.4822 16.3389C21.4822 16.3389 21.4263 16.3411 21.3869 16.4104C21.3485 16.4794 21.3256 16.551 21.3256 16.551C21.3256 16.551 21.3073 16.6414 21.3394 16.67C21.3721 16.6982 21.4079 16.6114 21.4549 16.5774C21.483 16.5573 21.5006 16.5483 21.5296 16.5277C21.5695 16.5004 21.6344 16.5353 21.6299 16.4548C21.6241 16.3737 21.5382 16.3352 21.4822 16.3389Z" fill="white"/>
<path d="M23.8872 15.4729C23.8872 15.4729 23.7606 15.4545 23.7655 15.5033C23.77 15.5489 23.8341 15.5216 23.8752 15.54C23.9155 15.5583 23.9423 15.5655 23.9745 15.5951C23.9982 15.6161 23.9955 15.6573 24.0247 15.6581C24.0649 15.6591 24.0569 15.6425 24.0569 15.6425C24.0569 15.6425 24.0202 15.5333 23.9724 15.5024C23.9249 15.4711 23.8872 15.4729 23.8872 15.4729Z" fill="white"/>
<path d="M25.3001 15.9835C25.2822 16.0524 25.2715 16.0761 25.2715 16.0761C25.2715 16.0761 25.2357 16.2162 25.3771 16.1647C25.5185 16.1128 25.4451 16.1347 25.5471 16.0851C25.6474 16.0358 25.6456 16.0631 25.719 16.0667C25.7441 16.0676 25.7602 16.0685 25.7978 16.0614C25.83 16.0542 25.8166 16.0166 25.745 15.9973C25.6681 15.9772 25.5741 15.9817 25.4649 15.9807C25.4004 15.9799 25.3189 15.9146 25.3001 15.9835Z" fill="white"/>
<path d="M25.3628 15.4657C25.3628 15.4657 25.2983 15.4509 25.2536 15.4787C25.2097 15.506 25.2232 15.5279 25.2232 15.5279C25.2232 15.5279 25.2903 15.5812 25.3395 15.5884C25.3879 15.5969 25.4917 15.6416 25.4881 15.6058C25.4827 15.5709 25.4255 15.506 25.4049 15.4886C25.3843 15.4711 25.3628 15.4657 25.3628 15.4657Z" fill="white"/>
<path d="M25.6117 16.4382C25.6117 16.4382 25.5427 16.4243 25.4953 16.4507C25.4487 16.4767 25.4612 16.4977 25.4612 16.4977C25.4612 16.4977 25.5347 16.547 25.5866 16.5546C25.6385 16.5617 25.7495 16.6038 25.745 16.5702C25.7406 16.5371 25.6779 16.4758 25.6573 16.4593C25.6367 16.4426 25.6117 16.4382 25.6117 16.4382Z" fill="white"/>
<path d="M25.6332 16.7908C25.6332 16.7908 25.5597 16.7743 25.5096 16.8047C25.4595 16.8347 25.4746 16.8589 25.4746 16.8589C25.4746 16.8589 25.5508 16.9166 25.6063 16.9247C25.6609 16.9332 25.779 16.9815 25.7736 16.943C25.7692 16.9046 25.7029 16.8347 25.6797 16.8159C25.6582 16.7962 25.6332 16.7908 25.6332 16.7908Z" fill="white"/>
<path d="M25.6662 17.1345C25.6662 17.1345 25.5866 17.1162 25.5328 17.1502C25.4782 17.1842 25.4952 17.2115 25.4952 17.2115C25.4952 17.2115 25.5775 17.2759 25.6366 17.2858C25.6966 17.2952 25.8246 17.3502 25.8193 17.3068C25.8139 17.2639 25.7422 17.1842 25.7172 17.1632C25.694 17.1408 25.6662 17.1345 25.6662 17.1345Z" fill="white"/>
<path d="M25.659 17.5597C25.659 17.5597 25.5794 17.5427 25.5256 17.5763C25.4711 17.6094 25.4863 17.6366 25.4863 17.6366C25.4863 17.6366 25.5704 17.7011 25.6295 17.7109C25.6886 17.7204 25.8165 17.7754 25.8112 17.7324C25.805 17.689 25.7342 17.6094 25.7101 17.5883C25.685 17.5664 25.659 17.5597 25.659 17.5597Z" fill="white"/>
<path d="M25.6009 18.3885C25.6009 18.3885 25.5203 18.3711 25.4666 18.4051C25.4129 18.4387 25.429 18.4656 25.429 18.4656C25.429 18.4656 25.5113 18.5304 25.5704 18.5399C25.6304 18.5488 25.7584 18.6047 25.7531 18.5609C25.7477 18.5179 25.6762 18.4387 25.651 18.4168C25.6268 18.3948 25.6009 18.3885 25.6009 18.3885Z" fill="white"/>
<path d="M25.6546 17.9741C25.6546 17.9741 25.5633 17.9531 25.4988 17.9924C25.437 18.0309 25.4559 18.0623 25.4559 18.0623C25.4559 18.0623 25.5517 18.1374 25.6205 18.1482C25.6886 18.1594 25.8372 18.2225 25.8318 18.1733C25.8246 18.1227 25.7423 18.031 25.7137 18.0063C25.685 17.9813 25.6546 17.9741 25.6546 17.9741Z" fill="white"/>
<path d="M25.5615 18.7636C25.5615 18.7636 25.4952 18.7479 25.4505 18.7761C25.4057 18.8038 25.4201 18.8258 25.4201 18.8258C25.4201 18.8258 25.4881 18.8799 25.5365 18.8871C25.5857 18.8952 25.6904 18.9403 25.6868 18.9046C25.6815 18.8687 25.6233 18.8038 25.6027 18.7864C25.583 18.7681 25.5615 18.7636 25.5615 18.7636Z" fill="white"/>
<path d="M25.4988 19.1224C25.4988 19.1224 25.4451 19.1108 25.4075 19.1337C25.3718 19.1565 25.3825 19.1748 25.3825 19.1748C25.3825 19.1748 25.4388 19.2187 25.4792 19.2254C25.5194 19.2316 25.608 19.2702 25.6044 19.2397C25.6008 19.2106 25.5507 19.1565 25.5346 19.1417C25.5176 19.1269 25.4988 19.1224 25.4988 19.1224Z" fill="white"/>
<path d="M25.4219 19.4501C25.4219 19.4501 25.3735 19.4389 25.3395 19.4599C25.3073 19.48 25.3162 19.4975 25.3162 19.4975C25.3162 19.4975 25.3673 19.5369 25.404 19.5423C25.4407 19.549 25.5194 19.5825 25.5159 19.5561C25.5132 19.5297 25.4693 19.48 25.4541 19.4671C25.4388 19.4537 25.4219 19.4501 25.4219 19.4501Z" fill="white"/>
<path d="M25.3449 19.7186C25.3449 19.7186 25.2948 19.7073 25.2626 19.7275C25.2285 19.7485 25.2384 19.7651 25.2384 19.7651C25.2384 19.7651 25.2894 19.8053 25.3261 19.8107C25.3628 19.8166 25.4416 19.851 25.438 19.8238C25.4353 19.7974 25.3915 19.7486 25.3754 19.7356C25.361 19.7222 25.3449 19.7186 25.3449 19.7186Z" fill="white"/>
<path d="M25.251 20.0301C25.251 20.0301 25.2116 20.0206 25.1838 20.0372C25.1569 20.0547 25.1659 20.0677 25.1659 20.0677C25.1659 20.0677 25.207 20.0999 25.2366 20.1053C25.2661 20.1097 25.3305 20.1375 25.3271 20.1151C25.3243 20.0941 25.2885 20.0547 25.2769 20.0435C25.2643 20.0327 25.251 20.0301 25.251 20.0301Z" fill="white"/>
<path d="M25.1391 20.3214C25.1391 20.3214 25.105 20.3133 25.0818 20.3276C25.0586 20.3424 25.0657 20.3544 25.0657 20.3544C25.0657 20.3544 25.1015 20.3817 25.1266 20.3853C25.1516 20.3903 25.2071 20.414 25.2044 20.3948C25.2027 20.3764 25.1713 20.3424 25.1615 20.3334C25.1497 20.3241 25.1391 20.3214 25.1391 20.3214Z" fill="white"/>
<path d="M25.0236 20.5985C25.0236 20.5985 24.9886 20.5908 24.9654 20.6056C24.9429 20.6195 24.951 20.6311 24.951 20.6311C24.951 20.6311 24.9851 20.6589 25.011 20.6633C25.037 20.6669 25.0915 20.6906 25.0889 20.6728C25.0871 20.653 25.0558 20.6195 25.0459 20.6101C25.0352 20.6011 25.0236 20.5985 25.0236 20.5985Z" fill="white"/>
<path d="M17.531 22.0077C17.531 22.0077 17.4733 22.1196 17.5019 22.1809C17.5301 22.2427 17.608 22.0829 17.608 22.0829C17.608 22.0829 17.6885 21.9235 17.6558 21.8945C17.6227 21.865 17.6035 21.9473 17.531 22.0077Z" fill="white"/>
<path d="M25.6778 36.3766V36.1591C25.6778 35.665 25.9275 35.5684 26.657 35.5648C27.3283 35.5684 27.5655 35.6525 27.5655 36.0786V37.7228H27.8134V38.0933H26.1737C25.8282 38.0933 25.6027 37.8561 25.6027 37.5643V37.2313C25.6027 36.944 25.7494 36.6934 26.2632 36.6907H26.9041V36.1903C26.9041 35.929 26.8862 35.8977 26.624 35.8977H26.6213C26.3071 35.8977 26.2865 35.9389 26.2865 36.1903V36.3765H25.6778M26.4387 36.9665C26.3098 36.9665 26.2337 37.0703 26.2337 37.1991V37.5169C26.2337 37.6449 26.2883 37.7469 26.4387 37.7487H26.6696C26.7967 37.7487 26.9006 37.7093 26.9006 37.5169L26.9023 36.9665H26.6839C26.6786 36.9665 26.4387 36.9665 26.4387 36.9665Z" fill="black"/>
<path d="M24.1182 36.1841V35.6095H23.2035V35.9514H23.4474V37.7218H23.2035V38.0933H24.3492V37.7218H24.1182V36.7731C24.1182 36.6846 24.6575 36.0034 24.6575 36.0821V37.0246H25.2913V35.964C25.2913 35.7214 25.1328 35.5649 24.8437 35.5649C24.5 35.5648 24.2677 35.9971 24.1182 36.1841Z" fill="black"/>
<path d="M31.4099 37.7201V35.6095H30.4763V35.9514H30.7377V37.7201H30.4763V38.0933H31.6551V37.7201H31.4099Z" fill="black"/>
<path d="M21.7646 36.1841V35.6095H20.8499V35.9514H21.0938V37.7218H20.8499V38.0933H21.9947V37.7218H21.7646V36.7731C21.7646 36.6846 22.3035 36.0034 22.3035 36.0821V37.0246H22.9367V35.964C22.9367 35.7214 22.7792 35.5649 22.4897 35.5649C22.1468 35.5648 21.9141 35.9971 21.7646 36.1841Z" fill="black"/>
<path fill-rule="evenodd" clip-rule="evenodd" d="M20.4999 37.2797H19.8581V37.4659C19.8581 37.7183 19.8161 37.729 19.5032 37.7326H19.4988C19.1402 37.7344 19.1604 37.6986 19.1644 37.4659V37.0246H20.4998V36.066C20.4998 35.7186 20.2376 35.5728 19.5457 35.5702H19.4464C18.6995 35.5737 18.5008 35.7438 18.5008 36.1734V37.5768C18.5008 38.0494 18.78 38.1291 19.4602 38.1479H19.5345C20.277 38.1309 20.4998 38.0798 20.4998 37.6386V37.2797M19.1717 36.1018C19.1717 35.9711 19.211 35.9066 19.3605 35.9048H19.642C19.7584 35.9048 19.8232 35.9568 19.8232 36.0498V36.7686H19.1716V36.1018H19.1717Z" fill="black"/>
<path d="M31.0716 35.0993V34.65" stroke="black" stroke-width="0.74" stroke-miterlimit="10"/>
<path d="M28.9771 36.1841V35.6095H28.0614V35.9514H28.3049V37.7218H28.0614V38.0933H29.2071V37.7218H28.9771V36.7731C28.9771 36.6846 29.515 36.0034 29.515 36.0821V37.0246H30.1496V35.964C30.1496 35.7214 29.9902 35.5649 29.7002 35.5649C29.3584 35.5648 29.1256 35.9971 28.9771 36.1841Z" fill="black"/>
<path d="M17.7006 36.8859V36.5547H17.3439V37.7228H17.9619V38.0933H16.1499V37.7228H16.6319V35.0993H16.2533V34.6482H30.367V35.0993H17.3439V36.1528H17.7006V35.8413H18.111V36.8859H17.7006Z" fill="black"/>
<path d="M31.4008 34.6321H30.7277V35.0761H31.4008V34.6321Z" fill="black"/>
</g>
<defs>
<clipPath id="clip0_0_976">
<rect width="20.0145" height="32" fill="white" transform="translate(14 8)"/>
</clipPath>
</defs>
</svg>
