<svg width="48" height="48" viewBox="0 0 48 48" fill="none" xmlns="http://www.w3.org/2000/svg">
<g clip-path="url(#clip0_0_24638)">
<path d="M39.7333 23.9998C39.7333 32.6894 32.6891 39.7333 23.9999 39.7333C15.3107 39.7333 8.26667 32.6894 8.26667 23.9998C8.26667 15.3108 15.3107 8.26666 23.9999 8.26666C32.6891 8.26666 39.7333 15.3108 39.7333 23.9998Z" fill="#231F20"/>
<path d="M39.1812 23.9998C39.1812 32.3846 32.3844 39.1814 23.9999 39.1814C15.6154 39.1814 8.81842 32.3846 8.81842 23.9998C8.81842 15.6156 15.6154 8.81863 23.9999 8.81863C32.3844 8.81863 39.1812 15.6156 39.1812 23.9998Z" fill="#BDBCBC"/>
<path d="M11.79 16.3535C11.79 16.3661 10.1057 16.6222 10.1073 16.6302C10.1155 16.6721 10.0201 25.2951 11.5583 24.8611C12.5711 24.3845 12.0261 18.7659 12.0261 19.5216C12.0261 20.575 12.1284 22.3027 12.5325 25.0161C12.988 28.0726 12.796 28.4534 13.0084 29.1116C12.5143 28.6318 11.7457 28.4159 11.7457 28.4159L12.8356 32.0999L13.6383 32.0917C13.6383 32.0917 13.6498 31.8442 13.6603 31.8325C13.682 31.8323 14.4532 31.8896 14.9831 32.8593C18.0491 38.4707 26.1212 36.3129 24.0082 36.4345L27.3344 36.0341C17.5928 37.7008 15.7653 33.2092 15.2754 32.3125C14.9686 31.8628 14.0863 31.3916 13.5317 31.6599C13.5317 31.6599 14.8856 31.7139 14.8254 31.3549C15.2484 31.7658 13.7734 30.69 13.7734 30.69L13.8476 30.9232C14.0764 30.9463 13.9733 30.6994 14.2144 30.659L13.9152 30.5221C13.8769 30.4751 14.0815 30.2309 13.3511 25.3297C12.9499 22.6366 13.0307 20.5401 13.0307 19.4968C13.0307 18.4861 12.9647 18.4146 12.9666 18.4071L12.373 18.0195L12.2591 17.9964C12.0954 17.9632 11.9334 17.9108 11.8631 17.8718C11.8996 17.8176 11.9206 17.7453 11.9206 17.6259C11.9206 17.5104 11.9082 17.3599 11.8921 17.1655C11.8709 16.9055 11.8814 15.9739 11.8455 16.285C9.95397 32.7011 12.5723 14.4477 12.2507 14.7984L12.4346 14.59C13.3256 13.5615 16.4382 11.1596 24.4693 10.9718C32.9622 10.7728 33.0007 13.8749 33.0298 13.9203L35.2298 15.01C35.2008 14.9634 32.3432 10.2206 23.7183 10.4225C15.5908 10.6128 13.1782 13.397 12.2699 14.4452L12.0903 14.6492C11.7169 15.0564 11.2884 15.0601 11.2884 15.6601C11.2884 15.9805 10.9292 16.4073 10.9511 16.6723C11.9995 18.5142 11.6376 17.6037 11.7901 16.3535L11.79 16.3535ZM35.0149 15.5638C34.8297 15.6434 34.8576 15.944 34.8962 16.3597C34.9247 16.6696 34.9574 17.0209 34.8962 17.2661L35.1084 17.3195C35.1786 17.0381 35.1437 16.6669 35.1136 16.3393C35.0946 16.1311 35.0651 15.816 35.1094 15.7601C35.1147 15.7673 35.1759 18.1061 35.6579 18.6636C36.4243 19.5509 36.0421 19.0404 36.0421 20.5866C36.0421 21.3487 36.6122 22.2369 36.5895 22.548C36.3055 22.1885 36.2248 21.2635 36.1524 20.4338C36.068 19.4678 35.9957 18.6338 35.652 18.3566C36.0755 17.9853 34.6041 16.0398 34.7046 17.3572C34.7737 17.8181 34.5483 16.3226 34.2211 15.8135C33.2187 14.2535 31.1421 12.4308 23.9261 12.1803C17.3113 11.9506 14.033 14.6657 13.1903 15.494C13.1913 15.4922 13.2997 15.3051 13.2997 15.3051L12.2248 14.751L11.9207 17.9691L12.3808 17.2431C12.3808 17.2431 13.1234 15.8964 13.137 15.8649C13.253 15.7282 16.3874 12.1386 23.9185 12.4001C31.9463 12.6787 33.4119 14.9591 34.0379 15.9329C34.3393 16.4024 34.4185 16.9272 34.4887 17.3901C34.5805 17.9997 34.6681 18.5754 35.3528 18.4834C35.4156 18.4752 35.4673 18.4892 35.5153 18.5282C35.7866 18.7468 35.8616 19.6142 35.935 20.4528C36.031 21.5624 36.1229 22.6103 36.6328 22.8672L36.7748 22.9388L36.7901 22.7794C36.8091 22.5757 37.2488 17.7791 35.8906 16.2065C35.3559 15.5873 35.159 15.5018 35.0149 15.5638H35.0149ZM37.9186 19.5397C37.7946 18.961 37.5966 18.3298 37.3031 17.6878C37.4573 18.0433 37.7038 18.677 37.9186 19.5397ZM37.3031 17.6878C37.2657 17.6008 37.2319 17.5257 37.2071 17.4736C37.2424 17.5453 37.2709 17.6162 37.3031 17.6878ZM36.6191 16.0997C38.4137 17.8302 38.0917 22.2957 38.0917 22.2957L37.2187 21.2814V25.6081L36.6143 26.8248C35.5396 32.5712 32.988 37.6416 22.982 37.3711C12.9762 37.1007 11.4319 31.7601 10.4916 26.6897C9.55144 21.6195 10.8945 16.076 10.8945 16.076C7.93962 24.8643 11.4319 31.4896 11.4319 31.4896C11.4319 31.4896 13.1104 37.709 23.4523 37.6416C33.7935 37.5741 35.4055 31.8277 35.4055 31.8277L35.5935 33.2781C35.5935 33.2781 37.9957 31.0807 38.7341 26.4835C39.1084 24.1561 37.6621 17.1053 36.6191 16.0997ZM37.2071 17.4736C37.1722 17.4006 37.1511 17.3603 37.1511 17.3603C37.1707 17.3983 37.1886 17.436 37.2071 17.4736Z" fill="#231F20"/>
<path d="M37.878 21.6383C37.878 21.6383 37.89 21.6559 37.878 21.6383V21.6383ZM12.1803 14.4288C12.1803 14.4288 13.5478 13.1677 14.5241 12.2387C14.5241 12.2387 13.222 12.9686 12.1803 14.4288ZM11.8164 31.1644C12.5907 32.7263 13.3525 33.7426 13.3525 33.7426C13.3525 33.7426 12.6265 32.6475 11.8164 31.1644ZM37.1791 16.1543L36.9247 15.4129L39.197 16.2207L36.9986 15.094L39.2314 13.769L36.7774 14.775L37.1701 12.3213L36.3736 14.6915L35.7961 14.5284C34.5853 12.7281 32.9215 11.8271 30.8281 10.823C26.9369 8.95592 21.7504 9.45099 21.7504 9.45099C21.7504 9.45099 27.8734 9.52895 32.557 12.3051C33.5243 12.8785 34.3308 13.6735 35.0002 14.5721L33.9893 14.6278L35.1479 14.7756C35.2572 14.9296 35.3628 15.0861 35.4641 15.2449L34.1192 16.0218L35.5702 15.4127C35.7196 15.6548 35.8616 15.9012 35.9951 16.1504L35.4214 17.9466L36.0997 16.348C37.1047 18.2919 37.6341 20.3569 37.878 21.6383C37.5966 18.9561 37.1057 17.0441 36.4121 15.6098L36.4628 15.4909C36.4628 15.4909 39.0017 18.8092 38.5462 24.2518C38.0907 29.6943 36.7885 31.6191 35.4863 32.9465L35.4214 32.2826C35.4214 32.2826 33.5338 37.9245 24.1591 37.7915C14.7845 37.6585 14.0684 34.6059 14.0684 34.6059L13.5476 34.3399C13.5476 34.3399 11.3343 32.6147 9.96712 28.0349C8.59984 23.4553 9.90193 19.7385 9.90193 19.7385C9.90193 19.7385 9.18586 22.7916 9.70668 25.9109C9.97657 27.5275 10.9451 29.5701 11.8164 31.1644C11.1768 29.8749 10.5283 28.2134 10.2927 26.4419C9.77161 22.526 9.90193 19.8711 10.5529 17.8802C11.2038 15.8892 11.5946 15.0261 11.5946 15.0261C11.5946 15.0261 8.86049 18.2121 8.7953 24.9819C8.73017 31.7518 14.4589 36.3977 16.9977 37.3933C19.5367 38.3888 27.5441 39.716 32.3615 36.3315C37.1791 32.9465 36.8534 32.0838 38.4158 28.964C39.9788 25.8445 39.3274 19.5393 37.1791 16.1543ZM36.0389 14.9129C36.0337 14.9043 36.0289 14.8956 36.0236 14.8873L36.0722 14.8935L36.0389 14.9129ZM36.2628 15.3125C36.2353 15.2606 36.2079 15.2076 36.1799 15.1568L36.333 15.0925L36.2628 15.3125ZM13.3525 15.0261C13.7428 14.3624 15.761 13.1677 15.761 13.1677C15.761 13.1677 14.6542 13.8316 13.4175 15.2917C12.1803 16.7517 13.8732 15.1589 16.1518 13.6323C18.4302 12.1059 21.6201 12.2387 21.6201 12.2387C21.6201 12.2387 20.5786 11.4422 16.6074 12.7034L20.4483 11.044C20.4483 11.044 14.5895 12.3051 12.8967 14.6943C11.2038 17.0837 12.9616 15.6898 13.3525 15.0261ZM32.9489 14.8162C33.6673 15.5622 34.1846 16.2207 34.1846 16.2207C34.1846 16.2207 33.973 15.5498 32.9489 14.8162ZM10.6832 24.5837C11.3993 31.6191 14.394 34.6059 14.394 34.6059C14.394 34.6059 16.6724 36.8624 23.7684 37.1942C30.8642 37.5259 33.1432 34.7385 33.3385 34.2739C33.5338 33.8094 32.4267 34.5393 32.1013 34.4065C31.7758 34.2739 33.1432 31.818 33.1432 31.818C32.4269 34.4729 33.5338 31.4199 34.2496 31.7518C34.9658 32.0834 32.8174 32.9465 33.5338 33.6102C34.2496 34.2739 35.7465 29.5615 36.7236 27.4376C37.7001 25.3139 37.3744 23.1235 37.3095 21.7297C37.2446 20.3358 36.9189 19.7385 36.9189 19.7385L36.7236 23.0573C36.7236 23.0573 36.8539 23.5217 35.812 21.1985L34.9658 18.942C34.3799 29.2961 32.0359 33.2122 32.0359 33.2122C32.0359 33.2122 31.1897 35.8004 24.3542 35.8669C17.5188 35.9329 16.5421 34.1409 16.5421 34.1409C14.3288 31.2207 13.0267 24.9819 13.3525 20.867C13.6779 16.7519 13.3525 15.6234 16.2818 14.3624C19.2114 13.1015 23.6381 12.9686 23.6381 12.9686C28.9553 12.8191 31.6283 13.8698 32.9489 14.8162C32.7842 14.6453 32.609 14.4692 32.4267 14.2962C31.4502 13.3671 22.4011 11.4422 17.6489 13.3005C12.8967 15.1589 12.5711 16.9509 12.8967 22.3934C13.2222 27.8359 14.9148 32.349 16.0866 34.0747C17.2583 35.8004 21.4248 36.3315 21.4248 36.3315C15.761 36.1985 15.1101 33.2122 14.7845 32.6807C14.4589 32.1498 13.4824 31.0877 13.2872 31.9508C13.0919 32.8135 11.3416 27.5376 11.6671 27.272C11.9925 27.0064 14.0032 29.9599 14.0032 29.9599C14.0032 29.9599 13.2872 28.4994 12.5711 24.3845C11.855 20.2697 12.9616 18.2121 12.2455 18.0793C11.5294 17.9466 13.136 24.1513 11.085 24.4272C10.5007 24.506 10.9857 18.9395 11.2463 17.8113C11.5065 16.6828 11.79 16.3536 11.79 16.3536C11.79 16.3536 9.96712 17.5484 10.6832 24.5837Z" fill="url(#paint0_linear_0_24638)"/>
<path d="M24.9665 35.4301C24.9776 35.4295 26.5978 35.35 28.0113 35.0316C29.2394 34.755 30.3262 34.2266 30.337 34.2214L30.341 34.2193L30.3455 34.2174C30.3514 34.2148 30.957 33.9534 31.3295 33.5975C31.7071 33.2364 31.8787 32.764 31.8805 32.7593C31.8881 32.7388 32.5492 30.9768 33.0492 29.0947C33.5094 27.3627 33.8251 25.448 33.8282 25.4289C33.8332 25.4036 34.2145 23.469 34.3214 21.411C34.4114 19.6814 34.2326 17.7177 34.2307 17.698C34.2296 17.6832 34.1375 16.5203 33.6708 15.7599C33.2514 15.0767 32.4416 14.7411 32.4335 14.7377L32.4264 14.7349L32.4195 14.7312C32.4102 14.7265 31.4699 14.2555 29.6864 13.8675C28.264 13.558 26.2868 13.3371 24.6496 13.3051C22.7779 13.2684 20.7686 13.3989 19.2752 13.6542C17.4841 13.9604 16.3205 14.4152 16.3088 14.4197L16.2991 14.4234L16.2891 14.4261C16.2774 14.4293 15.117 14.7474 14.5068 15.5221C13.887 16.309 13.7866 17.6017 13.7857 17.6147L13.785 17.6225C13.7832 17.6356 13.6533 18.7505 13.6533 20.1169C13.6533 20.3618 13.6574 20.6149 13.6674 20.8713C13.7373 22.6911 14.0554 24.7082 14.0586 24.7284C14.0623 24.7483 14.4934 27.1164 14.9849 29.1121C15.3491 30.5916 15.8234 31.9004 15.8281 31.9133L15.8313 31.9227L15.8338 31.9323C15.8356 31.9389 15.9972 32.6029 16.2601 33.0665C16.4889 33.4697 16.8259 33.7067 16.8295 33.7088L16.8349 33.7126L16.8404 33.7172C16.8429 33.7189 17.0722 33.9041 17.4243 34.097C17.8295 34.319 18.3726 34.5569 18.3957 34.5667C18.434 34.5816 19.6314 35.0399 21.2098 35.2483C22.8581 35.4659 24.9454 35.4304 24.9664 35.4301L24.9665 35.4301Z" fill="url(#paint1_radial_0_24638)" stroke="#6D0115" stroke-width="2"/>
<path d="M17.813 34.1619C17.7416 34.1292 17.7026 34.1102 17.7026 34.1102C17.6985 34.1085 17.6782 34.0996 17.6452 34.0845L17.6332 34.0135C17.3506 32.4549 16.9192 29.6073 16.778 26.1349C16.6035 22.0514 16.6102 17.0468 16.6268 14.6227V14.4474C16.6745 14.4314 16.7239 14.4152 16.7748 14.3988L16.7756 14.5745C16.7588 16.9779 16.7508 22.0204 16.9264 26.1288C17.0699 29.6617 17.5145 32.545 17.7956 34.0769L17.813 34.1619Z" fill="#6D0115"/>
<path d="M18.2797 34.3618C18.2225 34.3386 18.1687 34.3164 18.1188 34.2955L18.105 34.1861C17.8991 32.7183 17.5348 29.7259 17.3617 25.898C17.1778 21.8286 17.211 16.7136 17.2398 14.3883L17.2401 14.2576C17.2885 14.2437 17.3379 14.2298 17.3883 14.2159L17.3887 14.3601C17.3599 16.6694 17.3257 21.8079 17.5101 25.8915C17.687 29.8061 18.0643 32.8444 18.2667 34.2684L18.2797 34.3618Z" fill="#6D0115"/>
<path d="M21.7701 13.6274C21.8075 18.1351 21.9153 31.1384 21.9467 34.9053L21.9495 35.2234C21.9014 35.2184 21.852 35.2128 21.802 35.2071L21.7983 34.9048C21.7669 31.1407 21.6593 18.1711 21.6219 13.6471L21.6182 13.5153C21.6681 13.5111 21.718 13.5069 21.768 13.5031L21.7701 13.6274Z" fill="#6D0115"/>
<path d="M23.7026 13.5688C23.7155 17.5189 23.7586 30.5938 23.773 35.0125L23.7741 35.3132C23.7221 35.3139 23.6721 35.3144 23.6245 35.3146V34.9733C23.6097 30.498 23.5666 17.3982 23.5539 13.5201L23.5532 13.4193C23.6014 13.4186 23.6497 13.418 23.6982 13.4175L23.7026 13.5688Z" fill="#6D0115"/>
<path d="M24.4446 13.5885C24.4227 17.9749 24.3574 31.1391 24.3382 35.0128L24.3378 35.3029C24.2865 35.3043 24.2366 35.3055 24.1872 35.3066L24.1893 35.0711C24.208 31.2656 24.2741 17.9393 24.296 13.5593L24.2925 13.4178C24.3442 13.4184 24.3957 13.4189 24.4472 13.4198L24.4446 13.5885Z" fill="#6D0115"/>
<path d="M26.4504 34.9357C26.5569 33.1728 26.7581 29.4353 26.8407 25.2062C26.925 20.896 26.8874 15.9909 26.8615 13.6871L26.853 13.5389C26.9132 13.5441 26.9728 13.5495 27.0323 13.5551L27.0404 13.745C27.0662 16.0742 27.1025 20.9341 27.019 25.2095C26.937 29.4034 26.7385 33.1145 26.6314 34.8983L26.6159 35.1532C26.5534 35.1606 26.4994 35.1678 26.4359 35.1746L26.4504 34.9357Z" fill="#6D0115"/>
<path d="M31.5194 33.1884C31.44 33.2966 31.3567 33.3867 31.2858 33.4554L31.357 33.0771C31.6672 31.4703 32.0683 28.9848 32.2685 26.0662C32.5064 22.5965 32.5369 17.8523 32.5318 15.1565L32.535 14.8982C32.5928 14.9302 32.6514 14.9641 32.71 15.0007L32.7103 15.3449C32.7137 18.0716 32.6791 22.6832 32.4464 26.0782C32.25 28.9434 31.8602 31.3934 31.5517 33.0084L31.5194 33.1884Z" fill="#6D0115"/>
<path d="M33.234 27.3679C33.3625 26.3523 33.481 25.2125 33.5627 24.0085C33.7422 21.3625 33.7468 18.3647 33.724 16.457L33.7199 16.1385C33.7948 16.3055 33.8551 16.4766 33.9038 16.641L33.9073 16.9369C33.9234 18.847 33.9061 21.5823 33.7408 24.0203C33.7062 24.5336 33.6645 25.0352 33.6185 25.5207L33.564 26.0569C33.4496 26.6302 33.3044 27.3293 33.1449 28.0387L33.234 27.3679Z" fill="#6D0115"/>
<path d="M30.8879 33.7685C30.8314 33.8069 30.7638 33.8506 30.6876 33.8967L30.7418 33.5923C31.0393 31.9556 31.5021 28.9848 31.684 25.5325C31.8835 21.7403 31.8842 17.2324 31.8675 14.9247L31.8606 14.5978C31.9114 14.6158 31.9714 14.6378 32.0379 14.6645L32.0462 14.9688C32.0626 17.2921 32.0607 21.7702 31.862 25.5418C31.6852 28.8989 31.2431 31.8027 30.9445 33.4728L30.8879 33.7685Z" fill="#6D0115"/>
<path d="M28.6982 34.519C28.8389 32.9939 29.0966 29.8369 29.2205 26.0282C29.3595 21.7526 29.3601 16.6859 29.3498 14.2383L29.3444 13.8903C29.4065 13.903 29.4677 13.9158 29.5277 13.9289L29.5284 14.2658C29.5385 16.7254 29.5374 21.7721 29.3987 26.034C29.2757 29.8176 29.0206 32.9593 28.8793 34.5002L28.8611 34.6874C28.802 34.7048 28.7431 34.7227 28.6776 34.7409L28.6982 34.519Z" fill="#6D0115"/>
<path d="M28.0825 34.663C28.2368 33.3679 28.4899 30.8575 28.5941 27.5924C28.7462 22.8418 28.7275 16.8508 28.7076 14.0785L28.7042 13.7701C28.7633 13.7802 28.8216 13.7903 28.8793 13.8009L28.886 14.1232C28.9057 16.9165 28.9237 22.8708 28.7722 27.5984C28.6693 30.8132 28.4228 33.2985 28.2672 34.6168L28.2384 34.8554C28.1791 34.8698 28.1158 34.8858 28.0533 34.9003L28.0825 34.663Z" fill="#6D0115"/>
<path d="M27.5828 34.7681C27.7035 33.3987 27.9118 30.6864 28.0098 27.3867C28.1465 22.7752 28.1112 16.9357 28.0784 13.8911L28.0749 13.6736C28.1356 13.6817 28.1956 13.6903 28.2548 13.6989L28.258 13.9899C28.2905 17.0627 28.3235 22.828 28.1881 27.3919C28.0918 30.6406 27.8884 33.321 27.7668 34.7142L27.7446 34.9669C27.6832 34.9796 27.6253 34.9914 27.562 35.0036L27.5828 34.7681Z" fill="#6D0115"/>
<path d="M27.0032 34.8844C27.1055 33.2849 27.2991 29.943 27.3836 26.3582C27.496 21.5929 27.5014 16.2773 27.4965 13.789L27.4914 13.6017C27.5519 13.6085 27.6119 13.6153 27.6713 13.6222L27.6751 13.8334C27.6798 16.341 27.6738 21.6235 27.562 26.3622C27.4783 29.9042 27.2886 33.2095 27.1853 34.8338L27.1697 35.0735C27.106 35.0841 27.0547 35.0932 26.9892 35.1031L27.0032 34.8844Z" fill="#6D0115"/>
<path d="M26.39 13.7057C26.3824 16.2523 26.3569 22.0295 26.2743 26.9574C26.2171 30.3686 26.1086 33.3503 26.0454 34.8968L26.0317 35.2123C25.9814 35.2165 25.9308 35.2208 25.8805 35.2248L25.8949 34.9444C25.9576 33.415 26.0678 30.4048 26.1259 26.955C26.209 22.0029 26.2344 16.1926 26.2418 13.6667L26.2429 13.4919C26.293 13.4954 26.3429 13.4987 26.3927 13.5024L26.39 13.7057Z" fill="#6D0115"/>
<path d="M25.656 13.5885C25.6767 15.8359 25.7074 20.2342 25.68 24.3788C25.6502 28.8655 25.553 33.1493 25.5069 34.9937L25.5015 35.2518C25.4508 35.2551 25.4005 35.2581 25.3503 35.261L25.3571 35.042C25.4028 33.2277 25.5015 28.9062 25.5315 24.3776C25.5588 20.2573 25.5286 15.8856 25.508 13.6275L25.5062 13.4506C25.5558 13.4528 25.6052 13.4551 25.6546 13.4575L25.656 13.5885Z" fill="#6D0115"/>
<path d="M25.0731 13.5787C25.1036 16.1563 25.1459 20.7697 25.1253 25.1206C25.1061 29.1686 25.0194 33.0456 24.9672 35.0712L24.9628 35.2808C24.9125 35.2831 24.8628 35.2852 24.8132 35.2873L24.8193 35.0418C24.8716 33.0098 24.9573 29.1497 24.9767 25.12C24.9972 20.7907 24.9554 16.2018 24.9249 13.6177L24.9215 13.4295C24.9714 13.4309 25.0214 13.4325 25.0711 13.4339L25.0731 13.5787Z" fill="#6D0115"/>
<path d="M19.8238 34.8719C19.7721 34.859 19.7207 34.8458 19.6697 34.8321L19.6609 34.7357C19.5362 33.3898 19.2853 30.3632 19.1815 26.8104C19.049 22.2782 19.0931 16.6137 19.1256 13.9464L19.1243 13.8296C19.1739 13.821 19.2237 13.8125 19.2741 13.8042L19.2745 13.9224C19.242 16.5775 19.1972 22.2619 19.3301 26.8063C19.4352 30.4049 19.6914 33.4627 19.8141 34.7775L19.8238 34.8719Z" fill="#6D0115"/>
<path d="M18.8172 34.566C18.7635 34.5468 18.7111 34.5279 18.6601 34.5091L18.6479 34.3978C18.4209 32.5033 17.9817 28.411 17.8425 24.0694C17.7246 20.3963 17.8264 16.2966 17.8951 14.2348L17.8977 14.0837C17.9469 14.0717 17.9969 14.0597 18.0475 14.0479L18.0456 14.1781C17.9771 16.217 17.872 20.3583 17.9909 24.0649C18.132 28.4677 18.5821 32.6139 18.8057 34.4656L18.8172 34.566Z" fill="#6D0115"/>
<path d="M14.5893 27.0151C14.4079 26.1319 14.3018 25.4868 14.2999 25.4755L14.2745 25.0886C14.1699 23.7671 14.0758 22.2866 14.0539 21.0242C14.028 19.5315 14.0389 18.0389 14.0562 16.9226L14.0501 16.7803C14.0936 16.6109 14.148 16.4333 14.2156 16.2608L14.2029 17.0545C14.1868 18.1541 14.1776 19.5876 14.2027 21.0219C14.2304 22.619 14.3738 24.5667 14.5081 26.0973L14.5893 27.0151Z" fill="#6D0115"/>
<path d="M15.8805 31.7284C15.7776 31.4266 15.6597 31.0706 15.5375 30.6817L15.4469 30.1595C15.2155 28.7908 15.0101 27.3371 14.9519 26.2205C14.6491 22.5085 14.6337 18.2237 14.6528 15.9429L14.6565 15.5232C14.7036 15.4717 14.7523 15.4232 14.8019 15.3774L14.8028 15.7743C14.7816 18.0042 14.7899 22.4083 15.1001 26.2107C15.1678 27.5126 15.4367 29.2749 15.713 30.8243L15.8805 31.7284Z" fill="#6D0115"/>
<path d="M16.6106 32.5094C16.3053 31.0047 15.9288 28.7854 15.734 26.2479C15.4316 22.3104 15.442 17.677 15.4718 15.3847L15.4754 14.9113C15.4319 14.9335 15.3803 14.9615 15.3229 14.9951L15.3231 15.3897C15.2934 17.6872 15.2834 22.3203 15.5858 26.2591C15.7799 28.7867 16.1539 30.9998 16.459 32.509L16.6489 33.4044C16.6817 33.4415 16.7164 33.478 16.7533 33.5133C16.7801 33.5387 16.8082 33.5639 16.8371 33.5886L16.6106 32.5094Z" fill="#6D0115"/>
<path d="M19.2981 34.6437C19.16 33.4025 18.916 30.8888 18.8149 27.8551C18.6485 22.8637 18.6367 16.6337 18.64 14.0459L18.6386 13.9198C18.588 13.9299 18.5378 13.94 18.4884 13.9503L18.4914 14.0602C18.4881 16.6577 18.5003 22.8757 18.6663 27.8599C18.7653 30.8264 19.0007 33.2968 19.1406 34.5698L19.1522 34.6794C19.203 34.6959 19.2546 34.7121 19.3068 34.7279L19.2981 34.6437Z" fill="#6D0115"/>
<path d="M16.1411 14.6213C16.0862 14.6424 16.0357 14.6622 15.9897 14.6808L15.9869 14.904C15.9371 17.2334 15.8718 21.8911 16.0569 24.9516C16.3194 29.2916 16.8634 32.368 17.1323 33.6893L17.1574 33.8194C17.2144 33.8553 17.2793 33.8935 17.3328 33.9238L17.2994 33.7641C17.0402 32.5115 16.4747 29.3944 16.2053 24.9429C16.019 21.862 16.0869 17.1574 16.1367 14.85L16.1411 14.6156" fill="#6D0115"/>
<path d="M19.9136 13.7059C19.8633 13.713 19.8133 13.7203 19.7634 13.7275L19.7659 13.8522C19.7401 16.2786 19.7071 21.077 19.7856 25.2781C19.8603 29.2728 20.1054 32.9155 20.2435 34.719L20.2612 34.9699C20.3118 34.9801 20.3624 34.9902 20.4132 34.9999L20.397 34.7785C20.2601 33.0028 20.0097 29.3196 19.934 25.2753C19.8553 21.0694 19.8887 16.2643 19.9144 13.8424L19.9136 13.7059Z" fill="#6D0115"/>
<path d="M20.5443 13.6241C20.4935 13.6302 20.4431 13.6363 20.3926 13.6426L20.3923 13.7642C20.3538 15.7425 20.2968 19.8357 20.3801 23.9111C20.4701 28.5458 20.7127 32.9214 20.8298 34.8436L20.8432 35.0761C20.8944 35.0843 20.945 35.0925 20.9957 35.1001L20.9789 34.846C20.8619 32.9312 20.6186 28.5498 20.5286 23.9082C20.4454 19.8265 20.5027 15.7268 20.5412 13.7546L20.5443 13.6241Z" fill="#6D0115"/>
<path d="M21.152 13.558C21.1026 13.5627 21.053 13.568 21.0036 13.573L21.0026 13.6961C20.986 15.8194 20.963 20.283 21.014 24.6138C21.0636 28.8134 21.1903 32.9654 21.2538 34.8669L21.2628 35.1394C21.3131 35.1464 21.363 35.1532 21.4123 35.1596L21.4024 34.866C21.3389 32.9668 21.212 28.8131 21.1626 24.6119C21.1113 20.2613 21.1347 15.7764 21.1513 13.6664L21.152 13.558Z" fill="#6D0115"/>
<path d="M22.4407 13.4577C22.389 13.4607 22.3373 13.4636 22.2856 13.4667L22.2894 13.5497C22.3151 17.4418 22.4032 30.712 22.4316 35.0126L22.434 35.2701C22.4866 35.2746 22.5365 35.2788 22.5835 35.2824L22.5803 35.0224C22.5517 30.7297 22.4637 17.4239 22.4379 13.5396L22.4407 13.4577Z" fill="#6D0115"/>
<path d="M23.0662 13.4299C23.0159 13.4314 22.9653 13.4333 22.9147 13.4351L22.9184 13.5786C22.926 17.6977 22.9499 30.9682 22.9572 34.9537L22.9549 35.3082C22.9935 35.3106 23.0216 35.312 23.0376 35.3128C23.0461 35.3128 23.0692 35.3134 23.1056 35.3137L23.1059 34.9441C23.0985 30.9473 23.0745 17.6953 23.0669 13.5788L23.0662 13.4299Z" fill="#6D0115"/>
<path d="M29.2025 34.3169C29.4172 32.5103 29.807 28.7764 29.972 24.299C30.0949 20.9659 29.9974 16.4946 29.9332 14.2587L29.9217 14.0179C29.9841 14.0327 30.0447 14.0475 30.1039 14.0623L30.1129 14.3096C30.177 16.5657 30.2723 20.9953 30.1502 24.3054C29.9854 28.7771 29.5967 32.5087 29.3812 34.324L29.3555 34.531C29.3024 34.5491 29.2399 34.57 29.1681 34.5928L29.2025 34.3169Z" fill="#6D0115"/>
<path d="M29.9474 34.0588C30.1211 32.4861 30.4258 29.3775 30.6095 25.5002C30.7857 21.7771 30.7765 16.9703 30.7552 14.4218L30.7515 14.2364C30.694 14.2197 30.634 14.2028 30.5715 14.1854L30.5766 14.4053C30.5982 16.947 30.6077 21.7642 30.4312 25.492C30.2455 29.4163 29.9356 32.5515 29.7634 34.1009L29.7302 34.3818C29.7837 34.3574 29.8467 34.3284 29.9153 34.2964L29.9474 34.0588Z" fill="#6D0115"/>
<path d="M30.4937 33.7137C30.7038 32.3062 30.99 30.0046 31.1522 27.0647C31.3936 22.6919 31.4371 17.1133 31.444 14.6194L31.4405 14.4538C31.3902 14.4363 31.3313 14.4164 31.2639 14.3942L31.2658 14.5615C31.2595 17.0246 31.2171 22.6522 30.974 27.0552C30.8051 30.1147 30.5022 32.4802 30.2908 33.8628L30.2497 34.1346C30.3155 34.1018 30.3813 34.0678 30.4447 34.0343L30.4937 33.7137Z" fill="#6D0115"/>
<path d="M32.054 31.8895C32.054 31.8895 32.214 31.4485 32.4114 30.8179L32.4863 30.3277C32.7294 28.7011 32.9859 26.6721 33.1562 24.4738C33.3826 21.5474 33.3332 17.9828 33.2702 15.8369L33.2564 15.432C33.1971 15.3711 33.1349 15.3136 33.0699 15.2596L33.0844 15.5892C33.1502 17.6947 33.2132 21.4233 32.9782 24.4606C32.7806 27.0134 32.4663 29.3368 32.1921 31.0652L32.054 31.8895Z" fill="#6D0115"/>
<path fill-rule="evenodd" clip-rule="evenodd" d="M19.4609 25.4919V23.9477H18.1365L18.1414 20.0606H19.8706L19.8613 18.4998H16.2667L16.5916 30.4457H18.1711L18.1365 25.4919H19.4609Z" fill="#1A1A1A"/>
<path fill-rule="evenodd" clip-rule="evenodd" d="M20.4856 18.4998L20.6854 30.4457H22.3164L22.3495 18.4998H20.4856Z" fill="#1A1A1A"/>
<path fill-rule="evenodd" clip-rule="evenodd" d="M30.9609 30.4457L31.2961 20.0049H32.5738L32.564 18.4998H28.1317V20.0066H29.42L29.383 30.4457H30.9609Z" fill="#1A1A1A"/>
<path fill-rule="evenodd" clip-rule="evenodd" d="M24.8091 24.0286L24.827 19.971H25.7376C26.1505 20.8747 26.4158 22.0698 26.6238 24.0286H24.8091ZM23.3541 30.4454H23.514H24.6912H24.864L24.8808 25.5056H26.69C26.8322 26.3776 26.8671 29.0689 26.8756 30.4454H27.0251H28.2068H28.3403C28.4785 24.3467 28.0492 20.8995 26.863 18.4997H23.2159L23.3541 30.4454Z" fill="#1A1A1A"/>
<path fill-rule="evenodd" clip-rule="evenodd" d="M19.6542 23.7336H18.3264L18.3313 19.8466H20.0649L20.0555 18.2858H16.4519L16.7776 30.2315H18.3611L18.3264 25.2778H19.6542V23.7336Z" fill="url(#paint2_radial_0_24638)"/>
<path fill-rule="evenodd" clip-rule="evenodd" d="M22.55 18.2858H20.6814L20.8817 30.2315H22.5168L22.55 18.2858Z" fill="url(#paint3_radial_0_24638)"/>
<path fill-rule="evenodd" clip-rule="evenodd" d="M29.6011 30.2315H31.1831L31.519 19.7908H32.8L32.7902 18.2858H28.3467V19.7926H29.6383L29.6011 30.2315Z" fill="url(#paint4_radial_0_24638)"/>
<path fill-rule="evenodd" clip-rule="evenodd" d="M25.0158 23.8145L25.0337 19.7569H25.9466C26.3606 20.6607 26.6265 21.8557 26.835 23.8145H25.0158ZM23.5571 30.2312H23.7175H24.8976H25.0708L25.0877 25.2915H26.9014C27.044 26.1634 27.0789 28.8547 27.0874 30.2312H27.2374H28.422H28.5558C28.6944 24.1326 28.264 20.6855 27.0749 18.2857H23.4186L23.5571 30.2312Z" fill="url(#paint5_radial_0_24638)"/>
</g>
<defs>
<linearGradient id="paint0_linear_0_24638" x1="9.04138" y1="38.1917" x2="38.9693" y2="9.58263" gradientUnits="userSpaceOnUse">
<stop stop-color="#8C8C8C"/>
<stop offset="0.5" stop-color="#464646"/>
<stop offset="0.75" stop-color="white"/>
<stop offset="1" stop-color="white"/>
</linearGradient>
<radialGradient id="paint1_radial_0_24638" cx="0" cy="0" r="1" gradientUnits="userSpaceOnUse" gradientTransform="translate(24 24.3657) scale(10.4534 11.1734)">
<stop stop-color="#E60A47"/>
<stop offset="1" stop-color="#7C0626"/>
</radialGradient>
<radialGradient id="paint2_radial_0_24638" cx="0" cy="0" r="1" gradientUnits="userSpaceOnUse" gradientTransform="translate(24.6259 24.2586) scale(8.17405 5.9729)">
<stop stop-color="#D3D1D2"/>
<stop offset="0.5" stop-color="#C9C7C8"/>
<stop offset="1" stop-color="#8D8B8C"/>
</radialGradient>
<radialGradient id="paint3_radial_0_24638" cx="0" cy="0" r="1" gradientUnits="userSpaceOnUse" gradientTransform="translate(24.6259 24.2586) scale(8.17405 5.9729)">
<stop stop-color="#D3D1D2"/>
<stop offset="0.5" stop-color="#C9C7C8"/>
<stop offset="1" stop-color="#8D8B8C"/>
</radialGradient>
<radialGradient id="paint4_radial_0_24638" cx="0" cy="0" r="1" gradientUnits="userSpaceOnUse" gradientTransform="translate(24.6259 24.2586) scale(8.17405 5.9729)">
<stop stop-color="#D3D1D2"/>
<stop offset="0.5" stop-color="#C9C7C8"/>
<stop offset="1" stop-color="#8D8B8C"/>
</radialGradient>
<radialGradient id="paint5_radial_0_24638" cx="0" cy="0" r="1" gradientUnits="userSpaceOnUse" gradientTransform="translate(24.6259 24.2586) scale(8.17405 5.9729)">
<stop stop-color="#D3D1D2"/>
<stop offset="0.5" stop-color="#C9C7C8"/>
<stop offset="1" stop-color="#8D8B8C"/>
</radialGradient>
<clipPath id="clip0_0_24638">
<rect width="32" height="32" fill="white" transform="translate(8 8)"/>
</clipPath>
</defs>
</svg>
