<svg width="48" height="48" viewBox="0 0 48 48" fill="none" xmlns="http://www.w3.org/2000/svg">
<g clip-path="url(#clip0_0_24700)">
<path d="M23.9999 18.1871C15.2228 18.1871 8.18712 20.8179 8.18712 24.1164C8.18712 27.3948 15.2808 30.046 23.9999 30.046C32.7192 30.046 39.8129 27.3859 39.8129 24.1164C39.8129 20.8469 32.7192 18.1871 23.9999 18.1871Z" fill="#003478"/>
<path d="M30.2284 25.3724C30.2327 25.3996 30.2683 25.4256 30.3028 25.4379C30.3156 25.4422 30.3218 25.4507 30.3085 25.4795C30.21 25.6906 30.1195 25.8122 29.9961 25.9956C29.8825 26.165 29.7546 26.2972 29.5998 26.4244C29.3662 26.6177 29.0419 26.828 28.7737 26.6866C28.6546 26.6248 28.6031 26.4581 28.6054 26.3231C28.611 25.9437 28.7799 25.5541 29.0916 25.1712C29.4716 24.7033 29.8918 24.4606 30.1675 24.5933C30.4528 24.7293 30.3617 25.0596 30.234 25.3189C30.2241 25.3389 30.2241 25.3559 30.2283 25.3723M33.2896 22.4155C33.3101 22.3793 33.2885 22.3528 33.2428 22.3528C33.0045 22.3528 32.6919 22.3534 32.4436 22.3534C32.3845 22.3534 32.3539 22.3604 32.3261 22.4156C32.2344 22.5911 31.1177 24.2648 30.9098 24.5899C30.8747 24.6394 30.832 24.6324 30.8271 24.5757C30.806 24.3827 30.6393 24.1608 30.3766 24.0546C30.1764 23.9734 29.9808 23.9587 29.7773 23.9857C29.41 24.035 29.0828 24.2288 28.7951 24.4473C28.3615 24.777 27.9873 25.2042 27.5044 25.5199C27.2408 25.6917 26.8797 25.8416 26.6382 25.6179C26.4195 25.4152 26.4442 24.965 26.7788 24.6168C26.814 24.5803 26.8563 24.6111 26.8496 24.6435C26.8181 24.801 26.8567 24.9576 26.9763 25.0674C27.1223 25.1982 27.3311 25.213 27.5099 25.1257C27.7208 25.0212 27.8448 24.8193 27.8809 24.5903C27.9368 24.2349 27.6633 23.9215 27.321 23.8964C27.043 23.8769 26.7764 23.9736 26.5166 24.188C26.3863 24.2961 26.3123 24.3759 26.1997 24.5361C26.1722 24.5756 26.1301 24.5795 26.1313 24.5213C26.1441 24.0663 25.9561 23.8104 25.58 23.802C25.288 23.795 24.9762 23.9535 24.7331 24.1473C24.4666 24.3613 24.2336 24.6449 23.9838 24.9114C23.9526 24.9442 23.9256 24.9427 23.9169 24.879C23.9098 24.5776 23.8336 24.2856 23.6941 24.0783C23.6447 24.0062 23.5408 23.9705 23.4535 24.0192C23.4132 24.0412 23.273 24.1057 23.1708 24.188C23.1202 24.2297 23.1004 24.2901 23.1229 24.3675C23.2575 24.8178 23.228 25.3298 23.0452 25.7622C22.8775 26.1583 22.5514 26.5155 22.1682 26.6364C21.9158 26.7165 21.6534 26.6773 21.491 26.4535C21.2679 26.1446 21.358 25.6074 21.6905 25.1614C21.9839 24.7686 22.4083 24.5191 22.8316 24.3585C22.8814 24.3392 22.8917 24.3073 22.8775 24.265C22.8546 24.1954 22.8179 24.1006 22.803 24.0574C22.7641 23.954 22.6554 23.9373 22.5227 23.9517C22.2151 23.9875 21.9376 24.0929 21.6635 24.2396C20.9458 24.6239 20.586 25.3678 20.4283 25.7657C20.3524 25.9569 20.2875 26.0761 20.2036 26.1818C20.0904 26.3241 19.9484 26.4535 19.6887 26.6816C19.6652 26.7025 19.6476 26.7461 19.6674 26.7867C19.6939 26.8416 19.829 27.0323 19.8671 27.0493C19.9094 27.0701 19.9584 27.0408 19.9781 27.027C20.1598 26.9038 20.3773 26.7085 20.4836 26.5761C20.521 26.5307 20.5593 26.5498 20.5791 26.6187C20.6784 26.9729 20.9384 27.2622 21.2979 27.3832C21.956 27.6051 22.6385 27.2839 23.1538 26.7247C23.4812 26.3692 23.5993 26.1406 23.7249 25.9852C23.9376 25.7217 24.3571 25.1322 24.8569 24.7536C25.0401 24.614 25.257 24.5076 25.366 24.5783C25.4536 24.635 25.4819 24.7668 25.3414 25.0222C24.8319 25.9526 24.0823 27.0457 23.9448 27.3108C23.9196 27.3568 23.942 27.393 23.9898 27.393C24.2564 27.3917 24.5207 27.3923 24.7627 27.3923C24.803 27.3909 24.821 27.372 24.8412 27.3435C25.2322 26.7315 25.6002 26.1489 25.9946 25.5467C26.0167 25.5112 26.037 25.5382 26.0379 25.5537C26.0464 25.6935 26.0803 25.8846 26.1633 26.0101C26.3124 26.2421 26.5237 26.3418 26.758 26.3433C26.9445 26.3462 27.0388 26.3172 27.2399 26.2421C27.4035 26.1814 27.5348 26.1018 27.6356 26.0297C27.6944 25.9887 27.7048 26.0573 27.7034 26.0677C27.6128 26.5536 27.7246 27.1294 28.2075 27.3681C28.7854 27.653 29.4203 27.2525 29.7856 26.891C29.8214 26.8562 29.8597 26.8598 29.8634 26.9349C29.8719 27.073 29.9336 27.2368 30.0478 27.3514C30.3539 27.6587 30.9717 27.5369 31.5917 27.057C31.9897 26.7498 32.4062 26.3157 32.7824 25.8561C32.7965 25.8383 32.8067 25.8097 32.7796 25.7807C32.7223 25.7207 32.6394 25.6521 32.5826 25.5993C32.5567 25.5773 32.5187 25.5836 32.4969 25.6001C32.1112 25.9668 31.7641 26.3851 31.2624 26.731C31.0932 26.8491 30.8235 26.9443 30.7024 26.7803C30.6552 26.7167 30.6605 26.6287 30.7067 26.5132C30.8529 26.1484 33.1688 22.6224 33.2891 22.4144" fill="white"/>
<path d="M22.3935 22.8409C22.4034 22.8933 22.4238 22.9035 22.4476 22.8991C22.5655 22.8755 22.6946 22.7784 22.7711 22.666C22.8407 22.564 22.8733 22.4168 22.8041 22.3579C22.7425 22.3048 22.6421 22.3198 22.5676 22.3856C22.4194 22.5165 22.3744 22.7024 22.3935 22.8411M16.4908 27.3798C15.6273 27.3854 14.8666 26.8522 14.7793 25.9284C14.7308 25.4164 14.8755 24.9602 15.1651 24.5843C15.4222 24.2494 15.8571 23.9712 16.2253 23.9032C16.3451 23.8813 16.5061 23.8947 16.5726 23.9745C16.677 24.096 16.647 24.2295 16.5426 24.2827C16.2618 24.4261 15.9238 24.6716 15.7565 25.0069C15.6209 25.2805 15.5935 25.6103 15.8007 25.9244C16.1474 26.448 17.1141 26.4624 18.0128 25.6274C18.2354 25.4231 18.4346 25.2267 18.6371 24.9941C19.0329 24.5415 19.1646 24.3766 19.6908 23.6467C19.6964 23.6382 19.6993 23.6272 19.6964 23.6218C19.6922 23.6119 19.6851 23.6105 19.6694 23.6091C19.3182 23.619 19.0119 23.7235 18.7142 23.946C18.6285 24.0085 18.5051 23.9997 18.4511 23.9174C18.391 23.8243 18.4342 23.7032 18.533 23.6348C19.0119 23.3017 19.535 23.2413 20.0692 23.1512C20.0688 23.1512 20.1063 23.1526 20.1368 23.1124C20.3561 22.831 20.5217 22.5771 20.7555 22.2925C20.991 22.0037 21.2953 21.7385 21.5277 21.5393C21.8522 21.2603 22.0603 21.1664 22.2718 21.0514C22.3275 21.0222 22.2647 20.9874 22.2478 20.9874C21.067 20.7655 19.8397 20.4783 18.6671 20.9124C17.8549 21.2155 17.499 21.8595 17.6702 22.2899C17.792 22.5951 18.1935 22.6448 18.5693 22.4608C18.8815 22.3079 19.1704 22.0613 19.3752 21.744C19.4898 21.5678 19.7312 21.6949 19.6008 22.0009C19.2576 22.8075 18.6021 23.4472 17.8035 23.4742C17.124 23.4963 16.6855 22.9963 16.6869 22.3796C16.6898 21.163 18.044 20.3617 19.4673 20.2419C21.1814 20.1002 22.8049 20.5568 24.5068 20.7632C25.8107 20.9211 27.0609 20.9244 28.3715 20.6233C28.5265 20.5897 28.6352 20.6885 28.6251 20.845C28.6124 21.0712 28.4371 21.2891 28.0054 21.5245C27.5145 21.7938 27.0009 21.8755 26.4645 21.8798C25.1675 21.8912 23.9593 21.3851 22.709 21.1134C22.7104 21.1681 22.7249 21.2333 22.6791 21.2679C21.9865 21.7787 21.3605 22.2974 20.9413 23.026C20.9271 23.0428 20.9342 23.0588 20.9592 23.0571C21.3232 23.0378 21.6506 23.0284 21.9904 23.0013C22.0498 22.9956 22.0521 22.9815 22.0468 22.9382C22.0167 22.687 22.0901 22.4007 22.311 22.2037C22.5371 22.001 22.8202 21.9779 23.0079 22.1239C23.2212 22.2902 23.2023 22.5892 23.0857 22.8134C22.9669 23.0409 22.7706 23.1626 22.5823 23.2217C22.5823 23.2217 22.5427 23.2302 22.5487 23.2661C22.5557 23.3235 22.8126 23.4657 22.8346 23.5036C22.8558 23.5396 22.8445 23.5955 22.8059 23.6384C22.7787 23.6695 22.7362 23.6986 22.6817 23.6976C22.6377 23.6968 22.611 23.6815 22.5547 23.6511C22.4396 23.5887 22.2957 23.4862 22.1997 23.3653C22.167 23.3244 22.1503 23.3236 22.0687 23.3281C21.701 23.3493 21.1276 23.4047 20.7391 23.4533C20.6449 23.4646 20.631 23.4825 20.6116 23.5152C19.9922 24.5366 19.3308 25.6381 18.6047 26.3756C17.8258 27.1663 17.1784 27.3745 16.4911 27.3798" fill="white"/>
<path d="M23.9995 19.1567C15.9249 19.1567 9.37982 21.388 9.37982 24.1183C9.37982 26.8489 15.9249 29.0803 23.9995 29.0803C32.074 29.0803 38.6187 26.8489 38.6187 24.1183C38.6187 21.388 32.074 19.1567 23.9995 19.1567ZM23.9995 29.53C15.631 29.53 8.84705 27.1071 8.84705 24.1183C8.84705 21.129 15.631 18.7066 23.9995 18.7066C32.3673 18.7066 39.1509 21.129 39.1509 24.1183C39.1509 27.1071 32.3673 29.53 23.9995 29.53Z" fill="white"/>
</g>
<defs>
<clipPath id="clip0_0_24700">
<rect width="32" height="12.2331" fill="white" transform="translate(8 18)"/>
</clipPath>
</defs>
</svg>
