<svg width="48" height="48" viewBox="0 0 48 48" fill="none" xmlns="http://www.w3.org/2000/svg">
<g clip-path="url(#clip0_0_1046)">
<path fill-rule="evenodd" clip-rule="evenodd" d="M16.5397 20.4491C15.2187 20.4491 14.4772 22.0153 14.4772 23.9482C14.4772 25.8791 15.2187 27.4454 16.5397 27.4454C17.8628 27.4454 18.5598 25.8789 18.5598 23.9482C18.5598 22.0153 17.8628 20.4491 16.5397 20.4491ZM16.5397 26.5782C15.8063 26.5782 15.5265 25.4011 15.5265 23.9482C15.5265 22.4956 15.8063 21.3184 16.5397 21.3184C17.2753 21.3184 17.5102 22.4956 17.5102 23.9482C17.5102 25.4011 17.2753 26.5782 16.5397 26.5782ZM29.0207 20.4491C27.6998 20.4491 26.9602 22.0153 26.9602 23.9482C26.9602 25.8791 27.6998 27.4454 29.0207 27.4454C30.344 27.4454 31.0408 25.8789 31.0408 23.9482C31.0408 22.0153 30.344 20.4491 29.0207 20.4491ZM29.0207 26.5782C28.2873 26.5782 28.0097 25.4011 28.0097 23.9482C28.0097 22.4956 28.2873 21.3184 29.0207 21.3184C29.7562 21.3184 29.9912 22.4956 29.9912 23.9482C29.9912 25.4011 29.7562 26.5782 29.0207 26.5782ZM12.145 28.7036C10.6355 28.7036 9.41177 27.3058 9.41177 23.9988C9.41177 21.2819 10.6356 19.2962 12.145 19.2962C12.6698 19.2962 12.7163 19.4522 13.0143 19.4786C13.239 19.4989 13.46 19.428 13.5714 19.3166L13.6687 21.286C13.215 20.583 12.5989 20.3195 12.3396 20.3195C11.4926 20.3195 10.5769 21.1623 10.5769 24.0312C10.5707 26.8762 11.355 27.7431 12.1126 27.7431C12.4367 27.7431 12.6191 27.6805 12.7873 27.5304V24.1165C12.7873 23.8531 12.6352 23.6241 12.4186 23.5187H14.1996C13.9808 23.624 13.8309 23.8531 13.8309 24.1165V27.2001C13.8309 27.4861 13.918 27.7393 14.0455 27.8528C13.7193 27.9783 13.1947 28.7036 12.145 28.7036ZM24.4255 27.2773C25.6168 27.2773 26.5996 26.0655 26.5996 23.9341C26.5996 21.8046 25.6249 20.6173 24.4316 20.6173H22.6262C22.8431 20.7226 22.993 20.9495 22.993 21.215V26.6796C22.993 26.9671 22.9118 27.1232 22.7781 27.2791C22.9707 27.2773 24.4255 27.2773 24.4255 27.2773ZM24.4398 21.3954C25.0436 21.3954 25.5338 22.1856 25.5338 23.9482C25.5338 25.7111 25.0436 26.5013 24.4398 26.5013H23.9797V21.3954H24.4398ZM37.0199 23.0366C37.5306 23.5675 38.5882 24.4794 38.5882 25.6708C38.5882 26.6288 37.8466 27.4071 37.0016 27.4071C36.5682 27.4071 36.3678 27.2387 35.9382 27.2387C35.7942 27.2387 35.6687 27.2693 35.5633 27.3198L35.5653 25.6058C35.5653 25.6058 35.9463 26.3393 36.5318 26.5339C37.0241 26.6979 37.5973 26.3961 37.5973 25.7232C37.5973 25.0099 36.625 24.157 36.4971 24.0254C35.9787 23.4945 35.4922 22.911 35.4922 22.1471C35.4922 21.2334 36.1771 20.4958 37.0221 20.4958C37.4555 20.4958 37.4819 20.6235 37.7756 20.6235C37.9195 20.6235 38.0532 20.5951 38.1566 20.5444L38.1546 21.979C38.1546 21.979 37.6562 21.3307 37.1841 21.3307C36.7931 21.3307 36.4769 21.6549 36.4769 22.056C36.477 22.522 36.8499 22.846 37.0199 23.0366ZM33.2982 20.6173C33.5167 20.7226 33.6669 20.9495 33.6669 21.215V24.167L32.6436 21.215C32.5344 20.9354 32.5201 20.7611 32.6821 20.6173H31.1422C31.2535 20.6724 31.3471 20.7576 31.4123 20.8633C31.4775 20.9689 31.5117 21.0908 31.5109 21.215V26.6816C31.5111 26.8062 31.4765 26.9284 31.411 27.0344C31.3455 27.1404 31.2516 27.2259 31.1401 27.2814H32.7246C32.5077 27.1738 32.3722 26.9449 32.3722 26.6816V23.1379L33.5778 26.6554C33.5979 26.7122 33.6163 26.7769 33.6163 26.8395C33.6163 27.0279 33.5248 27.1899 33.3771 27.2814H34.8807C34.6637 27.1738 34.5302 26.9449 34.5302 26.6816V21.2151C34.5302 20.9497 34.6861 20.7227 34.9051 20.6175H33.2982V20.6173ZM35.8834 20.2121C35.8834 20.3286 35.8605 20.4441 35.8159 20.5517C35.7713 20.6594 35.7059 20.7573 35.6235 20.8397C35.5411 20.9221 35.4432 20.9875 35.3355 21.0321C35.2278 21.0767 35.1124 21.0996 34.9959 21.0996C35.1742 20.9739 35.3241 20.8038 35.397 20.5931C35.1438 20.5931 34.9635 20.3945 34.9635 20.1392C34.9638 20.0173 35.0123 19.9005 35.0985 19.8143C35.1848 19.7281 35.3016 19.6796 35.4235 19.6793C35.6769 19.6793 35.8953 19.8616 35.8834 20.2121ZM20.0308 23.5209V21.3954H20.5252C21.0074 21.3954 21.3964 21.673 21.3964 22.4611C21.3964 23.1176 21.0074 23.5207 20.5252 23.5207H20.0308V23.5209ZM20.0308 24.3496H20.4259L21.2789 26.6796C21.3518 26.9286 21.2789 27.1718 21.0602 27.2773H22.6872C22.5311 27.1476 22.3752 26.8639 22.2658 26.5843L21.364 24.1815C21.9982 23.8815 22.4398 23.2352 22.4398 22.4875C22.4398 21.454 21.8058 20.5464 20.5556 20.6173H18.6834C18.7948 20.6723 18.8884 20.7575 18.9536 20.8632C19.0188 20.9689 19.0529 21.0908 19.0521 21.215V26.6796C19.0521 26.9429 18.9002 27.1718 18.6834 27.2773H20.3834C20.1646 27.1718 20.0308 26.9411 20.0308 26.6775V24.3496Z" fill="#CC2229"/>
</g>
<defs>
<clipPath id="clip0_0_1046">
<rect width="32" height="32" fill="white" transform="translate(8 8)"/>
</clipPath>
</defs>
</svg>
