<svg width="48" height="48" viewBox="0 0 48 48" fill="none" xmlns="http://www.w3.org/2000/svg">
<path d="M24 28.779C30.0138 28.779 34.8889 25.4759 34.8889 21.4012C34.8889 17.3266 30.0138 14.0234 24 14.0234C17.9862 14.0234 13.1111 17.3266 13.1111 21.4012C13.1111 25.4759 17.9862 28.779 24 28.779Z" fill="url(#paint0_linear_0_1051)" stroke="black"/>
<path d="M24 28.2012C29.3265 28.2012 33.6444 25.1568 33.6444 21.4012C33.6444 17.6457 29.3265 14.6012 24 14.6012C18.6735 14.6012 14.3556 17.6457 14.3556 21.4012C14.3556 25.1568 18.6735 28.2012 24 28.2012Z" fill="url(#paint1_radial_0_1051)"/>
<path fill-rule="evenodd" clip-rule="evenodd" d="M30 22.179C29.6 20.6679 29.1111 19.2457 28.2222 17.8679C27.3502 16.5808 25.5093 17.039 24.0747 16.815V25.6528C24.0747 28.3177 28.7805 27.6666 31.4645 25.1728C30.5462 24.5114 30.2925 23.2666 30 22.179Z" fill="url(#paint2_linear_0_1051)"/>
<path fill-rule="evenodd" clip-rule="evenodd" d="M33.2849 21.4012C33.2849 17.7683 29.108 14.8234 23.9556 14.8234H23.948V16.3492H24.0747V16.815C25.5089 17.039 27.3502 16.5808 28.2222 17.8679C29.1111 19.2457 29.6 20.6679 30 22.179C30.2929 23.2665 30.5467 24.5114 31.4644 25.1728C32.5356 24.1777 33.2849 22.8892 33.2849 21.4012Z" fill="url(#paint3_linear_0_1051)"/>
<path fill-rule="evenodd" clip-rule="evenodd" d="M18 22.179C18.4 20.6679 18.8889 19.2457 19.7778 17.8679C20.6498 16.5808 22.4907 17.039 23.9253 16.815V25.6528C23.9253 28.3177 19.2196 27.6666 16.5356 25.1728C17.4538 24.5114 17.7076 23.2666 18 22.179Z" fill="url(#paint4_linear_0_1051)"/>
<path fill-rule="evenodd" clip-rule="evenodd" d="M14.7151 21.4012C14.7151 17.7683 18.892 14.8234 24.0445 14.8234H24.052V16.3492H23.9253V16.815C22.4911 17.039 20.6498 16.5808 19.7778 17.8679C18.8889 19.2457 18.4 20.6679 18 22.179C17.7071 23.2665 17.4533 24.5114 16.5356 25.1728C15.4645 24.1777 14.7151 22.8892 14.7151 21.4012Z" fill="url(#paint5_linear_0_1051)"/>
<path d="M38.1547 29.6225C38.0733 29.5025 37.6764 29.5225 37.536 29.5372C37.4387 29.5474 37.3462 29.5808 37.2693 29.6332C37.2307 30.9519 37.248 32.5354 37.248 33.9425C37.248 34.0857 37.2129 34.4585 37.2693 34.5399C37.332 34.631 37.5907 34.6145 37.7173 34.6145C37.9044 34.6145 38.0778 34.6248 38.1547 34.5292C38.1933 33.2585 38.176 31.6092 38.176 30.2199C38.176 30.079 38.2111 29.7057 38.1547 29.6225Z" fill="#CE181E"/>
<path d="M39.0827 29.6439C39.0636 30.935 39.072 32.5265 39.072 33.9212C39.072 34.0959 39.0307 34.4492 39.0933 34.5399C39.1604 34.6372 39.5769 34.6345 39.7653 34.6145C39.8582 34.6048 39.9613 34.5741 40 34.5079V29.6545C39.8418 29.4777 39.2604 29.5003 39.0827 29.6439Z" fill="#CE181E"/>
<path d="M10.1547 30.6145C10.6973 30.5128 11.196 30.6723 11.552 30.8385C11.6347 30.8772 11.8364 31.0208 11.9253 30.9879C12.076 30.9323 12.0373 30.3932 11.9787 30.2625C11.9067 30.1017 11.6453 29.9994 11.456 29.9425C11.2564 29.8825 10.9738 29.8297 10.7413 29.8145C10.1596 29.7763 9.67644 29.879 9.312 30.0385C8.58533 30.3568 8.052 31.0839 8 32.0972V32.5132C8.13422 33.9319 9.00044 34.7825 10.688 34.6572C10.9267 34.6394 11.1516 34.6132 11.392 34.5505C11.5902 34.4985 11.9116 34.4292 11.9787 34.2732C12.0316 34.1497 12.0107 33.9159 12.0107 33.7292C12.0107 33.3168 12.0107 33.0145 12.0107 32.5772C12.0107 32.2781 12.0569 32.0025 11.8507 31.9265C11.6431 31.8501 11.2738 31.9052 10.976 31.9052H10.528C10.3898 31.9052 10.1831 31.8857 10.112 31.9265C9.96444 32.0114 10.008 32.5168 10.112 32.6305C10.4036 32.6554 10.7413 32.6341 11.0507 32.6412V33.7399C10.4316 34.0372 9.72756 33.8092 9.39733 33.4625C9.04933 33.0977 8.87556 32.3781 9.04533 31.7132C9.19111 31.1417 9.56889 30.7243 10.1547 30.6145Z" fill="#CE181E"/>
<path d="M32.352 29.9425C32.2849 30.0132 32.2596 30.2834 32.2347 30.3905C31.9813 31.4719 31.7182 32.6385 31.4773 33.6545C31.2045 32.575 30.9391 31.4777 30.6667 30.3799C30.6338 30.2479 30.5942 29.9905 30.528 29.9319C30.4409 29.855 30.2142 29.8679 30.0373 29.8679C29.8605 29.8679 29.6387 29.8679 29.5573 29.9425C29.4933 30.0012 29.4511 30.2408 29.4187 30.3799C29.1631 31.4741 28.8947 32.5959 28.64 33.6439C28.3982 32.5848 28.1213 31.4545 27.8827 30.3799C27.848 30.2248 27.8342 29.9879 27.7653 29.9212C27.6578 29.8172 26.896 29.8399 26.8267 29.9532C26.756 30.0688 26.8845 30.3883 26.9227 30.5399C27.2236 31.7305 27.5169 32.8341 27.8187 33.9959C27.8631 34.1661 27.9102 34.4657 28 34.5399C28.1573 34.6697 29.052 34.6594 29.1947 34.5399C29.2636 34.4821 29.2889 34.3154 29.3227 34.1772C29.5587 33.2083 29.7538 32.3092 30.0053 31.3932C30.2169 32.3132 30.468 33.2292 30.6987 34.1452C30.7338 34.2839 30.7485 34.4643 30.816 34.5292C30.9747 34.6812 31.9053 34.6594 32.0427 34.5185C32.1298 34.4292 32.1676 34.1385 32.2133 33.9639C32.5116 32.8217 32.8427 31.6354 33.12 30.5399C33.1693 30.3457 33.2605 30.1412 33.2053 29.9319C33.048 29.8568 32.48 29.8079 32.352 29.9425Z" fill="#CE181E"/>
<path d="M24.064 33.8465C23.9716 33.7821 23.9258 33.6079 23.9147 33.4625C23.8791 32.9919 23.9338 32.2794 23.9253 31.8519C24.1751 31.8457 24.4507 31.8652 24.6827 31.8412C24.7978 31.6954 24.7996 31.2843 24.6933 31.1265C24.4738 31.0794 24.1693 31.1172 23.9147 31.1052C23.908 30.8452 23.9284 30.5581 23.904 30.3159C23.7249 30.1888 23.1738 30.1857 23.008 30.3265C22.9836 30.5688 23.004 30.8559 22.9973 31.1159C22.8742 31.0968 22.6836 31.1003 22.56 31.1159C22.4276 31.2554 22.4333 31.6892 22.5493 31.8412C22.6764 31.8705 22.8707 31.8328 22.9973 31.8625C23.0724 32.6443 22.8271 33.7612 23.1787 34.3052C23.3058 34.5017 23.5689 34.6452 23.904 34.6679C24.1813 34.6865 24.6004 34.6501 24.704 34.5079C24.808 34.3652 24.7884 33.9692 24.6933 33.8252C24.5164 33.8577 24.2302 33.9625 24.064 33.8465Z" fill="#CE181E"/>
<path d="M14.6667 31.0199C14.1093 30.9794 13.952 31.3879 13.7173 31.6066C13.7111 31.4599 13.7302 31.2879 13.7067 31.1586C13.548 31.0479 13.0702 31.0425 12.9387 31.1799C12.9209 32.2714 12.9209 33.4377 12.9387 34.5292C13.1169 34.6568 13.6671 34.6568 13.8453 34.5292C13.8702 33.8572 13.8489 33.139 13.856 32.4492C14.016 32.227 14.16 31.9497 14.4427 31.8839C14.6107 31.8448 14.8227 31.9968 14.9333 31.9479C15.0302 31.9052 15.0173 31.7083 15.0187 31.5639C15.0231 31.1523 15.0133 31.0452 14.6667 31.0199Z" fill="#CE181E"/>
<path d="M17.76 31.1799C17.4578 31.0314 17.0591 30.9781 16.6507 31.0412C15.9307 31.1528 15.5062 31.643 15.36 32.3319C15.2822 32.6972 15.2929 33.1581 15.3707 33.5052C15.5324 34.2279 15.9729 34.595 16.7893 34.6786H17.3013C17.4622 34.6554 17.664 34.6305 17.856 34.5825C18.0062 34.5448 18.2422 34.4986 18.304 34.3906C18.3782 34.2608 18.3431 33.9377 18.2933 33.7825C18.0902 33.7803 17.884 33.8794 17.664 33.9319C16.9391 34.1043 16.1827 33.9292 16.2453 33.0892C16.7387 33.0892 17.28 33.0892 17.8027 33.0892C18.0573 33.0892 18.3445 33.1297 18.4427 32.9825C18.5329 32.8474 18.5004 32.5626 18.4853 32.3959C18.4293 31.7759 18.1485 31.3705 17.76 31.1799ZM16.2453 32.4919C16.2529 32.0123 16.5271 31.6346 17.0133 31.6706C17.4076 31.6999 17.6133 32.0168 17.6 32.4919C17.1969 32.4919 16.648 32.4919 16.2453 32.4919Z" fill="#CE181E"/>
<path d="M22.0053 32.8865C22.0053 32.3394 22.0422 31.7768 21.7707 31.4359C21.396 30.9657 20.4671 30.9354 19.7867 31.1479C19.5805 31.2123 19.3316 31.2932 19.2533 31.4465C19.1747 31.6008 19.2156 32.0132 19.3493 32.0439C19.46 32.0692 19.6151 31.9448 19.7013 31.9052C19.9805 31.7768 20.5293 31.5812 20.8853 31.7985C21.084 31.9199 21.1133 32.1448 21.0987 32.5132C20.2698 32.4981 19.4849 32.5581 19.168 33.0892C18.9782 33.4074 19.0053 33.8941 19.168 34.1772C19.3298 34.4581 19.6405 34.6261 20.0213 34.6785H20.4053C20.5916 34.6519 20.7462 34.5857 20.8853 34.5079C21.0276 34.4288 21.1369 34.331 21.248 34.2519C21.252 34.3368 21.2338 34.4732 21.2587 34.5612C21.4142 34.6168 21.8907 34.6834 21.984 34.5505C22.0293 34.4865 22.0053 34.2661 22.0053 34.1452V32.8865ZM21.0987 33.6332C21.0729 33.7274 20.8787 33.8892 20.736 33.9639C20.5085 34.0825 20.1609 34.031 20.032 33.8785C19.9107 33.7354 19.9076 33.4741 20.0107 33.3239C20.1858 33.0683 20.6582 33.0857 21.0987 33.0892C21.0631 33.2821 21.1458 33.4612 21.0987 33.6332Z" fill="#CE181E"/>
<path d="M36.1387 31.4572C35.8053 30.9906 34.8769 30.9234 34.1867 31.1266C33.9849 31.1861 33.6693 31.2834 33.5893 31.4572C33.5173 31.6137 33.5542 32.0243 33.696 32.0439C33.804 32.0586 33.9684 31.9466 34.08 31.8946C34.4035 31.743 35.2075 31.5354 35.392 31.9692C35.4587 32.1261 35.4329 32.2408 35.4453 32.5026C34.5587 32.5066 33.788 32.5612 33.4827 33.1532C33.3115 33.4848 33.3644 33.9488 33.5253 34.2092C33.6849 34.4679 34.0129 34.6328 34.368 34.6786H34.7413C35.0635 34.6394 35.3044 34.4852 35.5093 34.3052C35.528 34.2888 35.556 34.2434 35.584 34.2626C35.6035 34.399 35.5435 34.4981 35.616 34.5719C35.7373 34.6954 36.1969 34.599 36.32 34.5612C36.3595 33.9821 36.3413 33.467 36.3413 32.9186C36.3413 32.3692 36.3884 31.807 36.1387 31.4572ZM35.4453 33.6226C35.4044 33.7914 35.0351 34.0114 34.8267 34.0279C34.6035 34.0452 34.4187 33.9617 34.336 33.8252C34.208 33.6137 34.304 33.3163 34.4747 33.2066C34.7022 33.0603 35.0453 33.0977 35.4453 33.0892C35.4142 33.2808 35.4867 33.4514 35.4453 33.6226Z" fill="#CE181E"/>
<path fill-rule="evenodd" clip-rule="evenodd" d="M29.6871 24.8488C29.5782 24.8488 29.4729 24.8408 29.3729 24.8248C29.3102 24.8145 27.8249 24.5465 27.8662 22.715V19.4688L23.9995 17.3523L20.1329 19.4688V22.7123C20.1747 24.5465 18.6893 24.8145 18.6262 24.8248C18.5271 24.8408 18.4213 24.8488 18.3124 24.8488C18.0067 24.8488 17.2235 24.7768 16.5604 24.1114C15.948 23.4968 15.64 22.5852 15.644 21.4017C15.656 18.1177 19.4044 15.4457 23.9995 15.4457C28.5947 15.4457 32.3431 18.1177 32.3551 21.4017C32.3595 22.5848 32.0511 23.4968 31.4391 24.111C30.776 24.7768 29.9929 24.8488 29.6871 24.8488Z" fill="white"/>
<path d="M24 15.5568C26.2142 15.5568 28.2924 16.1732 29.8529 17.2919C31.3893 18.3941 32.2391 19.8537 32.2444 21.4021C32.2489 22.555 31.9515 23.4399 31.3604 24.0328C30.7267 24.6688 29.9791 24.7377 29.6871 24.7377C29.584 24.7377 29.4844 24.7301 29.3911 24.715C29.3875 24.7145 29.0253 24.6497 28.6742 24.3803C28.1955 24.0132 27.9609 23.4537 27.9778 22.7172V22.7145V22.7119V19.4025L27.8622 19.3394L24.1067 17.2839L24 17.2257L23.8933 17.2839L20.1378 19.3394L20.0222 19.4025V22.7172C20.0618 24.4479 18.6675 24.7052 18.6093 24.715C18.5155 24.7301 18.4155 24.7377 18.3129 24.7377C18.0209 24.7377 17.2733 24.6688 16.6395 24.0328C16.0489 23.4399 15.7515 22.5545 15.7555 21.4021C15.7613 19.8541 16.6107 18.3941 18.1475 17.2919C19.7075 16.1728 21.7862 15.5568 24.0004 15.5568M24.0004 15.3345C19.3244 15.3345 15.5462 18.0505 15.5338 21.4012C15.5235 24.1217 17.1764 24.9599 18.3133 24.9599C18.4302 24.9599 18.5413 24.951 18.6449 24.9345C18.6449 24.9345 20.2893 24.6679 20.2449 22.7123V19.5345L24.0004 17.479L27.756 19.5345V22.7123C27.7115 24.6679 29.356 24.9345 29.356 24.9345C29.4595 24.951 29.5707 24.9599 29.6875 24.9599C30.824 24.9599 32.4773 24.1217 32.4671 21.4012C32.4547 18.0505 28.6764 15.3345 24.0004 15.3345Z" fill="#4D4D4D"/>
<path d="M24.395 16.8937L19.3096 19.6929L19.5136 20.0636L24.599 17.2644L24.395 16.8937Z" fill="white"/>
<path d="M23.6045 16.8932L23.4005 17.2638L28.4859 20.063L28.6899 19.6924L23.6045 16.8932Z" fill="white"/>
<defs>
<linearGradient id="paint0_linear_0_1051" x1="18.6049" y1="15.9221" x2="29.9827" y2="27.4777" gradientUnits="userSpaceOnUse">
<stop stop-color="#F7F7F7"/>
<stop offset="1" stop-color="#252525"/>
</linearGradient>
<radialGradient id="paint1_radial_0_1051" cx="0" cy="0" r="1" gradientUnits="userSpaceOnUse" gradientTransform="translate(24.0222 27.7123) scale(7.02889)">
<stop stop-color="#CCCCCC"/>
<stop offset="1" stop-color="white"/>
</radialGradient>
<linearGradient id="paint2_linear_0_1051" x1="23.0373" y1="18.8297" x2="30.0329" y2="26.1488" gradientUnits="userSpaceOnUse">
<stop stop-color="#9B9B9B"/>
<stop offset="0.09" stop-color="#828282"/>
<stop offset="0.25" stop-color="#5E5E5E"/>
<stop offset="0.4" stop-color="#444444"/>
<stop offset="0.53" stop-color="#343434"/>
<stop offset="0.64" stop-color="#2F2F2F"/>
<stop offset="0.78" stop-color="white"/>
<stop offset="1" stop-color="#A0A0A0"/>
</linearGradient>
<linearGradient id="paint3_linear_0_1051" x1="28.868" y1="23.7185" x2="28.4444" y2="15.4648" gradientUnits="userSpaceOnUse">
<stop stop-color="#9B9B9B"/>
<stop offset="0.54" stop-color="#2F2F2F"/>
<stop offset="0.72" stop-color="#313131"/>
<stop offset="0.8" stop-color="#383838"/>
<stop offset="0.85" stop-color="#444444"/>
<stop offset="0.9" stop-color="#565656"/>
<stop offset="0.94" stop-color="#6C6C6C"/>
<stop offset="0.97" stop-color="#888888"/>
<stop offset="1" stop-color="#A6A6A6"/>
</linearGradient>
<linearGradient id="paint4_linear_0_1051" x1="24.9627" y1="18.8297" x2="17.9671" y2="26.1488" gradientUnits="userSpaceOnUse">
<stop stop-color="#9B9B9B"/>
<stop offset="0.09" stop-color="#828282"/>
<stop offset="0.25" stop-color="#5E5E5E"/>
<stop offset="0.4" stop-color="#444444"/>
<stop offset="0.53" stop-color="#343434"/>
<stop offset="0.64" stop-color="#2F2F2F"/>
<stop offset="0.78" stop-color="white"/>
<stop offset="1" stop-color="#A0A0A0"/>
</linearGradient>
<linearGradient id="paint5_linear_0_1051" x1="19.132" y1="23.7185" x2="19.5556" y2="15.4648" gradientUnits="userSpaceOnUse">
<stop stop-color="#9B9B9B"/>
<stop offset="0.54" stop-color="#2F2F2F"/>
<stop offset="0.72" stop-color="#313131"/>
<stop offset="0.8" stop-color="#383838"/>
<stop offset="0.85" stop-color="#444444"/>
<stop offset="0.9" stop-color="#565656"/>
<stop offset="0.94" stop-color="#6C6C6C"/>
<stop offset="0.97" stop-color="#888888"/>
<stop offset="1" stop-color="#A6A6A6"/>
</linearGradient>
</defs>
</svg>
