<svg width="48" height="48" viewBox="0 0 48 48" fill="none" xmlns="http://www.w3.org/2000/svg">
<path fill-rule="evenodd" clip-rule="evenodd" d="M24.4315 26.901C24.85 27.2672 24.6059 27.9996 25.0244 28.3484C25.8092 29.0285 27.8146 28.2263 28.7738 28.5925C28.9481 28.6449 29.0876 28.7495 29.1748 28.9064C29.9596 30.4062 25.7569 31.9931 24.7977 32.2024C23.7689 32.4291 22.8795 32.3942 21.7983 32.3942C21.7983 32.3419 21.7808 32.2895 21.8506 32.2895C22.1471 31.9408 22.4086 31.592 22.6179 31.1909C22.7923 30.8073 22.9841 30.4062 23.1585 30.0225C23.2457 29.9702 23.3329 29.9004 23.4201 29.8307C23.4201 29.8481 23.4201 29.8656 23.4201 29.883C23.4375 29.9353 23.5596 30.2841 23.4724 30.2841C23.4724 30.3015 23.4724 30.319 23.4724 30.3364C23.5073 30.3364 23.5422 30.3364 23.577 30.3364C23.577 30.319 23.577 30.3015 23.577 30.2841C24.2571 29.6737 24.2397 27.8776 24.4315 26.901ZM20.3509 22.0356C20.6822 23.4133 21.8157 24.355 23.298 24.355C23.298 24.3724 23.298 24.3898 23.298 24.4073C22.0424 24.634 21.7111 24.6514 20.6997 24.1108C20.752 24.3026 20.874 24.5468 20.9089 24.7386C20.595 24.7212 20.1416 23.8841 20.0195 23.1342C19.9498 22.646 20.0195 22.1926 20.3509 22.0356ZM22.2517 20.7451C23.4898 21.5996 23.6642 23.3958 25.9487 23.7272C26.3323 23.7097 26.716 23.7097 27.0996 23.6923C26.3672 24.198 25.7394 24.3898 25.1814 24.355C23.6293 24.2678 22.7225 22.4716 22.2517 20.7451ZM23.734 19.1059C25.8615 19.1757 26.28 21.6694 27.6751 22.7506C27.8321 22.8378 27.9716 22.925 28.1285 23.0122C28.1285 23.0471 28.1285 23.0819 28.1285 23.1168C25.9487 23.0471 25.7394 21.6868 24.7629 20.222C24.7105 19.6465 24.1699 19.4372 23.734 19.1059ZM21.1879 15.095C21.2926 15.095 21.3798 15.095 21.4844 15.095C21.4844 15.1125 21.4844 15.1299 21.4844 15.1473C21.2577 15.3392 20.7694 15.9321 20.4555 15.8972C20.4729 15.7577 20.3334 15.5833 19.8975 15.7054C19.8975 15.6705 19.8975 15.6356 19.8975 15.6007C19.9149 15.6007 19.9323 15.6007 19.9498 15.6007C20.2811 15.3217 20.7868 15.2694 21.1879 15.095ZM18.8686 30.7898C18.8686 30.7898 18.6244 30.8247 18.5547 30.8945C18.5024 30.9816 18.171 31.4874 18.171 31.4874C18.171 31.4874 17.5084 31.0863 17.5607 31.0688C17.613 31.0514 17.892 30.5282 18.0141 30.4934C18.1362 30.441 19.2522 30.3364 19.2522 30.3364L19.9672 30.4585L20.1765 30.4759C20.3334 29.5342 20.5078 28.6797 20.159 27.7206C19.322 24.7909 15.8517 23.4133 13.2185 25.0699C13.1313 25.1397 12.9743 25.2443 12.8697 25.2966C12.6081 24.3898 12.4686 23.4656 12.4686 22.5239C12.4686 17.0482 16.9329 12.5839 22.4086 12.5839C27.8844 12.5839 32.3487 17.0482 32.3487 22.5239C32.3487 23.3435 32.2266 24.2678 32.0348 25.0525L31.9999 25.0176C31.4419 24.7212 28.8609 23.9015 28.8435 23.1691C29.1574 23.0819 29.4713 23.0122 29.8026 22.925C29.9945 22.8203 30.3258 22.6111 30.5351 22.5065C29.0005 22.0879 28.4075 20.0825 27.9716 19.2803C27.6577 18.7223 27.1345 18.3386 27.0124 17.9026C27.2217 17.955 27.6577 18.0422 27.8669 18.0945C27.8321 18.0247 27.7972 17.955 27.7797 17.8852C27.5356 17.1528 26.3149 16.9958 25.7743 16.5599C25.7045 16.5075 25.3732 16.2111 25.5127 16.2111C25.722 16.1588 25.9836 16.1588 26.2103 16.1065C25.5127 15.4961 24.7105 15.1822 24.7105 14.0661C24.6582 14.0661 24.6059 14.0836 24.6059 14.0138C23.5247 14.5021 22.2343 14.38 21.0484 14.6939C20.4904 14.9032 19.9149 15.1125 19.3569 15.3043C19.3569 15.3217 19.3569 15.3392 19.3569 15.3566C19.4092 15.5135 19.3569 15.6705 19.2697 15.7751C19.165 15.8623 19.043 15.967 18.9383 16.0541C18.3977 16.3157 17.8571 16.525 17.5084 16.7691C17.1247 17.0482 17.0026 17.362 17.8048 18.1119C17.9443 18.2689 18.0838 18.4432 18.2234 18.6002C18.2582 18.6351 18.2408 18.6176 18.2757 18.6525C18.2408 18.3735 18.1187 17.8329 18.3454 17.6236C19.1127 16.9086 20.3334 18.2689 20.0719 19.1408C19.8277 19.9255 18.7465 19.4198 18.7465 19.2803C18.7291 19.2803 18.7116 19.2803 18.6942 19.2803C18.7291 19.6116 19.2174 20.0476 19.1302 20.5533C19.322 20.5533 20.5078 19.507 20.6299 19.2977C20.9612 18.7746 20.9264 18.077 21.3623 17.5887C21.8855 16.9958 22.8795 16.804 23.2631 16.1413C23.2283 15.9844 22.3563 14.9381 22.5307 14.9381C22.5307 14.9206 22.5307 14.9032 22.5307 14.8858C22.7749 14.8683 23.0364 14.8509 23.2806 14.8334C23.5596 14.7637 23.856 14.6939 24.1351 14.6416C24.1351 14.6591 24.1351 14.6765 24.1351 14.6939C24.1176 14.6939 24.1002 14.6939 24.0827 14.6939C24.0827 14.7114 24.0827 14.7288 24.0827 14.7462C23.9781 14.7986 23.1411 15.2171 23.1411 15.252C23.3852 15.6356 24.1351 16.0716 24.0304 16.4901C23.8909 17.0307 22.3563 17.3969 21.9204 17.7806C21.2926 18.3386 21.3972 19.228 20.9961 19.9081C20.752 20.3092 20.3857 20.5184 20.037 20.7975C19.1302 21.5125 18.8686 22.0356 18.9209 22.4193C18.9907 23.0122 19.2348 23.4656 19.7405 24.2154C18.9383 23.9015 18.1013 23.0645 18.1013 22.1228C17.2642 21.8787 15.7122 21.7915 14.8751 22.1054C14.5089 22.3321 14.1253 22.5413 13.7591 22.768C13.6195 22.8378 13.1138 23.1342 13.1138 23.3261C13.2185 23.3261 13.201 23.5005 13.1661 23.5702C13.3231 23.7446 13.637 24.1806 13.8811 24.1806C14.1078 24.0759 14.2299 23.6225 14.2822 23.4133C14.3171 23.4133 14.3345 23.4133 14.352 23.4133C14.4217 23.5353 14.5961 23.7969 14.5961 23.8144C15.067 23.9364 15.6599 23.762 16.2005 23.762C17.3689 23.7795 18.4326 24.198 19.3046 24.756C19.7928 25.0699 19.88 25.628 20.1939 26.0814C20.4904 26.5173 20.9612 26.901 21.1705 27.4067C21.5018 28.2263 21.0833 30.4934 20.316 30.8247C19.7754 30.8073 19.322 30.8073 18.8686 30.7898Z" fill="#ED1C24"/>
<path fill-rule="evenodd" clip-rule="evenodd" d="M22.426 11.1016C28.7214 11.1016 33.8483 16.2285 33.8483 22.5239C33.8483 28.8193 28.7214 33.9288 22.426 33.9288C16.1307 33.9288 11.0037 28.8018 11.0037 22.5065C11.0037 16.2111 16.1481 11.1016 22.426 11.1016ZM22.426 11.6247C28.4249 11.6247 33.3078 16.5075 33.3078 22.5065C33.3078 28.5054 28.4249 33.3882 22.426 33.3882C16.4271 33.3882 11.5443 28.5054 11.5443 22.5065C11.5443 16.525 16.4271 11.6247 22.426 11.6247Z" fill="#ED1C24"/>
<path fill-rule="evenodd" clip-rule="evenodd" d="M6.3999 36.9803H6.99281H7.56828V38.4974H9.92251V36.9803H10.5154H11.1083V40.7645H10.5154H9.92251V39.0904H7.56828V40.7645H6.99281H6.3999V36.9803Z" fill="black"/>
<path fill-rule="evenodd" clip-rule="evenodd" d="M14.8403 40.8519C13.9858 40.8519 13.3231 40.6775 12.8871 40.3462C12.4337 40.0149 12.207 39.5266 12.207 38.8814C12.207 38.2361 12.4337 37.7478 12.8871 37.4165C13.3405 37.0852 13.9858 36.9108 14.8403 36.9108C15.6948 36.9108 16.3574 37.0852 16.8108 37.4165C17.2642 37.7478 17.4735 38.2361 17.4735 38.8814C17.4735 39.5266 17.2468 40.0149 16.8108 40.3462C16.3574 40.6775 15.7122 40.8519 14.8403 40.8519ZM14.8403 40.259C15.3285 40.259 15.6948 40.1369 15.9389 39.9102C16.183 39.6835 16.3226 39.3348 16.3226 38.8814C16.3226 38.428 16.2005 38.0792 15.9389 37.8525C15.6948 37.6083 15.3285 37.5037 14.8403 37.5037C14.352 37.5037 14.0032 37.6258 13.7416 37.8525C13.4975 38.0966 13.358 38.428 13.358 38.8814C13.358 39.3348 13.4801 39.6835 13.7416 39.9102C14.0032 40.1369 14.3694 40.259 14.8403 40.259Z" fill="black"/>
<path fill-rule="evenodd" clip-rule="evenodd" d="M18.5895 40.7645V36.9803H19.1824H19.7579V40.189H22.1296V40.4854V40.7645H18.5895Z" fill="black"/>
<path fill-rule="evenodd" clip-rule="evenodd" d="M23.0016 36.9803H23.5945H25.2686C26.1056 36.9803 26.7683 37.1547 27.2566 37.486C27.7449 37.8173 27.9716 38.2882 27.9716 38.8811C27.9716 39.5089 27.71 39.9797 27.1694 40.2936C26.6288 40.625 25.8441 40.7819 24.8152 40.7819H23.5945H23.0016V36.9803ZM24.1699 40.189H24.9896C25.5825 40.189 26.0359 40.0844 26.3323 39.8577C26.6462 39.631 26.7857 39.3171 26.7857 38.8811C26.7857 38.4626 26.6288 38.1312 26.3149 37.9045C26.001 37.6778 25.5476 37.5557 24.9547 37.5557H24.1699V40.189Z" fill="black"/>
<path fill-rule="evenodd" clip-rule="evenodd" d="M28.9307 40.7645V36.9803H32.6626V37.2593V37.5557H30.0991V38.4974H32.5231V38.7939V39.0904H30.0991V40.189H32.7498V40.4854V40.7645H28.9307Z" fill="black"/>
<path fill-rule="evenodd" clip-rule="evenodd" d="M34.7029 40.7645H34.1623H33.6391V36.9803H34.4587H35.2784L37.3361 39.8402V36.9803H37.8593H38.3999V40.7645H37.5977H36.7955L34.7029 37.8696V40.7645Z" fill="black"/>
</svg>
