<svg width="48" height="48" viewBox="0 0 48 48" fill="none" xmlns="http://www.w3.org/2000/svg">
<path d="M19.3875 22.0003H16.5449V25.5818H18.7858V23.7604L19.6208 25.5818H20.8103L21.6453 23.7604V25.5818H23.8853V22.0003H21.0432L20.2152 23.6633L19.3875 22.0003ZM27.2089 22.0003H24.3666V25.5818H26.6071V23.7604L27.4422 25.5818H28.6318L29.4673 23.7604V25.5818H31.7072V22.0003H28.8648L28.0368 23.6633L27.2089 22.0003ZM6.3746 23.3149V22.0003H4V25.5818H6.3746V24.2276H7.4921V25.5818H9.8669V22.0003H7.4921V23.3149H6.3746ZM32.2 22.0003V25.5818L37.2931 25.5815V24.7195H34.5753V24.1839H37.2931V23.3993H34.5753V22.8623H37.2931V22.0003H32.2ZM12.673 22.0014L12.6727 24.4041C12.6773 24.7134 12.9017 24.7905 13.2074 24.7905C13.5062 24.7905 13.734 24.7084 13.734 24.3974V22.0014H16.102V24.4116C16.102 25.4743 15.2477 25.704 13.2074 25.7037C11.1646 25.7034 10.3043 25.4782 10.3043 24.4113V22.0014H12.673ZM40.8046 23.6354C41.2481 23.6354 41.4599 23.4894 41.4599 23.193C41.4599 22.821 41.1923 22.7213 40.8021 22.7213H40.1078V23.6354H40.8046ZM41.4654 25.5807L40.1091 24.2968V25.5818H37.7338V22.0003L41.5486 22C42.3493 22 43.6746 21.9802 43.6038 23.1752C43.5706 23.7339 42.9264 24.1415 42.4147 24.2418L44 25.5807H41.4654Z" fill="black"/>
</svg>
