<svg width="48" height="48" viewBox="0 0 48 48" fill="none" xmlns="http://www.w3.org/2000/svg">
<g clip-path="url(#clip0_0_24555)">
<path d="M13.76 27.6587V30.6133L12.7573 27.7653C12.736 27.6907 12.6827 27.6587 12.576 27.6587H11.648V31.2533H12.288V28.3307L13.28 31.136C13.3013 31.2107 13.3653 31.2427 13.44 31.2427H14.4V27.648H13.76V27.6587ZM17.0667 27.6587V31.2533H17.8133V29.7173H19.1467V29.056H17.8133V28.3093H19.168V27.648H17.0667V27.6587ZM34.1653 27.6587V28.352H34.9867V31.2533H35.7333V28.3413H36.5547V27.648H34.1547L34.1653 27.6587ZM21.76 31.2533H22.56V27.6587H21.76V31.2533ZM30.8267 31.2533H31.6267V27.6587H30.8267V31.2533ZM39.0933 31.2533H39.8827V27.6587H39.0933V31.2533ZM8.10667 31.2533H8.90667V27.6587H8.10667V31.2533ZM28.0853 27.6587H27.4453V30.6133L26.4427 27.7653C26.4213 27.6907 26.368 27.6587 26.272 27.6587H25.3333V31.2533H25.9733V28.3307L26.9653 31.136C26.9867 31.2107 27.0507 31.2427 27.1253 31.2427H28.0853V27.648V27.6587ZM27.2533 21.76L24 17.3867L20.7467 21.76C19.648 21.6533 17.76 20.9387 17.76 19.6693C17.76 18.0693 20.5333 16.576 24.0107 16.576C27.6693 16.576 30.2613 18.0693 30.2613 19.6693C30.2613 20.9493 28.3627 21.664 27.2747 21.7493M24 16.1067C19.4987 16.1067 16.3627 17.8667 16.3627 20.1387C16.3627 21.2053 17.0453 22.4 18.496 23.1253C19.8507 23.7973 21.7493 24.032 22.016 24.064L24 18.272L25.984 24.064C27.1975 23.9281 28.3839 23.6117 29.504 23.1253C30.9547 22.4 31.6373 21.2053 31.6373 20.1387C31.6267 17.856 28.5013 16.1067 24 16.1067Z" fill="#231F20"/>
</g>
<defs>
<clipPath id="clip0_0_24555">
<rect width="32" height="15.3707" fill="white" transform="translate(8 16)"/>
</clipPath>
</defs>
</svg>
