<svg width="48" height="48" viewBox="0 0 48 48" fill="none" xmlns="http://www.w3.org/2000/svg">
<g clip-path="url(#clip0_0_24560)">
<path d="M21.9309 26.479C22.0443 26.479 22.7339 26.4753 23.2906 26.4366C23.9634 26.3896 24.3101 26.1589 24.5642 25.8284C24.8793 25.4193 24.8773 24.6522 24.8769 24.0553C24.8765 23.3887 24.8857 21.4573 24.8828 21.285C24.8806 21.1122 24.8152 21.0223 24.6175 21.024C24.4196 21.0252 23.8617 21.024 23.6701 21.0256L23.3289 21.024C23.1311 21.0223 23.0659 21.1122 23.063 21.285V21.4702C23.0659 21.6746 23.0603 23.6232 23.0595 24.0801V24.2825C23.0542 24.7032 23.0029 25.1125 22.4078 25.1759C22.1511 25.203 22.0334 25.2151 21.7154 25.2151C21.3969 25.2151 21.2796 25.203 21.0194 25.1759C20.4246 25.1134 20.3885 24.7032 20.3829 24.2825V24.0801C20.3821 23.6232 20.3766 21.6746 20.379 21.4702V21.285C20.3766 21.1122 20.311 21.0223 20.1135 21.024L19.7719 21.0256C19.5804 21.024 19.0228 21.0252 18.8247 21.024C18.6273 21.0223 18.5619 21.1122 18.5596 21.285C18.5567 21.4573 18.5588 23.3887 18.558 24.0553C18.5576 24.6522 18.5559 25.4193 18.8707 25.8284C19.1241 26.1589 19.4662 26.3896 20.1367 26.4366C20.6934 26.4757 21.3625 26.479 21.5107 26.479H21.9309H21.9309ZM9.8383 26.2284C9.8344 26.416 9.77904 26.49 9.58691 26.4945C9.39416 26.5001 8.45112 26.497 8.27928 26.4956C8.10827 26.4937 8.00287 26.4418 8.00246 26.2583C8.00123 26.075 8.00123 21.4656 8 21.2905C7.99959 21.1162 8.08182 21.0336 8.26247 21.0391C8.44271 21.0434 9.36893 21.0342 9.61479 21.0385C9.80078 21.0371 9.84445 21.1443 9.84507 21.3358C9.84958 21.5934 9.84281 26.0418 9.8383 26.2284M35.5341 24.3637C35.5376 24.7964 35.6422 25.0859 36.138 25.163C36.535 25.204 37.072 25.2124 37.4841 25.1706C37.8614 25.1292 38.152 24.9762 38.169 24.5491C38.1881 24.1884 38.1897 24.1262 38.191 23.7459C38.193 22.8227 38.183 21.4819 38.186 21.3502L38.1877 21.2943C38.1846 21.0898 38.2779 21.0035 38.451 21.0035L38.5545 21C38.7516 21.0017 39.5445 21.0035 39.7364 21.0035C39.9095 21.0035 40.0028 21.0898 39.9999 21.2943L39.9975 21.358C40.0012 21.5508 39.9952 23.5929 39.9932 24.1956C39.9823 24.4982 39.9608 25.2032 39.7276 25.6502C39.5246 26.0382 39.1613 26.3365 38.5434 26.3978C37.356 26.5161 36.2733 26.4669 35.4396 26.4321C34.8199 26.4001 34.4207 26.2613 34.0895 25.8932C33.7147 25.4712 33.695 24.75 33.7005 23.9228C33.6933 22.0977 33.6878 21.5717 33.6907 21.3976V21.2943C33.6878 21.0898 33.7811 21.0035 33.9542 21.0035L34.0571 21C34.256 21.0017 35.0787 21.0035 35.271 21.0035C35.4435 21.0035 35.5376 21.0898 35.5341 21.2943C35.5312 21.4995 35.5333 23.8369 35.5341 24.3518M26.2975 21.0197C26.4829 21.0141 29.7982 21.018 30.8347 21.0238C31.7525 21.034 32.0919 21.1646 32.341 21.4981C32.6285 21.8834 32.6582 22.3661 32.4259 22.7632C32.2592 23.0481 31.9508 23.2966 31.4882 23.5223C31.1209 23.711 30.4779 23.9972 29.8494 24.2739C29.0077 24.6456 28.2455 24.9676 28.1173 25.0346C27.9439 25.1257 28.0095 25.262 28.1473 25.26C28.5069 25.2557 31.9797 25.2274 32.1651 25.227C32.3513 25.2268 32.4118 25.2938 32.4118 25.4937C32.4114 25.7029 32.4134 26.0605 32.4138 26.2227C32.4095 26.4177 32.3474 26.471 32.1626 26.4729C31.9516 26.4751 28.2523 26.4761 27.9892 26.4774C27.4044 26.4759 26.8021 26.4782 26.4429 26.3041C25.9942 26.0861 25.8425 25.6492 25.8421 25.3428C25.8634 24.5962 26.2794 24.3571 27.0291 24.0098C27.8627 23.6314 30.3233 22.567 30.4699 22.4989C30.6516 22.4142 30.5952 22.2477 30.4266 22.2533C30.2972 22.2559 26.5282 22.2752 26.342 22.275C26.1564 22.2744 26.0383 22.2445 26.0383 22.0644C26.0387 21.8852 26.0367 21.4357 26.0367 21.2508C26.0367 21.065 26.1113 21.0256 26.2975 21.0197M16.5634 23.8272C15.7297 23.4809 13.2969 22.7113 12.9742 22.5516C12.8187 22.4848 12.8292 22.2863 13.0396 22.2863C13.3988 22.2916 16.9647 22.2986 17.1509 22.2998C17.3369 22.3002 17.4152 22.2278 17.4152 22.0275C17.416 21.8185 17.4146 21.4351 17.4121 21.2667C17.4097 21.0955 17.3479 21.0307 17.1942 21.0303C17.0404 21.0303 12.9221 21.0352 12.9221 21.0352C11.7728 21.0326 11.4779 21.2017 11.1523 21.5928C10.7278 22.1029 10.8627 22.7936 11.1063 23.1497C11.3807 23.5482 11.8337 23.7243 12.5544 23.9765C13.4275 24.2605 15.4838 24.9837 15.4838 24.9837C15.6723 25.0651 15.6579 25.2626 15.4252 25.2626C15.4252 25.2626 11.5027 25.2273 11.3169 25.2269C11.1307 25.2267 11.0399 25.3176 11.0391 25.4974C11.0391 25.6772 11.0374 26.0067 11.0366 26.1938C11.0366 26.3787 11.0904 26.4843 11.2765 26.4909C11.4615 26.4972 14.8342 26.4845 15.8714 26.4825C16.6604 26.4804 17.4226 26.2366 17.579 25.3651C17.6728 24.6142 17.3549 24.1488 16.5634 23.8272" fill="#E60012"/>
</g>
<defs>
<clipPath id="clip0_0_24560">
<rect width="32" height="5.49773" fill="white" transform="translate(8 21)"/>
</clipPath>
</defs>
</svg>
