<svg width="48" height="48" viewBox="0 0 48 48" fill="none" xmlns="http://www.w3.org/2000/svg">
<g clip-path="url(#clip0_0_24563)">
<path fill-rule="evenodd" clip-rule="evenodd" d="M36.2866 21.6827C36.8089 21.7117 37.1858 22.0888 37.244 22.5821C37.273 22.8431 37.273 23.2493 37.273 23.5103C37.273 23.8295 37.273 24.0905 37.244 24.3516C37.1569 24.9609 36.7217 25.3091 36.2866 25.3091H35.9385H35.5321C35.126 25.3091 34.6617 24.9609 34.5748 24.3516C34.5458 24.0905 34.5458 23.8293 34.5458 23.5393C34.5458 23.2493 34.5458 22.8431 34.5748 22.5819C34.6327 22.0886 35.0389 21.7115 35.5611 21.6825C35.677 21.6535 35.7642 21.6535 35.9093 21.6535L36.2866 21.6827ZM35.9962 20C36.5475 20 37.0697 20.029 37.505 20.0869C38.7234 20.2321 39.71 21.1894 39.9129 22.379C39.9418 22.5821 40 23.0462 40 23.5105C40 24.0038 39.9418 24.4679 39.9129 24.6419C39.71 25.8605 38.7234 26.7889 37.505 26.963C37.0697 26.992 36.5475 27.05 35.9962 27.05H35.8221C35.2419 27.05 34.7488 26.992 34.2846 26.963C33.0662 26.7889 32.1088 25.8605 31.9055 24.6419C31.8765 24.4679 31.8186 24.0038 31.8186 23.5105C31.8186 23.0464 31.8765 22.5823 31.9055 22.379C32.1086 21.1894 33.0662 20.2322 34.2846 20.0869C34.7488 20.029 35.2421 20 35.7932 20H35.9962Z" fill="#003A80"/>
<path fill-rule="evenodd" clip-rule="evenodd" d="M25.5231 23.5103C25.5231 23.1332 25.5521 22.7562 25.639 22.3788C25.8421 21.1892 26.7995 20.2321 28.0181 20.0868C28.4534 20.029 28.9756 20 29.5267 20C30.1361 20 30.6873 20.029 31.1514 20.0869C31.3255 20.1159 31.4414 20.261 31.4414 20.4351V21.4794C31.4414 21.6825 31.2963 21.8276 31.1222 21.8276C31.1222 21.8276 30.571 21.7984 30.281 21.7984C29.9328 21.7984 29.6428 21.7984 29.3234 21.8276C28.8014 21.8566 28.4242 22.2337 28.366 22.727C28.3371 22.988 28.3079 23.2493 28.3079 23.5103V23.5393C28.3079 23.8005 28.3369 24.0615 28.366 24.3226C28.4242 24.8158 28.7724 25.193 29.3234 25.251C29.6136 25.2799 29.9618 25.3091 30.281 25.3091C30.571 25.3091 31.1222 25.2801 31.1222 25.2801C31.2963 25.2801 31.4414 25.4252 31.4414 25.6283V26.6728C31.4414 26.8469 31.3255 26.992 31.1514 27.021C30.6873 27.021 30.1361 27.0498 29.5267 27.0498C28.9756 27.0498 28.4534 26.9918 28.0181 26.9628C26.7995 26.7887 25.8423 25.8604 25.639 24.6418C25.5521 24.2938 25.5231 23.9166 25.5231 23.5395C25.5231 22.3499 25.5231 24.7001 25.5231 23.5103Z" fill="#003A80"/>
<path fill-rule="evenodd" clip-rule="evenodd" d="M24.74 25.222C24.9429 25.222 25.088 25.3961 25.088 25.5701V26.6147C25.088 26.8177 24.9429 26.9628 24.74 26.9628H20.5911C19.8368 26.9628 19.2276 26.3536 19.2276 25.5993V21.4796C19.2276 20.7255 19.8368 20.1161 20.5911 20.1161H24.7398C24.9427 20.1161 25.0878 20.2612 25.0878 20.4353V21.4506C25.0878 21.6539 24.9427 21.7988 24.7398 21.7988H22.1869C21.9838 21.7988 21.8387 21.9149 21.8387 22.118V22.7564L24.0147 22.7274C24.1886 22.7274 24.3627 22.9015 24.3627 23.0756V23.946C24.3627 24.1491 24.1886 24.2942 24.0147 24.2942H21.8387V24.8744C21.8387 25.0774 21.9838 25.2225 22.1869 25.2225H24.74V25.222Z" fill="#003A80"/>
<path fill-rule="evenodd" clip-rule="evenodd" d="M14.1795 26.9628C13.5703 26.9628 13.0481 26.5565 12.874 26.0053L11.4525 20.5223C11.4525 20.4933 11.4525 20.4643 11.4525 20.4353C11.4525 20.2612 11.5976 20.1161 11.8007 20.1161H13.9185C14.0926 20.1161 14.2377 20.2322 14.2665 20.3772L15.369 24.9611C15.369 25.0193 15.4271 25.0771 15.5141 25.0771C15.572 25.0771 15.63 25.0191 15.63 24.9611L16.7614 20.3772C16.7904 20.232 16.9355 20.1161 17.0806 20.1161H18.2701C18.4731 20.1161 18.6182 20.2612 18.6182 20.4353C18.6182 20.4643 18.6182 20.4933 18.6182 20.5223L17.2547 25.8895C17.1096 26.4987 16.6163 26.9628 15.9202 26.9628H14.1795Z" fill="#003A80"/>
<path fill-rule="evenodd" clip-rule="evenodd" d="M8.34817 20.1159H10.408C10.6111 20.1159 10.7562 20.261 10.7562 20.4351V26.6147C10.7562 26.8177 10.6111 26.9628 10.408 26.9628H8.34817C8.17408 26.9628 8 26.8177 8 26.6147V20.4351C8 20.261 8.17408 20.1159 8.34817 20.1159Z" fill="#003A80"/>
</g>
<defs>
<clipPath id="clip0_0_24563">
<rect width="32" height="7.04978" fill="white" transform="translate(8 20)"/>
</clipPath>
</defs>
</svg>
