<svg width="48" height="48" viewBox="0 0 48 48" fill="none" xmlns="http://www.w3.org/2000/svg">
<g clip-path="url(#clip0_0_24571)">
<path d="M28.279 30.305C28.0869 31.1018 27.4858 31.4375 26.4795 31.4375C25.7966 31.4375 25.1959 31.3004 24.8869 30.9905C24.5518 30.6618 24.5013 30.2084 24.5013 29.7239V27.3478H25.2659V29.6833C25.2659 30.2109 25.3093 30.5255 25.5155 30.7573C25.7495 31.029 26.1539 31.1085 26.4949 31.1085C27.2162 31.1085 27.6967 30.8749 27.8272 30.2402C27.8573 30.094 27.8808 29.9149 27.8808 29.6383V27.3477H28.3514V29.4783C28.3514 29.8761 28.3284 30.1008 28.279 30.305Z" fill="#01422D"/>
<path d="M28.279 30.305C28.0869 31.1018 27.4858 31.4375 26.4795 31.4375C25.7966 31.4375 25.1959 31.3004 24.8869 30.9905C24.5518 30.6619 24.5013 30.2084 24.5013 29.7239V27.3478H25.2659V29.6833C25.2659 30.2109 25.3093 30.5255 25.5155 30.7573C25.7495 31.029 26.1539 31.1085 26.4949 31.1085C27.2162 31.1085 27.6967 30.8749 27.8272 30.2402C27.8573 30.094 27.8808 29.9149 27.8808 29.6383V27.3477H28.3514V29.4783C28.3514 29.8761 28.3284 30.1008 28.279 30.305" stroke="#01422D" stroke-width="0.575339"/>
<path d="M32.1533 28.1063L31.2676 29.953H32.9952L32.1533 28.1063ZM33.6257 31.3488L33.1215 30.2251H31.1369L30.5968 31.3488H30.1115L32.1074 27.3477H32.583L34.536 31.3488H33.6257Z" fill="#01422D"/>
<path d="M32.1533 28.1063L31.2676 29.953H32.9952L32.1533 28.1063ZM33.6257 31.3488L33.1215 30.2251H31.1369L30.5968 31.3488H30.1115L32.1074 27.3477H32.583L34.536 31.3488H33.6257Z" stroke="#01422D" stroke-width="0.575339"/>
<path d="M13.938 28.1063L13.0531 29.953H14.781L13.938 28.1063ZM15.4112 31.3488L14.9077 30.2251H12.9227L12.3819 31.3488H11.8969L13.8928 27.3477H14.368L16.3217 31.3488H15.4112Z" fill="#01422D"/>
<path d="M13.938 28.1063L13.0531 29.953H14.781L13.938 28.1063M15.4112 31.3488L14.9077 30.2251H12.9227L12.3819 31.3488H11.8969L13.8928 27.3477H14.368L16.3217 31.3488H15.4112Z" stroke="#01422D" stroke-width="0.575339"/>
<path d="M20.4869 31.4371C19.1656 31.4371 17.9098 30.9826 17.9098 29.4461C17.9098 28.9467 18.1314 28.4349 18.4661 28.0686C18.9907 27.4991 19.7874 27.272 20.5396 27.272C20.9945 27.272 21.5215 27.3752 21.9314 27.5836V28.0588C21.5599 27.7817 21.0707 27.5906 20.5936 27.5906C19.5067 27.5906 18.7571 28.2706 18.7571 29.3955C18.7571 30.4138 19.4186 31.1107 20.4361 31.1107C20.695 31.1107 21.0534 31.0647 21.2999 30.9702V29.5094H22.0645V31.1405C21.616 31.3425 20.9794 31.4371 20.4869 31.4371Z" fill="#01422D"/>
<path d="M20.4869 31.4371C19.1656 31.4371 17.9098 30.9826 17.9098 29.4461C17.9098 28.9467 18.1314 28.4349 18.4661 28.0686C18.9907 27.4991 19.7874 27.272 20.5396 27.272C20.9945 27.272 21.5215 27.3752 21.9314 27.5836V28.0588C21.5599 27.7817 21.0707 27.5906 20.5936 27.5906C19.5067 27.5906 18.7571 28.2706 18.7571 29.3955C18.7571 30.4138 19.4186 31.1107 20.4361 31.1107C20.695 31.1107 21.0534 31.0647 21.2999 30.9702V29.5094H22.0645V31.1405C21.616 31.3425 20.9794 31.4371 20.4869 31.4371" stroke="#01422D" stroke-width="0.575339"/>
<path d="M37.8097 27.6255H37.2474V29.5396H37.7392C38.1515 29.5396 38.3981 29.4627 38.5903 29.3078C38.7931 29.145 38.9144 28.8952 38.9144 28.5575C38.9143 27.8814 38.4229 27.6255 37.8097 27.6255ZM39.1092 31.3488L38.049 29.8124H37.2474V31.3488H36.4824V27.3477H37.9295C38.5167 27.3477 39.1043 27.4329 39.4314 27.7943C39.6025 27.9832 39.6956 28.2459 39.6956 28.5839C39.6956 29.2023 39.2294 29.5769 38.8141 29.7242L39.9899 31.3489L39.1092 31.3488Z" fill="#01422D"/>
<path d="M37.8097 27.6255H37.2474V29.5396H37.7392C38.1515 29.5396 38.3981 29.4627 38.5903 29.3078C38.7931 29.145 38.9144 28.8952 38.9144 28.5575C38.9143 27.8814 38.4229 27.6255 37.8097 27.6255M39.1092 31.3488L38.049 29.8124H37.2474V31.3488H36.4824V27.3477H37.9295C38.5167 27.3477 39.1043 27.4329 39.4314 27.7943C39.6025 27.9832 39.6956 28.2459 39.6956 28.5839C39.6956 29.2023 39.2294 29.5769 38.8141 29.7242L39.9899 31.3489L39.1092 31.3488V31.3488Z" stroke="#01422D" stroke-width="0.575339"/>
<path d="M8.66516 32.1713C8.46322 32.2663 8.24197 32.3292 8.01431 32.3292C8.53853 31.9501 8.76014 31.5646 8.83589 30.9261C8.88036 30.5719 8.88036 30.2176 8.88036 29.8637V27.3478H9.64542V30.3759C9.64549 31.1153 9.36091 31.8302 8.66516 32.1713Z" fill="#01422D"/>
<path d="M8.66516 32.1713C8.46322 32.2663 8.24197 32.3292 8.01431 32.3292C8.53853 31.9501 8.76014 31.5646 8.83589 30.9261C8.88036 30.5719 8.88036 30.2176 8.88036 29.8637V27.3478H9.64542V30.3759C9.64549 31.1153 9.36091 31.8302 8.66516 32.1713" stroke="#01422D" stroke-width="0.575339"/>
<path d="M13.4748 16.6665C13.7495 16.6747 13.9855 16.5722 13.9863 16.5575C13.987 16.5429 13.6821 16.5138 13.6821 16.5138C13.4028 16.5255 13.289 16.6291 13.2875 16.6412C13.2856 16.6528 13.3602 16.6626 13.4748 16.6665Z" fill="#241F20"/>
<path d="M11.6074 17.1394C11.6074 17.1394 11.624 17.081 11.6312 17.0682C11.6384 17.055 11.6783 16.9201 11.8712 16.9054C11.8712 16.9054 11.9684 16.8967 12.0804 16.9314C12.0804 16.9314 12.016 17.0976 11.7522 17.1251C11.7522 17.1251 11.6485 17.1406 11.6074 17.1394ZM37.4355 24.632C37.37 24.7939 37.0892 25.0002 36.7594 25.1105C36.4113 25.2269 35.6842 25.23 35.3123 25.1064C35.3123 25.1064 35.2339 25.0212 34.9723 24.9443C34.364 24.7654 34.1674 24.6406 33.8587 24.3531C33.6405 24.15 33.4003 23.8952 33.1675 23.6551C33.0639 23.5481 32.8117 23.2956 32.3685 23.2187C31.9062 23.1388 30.7714 23.0521 30.3535 22.9044C30.0723 22.8045 29.7391 22.615 29.3209 21.9894C29.1204 21.689 28.9684 21.6016 28.679 21.4169C28.679 21.4169 28.8999 21.5914 29.016 21.8032C29.1837 22.1107 29.264 22.332 29.3555 22.4955C29.4478 22.6602 29.5545 22.8068 29.7211 22.9406C29.9276 23.1064 30.061 23.143 30.2943 23.1901C30.5174 23.2353 31.2791 23.2689 31.9326 23.2945C32.5751 23.3194 32.8499 23.5184 33.0507 23.6869C33.2354 23.8428 33.5297 24.2884 33.7363 24.4707C34.0125 24.7135 34.0197 24.7168 34.3404 24.9181C34.5024 25.0198 34.6453 25.0864 34.7768 25.1337C35.0712 25.3066 34.9494 25.6085 34.9494 25.6085C34.8651 25.849 34.5613 25.9352 34.2067 25.885C33.6707 25.8377 33.2094 25.3906 32.8198 25.0699C32.6053 24.8931 32.5295 24.8049 32.1161 24.5177C31.4871 24.0814 30.0091 24.1175 30.0091 24.1175L28.9259 24.1107C26.8162 24.1416 26.0442 22.4442 25.8336 22.088C25.7609 21.964 25.6935 21.8642 25.6293 21.7824C25.531 21.6497 25.0015 20.9586 24.4343 20.7117C24.4343 20.7117 24.9788 21.1828 24.9242 21.4406C24.8074 21.4391 24.6747 21.4466 24.5164 21.4511C22.3909 21.5133 21.9492 21.3957 21.6134 21.3286C21.2772 21.2612 20.7138 21.0939 20.1663 20.8417C20.1663 20.8417 20.2273 20.3179 20.0099 19.8826C20.0099 19.8826 21.7643 20.5022 23.1601 20.3266C23.1601 20.3266 20.9072 20.2165 19.5019 19.0965C19.5019 19.0965 19.8486 20.2803 19.5746 20.7774C19.5746 20.7774 19.2053 21.6799 17.3115 21.0777C17.3115 21.0777 16.4405 20.7389 15.7633 20.7389C15.7633 20.7389 15.2534 20.76 15.1924 21.0257C15.1924 21.0257 15.1592 21.1527 15.2922 21.213C15.2922 21.213 15.44 21.2552 15.3702 21.3649C15.2553 21.5461 15.0958 21.6863 14.9375 21.7654C14.4092 21.7395 14.4484 21.3057 14.4484 21.3057C14.4578 21.1519 14.5075 21.0445 14.5546 20.9386C14.8866 20.1958 16.0534 20.088 16.0534 20.088C17.2949 19.964 18.5962 20.2621 18.5962 20.2621C17.6653 20.0401 17.3487 19.8773 17.0826 19.6553C16.7242 19.3561 16.3892 18.3507 16.3892 18.3507C16.2464 18.8436 16.4232 19.3418 16.5427 19.5977C16.3662 19.3162 16.1149 19.0784 15.8906 18.8986C15.3174 18.4392 14.4853 18.2907 14.4853 18.2907C14.2448 18.2496 14.1494 18.0005 14.1494 18.0005C13.8411 17.4329 13.4922 17.4062 13.4922 17.4062C13.664 17.6417 13.6459 17.964 13.6459 17.964C13.6459 18.5579 12.8821 18.7551 12.8821 18.7551C12.3107 19.323 12.2116 19.3109 12.1 19.3192C11.9884 19.3271 11.9059 19.2114 11.9059 19.2114C11.8697 19.1571 11.93 19.1085 11.93 19.1085C12.0265 19.0482 12.1177 18.9695 12.1177 18.9695C12.6747 18.5221 12.7531 18.2934 12.7079 17.9813C12.6171 17.3579 12.1143 17.4039 12.1143 17.4039C11.878 17.4039 11.7612 17.5841 11.7612 17.5841C11.67 17.6926 11.4706 18.0321 11.4706 18.0321C11.295 18.3224 11.1379 18.2797 11.1379 18.2797C10.9442 18.2922 10.804 18.1203 10.804 18.1203C10.7964 18.1136 10.7907 18.1056 10.7844 18.0988C10.6408 17.9447 10.7644 17.7585 10.7644 17.7585C11.0008 17.3409 11.4085 17.2999 11.4639 17.2965C11.5196 17.2931 11.7077 17.2791 11.7077 17.2791C12.1682 17.2456 12.4689 16.8054 12.4689 16.8054C12.2749 16.7116 11.9282 16.7614 11.9282 16.7614C11.5905 16.784 11.5015 17.1424 11.5008 17.1424C11.2084 17.1853 11.223 16.9607 11.2856 16.9016C11.335 16.8435 11.5091 16.5616 12.6288 16.3935C12.6288 16.3935 13.2227 16.2759 14.2776 16.3917C14.3164 16.3958 14.354 16.4298 14.3043 16.4885C14.1717 16.6442 13.7567 16.9894 13.0912 16.8224C13.0912 16.8224 13.0791 17.0885 13.805 17.2215C13.805 17.2215 14.4596 17.3609 15.5284 18.2195C15.5284 18.2195 15.0102 17.2611 14.1144 16.969C14.1144 16.969 14.0481 16.9268 14.1084 16.8661C14.1084 16.8661 14.5323 16.4862 15.2804 16.5262C15.2804 16.5262 17.7542 16.6532 19.1449 18.1045C19.1449 18.1045 19.0966 17.8625 18.8848 17.5117C18.8848 17.5117 18.8422 17.4698 18.8667 17.4394C18.8667 17.4394 18.8848 17.3786 19.1268 17.4273C19.1268 17.4273 20.0098 17.5724 22.0595 18.3223C22.0595 18.3223 23.5961 18.8609 24.4339 19.2083C25.6934 19.7303 28.8488 21.0102 30.8418 22.1133C31.1976 22.31 32.6798 23.0423 32.6798 23.0423C33.7878 23.73 34.8073 24.2279 34.8073 24.2279C35.8113 24.6918 36.5413 24.4793 36.5413 24.4793C36.7745 24.3914 37.2201 24.1495 37.3937 24.3213C37.4822 24.4092 37.4875 24.5237 37.4355 24.632ZM37.6854 24.2427C37.5541 23.9371 37.1317 24.012 37.1317 24.012C36.9385 24.0237 36.6946 24.226 36.3558 24.2957C35.6269 24.4461 35.0695 24.1982 35.0695 24.1982C33.9955 23.7173 33.2685 23.1935 32.7955 22.9228C32.3226 22.6523 30.572 21.7327 28.821 20.8527C28.821 20.8527 26.8153 19.8246 23.8478 18.5979C23.8478 18.5979 18.1224 16.0001 14.0043 16.0001C14.0043 16.0001 11.8713 15.9733 11.1488 16.7942C11.1488 16.7942 11.0215 16.8997 11.0836 17.0297C11.0836 17.0297 11.0923 17.0655 11.0655 17.0885C11.0655 17.0885 10.7478 17.2973 10.4892 17.5969C10.4892 17.5969 10.3506 17.7386 10.4621 17.95C10.4621 17.95 10.6 18.1904 10.6871 18.2937C10.7749 18.3966 10.9505 18.5768 11.2188 18.55C11.3375 18.538 11.3409 18.5082 11.3409 18.5082C11.4642 18.6326 11.6794 18.6401 11.6794 18.6401C11.6579 18.5636 11.5757 18.4121 11.5685 18.3239C11.5606 18.2252 11.599 18.1336 11.599 18.1336C11.6439 18.025 11.728 17.8905 11.8135 17.8234C11.8897 17.7639 12.0784 17.7021 12.2194 17.8008C12.3325 17.88 12.4527 18.1336 12.317 18.4675C12.317 18.4675 12.1644 18.7313 12.0235 18.7607L11.9843 18.7625C11.9036 18.761 11.7239 18.662 11.7239 18.662C11.7239 18.662 11.7164 18.6834 11.7363 18.7743C11.748 18.8259 11.7646 18.8832 11.7786 18.9273L11.7412 18.9574C11.7412 18.9574 11.6278 19.0486 11.6779 19.1802C11.6779 19.1802 11.7884 19.5955 12.0966 19.5955C12.3691 19.6045 12.596 19.346 12.596 19.346C13.1805 18.7155 14.0043 18.6307 14.0043 18.6307C14.9174 18.5685 16.2223 19.5035 16.5776 19.7734C15.2254 19.7587 14.6797 20.2776 14.6797 20.2776C13.9181 20.8705 14.2146 21.5858 14.2146 21.5858C14.2701 21.7414 14.4261 21.8548 14.5256 21.8985C14.6691 21.9611 14.7871 21.9637 14.8983 21.9513C14.9786 21.9426 15.0667 21.9128 15.1115 21.8819C15.2152 21.8208 15.4002 21.6999 15.4896 21.5713C15.5491 21.5069 15.609 21.349 15.5694 21.1986C15.5694 21.1986 15.5454 21.0777 15.6543 21.0531C15.6543 21.0531 16.0126 20.9623 16.7363 21.2819C16.7363 21.2819 17.5224 21.7402 18.5422 21.831C18.5422 21.831 19.7019 21.9486 19.9819 21.3208C19.9819 21.3208 20.6482 21.5932 21.6232 21.7048C21.6232 21.7048 22.5732 21.8031 24.1143 21.6871C24.4176 21.6641 24.7738 21.6894 24.7738 21.6894C25.2671 21.7485 25.5807 22.0052 25.7043 22.2061C26.2093 23.0261 26.8119 24.635 29.2793 24.5713L30.396 24.5407C31.0748 24.5407 31.6275 24.5464 32.1703 24.8365C32.4073 24.9636 33.0334 25.585 33.4188 25.7949C34.5604 26.5641 35.2199 26.2065 35.2199 26.2065C35.6084 25.98 35.5779 25.5771 35.4833 25.3514C35.3664 25.3144 36.8977 25.576 37.5505 24.7187C37.7049 24.5276 37.732 24.3524 37.6854 24.2427Z" fill="#241F20"/>
</g>
<defs>
<clipPath id="clip0_0_24571">
<rect width="32" height="16.3328" fill="white" transform="translate(8 16)"/>
</clipPath>
</defs>
</svg>
