<svg width="48" height="48" viewBox="0 0 48 48" fill="none" xmlns="http://www.w3.org/2000/svg">
<path d="M24.2523 32.4651C28.5413 29.0904 30.5567 24.7229 31.454 21.289C32.372 17.7725 32.5116 14.3938 32.5084 14.273L32.5026 14.0827L32.3608 13.9664C28.8663 10.7341 24.3542 9.00637 24.1414 8.93635L24.0283 8.89864L23.9156 8.93635C23.7029 9.00637 19.2998 10.7341 15.6963 13.9664L15.554 14.0827L15.5486 14.273C15.545 14.3938 15.6446 17.7823 16.5994 21.289C17.4828 24.5321 19.3577 29.2188 23.8047 32.4651L24.0283 32.6284L24.2523 32.4651Z" fill="#1A377A"/>
<path fill-rule="evenodd" clip-rule="evenodd" d="M24.0337 12.1116C23.2831 12.3557 18.9448 13.811 16.3018 15.7811C16.3099 17.1838 16.7772 26.2794 24.0337 31.9294C31.1219 26.2794 31.7462 17.1834 31.7543 15.7811C29.1113 13.811 24.7842 12.3557 24.0337 12.1116Z" fill="#CB9F18"/>
<path d="M23.8541 9.50462L23.8653 9.93105C23.7078 9.82108 23.4941 9.76273 23.2481 9.76273C23.1328 9.76273 22.9829 9.79145 22.8554 9.84128L22.8778 10.133C23.0102 10.0581 23.1337 10.0433 23.2594 10.0433C23.6202 10.0433 23.8766 10.3135 23.8766 10.6717C23.8766 11.0277 23.6216 11.3001 23.2481 11.3001C23.1103 11.3001 22.9492 11.2754 22.8666 11.2328L22.8554 11.5246C22.9833 11.5546 23.1153 11.5807 23.2481 11.5807C23.4879 11.5807 23.7042 11.5273 23.8653 11.4236L23.8541 11.8051H24.0225H24.202V11.4348C24.3587 11.5268 24.5598 11.5807 24.7855 11.5807C24.9184 11.5807 25.0504 11.5546 25.1783 11.5246L25.1671 11.2328C25.0845 11.2754 24.9233 11.3001 24.7855 11.3001C24.4125 11.3001 24.1908 11.0272 24.1908 10.6717C24.1908 10.313 24.4139 10.0433 24.7743 10.0433C24.9 10.0433 25.023 10.0576 25.1559 10.133L25.1783 9.84128C25.0508 9.79101 24.9009 9.76273 24.7855 9.76273C24.5544 9.76273 24.356 9.82243 24.202 9.91983V9.50462H24.0225H23.8541Z" fill="#CB9F18"/>
<path d="M24.0225 12.1081V13.2527L26.6933 13.0956C25.4014 12.566 24.3578 12.2167 24.0225 12.1081ZM24.0225 13.2527V15.4634L28.2643 15.0707L31.7207 16.4061C31.7359 16.1314 31.7422 15.915 31.7431 15.7777C31.3486 15.4836 30.9158 15.2049 30.4638 14.936L28.2643 15.0595L24.0225 13.2527ZM24.0225 15.4634V15.4747V17.6854L28.2643 17.1243L31.5299 18.2689C31.6121 17.7033 31.6556 17.2042 31.687 16.7989L28.2643 17.1131L24.0225 15.4634ZM24.0225 17.6854V19.9073L28.2643 19.1891L31.1932 20.0981C31.2992 19.6263 31.3822 19.1797 31.4513 18.7627L28.2643 19.1667L24.0225 17.6854ZM24.0225 19.9073V22.118L28.2643 21.2427L30.7107 21.916C30.831 21.5242 30.9311 21.1422 31.0249 20.7714L28.2643 21.2315L24.0225 19.9073ZM24.0225 22.118V24.34L28.2643 23.2963L30.0711 23.7228C30.1896 23.4269 30.2941 23.137 30.3965 22.8474L28.2643 23.2851L24.0225 22.118ZM24.0225 24.34V26.5507L28.2643 25.3611L29.2406 25.5519C29.3273 25.3822 29.4067 25.2157 29.4875 25.0469L28.2643 25.3387L24.0225 24.34ZM24.0225 26.5507V26.5619V28.7726L28.1297 27.4596C28.1458 27.4354 28.1588 27.4058 28.1746 27.3811L24.0225 26.5507ZM24.0225 28.7726V30.9945L25.7843 30.3549C26.1506 29.9846 26.494 29.6071 26.8167 29.2215L24.0225 28.7726ZM24.0225 30.9945V31.9259C24.3641 31.6598 24.6868 31.3868 24.9988 31.1067L24.0225 30.9945Z" fill="#CB9F18"/>
<path d="M24.0225 12.1081C23.6876 12.2167 22.6314 12.566 21.3404 13.0956L24.0225 13.2527V12.1081ZM24.0225 13.2527L19.7806 15.0595L17.5811 14.936C17.1286 15.2053 16.6964 15.4832 16.3018 15.7777C16.3027 15.9155 16.2973 16.13 16.313 16.4061L19.7806 15.0707L24.0225 15.4634V13.2527ZM24.0225 15.4634L19.7806 17.1131L16.3467 16.7989C16.3781 17.2051 16.4324 17.702 16.515 18.2689L19.7806 17.1243L24.0225 17.6854V15.4634ZM24.0225 17.6854L19.7806 19.1667L16.5824 18.7627C16.6519 19.1806 16.7457 19.6245 16.8517 20.0981L19.7806 19.1891L24.0225 19.9073V17.6854ZM24.0225 19.9073L19.7806 21.2315L17.0088 20.7602C17.103 21.1318 17.2135 21.5228 17.3342 21.916L19.7806 21.2427L24.0225 22.118V19.9073ZM24.0225 22.118L19.7806 23.2851L17.6372 22.8474C17.74 23.1383 17.8549 23.4256 17.9739 23.7228L19.7806 23.2963L24.0225 24.34V22.118ZM24.0225 24.34L19.7806 25.3387L18.5462 25.0469C18.6274 25.2171 18.7055 25.3809 18.7931 25.5519L19.7806 25.3611L24.0225 26.5507V24.34ZM24.0225 26.5619L19.8591 27.3811C19.8739 27.4035 19.8892 27.426 19.904 27.4484L24.0225 28.7726V26.5619ZM24.0225 28.7726L21.217 29.2215C21.5379 29.6048 21.8854 29.9868 22.2494 30.3549L24.0225 30.9945V28.7726ZM24.0225 30.9945L23.0349 31.118C23.3465 31.3976 23.6813 31.6602 24.0225 31.9259V30.9945Z" fill="#E3B80F"/>
<path d="M21.3517 13.0991C20.1801 13.5794 18.807 14.2105 17.5811 14.9395L19.7806 15.0629L24.0225 13.2562L21.3517 13.0991ZM19.7806 15.0741L16.3242 16.4095C16.331 16.528 16.3355 16.6614 16.3467 16.8023L19.7806 17.1165L24.0225 15.4669L19.7806 15.0741ZM19.7806 17.1277L16.515 18.2724C16.5379 18.4299 16.5545 18.5983 16.5824 18.7661L19.7806 19.1701L24.0225 17.6888L19.7806 17.1277ZM19.7806 19.1926L16.8517 20.1015C16.9002 20.3183 16.9513 20.5369 17.0088 20.7636L19.7806 21.2349L24.0225 19.9108L19.7806 19.1926ZM19.7806 21.2462L17.3342 21.9195C17.4276 22.2247 17.5254 22.5353 17.6372 22.8509L19.7806 23.2885L24.0225 22.1215L19.7806 21.2462ZM19.7806 23.2998L17.9739 23.7262C18.1476 24.1598 18.3352 24.6091 18.5462 25.0504L19.7806 25.3422L24.0225 24.3434L19.7806 23.2998ZM19.7806 25.3646L18.7931 25.5554C19.1059 26.1667 19.4637 26.7772 19.8591 27.3845L24.0225 26.5541L19.7806 25.3646ZM19.904 27.4519C20.2981 28.052 20.7322 28.6459 21.217 29.2249L24.0225 28.776L19.904 27.4519ZM22.2494 30.3583C22.5035 30.6155 22.7584 30.8736 23.0349 31.1214L24.0225 30.998L22.2494 30.3583Z" fill="#DA442D"/>
<path d="M26.6933 13.0991L24.0225 13.2562L28.2643 15.0629L30.4638 14.9395C29.2384 14.2105 27.8648 13.5798 26.6933 13.0991ZM28.2643 15.0741L24.0225 15.4669L28.2643 17.1165L31.6982 16.8023C31.7095 16.6596 31.7144 16.5294 31.7207 16.4095L28.2643 15.0741ZM28.2643 17.1277L24.0225 17.6888L28.2643 19.1701L31.4513 18.7661C31.4792 18.5969 31.507 18.4313 31.5299 18.2724L28.2643 17.1277ZM28.2643 19.1926L24.0225 19.9108L28.2643 21.2349L31.0249 20.7748C31.0828 20.5468 31.1443 20.3197 31.1932 20.1015L28.2643 19.1926ZM28.2643 21.2462L24.0225 22.1215L28.2643 23.2885L30.3965 22.8509C30.5083 22.5344 30.6164 22.2265 30.7107 21.9195L28.2643 21.2462ZM28.2643 23.2998L24.0225 24.3434L28.2643 25.3422L29.4875 25.0504C29.6994 24.6078 29.8973 24.1612 30.0711 23.7262L28.2643 23.2998ZM28.2643 25.3646L24.0225 26.5541L28.1746 27.3845C28.57 26.7772 28.9282 26.1667 29.2406 25.5554L28.2643 25.3646ZM28.1297 27.4631L24.0225 28.776L26.8167 29.2249C27.3001 28.6472 27.7365 28.0614 28.1297 27.4631ZM25.7843 30.3583L24.0225 30.998L24.9988 31.1102C25.273 30.8642 25.532 30.6137 25.7843 30.3583Z" fill="#C83E29"/>
<path d="M22.3167 34.6114L22.2606 35.0603L23.3491 35.0491L23.394 34.6114H22.3167ZM9.43401 34.6227L9.0188 37.9443H10.1073L10.2757 36.564H10.2869L10.9602 37.9331H12.1609L11.2856 36.2049L12.4639 34.6227H11.3305L10.3654 35.9468H10.3542L10.5113 34.6227H9.43401ZM30.7331 35.2399C30.252 35.2408 29.9526 35.3875 29.8915 35.8795L29.712 37.3159C29.6451 37.8546 29.953 37.9448 30.3404 37.9443H31.7319C32.166 37.9434 32.4568 37.8034 32.5174 37.3159L32.5399 37.1139H31.4513C31.4096 37.3379 31.2202 37.4052 31.1035 37.4057C30.8189 37.4057 30.8171 37.1844 30.8341 37.0466L30.8566 36.8558H32.5735L32.697 35.8683C32.7598 35.3637 32.4802 35.2394 32.0461 35.2399H30.7331ZM33.8079 35.2399C33.4017 35.2403 33.1158 35.3853 33.0561 35.8683L32.8877 37.2822C32.8267 37.7738 33.074 37.9111 33.4713 37.9107H33.8304C34.0122 37.9102 34.2173 37.8873 34.369 37.7536C34.448 37.6844 34.4548 37.6575 34.5598 37.4506H34.571L34.4813 38.1688H32.8429L32.7755 38.8309H34.7057C35.028 38.8309 35.4993 38.7783 35.5698 38.2137L35.9289 35.2623H34.8404L34.7955 35.6438H34.7842C34.7151 35.4109 34.5697 35.2394 34.2007 35.2399H33.8079ZM36.8154 35.2399C36.4881 35.2749 36.2729 35.4457 36.2206 35.8683L36.0411 37.2822C35.9801 37.7738 36.2386 37.9111 36.6359 37.9107H36.9837C37.1655 37.9107 37.3702 37.8761 37.5224 37.7423C37.6009 37.6732 37.6193 37.6575 37.7244 37.4506L37.6458 38.1575L36.0074 38.1688L35.9289 38.8309L37.8703 38.8196C38.1926 38.8192 38.6639 38.7783 38.7343 38.2137L39.0934 35.2623H38.0049L37.9488 35.6326C37.8797 35.3997 37.723 35.2394 37.3541 35.2399H36.9725C36.9217 35.2399 36.8622 35.2349 36.8154 35.2399ZM20.8579 35.2511C20.5405 35.2511 20.4274 35.3247 20.308 35.4194C20.2084 35.5101 20.1904 35.5406 20.1285 35.7H20.1172L20.1621 35.2847H19.0736L18.7482 37.9331H19.8367L20.0499 36.1937C20.0625 36.09 20.1006 35.7902 20.409 35.7897C20.7264 35.7893 20.6923 36.0478 20.6783 36.1601L20.4651 37.9331L21.5536 37.9219L21.8005 35.8907C21.8656 35.3691 21.5887 35.2506 21.2058 35.2511H20.8579ZM24.3254 35.2511C23.9192 35.2515 23.6333 35.3965 23.5736 35.8795L23.4053 37.2935C23.3442 37.785 23.6028 37.9223 24 37.9219H24.3479C24.5297 37.9219 24.7348 37.8985 24.8865 37.7648C24.9655 37.6957 24.9723 37.6687 25.0773 37.4618H25.0885L24.9988 38.18H23.3716L23.293 38.8421H25.2344C25.5567 38.8421 26.0173 38.7896 26.0873 38.2249L26.4464 35.2735H25.3579L25.313 35.6551H25.3018C25.2326 35.4221 25.0872 35.2506 24.7182 35.2511H24.3254ZM27.3441 35.2511C27.0166 35.2869 26.7904 35.4573 26.7382 35.8795L26.6933 36.2386C26.6125 36.8899 27.0052 36.9034 27.4339 36.9119L28.3429 36.9344L28.3317 37.0129C28.3218 37.0906 28.2778 37.394 27.9277 37.3945C27.8527 37.3945 27.7809 37.3814 27.7257 37.3384C27.67 37.2993 27.6341 37.2383 27.6359 37.1476H26.5586L26.5362 37.3047C26.4621 37.9039 26.8674 37.9448 27.2319 37.9443H28.5673C29.0247 37.9439 29.3174 37.7702 29.3753 37.3047L29.4202 36.9568C29.4951 36.3531 29.0588 36.3365 28.6908 36.3284L27.7706 36.3172L27.793 36.1152C27.8338 35.7875 28.1243 35.7897 28.1521 35.7897C28.1943 35.7897 28.2603 35.8027 28.3204 35.8458C28.3806 35.8889 28.4322 35.9567 28.4214 36.0815H29.51L29.5324 35.8795C29.5912 35.405 29.3533 35.2506 28.9376 35.2511H27.49C27.4392 35.2511 27.3909 35.246 27.3441 35.2511ZM13.5076 35.2623C13.1992 35.2628 12.762 35.296 12.6884 35.8907L12.5088 37.3271C12.4401 37.8788 12.7674 37.9672 13.1597 37.9668L14.5063 37.9556C14.9547 37.9551 15.2559 37.7967 15.3143 37.3271L15.4938 35.8907C15.5553 35.3952 15.3138 35.2619 14.8654 35.2623H13.5076ZM16.6833 35.2623C16.2026 35.2632 15.9028 35.3997 15.8417 35.8907L15.6622 37.3271C15.5953 37.8658 15.9032 37.956 16.2906 37.9556H17.6821C18.1162 37.9547 18.407 37.8142 18.4676 37.3271L18.4901 37.1364H17.4015C17.3598 37.3608 17.1704 37.4165 17.0537 37.4169C16.7691 37.4169 16.7673 37.1961 16.7843 37.0578L16.8068 36.8783H18.5237L18.6472 35.8907C18.71 35.3862 18.4304 35.2619 17.9963 35.2623H16.6833ZM23.3155 35.2735L22.227 35.2847L21.9015 37.9219H22.99L23.3155 35.2735ZM34.47 35.7336C34.7829 35.7332 34.7519 36.016 34.7394 36.1152L34.6271 37.0017C34.6186 37.0708 34.5809 37.3716 34.268 37.372C34.0113 37.372 33.9808 37.1664 33.9987 37.0241L34.1222 36.0815C34.1419 35.9222 34.2272 35.7341 34.47 35.7336ZM37.5448 35.7336C37.5705 35.7281 37.6042 35.7337 37.6346 35.7336C37.9475 35.7336 37.9053 36.016 37.8927 36.1152L37.7805 36.9905C37.772 37.0596 37.7343 37.3716 37.4214 37.372C37.1646 37.3725 37.1453 37.1664 37.1633 37.0241L37.2755 36.0815C37.2928 35.9421 37.3649 35.7724 37.5448 35.7336ZM24.9875 35.7448C25.3004 35.7448 25.2694 36.0272 25.2569 36.1264L25.1446 37.0129C25.1361 37.082 25.0984 37.3828 24.7855 37.3832C24.5288 37.3837 24.4987 37.1777 24.5162 37.0354L24.6397 36.0927C24.6594 35.9329 24.7447 35.7453 24.9875 35.7448ZM31.2942 35.7785C31.476 35.7785 31.6076 35.8858 31.5748 36.1488L31.5523 36.3284H30.9239L30.9464 36.1039C30.9711 35.9055 31.1165 35.779 31.2942 35.7785ZM14.1023 35.7897C14.4152 35.7893 14.3806 36.0644 14.3716 36.1376L14.2594 37.069C14.2433 37.2028 14.2132 37.4169 13.9003 37.4169C13.5875 37.4174 13.6144 37.2028 13.631 37.069L13.7432 36.1376C13.7522 36.0644 13.7899 35.7897 14.1023 35.7897ZM17.2444 35.801C17.4262 35.801 17.5578 35.897 17.525 36.1601L17.5025 36.3396H16.8741L16.8966 36.1264C16.9212 35.9284 17.0667 35.8014 17.2444 35.801ZM32.4501 38.1575L26.4913 38.1688C26.4913 38.1688 26.4581 38.6194 26.2444 38.8309L32.3715 38.8196L32.4501 38.1575ZM22.9564 38.1688L8.99636 38.1912L8.90659 38.8533L22.8778 38.8309L22.9564 38.1688Z" fill="#181A21" fill-opacity="0.941176"/>
<path d="M24.0225 9.50808V11.8086H24.202V11.4382C24.3587 11.5303 24.5598 11.5841 24.7855 11.5841C24.9184 11.5841 25.0504 11.5581 25.1783 11.528L25.1671 11.2362C25.0845 11.2789 24.9234 11.3036 24.7855 11.3036C24.4125 11.3036 24.1908 11.0307 24.1908 10.6752C24.1908 10.3165 24.4139 10.0467 24.7743 10.0467C24.9 10.0467 25.023 10.0611 25.1559 10.1365L25.1783 9.84473C25.0508 9.79446 24.9009 9.76618 24.7855 9.76618C24.5544 9.76618 24.356 9.82588 24.202 9.92329V9.50808H24.0225Z" fill="#CB9F18"/>
<path d="M23.8541 9.50808L23.8653 9.93451C23.7078 9.82453 23.4941 9.76618 23.2481 9.76618C23.1328 9.76618 22.9829 9.79491 22.8554 9.84473L22.8778 10.1365C23.0102 10.0615 23.1337 10.0467 23.2594 10.0467C23.6202 10.0467 23.8766 10.3169 23.8766 10.6752C23.8766 11.0311 23.6216 11.3036 23.2481 11.3036C23.1103 11.3036 22.9492 11.2789 22.8666 11.2362L22.8554 11.528C22.9833 11.5581 23.1153 11.5841 23.2481 11.5841C23.4879 11.5841 23.7042 11.5307 23.8653 11.427L23.8541 11.8086H24.0225V9.50808H23.8541Z" fill="#E3B80F"/>
</svg>
