<svg width="48" height="48" viewBox="0 0 48 48" fill="none" xmlns="http://www.w3.org/2000/svg">
<g clip-path="url(#clip0_0_1104)">
<path d="M23.9414 39.9424C23.6233 39.8225 21.3051 38.6935 20.6797 38.3535C16.3538 36.0027 13.4754 33.1779 11.1292 28.9807C9.54409 26.1446 8.69925 23.1208 8.422 19.2889C8.35942 18.4263 8.39079 15.5788 8.47363 14.5744L8.50982 14.136L9.14018 13.6541C11.4348 11.8998 14.1622 10.4029 16.562 9.58061C17.9344 9.11029 19.5792 8.73361 21.2555 8.50567C22.4875 8.33817 25.4563 8.32406 26.6552 8.47978C29.5354 8.85397 31.7355 9.50009 34.1653 10.6853C36.0037 11.5821 37.9474 12.8184 39.4176 14.0261L39.6178 14.1906L39.6804 15.3145C39.7581 16.7037 39.7146 19.3981 39.5981 20.4314C39.4062 22.1343 39.1718 23.2833 38.6825 24.9207C38.2668 26.3124 38.0123 26.9567 37.3981 28.1696C36.1744 30.5867 34.8558 32.4228 33.0457 34.2299C30.934 36.3381 28.9072 37.7012 25.4397 39.3454C24.1531 39.9553 24.0669 39.9897 23.9414 39.9424ZM12.8247 28.8441C12.7637 28.7443 12.5401 28.3148 12.3275 27.8895C11.1551 25.5436 10.4532 23.1318 10.152 20.4125C10.0469 19.4632 9.98933 16.5477 10.0577 15.6432L10.1055 15.0127L9.95198 14.7989C9.76123 14.5334 9.76123 14.513 9.95381 14.4745C10.0395 14.4574 10.2305 14.3488 10.3786 14.2333C11.0943 13.6748 12.5341 12.7295 13.3018 12.3143C14.6463 11.587 14.7494 11.55 17.6923 10.7346C18.8674 10.409 19.8673 10.1661 20.6251 10.0222C21.1228 9.92774 21.3506 9.83212 21.078 9.83212C20.9983 9.83212 20.9168 9.80572 20.8969 9.77352C20.8396 9.68071 21.028 9.57513 21.5296 9.41908C21.7859 9.33923 22.0176 9.2529 22.0447 9.22717C22.1445 9.13188 21.7807 9.10714 21.152 9.1669C17.9282 9.47287 14.4021 10.7981 11.306 12.8673C10.8536 13.1695 10.1924 13.6117 9.8361 13.85L9.18865 14.2831L9.41161 14.4888C9.61531 14.6769 9.63074 14.7102 9.59306 14.8807C9.52865 15.1704 9.55371 18.4279 9.62693 19.3158C9.7853 21.2329 10.0689 22.6822 10.6559 24.5784C11.1782 26.2641 12.022 28.0097 12.728 28.864C12.9274 29.1061 12.9782 29.0953 12.8247 28.8441ZM36.5926 27.594C37.3303 26.1304 37.6783 25.2298 37.9801 24.0033C38.1339 23.3779 38.2529 22.4838 38.1722 22.5577C38.1514 22.5768 38.0264 23.0084 37.8943 23.5171C37.3689 25.5384 36.9776 26.6267 36.2398 28.1146C36.0155 28.567 35.8822 28.8753 35.9431 28.7999C36.0042 28.7246 36.2964 28.1819 36.5926 27.594ZM15.0061 17.0162C15.0061 16.9868 15.0531 16.9376 15.1107 16.9068C15.1683 16.8759 15.2727 16.758 15.3424 16.6443C15.4123 16.5309 15.6572 16.2284 15.8866 15.9721C17.0573 14.6644 18.1575 13.8322 19.5919 13.1691C20.2388 12.87 20.6462 12.7272 21.5294 12.4895C21.9365 12.3799 22.2929 12.2677 22.3216 12.24C22.3502 12.2122 22.4365 12.188 22.5135 12.186C22.6472 12.1825 22.6455 12.1787 22.4707 12.0917C22.298 12.0059 22.2562 12.0076 21.7032 12.1216C19.6385 12.5479 17.6122 13.665 16.1733 15.1701C15.6333 15.7352 15.0157 16.5314 14.8284 16.9041C14.7602 17.0397 14.6697 17.194 14.6276 17.2468C14.5756 17.3113 14.5711 17.3427 14.6138 17.3427C14.6485 17.3427 14.677 17.3834 14.677 17.4332C14.677 17.4868 14.7439 17.4314 14.8416 17.2966C14.9319 17.1719 15.0061 17.0455 15.0061 17.0162Z" fill="#E6E7E8"/>
<path d="M23.1193 39.4696C21.0392 38.4886 19.7499 37.7842 18.4869 36.9389C15.2732 34.7879 12.8355 32.038 10.9298 28.4141C9.9128 26.4794 9.15811 24.1363 8.78391 21.7519C8.52178 20.0814 8.46517 19.0684 8.50501 16.7671C8.5246 15.6213 8.55515 14.5774 8.57258 14.4471C8.6023 14.2257 8.63865 14.183 9.13287 13.7895C11.651 11.7841 14.9281 10.0981 17.8794 9.28926C19.9851 8.71236 21.8823 8.45604 24.0513 8.45587C26.0775 8.45571 27.7788 8.6697 29.8347 9.18334C33.0346 9.98269 36.5194 11.7985 39.4907 14.2152C39.6613 14.354 39.6987 18.5549 39.5433 20.1387C39.3662 21.9469 39.1196 23.1834 38.5776 24.9886C37.9532 27.0678 37.1969 28.6356 35.8133 30.719C34.8705 32.1385 34.1665 33.0024 33.019 34.148C31.1296 36.0344 29.2231 37.3697 26.4152 38.7737C25.1993 39.3814 24.1341 39.8742 24.0407 39.8722C24.0012 39.8712 23.5866 39.6901 23.1193 39.4696ZM25.4345 38.653C26.9142 37.9046 27.4961 37.5641 27.8284 37.2522L29.6418 36.2616L32.6732 34.0466L36.7297 28.5595L38.8655 22.5922L39.2533 17.7322L39.0298 14.5079L35.8386 12.1022L31.9143 10.2443C30.8133 9.74048 28.4382 9.13586 26.5181 8.87041C25.5305 8.73411 23.0283 8.70207 21.9303 8.81197C19.6501 9.04024 17.5263 9.54957 15.8176 10.2779C13.7424 11.1622 12.61 11.7831 10.5383 13.1716C9.11611 14.1249 9.05667 14.1715 9.02032 14.3688C8.99973 14.4816 8.96603 15.2153 8.94544 15.9993C8.82392 20.6261 9.60203 24.5756 11.3047 27.9753C13.9899 33.1136 18.4887 37.3249 24.0091 39.2677C24.1642 39.27 24.51 39.1206 25.4345 38.653Z" fill="#ACAFB2"/>
<path d="M23.0645 37.291C20.1463 35.776 18.4133 34.5689 16.7019 32.8593C15.1191 31.2783 14.0807 29.8903 12.9829 27.8889C11.1104 24.4753 10.3899 20.6794 10.7122 15.9268L10.7469 15.4153L11.2729 15.0184C13.7117 13.1779 16.2875 11.8747 18.761 11.2298C20.6474 10.7379 21.9565 10.5739 23.9963 10.5739C25.8769 10.5739 26.8939 10.6851 28.6834 11.0868C30.9249 11.5899 33.356 12.6685 35.5359 14.1269C36.4339 14.7277 37.2893 15.3778 37.34 15.4978C37.3674 15.5629 37.3919 16.6275 37.3946 17.8635C37.3992 19.9146 37.3889 20.1903 37.2754 21.0158C36.8124 24.381 35.8774 26.875 34.0489 29.6224C32.2148 32.3782 29.846 34.578 26.8742 36.2841C26.2911 36.6188 24.244 37.71 24.1058 37.7597C24.0608 37.7759 23.5919 37.5649 23.0645 37.291Z" fill="#01336B"/>
<path d="M25.2456 33.9498C27.2394 33.7327 29.157 32.9848 30.7541 31.8009C31.3026 31.3946 32.2761 30.4554 32.7286 29.8964C33.873 28.4825 34.6658 26.8076 35.0518 24.9899C35.1939 24.3199 35.2032 24.1939 35.2045 22.8794C35.2059 21.6614 35.1908 21.4006 35.0852 20.8511C34.4505 17.5409 32.4643 14.7664 29.5249 13.0838C28.4945 12.4936 27.1665 12.0255 25.8877 11.8009C25.0343 11.6511 23.3582 11.6216 22.5436 11.7419C19.771 12.152 17.3248 13.4721 15.5685 15.5063C13.0604 18.4112 12.2184 22.2532 13.28 25.9495C14.1425 28.9525 16.3551 31.5574 19.1996 32.9185C20.2308 33.4123 21.6532 33.8197 22.7903 33.9473C23.3931 34.0152 24.6348 34.0164 25.2456 33.9498ZM22.4066 32.5566C19.0108 31.9839 16.0614 29.6273 14.8386 26.51C14.3674 25.3088 14.1863 24.4355 14.144 23.1613C14.1094 22.1154 14.1813 21.3728 14.4023 20.4946C15.3628 16.6788 18.3102 13.8563 22.0972 13.1255C22.9383 12.9631 22.9971 12.9683 23.0994 13.213C23.3291 13.7628 23.5391 14.9017 23.7497 16.7388C23.8381 16.9063 23.7264 18.1754 24.0941 18.0209C24.1635 17.9772 24.1995 17.8467 24.2304 17.5286C24.4522 15.2373 24.8096 13.3372 25.0693 13.0692C25.1365 12.9998 25.2175 13.0011 25.7091 13.0805C27.729 13.4064 29.5712 14.3628 31.0683 15.8625C31.8534 16.6488 32.3488 17.3171 32.8194 18.2244C33.6716 19.8673 34.0249 21.4006 33.958 23.1664C33.9238 24.0642 33.8413 24.6124 33.6148 25.4435C32.6657 28.9274 29.7831 31.6603 26.24 32.4356C25.8955 32.511 25.4963 32.5888 25.352 32.6084L25.0904 32.6443L25.0027 32.4353C24.7409 31.8114 24.4081 29.9722 24.2706 28.3886C24.2367 27.9969 24.1964 27.6329 24.1813 27.5802C24.1532 27.4823 23.9713 27.4473 23.9201 27.5298C23.9049 27.5548 23.8288 28.1351 23.7515 28.8192C23.5199 30.8701 23.204 32.4607 23.0024 32.5882C22.9138 32.6443 22.9302 32.6453 22.4066 32.5566Z" fill="#E6E7E8"/>
<path d="M23.1193 33.2632C23.074 33.2527 22.741 33.2199 22.3792 33.1903C21.7349 33.1379 21.0154 32.9662 20.3376 32.7044C20.0255 32.5839 19.5346 32.3116 19.5683 32.2779C19.5797 32.2666 19.7853 32.3337 20.0248 32.4273C21.0828 32.8409 21.4773 32.9239 22.5711 32.964C23.363 32.9933 23.6326 33.0226 23.8003 33.098C23.9643 33.1719 23.9967 33.2064 23.9371 33.2441C23.8634 33.2909 23.2953 33.3042 23.1193 33.2632ZM24.1071 33.2421C24.0377 33.1981 24.0282 32.9259 24.0413 31.3379C24.0498 30.3188 24.1155 29.2648 24.1117 28.9917C24.1038 28.4113 24.1277 27.5938 24.046 27.5938C24.0979 27.5784 24.161 27.6388 24.1693 27.7665C24.2088 28.3886 24.242 31.1349 24.4278 32.2435C24.5425 32.9308 24.7067 32.9743 25.4817 33.013C26.4333 32.9732 26.9542 32.8614 27.9667 32.4794C28.2959 32.3556 28.5755 32.264 28.5878 32.2762C28.6352 32.3239 28.0874 32.5995 27.6021 32.7723C26.9125 33.0178 26.1915 33.1657 25.3397 33.2363C24.4756 33.3082 24.2133 33.3097 24.1071 33.2421Z" fill="#8D9093"/>
<path d="M24.0465 17.9457C24.1283 17.9457 24.1717 17.0102 24.1122 16.5204C24.0237 15.7897 24.0078 12.4304 24.0923 12.3459C24.2103 12.2279 25.5365 12.3701 26.4357 12.5972C27.3682 12.8328 27.8847 13.0279 28.7108 13.4563C29.3156 13.7701 29.8969 14.1466 29.8491 14.1941C29.8368 14.2066 29.4831 14.0445 29.0631 13.8342C28.0726 13.338 27.5781 13.1625 26.5885 12.9568C26.1424 12.864 25.5887 12.7398 25.3577 12.6809C24.8168 12.5428 24.6793 12.5458 24.514 12.699C24.3944 12.8097 24.3727 12.8937 24.3251 13.4253C24.2852 13.8719 24.2892 14.1377 24.341 14.4599C24.3279 15.2911 24.5155 15.7674 24.0465 17.9457Z" fill="#8D9093"/>
<path d="M23.0645 39.3605C21.0485 38.4025 19.8782 37.7678 18.679 36.982C15.7614 35.0704 13.5022 32.6559 11.6121 29.4306C9.86333 26.446 8.91822 23.2885 8.64214 19.5082C8.57523 18.591 8.6091 14.9684 8.68912 14.4921C8.76997 14.0118 8.80433 14.3727 8.75486 15.1807C8.45388 20.1004 9.32927 24.8352 11.1823 28.3065C12.921 31.564 15.0215 34.0174 17.8132 36.0515C18.9351 36.869 20.8891 38.0143 22.9549 39.0648C23.8416 39.5161 24.0543 39.6037 24.2027 39.58C24.3008 39.5644 24.6956 39.4088 25.0798 39.2343C26.5689 38.5585 27.852 37.8417 28.361 37.4014C28.498 37.2827 29.117 36.8255 29.7361 36.3856C30.3551 35.9455 31.1507 35.3433 31.504 35.0473C34.5863 32.4645 37.0969 28.7103 38.2472 24.9635C38.9692 22.6126 39.3482 19.8563 39.3444 16.9863C39.3428 15.7907 39.2757 14.4939 39.206 14.3123C39.1777 14.2384 39.1997 14.2178 39.3074 14.2178C39.4306 14.2178 39.4488 14.2456 39.4786 14.4783C39.5617 15.1293 39.6114 17.5517 39.5639 18.635C39.456 21.0863 39.1915 22.6998 38.5447 24.8483C38.1045 26.3116 37.8631 26.9258 37.2605 28.1148C35.9466 30.7086 34.1803 33.0859 32.335 34.7447C30.5393 36.359 29.0333 37.3572 26.4326 38.6583C25.439 39.1552 24.0551 39.8229 24.0297 39.8176C24.0267 39.8169 23.5919 39.6114 23.0645 39.3605ZM23.0243 38.3953C21.5702 37.638 19.6508 36.4093 19.0299 35.8381C18.787 35.6146 18.7887 35.6156 19.6395 36.1463C20.4606 36.6588 21.5462 37.2538 22.8035 37.8802L23.9955 38.474L24.7497 38.0996C27.2568 36.8555 28.8363 35.8792 30.3377 34.6464C32.6619 32.7379 34.4176 30.6023 35.8576 27.9319C37.4339 25.0089 38.1923 21.7505 38.1946 17.8907C38.1953 16.842 38.0952 15.0267 38.0264 14.8416C37.9516 14.64 35.7602 13.1122 34.581 12.4394C33.3266 11.7237 31.7623 11.0248 30.1378 10.4538C29.6715 10.29 29.2767 10.1426 29.2606 10.1263C29.1705 10.0352 30.5947 10.3707 31.4015 10.6306C32.7622 11.0692 34.2621 11.767 35.5082 12.5413C36.0766 12.8944 37.7044 14.0794 38.1845 14.4894C38.2999 14.5881 38.317 14.6682 38.3684 15.3539C38.443 16.3407 38.3915 19.2907 38.2831 20.2533C38.0701 22.1461 37.5558 24.3417 36.9234 26.0591C36.5976 26.9439 35.718 28.7569 35.208 29.595C34.7978 30.269 33.732 31.8036 33.2665 32.391C32.4356 33.4387 30.3563 35.3818 29.466 35.9428C28.8079 36.3572 26.0197 37.7932 24.8613 38.3138C24.508 38.4728 24.1466 38.6545 24.0579 38.7176C23.9693 38.7808 23.8883 38.8318 23.8778 38.8313C23.8679 38.8304 23.4835 38.6345 23.0243 38.3953ZM24.1607 33.1867C24.0908 33.1418 24.0813 32.94 24.0966 31.8039C24.1167 30.3356 24.2092 29.7993 24.2176 31.1024C24.2243 32.1496 24.288 32.803 24.3908 32.8794C24.5029 32.9625 24.5547 33.1855 24.4619 33.1855C24.422 33.1855 24.3564 33.1975 24.3161 33.2124C24.2759 33.2272 24.206 33.2155 24.1607 33.1867ZM23.1467 33.1307C23.1024 33.0592 23.5569 33.0592 23.6675 33.1307C23.7266 33.1687 23.6691 33.184 23.4651 33.1847C23.3086 33.1853 23.1653 33.1609 23.1467 33.1307ZM16.2669 15.9298C16.2674 15.8456 16.8829 15.2055 17.3183 14.8366C18.2558 14.0419 19.5588 13.3066 20.6356 12.9645C21.6951 12.6278 23.6675 12.2637 23.6675 12.4047C23.6675 12.4372 23.6585 12.4638 23.6472 12.4638C23.459 12.4638 22.4966 12.6857 21.7489 12.9017C20.3469 13.3066 18.9366 14.0155 17.6923 14.9407C16.8714 15.5511 16.2668 15.9708 16.2669 15.9298ZM24.1466 15.0951C24.0845 14.679 24.0445 12.7206 24.0946 12.5459L24.1418 12.3814L24.7408 12.4003C25.4023 12.4211 26.1779 12.5521 26.9271 12.7692C27.3936 12.9044 28.1077 13.1952 28.1077 13.2498C28.1077 13.2638 27.9905 13.2395 27.8475 13.196C27.2578 13.0166 25.1393 12.5161 24.8344 12.4842C24.5455 12.454 24.5019 12.4621 24.4693 12.5527C24.4491 12.6093 24.3941 12.7246 24.3475 12.8087C24.2819 12.9264 24.2535 13.2362 24.223 14.1518C24.1977 14.9111 24.17 15.2526 24.1466 15.0951ZM10.3522 20.6751C10.2422 19.7869 10.1899 19.0983 10.1534 18.0552C10.1148 16.9567 10.1939 15.116 10.2833 15.0263C10.321 14.9888 10.3766 15.031 10.4553 15.1563C10.5505 15.3082 10.5661 15.3965 10.5412 15.6434C10.3529 17.5137 10.3121 18.9147 10.4059 20.2713C10.4384 20.6605 10.4915 21.7246 10.3522 20.6751ZM38.3551 13.6833C37.7947 13.3076 37.323 12.9455 37.3199 12.8886C37.3151 12.8008 37.4459 12.8574 37.8256 13.1076C38.169 13.3338 38.9289 13.9917 38.8527 13.9966C38.8374 13.9976 38.6135 13.8566 38.3551 13.6833Z" fill="#5F6269"/>
<path d="M22.7853 39.2795C19.724 37.8194 17.9455 36.6973 16.072 35.0442C13.3227 32.6177 10.9662 29.0946 9.78099 25.6394C8.78142 22.7245 8.3805 19.6086 8.53439 15.9447C8.57706 14.9256 8.62404 14.3221 8.66521 14.2633C8.76548 14.1196 9.59804 13.4595 10.3071 12.9616C12.0265 11.7541 14.0962 10.6599 15.9963 9.95364C20.7372 8.19141 25.9158 8.03486 30.7941 9.5064C33.3827 10.2872 36.6766 12.028 38.8251 13.7507C39.0964 13.9683 39.3592 14.1607 39.4092 14.1783C39.5499 14.228 39.5928 15.0018 39.5916 17.4523C39.5901 19.767 39.5478 20.354 39.2601 22.0571C39.0883 23.0736 38.9314 23.7203 38.5477 24.9943C37.93 27.0457 37.128 28.7051 35.7672 30.7459C33.5135 34.1263 30.8822 36.4292 26.9295 38.4806C25.7332 39.1014 24.1806 39.8189 24.0344 39.8182C23.9681 39.8179 23.406 39.5753 22.7853 39.2795ZM25.1438 39.0786C26.0262 38.6664 26.5466 38.3807 26.7374 38.2034C26.8129 38.1337 27.2321 37.8601 27.6694 37.5958C30.0631 36.149 31.6314 34.9479 33.0416 33.4813C34.4978 31.9668 35.6018 30.4531 36.6746 28.4986C38.4197 25.3201 39.246 21.6217 39.2591 16.9317C39.2616 16.0573 39.2435 15.1316 39.2186 14.8743C39.1747 14.4176 39.1693 14.4041 38.986 14.2987C34.9339 11.2871 31.4983 9.48499 26.5456 8.75436C25.4632 8.61342 22.5446 8.61209 21.4746 8.75187C19.1677 9.05319 17.181 9.56019 15.8018 10.1997C13.2458 11.3843 12.5242 11.7768 10.7849 12.9286C10.1368 13.3577 9.45527 13.8003 9.27083 13.9121L8.93532 14.1153L8.90178 14.482C8.82126 15.359 8.79802 17.9007 8.86161 18.8778C9.16491 23.546 10.2707 26.9643 12.6211 30.4996C13.4316 31.7189 14.2321 32.6913 15.3321 33.7938C17.3467 35.8122 19.1366 37.03 22.7481 38.8387C23.9153 39.4234 24.0886 39.4942 24.2625 39.4576C24.333 39.4424 24.7298 39.2719 25.1438 39.0786ZM22.9823 38.4548C21.3808 37.6167 19.893 36.6595 18.657 35.6719C17.9515 35.1081 16.7056 33.9707 16.7056 33.8906C16.7056 33.8597 16.8103 33.9239 16.9385 34.0337C18.0013 34.9421 19.5567 36.0296 20.8169 36.7456C21.7431 37.2716 23.8557 38.3387 23.9713 38.3387C24.0875 38.3387 26.2716 37.245 27.121 36.7616C30.9722 34.5695 33.7152 31.7661 35.8497 27.8409C36.7656 26.1565 37.4655 24.1066 37.8061 22.1123C38.0465 20.7036 38.1944 18.1509 38.1146 16.7811C38.0439 15.4895 38.3704 15.1449 37.3038 14.3387C34.21 12.0773 31.5951 10.8494 28.0605 9.9988C27.5372 9.87279 27.0561 9.74845 26.9917 9.72238C26.793 9.6422 27.3239 9.65864 28.01 9.75409C31.0157 10.1721 33.4707 11.0971 35.9745 12.7558C36.6897 13.2294 38.0842 14.2853 38.3043 14.5197L38.4413 14.6656L38.4406 17.0595C38.4398 19.69 38.4041 20.1762 38.0824 21.926C37.5674 24.7281 36.6802 27.1889 35.3938 29.3823C35.0518 29.9655 34.1283 31.3286 33.4873 32.1966C32.7202 33.235 30.7182 35.2084 29.6811 35.9485C29.2852 36.2308 26.3041 37.7509 24.9926 38.3389C24.5603 38.5326 24.1834 38.7351 24.1547 38.7889C24.0614 38.9628 23.8235 38.895 22.9823 38.4548ZM10.5124 19.6725L10.5392 20.315C10.6291 22.4772 11.2721 25.0276 12.2526 27.1104C12.7742 28.2187 13.5369 29.4896 14.4176 30.7187C14.6443 31.0353 14.9621 31.4786 15.1234 31.7038C15.285 31.9289 15.8831 32.5827 16.4525 33.1566C17.0223 33.7304 17.4169 34.1369 17.3298 34.0599C15.2023 32.1824 13.627 30.1466 12.4332 27.7311C11.1939 25.2235 10.591 23.191 10.2543 20.3851C10.1288 19.3402 10.1055 15.2075 10.2241 15.0001C10.4698 14.5701 13.1208 12.8026 14.4576 12.1774C14.9928 11.927 16.0163 11.5304 16.1165 11.5344C16.1541 11.5359 15.8874 11.6797 15.5244 11.854C14.295 12.444 13.2772 13.0561 11.9083 14.0283C11.637 14.221 11.1992 14.5082 10.9353 14.6666C10.6715 14.825 10.4555 14.9807 10.4555 15.0126L10.5124 19.6725ZM17.5755 34.2408C17.5074 34.154 17.5092 34.152 17.5962 34.2203C17.6875 34.2918 17.7167 34.3366 17.6714 34.3366C17.66 34.3366 17.617 34.2936 17.5755 34.2408Z" fill="#8D9093"/>
<path d="M22.9548 37.1808C19.1337 35.2039 16.719 33.2507 14.6609 30.472C12.7802 27.9325 11.608 25.2904 11.0379 22.304C10.7498 20.7951 10.7022 20.1658 10.705 17.8909C10.7063 16.7301 10.7256 15.694 10.7474 15.5885C10.7817 15.4229 10.8722 15.335 11.4026 14.9495C13.2218 13.6283 14.592 12.8336 16.3534 12.0784C18.8408 11.0121 22.1528 10.4414 24.9332 10.6001C29.3521 10.8524 32.7829 12.1282 36.6324 14.9508C37.2932 15.4352 37.3209 15.4618 37.2789 15.5715C37.2548 15.6341 37.2397 15.6343 37.1879 15.5732C37.1539 15.533 37.0149 15.4206 36.8793 15.3235C36.7437 15.2264 36.4196 14.9911 36.159 14.8004C35.8987 14.6098 35.59 14.397 35.4737 14.3274C35.3573 14.258 35.1274 14.1124 34.9627 14.004C34.5707 13.746 34.2073 13.5521 33.0145 12.964C31.501 12.2177 31.1645 12.061 30.9862 12.019C30.8957 11.9978 30.5997 11.9018 30.3284 11.806C28.4918 11.1577 26.2526 10.799 24.0515 10.8003C21.3933 10.802 18.8971 11.2799 16.6016 12.2269C15.9671 12.4885 14.5422 13.1992 13.9491 13.5496C12.8665 14.1895 11.2798 15.3001 11.0953 15.5474C10.9554 15.7349 10.9031 16.3944 10.8981 18.0337C10.889 21.0989 11.3727 23.667 12.4319 26.1761C13.5966 28.9354 15.9924 32.08 18.5048 34.147C19.3903 34.876 19.4735 34.9401 19.7766 35.1317C19.9197 35.2221 20.2279 35.4257 20.4619 35.5839C20.6957 35.7423 20.9206 35.8718 20.9616 35.8718C21.0026 35.8718 21.0362 35.8965 21.0362 35.927C21.0362 35.9576 21.1437 36.0376 21.2752 36.1052C21.8559 36.4037 22.1805 36.5858 22.4602 36.7702C22.6256 36.8791 22.8027 36.9681 22.8545 36.9681C22.9061 36.9681 22.9632 36.9922 22.9813 37.0212C22.9994 37.0506 23.1181 37.124 23.245 37.1841C23.372 37.2445 23.5128 37.3166 23.5581 37.3438C23.6032 37.3712 23.7576 37.4476 23.9012 37.5136C24.0448 37.5799 24.1481 37.6567 24.1308 37.6846C24.1137 37.7125 24.0825 37.7349 24.0616 37.7344C24.041 37.7343 23.5428 37.4849 22.9548 37.1808ZM23.1193 34.3054C23.0439 34.2926 22.7107 34.2408 22.3792 34.1904C22.0477 34.1399 21.7095 34.0657 21.628 34.0259C21.5467 33.9858 21.411 33.953 21.3267 33.9526C21.116 33.9516 19.9805 33.5564 19.4559 33.3015C19.4054 33.2768 19.2655 33.2107 19.1448 33.1545C19.0243 33.0982 18.7689 32.9589 18.5774 32.845C18.3858 32.7308 18.2164 32.6375 18.201 32.6375C18.1499 32.6375 17.5255 32.1753 17.2939 31.966C17.1689 31.8529 17.0477 31.7604 17.025 31.7604C17.0019 31.7604 16.9117 31.6927 16.8244 31.6099C16.0702 30.894 15.7184 30.5363 15.744 30.5109C15.7606 30.4943 15.9529 30.6563 16.1712 30.8709C19.1287 33.7785 23.621 34.795 27.6134 33.4604C30.0142 32.6577 31.9507 31.1671 33.3817 29.0196C35.3249 26.1037 35.799 22.6344 34.7073 19.3166C33.7792 16.4947 31.654 14.0606 28.9301 12.6988C28.7339 12.6009 28.604 12.5204 28.6414 12.5197C28.7385 12.5184 30.0645 13.1599 30.107 13.2287C30.1265 13.2605 30.1805 13.2864 30.2273 13.2864C30.2741 13.2864 30.402 13.3549 30.512 13.4388C30.6216 13.5226 30.7831 13.6273 30.8703 13.6715C31.3152 13.8968 32.8452 15.3705 33.4016 16.1097C35.1157 18.3873 35.8736 21.027 35.6433 23.9215C35.6015 24.4491 35.5409 24.9918 35.5087 25.1274C35.4765 25.2632 35.423 25.4976 35.3897 25.6483C35.2607 26.2334 34.8033 27.5062 34.5627 27.9508C33.8703 29.2307 33.4515 29.8427 32.7474 30.6033C31.5149 31.9349 30.0264 32.9597 28.4639 33.5532C26.9042 34.1456 26.1666 34.2852 24.462 34.3109C23.799 34.3205 23.1947 34.3184 23.1193 34.3054ZM25.0074 32.3918C24.7085 31.6766 24.2729 29.0084 24.2709 27.8817C24.2703 27.4994 24.3588 27.4272 24.5223 27.6765C24.629 27.8394 24.7635 28.5031 24.7638 28.8678C24.7638 29.0104 24.7877 29.2326 24.8166 29.3612C24.8458 29.4897 24.9219 29.9974 24.9856 30.4893C25.1038 31.403 25.3135 32.2656 25.4561 32.425C25.5268 32.504 25.5215 32.5178 25.4101 32.5475C25.1619 32.6138 25.0884 32.5854 25.0074 32.3918ZM22.4949 32.4829C22.4798 32.4582 22.5399 32.4486 22.6289 32.4617C22.7177 32.4746 22.7904 32.4949 22.7904 32.5067C22.7904 32.5485 22.5222 32.5268 22.4949 32.4829ZM22.2022 32.4399C22.2203 32.4217 22.2678 32.4195 22.3072 32.4355C22.351 32.4529 22.338 32.4662 22.2741 32.4687C22.2164 32.471 22.184 32.458 22.2022 32.4399ZM21.5294 32.3015C20.8137 32.1101 20.3138 31.9273 19.6928 31.6296C14.7215 29.2473 12.7101 23.2534 15.2297 18.3293C16.5978 15.6557 19.0654 13.7739 21.9889 13.1751C22.6988 13.0299 23.0297 13.0428 23.0542 13.2171C23.0677 13.3106 23.0507 13.3322 22.9848 13.3068C22.8847 13.2684 21.9371 13.4236 21.6116 13.5319C21.491 13.5721 21.2196 13.6592 21.0086 13.7256C20.4745 13.8936 19.2882 14.4783 18.7464 14.8402C16.6118 16.2661 15.1721 18.4211 14.6206 21.0154C14.4682 21.7324 14.4142 23.1533 14.5084 23.9645C14.6365 25.0668 14.9398 26.0931 15.4251 27.0666C15.7095 27.6372 15.8964 27.9416 16.4612 28.7551C16.6893 29.0837 17.5877 30.0012 18.0798 30.4078C18.4152 30.685 19.2505 31.2667 19.3133 31.2667C19.3472 31.2667 19.4192 31.316 19.4738 31.3765C19.5281 31.4366 19.6086 31.4859 19.652 31.4859C19.6953 31.4859 19.7979 31.5337 19.8799 31.5919C19.9617 31.6504 20.101 31.7155 20.1898 31.7367C20.2783 31.758 20.3766 31.7951 20.4076 31.8194C20.4775 31.8738 21.1137 32.0971 21.557 32.2228C21.7377 32.2741 21.9351 32.3372 21.9954 32.3634C22.1895 32.4471 21.9597 32.4167 21.5294 32.3015ZM26.1575 26.0361C25.9661 25.9526 25.3784 25.4264 25.4247 25.3799C25.4415 25.3631 25.5496 25.4272 25.6648 25.5222C25.9606 25.7662 26.33 25.8537 26.6793 25.7632C27.2452 25.6163 27.5754 25.1893 27.7821 24.337C27.8485 24.0629 27.9191 23.8204 27.939 23.7981C27.9587 23.7759 28.0315 23.7968 28.0999 23.8448C28.2109 23.9226 28.223 23.9719 28.2114 24.295C28.2041 24.4947 28.1658 24.7205 28.1259 24.7965C28.0861 24.8729 28.0534 24.9898 28.0532 25.0567C28.053 25.1232 28.0047 25.2038 27.9456 25.2351C27.8867 25.2668 27.8234 25.3726 27.8049 25.4702C27.769 25.6585 27.4732 25.917 27.1511 26.041C26.9237 26.1288 26.3635 26.1258 26.1575 26.0361ZM17.056 26.0043C16.1562 25.9829 15.8783 25.9593 15.8038 25.8972C15.713 25.8215 15.7131 25.8155 15.8093 25.7775C15.8647 25.7558 16.4809 25.736 17.1784 25.7338C18.1736 25.7307 18.4595 25.7141 18.5078 25.6558C18.5418 25.615 18.6383 25.2453 18.7223 24.834C18.8063 24.4228 18.9014 24.0604 18.9331 24.0284C18.9663 23.9954 19.1536 23.9774 19.3696 23.9869L19.7479 24.0033L19.7642 24.1725C19.7798 24.331 19.7708 24.3402 19.6197 24.3181C19.3516 24.2786 19.25 24.376 19.1521 24.7665C19.1028 24.9622 19.0624 25.1666 19.0623 25.2205C19.0619 25.3967 18.9525 25.7184 18.8509 25.8441C18.7143 26.0126 18.4407 26.037 17.056 26.0043ZM20.022 26.022C19.8586 25.9785 19.7089 25.8295 19.7688 25.7695C19.7967 25.7415 20.3713 25.7139 21.0455 25.7081C21.7198 25.7025 22.3019 25.6787 22.3392 25.656C22.3762 25.6329 22.4068 25.5275 22.4068 25.4212C22.4068 25.2318 22.4031 25.229 22.2011 25.2463L21.9954 25.2637L21.9831 23.2083C21.975 21.8691 21.9893 21.1841 22.0236 21.2425C22.0525 21.292 22.1597 21.581 22.2618 21.885C22.43 22.3865 22.4421 22.464 22.3928 22.727C22.3616 22.8945 22.3517 23.4644 22.3699 24.0799L22.401 25.1432L22.5685 25.316C22.7898 25.5444 22.7976 25.7968 22.5877 25.9344C22.4589 26.0189 22.2874 26.0328 21.2857 26.0415C20.6509 26.0466 20.0823 26.0378 20.022 26.022ZM23.9827 25.9998C23.8454 25.9198 23.8644 25.8396 24.0206 25.8396C24.0943 25.8396 24.1682 25.8175 24.1846 25.7906C24.2065 25.7553 24.2746 21.3176 24.2708 20.1829C24.2706 20.1153 24.3262 20.0856 24.476 20.0731C24.6637 20.0577 24.683 20.0406 24.6987 19.8779C24.7162 19.6959 24.7451 19.6705 24.8516 19.7418C24.9214 19.7882 25.0379 19.9964 25.0379 20.0746C25.0379 20.1038 24.9516 20.2312 24.8465 20.3572L24.6546 20.5866L24.6803 22.1576C24.7107 24.0093 24.7122 23.7221 24.665 24.8988C24.6284 25.8092 24.6212 25.8537 24.4974 25.954C24.3563 26.0682 24.134 26.0881 23.9827 25.9998ZM28.1762 25.95C28.0783 25.8904 27.9983 25.8163 27.9983 25.7858C27.9983 25.7498 28.4317 25.7302 29.2251 25.7302C30.5451 25.7302 30.604 25.7177 30.5651 25.4455C30.5522 25.3538 30.5059 25.3143 30.3966 25.3019C30.2919 25.2898 30.2459 25.2531 30.2459 25.182C30.2459 25.093 30.3517 24.5286 30.4386 24.1542C30.4652 24.039 30.4959 24.0309 30.9048 24.0309H31.3423V24.2211C31.3423 24.4006 31.3333 24.4101 31.1895 24.3812C30.9531 24.334 30.804 24.4936 30.7365 24.8656C30.6842 25.1535 30.6895 25.1935 30.8016 25.3447C30.9053 25.485 30.9158 25.5403 30.8726 25.7146C30.7931 26.0348 30.6985 26.0576 29.451 26.0582C28.4538 26.0586 28.3384 26.0488 28.1762 25.95ZM31.4518 25.9397L31.2601 25.8205L31.3972 25.7808C31.4724 25.7589 31.8584 25.7385 32.2547 25.7357C33.0299 25.7297 33.0416 25.725 33.0416 25.4242C33.0416 25.2521 33.1153 25.2561 33.2569 25.436C33.407 25.6268 33.4002 25.7206 33.2234 25.9052C33.0768 26.0584 33.0731 26.0591 32.3599 26.0587C31.7204 26.0586 31.6232 26.0459 31.4518 25.9397ZM16.8402 25.223C16.8256 25.1853 16.8203 24.032 16.8279 22.6601L16.8424 20.1659L17.0505 20.1487C17.2141 20.1352 17.27 20.102 17.3108 19.9946C17.3394 19.9194 17.3874 19.8731 17.4178 19.8917C17.521 19.9556 17.4727 20.1512 17.3074 20.3397L17.142 20.528L17.1488 22.1846C17.1523 23.0959 17.1734 24.1492 17.1953 24.5254C17.223 24.9982 17.2169 25.2219 17.1757 25.2496C17.0804 25.3142 16.8687 25.2976 16.8402 25.223ZM20.9963 25.2207C20.9691 25.1843 20.857 24.7351 20.7468 24.2226C20.6366 23.7101 20.3993 22.6123 20.2192 21.7831C20.0393 20.9537 19.8744 20.1434 19.853 19.9815C19.8156 19.6991 19.8185 19.6898 19.9242 19.7464C19.9846 19.7788 20.0613 19.8741 20.0944 19.9581C20.1683 20.1453 20.517 21.5304 20.6509 22.1667C20.8672 23.1953 21.2512 24.7085 21.3707 25.0016C21.41 25.0983 21.4311 25.1873 21.4173 25.1991C21.3426 25.2644 21.0402 25.2795 20.9963 25.2207ZM29.2292 25.223C29.215 25.1853 29.2095 24.0198 29.2175 22.6329L29.2317 20.1111L29.413 20.1093C29.597 20.1075 29.6954 20.02 29.6967 19.8566C29.6981 19.7213 29.8516 19.6873 29.9162 19.8082C30.0213 20.0049 29.9801 20.2197 29.8045 20.3879L29.6375 20.5481L29.6539 22.8895C29.67 25.192 29.6683 25.2318 29.5606 25.2607C29.3792 25.3093 29.2573 25.2954 29.2292 25.223ZM32.5263 25.1958C32.5102 25.1428 32.2596 24.002 31.9696 22.6603C31.4319 20.1722 31.3318 19.5905 31.442 19.5905C31.5357 19.5905 31.7173 19.8097 31.7784 19.9969C31.84 20.1849 32.0305 21.0503 32.1079 21.4939C32.1355 21.6512 32.2065 21.9718 32.2658 22.2066C32.3251 22.4411 32.4024 22.7811 32.4376 22.9621C32.4731 23.1429 32.5394 23.4513 32.5857 23.6474C32.6695 24.0041 32.7944 24.5483 32.8749 24.9081C32.8986 25.0137 32.936 25.143 32.9581 25.196C32.9924 25.278 32.9665 25.2917 32.7768 25.2917C32.6139 25.2916 32.5478 25.2663 32.5263 25.1958ZM26.2103 25.1828C26.0529 25.1193 25.8743 24.8819 25.8024 24.641C25.7699 24.5312 25.7292 23.9359 25.7121 23.3179C25.6796 22.1302 25.745 21.1286 25.8867 20.6518C26.0275 20.1776 26.369 19.9855 26.7298 20.1774C26.9271 20.2823 27.1166 20.5448 27.046 20.6155C27.0224 20.6391 26.9793 20.6153 26.9496 20.5629C26.8773 20.4337 26.6001 20.4402 26.4661 20.5742C26.2179 20.8222 26.109 21.7945 26.1482 23.4055C26.1793 24.6793 26.2038 24.8103 26.4575 25.0397C26.5209 25.0972 26.5727 25.1647 26.5727 25.1903C26.5729 25.2489 26.3629 25.2446 26.2103 25.1828ZM30.519 23.4759C30.5168 23.3238 30.8763 21.6185 30.9103 21.6185C30.9296 21.6185 30.9865 21.8961 31.0368 22.2353C31.1575 23.0492 31.1552 22.9993 31.0768 23.141C30.9989 23.2823 31.0414 23.3949 31.156 23.3509C31.2003 23.334 31.2327 23.3555 31.2327 23.4022C31.2327 23.4532 31.1777 23.4827 31.0819 23.4832C30.9989 23.4835 30.8387 23.4991 30.7257 23.5177C30.571 23.5433 30.5195 23.5328 30.519 23.4759ZM18.9509 23.4414C18.9456 23.331 19.3133 21.6185 19.3422 21.6185C19.3606 21.6185 19.4069 21.837 19.4453 22.1041C19.4981 22.4728 19.5001 22.635 19.4524 22.7786C19.418 22.8826 19.385 23.0834 19.3787 23.2251L19.3676 23.4824H19.1602C19.0462 23.4825 18.9522 23.4641 18.9509 23.4414ZM23.1822 21.3088C22.9002 20.6205 22.6561 19.9734 22.6394 19.8708L22.609 19.6843L22.7733 19.8058C22.8935 19.8947 23.0237 20.1229 23.2551 20.6497C23.4296 21.0471 23.5981 21.3884 23.6295 21.4085C23.6861 21.4449 23.7533 22.272 23.715 22.4616C23.7038 22.5158 23.4643 21.9971 23.1822 21.3088ZM27.5323 21.7077C27.472 21.6637 27.435 21.6194 27.4501 21.6094C27.465 21.5995 27.5268 21.5639 27.5869 21.5307C27.6873 21.4751 27.6991 21.3977 27.724 20.6168C27.7391 20.1475 27.7698 19.7453 27.7924 19.7225C27.8151 19.7001 27.8337 19.7549 27.8337 19.8444C27.8337 20.0496 27.9216 20.1384 28.1249 20.1384C28.2758 20.1384 28.2828 20.1483 28.2494 20.3165C28.2298 20.4145 28.1945 20.7113 28.1704 20.9761C28.139 21.3229 28.0957 21.499 28.0157 21.6066C27.8872 21.7799 27.6881 21.8216 27.5323 21.7077ZM21.3212 20.2919C21.2317 20.2025 21.2384 20.1384 21.3377 20.1384C21.3831 20.1384 21.4198 20.187 21.4198 20.2481C21.4197 20.3759 21.4097 20.3804 21.3212 20.2919ZM23.5687 20.2919C23.4722 20.1953 23.4883 20.1384 23.6127 20.1384C23.6857 20.1384 23.7224 20.1749 23.7224 20.2481C23.7223 20.3724 23.6655 20.3887 23.5687 20.2919ZM27.013 19.6699C26.8026 19.5213 26.8284 19.5019 27.1036 19.6013C27.2036 19.6375 27.2856 19.6991 27.2856 19.7384C27.2856 19.8379 27.2319 19.8246 27.013 19.6699ZM24.1644 18.2232C24.1004 18.1829 24.0986 18.1577 24.1547 18.0903C24.1954 18.0413 24.2555 17.6444 24.3008 17.1277C24.4701 15.1953 24.8794 13.1396 25.1126 13.0499C25.153 13.0345 25.393 13.0576 25.6465 13.1016C28.1463 13.5349 30.2145 14.7599 31.7895 16.7398C31.8971 16.8754 32.0144 17.048 32.0498 17.1234L32.1144 17.2605L32.0159 17.1325C31.962 17.0623 31.8068 16.8772 31.671 16.7213C31.5357 16.5654 31.3751 16.3762 31.3147 16.3008C31.057 15.9792 30.1309 15.2222 29.4532 14.7795C28.1023 13.8966 25.6507 13.0808 25.3689 13.4205C25.2388 13.577 25.0504 14.3541 24.9293 15.232C24.7904 16.2409 24.7633 16.4705 24.7067 17.1232C24.6332 17.9752 24.6191 18.0317 24.4487 18.1658C24.2925 18.2888 24.2739 18.2925 24.1644 18.2232Z" fill="#101A4B"/>
<path d="M24.2025 22.9237L24.2168 20.0902L24.4217 20.0733C24.6078 20.0579 24.6284 20.0401 24.6436 19.8816L24.6607 19.7071L24.0883 19.6896C23.3386 19.6671 23.3285 19.6696 23.3492 19.8825C23.364 20.0349 23.3894 20.0594 23.5579 20.0836L23.7498 20.111L23.7644 21.3894C23.7724 22.0927 23.7586 22.6553 23.7337 22.6397C23.7086 22.6244 23.4208 21.9557 23.0939 21.1542L22.4997 19.6968L21.7814 19.7119L21.0634 19.7272V19.8917C21.0634 20.0421 21.0807 20.0575 21.2696 20.0731L21.4758 20.0902L21.4615 22.6772L21.4472 25.2642H21.2005H20.9538L20.3862 22.6329C19.6986 19.4463 19.7386 19.6091 19.6337 19.5688C19.4063 19.4816 19.3752 19.5749 18.8795 21.8468C18.3795 24.138 18.2379 24.5928 17.9218 24.9265C17.6985 25.1624 17.4043 25.2916 17.0907 25.2916H16.8138L16.8281 22.7014L16.8423 20.111L17.0343 20.0836C17.2048 20.0592 17.226 20.0378 17.226 19.8917V19.7272H16.3764H15.5265L15.5084 19.8857C15.4878 20.0657 15.5662 20.1364 15.787 20.1377L15.9377 20.1384V22.7149V25.2914H15.8051C15.5792 25.2914 15.4991 25.3495 15.4991 25.5135C15.4991 25.5989 15.5177 25.6799 15.5403 25.6938C15.5629 25.7076 16.2464 25.7028 17.0588 25.6834L18.536 25.6478L18.7034 24.8256L18.8707 24.0033L19.3213 23.9874C19.7526 23.9721 19.7733 23.9768 19.7987 24.0971C19.8963 24.5542 19.9944 25.0993 19.9944 25.1843C19.9944 25.2574 19.946 25.2891 19.8163 25.3017C19.6588 25.317 19.6382 25.3381 19.6382 25.4835V25.6478L20.9538 25.6626C22.0957 25.6752 22.2778 25.6659 22.3324 25.5916C22.445 25.4372 22.3598 25.2989 22.1407 25.2808L21.9408 25.2642L21.9263 23.2392C21.9185 22.1255 21.9315 21.1945 21.9557 21.1705C21.9798 21.1462 22.3784 22.0698 22.8417 23.2227C23.9837 26.0644 23.8577 25.7953 24.037 25.7748L24.1883 25.7574L24.2025 22.9237ZM18.8974 23.4963C18.8949 23.3643 19.3063 21.509 19.338 21.509C19.3822 21.509 19.7662 23.4339 19.7346 23.4963C19.7232 23.5187 19.5303 23.5375 19.306 23.5375C19.0817 23.5375 18.8979 23.5187 18.8974 23.4963ZM26.7548 25.7262C27.225 25.5956 27.5839 25.0912 27.7562 24.3181C27.8613 23.8474 27.8392 23.7566 27.6194 23.7566C27.4202 23.7566 27.4177 23.7603 27.2839 24.2837C27.1378 24.8548 26.956 25.1555 26.7072 25.2376C26.3439 25.3577 26.0205 25.1965 25.8427 24.8072C25.7348 24.5713 25.7242 24.4413 25.7066 23.1261C25.6792 21.1072 25.7996 20.3675 26.1872 20.1669C26.6964 19.9036 27.1282 20.2715 27.2811 21.0984C27.3477 21.4595 27.3921 21.5281 27.5402 21.4998C27.6325 21.4824 27.6451 21.4009 27.6735 20.6314C27.6908 20.1643 27.6945 19.7516 27.6813 19.7137C27.6392 19.5912 27.3978 19.6345 27.3332 19.7761L27.2736 19.9073L27.0082 19.7423C26.7684 19.5932 26.7083 19.5794 26.3849 19.6C26.0992 19.6183 25.9809 19.6554 25.7979 19.7848C25.1564 20.2378 24.709 21.4172 24.709 22.6551C24.709 24.0862 25.2732 25.3686 26.0523 25.7091C26.2541 25.7971 26.4794 25.8026 26.7548 25.7262ZM32.9297 25.6505C33.0527 25.5023 32.9745 25.3759 32.7416 25.3464L32.5251 25.319L31.9072 22.4684C31.5672 20.9007 31.2888 19.6116 31.2881 19.6041C31.2875 19.5965 31.2141 19.5904 31.1248 19.5904C30.9337 19.5904 30.9697 19.4796 30.6053 21.1801C30.466 21.8284 30.2112 23.0126 30.0386 23.8116L29.725 25.2644L29.464 25.281L29.203 25.2977L29.2173 22.7046L29.2316 20.1113L29.4233 20.0839C29.594 20.0595 29.6152 20.0381 29.6152 19.892V19.7275H28.7656H27.9159V19.892C27.9159 20.0381 27.9372 20.0595 28.1075 20.0839L28.2994 20.1113V22.688V25.2647L28.1075 25.2919C27.9378 25.3163 27.9138 25.3401 27.8986 25.4984L27.8812 25.6776L29.1869 25.663L30.4924 25.6482L30.5097 25.4968C30.5246 25.3663 30.5041 25.3409 30.3588 25.3118C30.2663 25.2934 30.192 25.2629 30.1931 25.2441C30.1948 25.2252 30.2512 24.9383 30.319 24.6066L30.4418 24.0037L30.8904 23.9877C31.3192 23.9724 31.3399 23.9773 31.3655 24.0975C31.4644 24.5603 31.5612 25.1003 31.5612 25.188C31.5612 25.2619 31.522 25.2917 31.4259 25.2917C31.3486 25.2917 31.2669 25.3367 31.2343 25.3978C31.161 25.5351 31.1616 25.5423 31.2637 25.6442C31.3856 25.7657 32.8296 25.7712 32.9297 25.6505ZM30.4783 23.414C30.4926 23.3462 30.5852 22.8899 30.6842 22.4C30.7835 21.9101 30.8822 21.509 30.904 21.509C30.9261 21.509 31.0247 21.9346 31.1233 22.4548C31.2217 22.9749 31.314 23.4312 31.3281 23.4688C31.3472 23.5201 31.2408 23.5373 30.9028 23.5373C30.4645 23.5373 30.4529 23.534 30.4783 23.414Z" fill="white"/>
<path d="M32.9287 16.3833C33.1325 16.7283 33.1862 16.8365 33.4845 17.5074C33.6387 17.854 33.8243 18.2679 33.8967 18.4271C33.9691 18.5861 34.0283 18.7283 34.0283 18.7427C34.0283 18.7573 34.1294 19.0058 34.2531 19.2952C34.5393 19.9647 34.6702 20.6032 34.7427 21.6853C34.84 23.1286 34.6756 24.6385 34.2911 25.8398C34.121 26.3707 33.7174 27.3013 33.6752 27.2593C33.6625 27.2465 33.7617 26.9336 33.896 26.5641C34.3873 25.2096 34.5767 24.17 34.5767 22.8231C34.5767 21.4099 34.4226 20.3517 34.0529 19.2203C33.7885 18.4115 33.3663 17.6015 32.6855 16.5967C31.5476 14.8016 31.6019 14.5406 32.9287 16.3833Z" fill="#8D9093"/>
</g>
<defs>
<clipPath id="clip0_0_1104">
<rect width="32" height="31.9997" fill="white" transform="translate(8 8)"/>
</clipPath>
</defs>
</svg>
