<svg width="48" height="48" viewBox="0 0 48 48" fill="none" xmlns="http://www.w3.org/2000/svg">
<path d="M16.2742 22.4568H17.9161L18.5218 24.7627H18.5627C18.5918 24.5706 18.621 24.3667 18.6734 24.1808L19.1681 22.4568H20.793L21.5149 26.8474H19.9719L19.7562 24.4425H19.7273C19.6983 24.588 19.669 24.7393 19.6225 24.8791L18.9878 26.8475H18.0562L17.4855 24.9897C17.4389 24.8034 17.398 24.6287 17.3863 24.4425H17.3338C17.3224 24.6172 17.3108 24.7976 17.2932 24.972L17.1067 26.8474H15.5638L16.2742 22.4568Z" fill="#ACACAC"/>
<path d="M23.8765 25.2578L23.6902 24.4832C23.6436 24.2967 23.6144 24.1047 23.5851 23.9184H23.5272L23.2359 25.2578H23.8765ZM22.8223 26.8474H21.1338L22.6593 22.4568H24.4239L25.9903 26.8474H24.3014L24.1562 26.2998H22.9505L22.8223 26.8474Z" fill="#ACACAC"/>
<path d="M30.3279 24.2619C30.3159 24.9782 30.3159 25.5779 29.7978 26.1367C29.3318 26.6436 28.6159 26.9173 27.9345 26.9173C26.5954 26.9173 25.5124 26.0904 25.5124 24.6812C25.5124 23.2489 26.5661 22.3869 27.9463 22.3869C28.7091 22.3869 29.7574 22.7655 30.1006 23.5166L28.61 24.0641C28.4878 23.8428 28.2608 23.7263 28.0044 23.7263C27.4341 23.7263 27.1193 24.2154 27.1193 24.7452C27.1193 25.2283 27.4221 25.6827 27.9403 25.6827C28.1909 25.6827 28.5111 25.5662 28.5866 25.2984H27.8648V24.2619H30.3279Z" fill="#ACACAC"/>
<path d="M30.4471 22.4568H31.9788L33.411 24.8909H33.4574C33.3936 24.524 33.3236 24.1455 33.3236 23.7729V22.4568H34.849V26.8474H33.3236L31.9204 24.5416H31.8739C31.9261 24.8441 31.9727 25.1296 31.9727 25.421V26.8474H30.447V22.4568H30.4471Z" fill="#ACACAC"/>
<path d="M37.432 25.2578L37.2454 24.4832C37.1989 24.2967 37.1699 24.1047 37.1405 23.9184H37.0824L36.7913 25.2578H37.432ZM36.378 26.8474H34.6893L36.2147 22.4568H37.9792L39.5455 26.8474H37.8569L37.7113 26.2998H36.5061L36.378 26.8474Z" fill="#ACACAC"/>
<path d="M13.1301 26.8517L14.7845 26.852L13.1912 22.4687L11.9801 22.4685L11.7575 23.0785L13.1301 26.8517Z" fill="black"/>
<path d="M12.008 20.6035C11.5642 20.6035 11.2044 20.9632 11.2044 21.4073C11.2044 21.8509 11.5642 22.2109 12.008 22.2109C12.4519 22.2109 12.8116 21.8509 12.8116 21.4073C12.8116 20.9632 12.4519 20.6035 12.008 20.6035Z" fill="#E22E2F"/>
<path d="M8.45444 26.8517L10.9207 26.8515L9.68723 23.4657L8.45444 26.8517Z" fill="black"/>
<path d="M11.2005 26.8517L12.8549 26.852L11.2612 22.4687L10.0503 22.4685L9.82797 23.0785L11.2005 26.8517Z" fill="black"/>
</svg>
