<svg width="48" height="48" viewBox="0 0 48 48" fill="none" xmlns="http://www.w3.org/2000/svg">
<g clip-path="url(#clip0_0_24486)">
<path d="M22.2759 39.8572C22.1078 39.8395 21.538 39.7445 21.0097 39.6462C17.3611 38.9669 13.9358 36.9282 11.5902 34.0397C8.12706 29.7751 7.08953 24.0746 8.82671 18.8562C10.5296 13.7408 14.7593 9.78972 19.9617 8.45475C21.5096 8.05755 22.0414 7.99861 24.0662 8.00002C25.7183 8.00084 26.1269 8.02945 26.9829 8.20167C29.1456 8.63679 31.1023 9.44912 32.9442 10.6766C33.7787 11.2328 34.2979 11.6714 35.2471 12.6222C36.683 14.0604 37.4064 15.0421 38.2458 16.691C40.5811 21.2788 40.5848 26.5308 38.256 31.1532C37.4861 32.6812 36.7244 33.7506 35.5062 35.0136C32.8878 37.7283 29.6202 39.358 25.8587 39.8254C25.1701 39.9109 22.9717 39.9304 22.2759 39.8572L22.2759 39.8572ZM27.1287 39.1855C29.1961 38.7467 31.2991 37.8307 33.0173 36.6207C34.0826 35.8705 35.9485 34.0039 36.6858 32.9508C40.5078 27.4919 40.5159 20.3602 36.7063 14.9413C35.803 13.6566 33.9946 11.8973 32.694 11.0382C30.5087 9.59471 28.3237 8.77805 25.8331 8.4739C24.5953 8.32274 22.2142 8.40912 21.0202 8.64849C17.4242 9.36942 14.1997 11.3038 11.9419 14.0946C11.0725 15.1694 10.5734 15.9617 9.96202 17.2382C7.26159 22.876 8.17315 29.4462 12.3185 34.2225C14.492 36.7268 17.7713 38.6064 21.0241 39.2122C22.3776 39.4642 22.4041 39.466 24.3281 39.4363C25.8005 39.4135 26.2401 39.3741 27.1287 39.1855H27.1287ZM22.0139 38.5628C17.471 37.9389 13.3944 35.1732 11.1387 31.1845C9.27492 27.8887 8.76087 23.8072 9.74427 20.1124C11.0667 15.1437 14.9903 11.1392 19.897 9.75014C21.4643 9.30646 22.1146 9.22408 24.0225 9.22747C25.6227 9.22991 25.9296 9.25541 26.9132 9.464C29.7425 10.064 32.1262 11.3121 34.1545 13.2557C37.9485 16.8913 39.5462 22.1337 38.3945 27.1673C37.1639 32.5451 33.0219 36.8403 27.7462 38.2093C25.9585 38.6732 23.7912 38.8069 22.0139 38.5628ZM26.7662 34.9396C27.0453 34.9396 28.3278 34.4471 29.1749 34.0146C31.4165 32.8701 33.1867 31.037 34.2775 28.7305C34.6493 27.9445 35.1132 26.54 35.1132 26.2006C35.1132 26.0599 35.1995 26.0362 35.79 26.0139L36.4668 25.9884L35.8985 25.6928L35.3303 25.3971L35.3246 23.9899C35.3205 22.8863 35.2777 22.3897 35.1274 21.6889C34.0928 16.8658 30.3214 13.3571 25.4257 12.6631C24.4632 12.5267 22.5507 12.6123 21.5771 12.8353C20.0922 13.1756 18.531 13.8696 17.4063 14.6896C17.0846 14.9241 16.7861 15.116 16.743 15.116C16.6998 15.116 16.0559 14.7798 15.3121 14.369C14.5683 13.9582 13.9448 13.637 13.9266 13.6552C13.9083 13.6735 14.2267 14.2945 14.634 15.0353C15.0413 15.7761 15.375 16.4131 15.3756 16.4509C15.3763 16.4886 15.1818 16.7739 14.9435 17.0849C12.7712 19.919 12.0888 23.8034 13.1493 27.2983C13.3824 28.0666 13.9826 29.3533 14.4419 30.0696C16.6215 33.4679 20.4262 35.4318 24.5062 35.2644L25.645 35.2178L26.1218 36.0981L26.5985 36.9784L26.6231 35.959C26.6421 35.1719 26.6747 34.9396 26.766 34.9396L26.7662 34.9396ZM22.2405 34.1879C20.1555 33.8114 18.3584 32.9059 16.8509 31.4725C15.2306 29.9316 14.1288 27.9065 13.7599 25.791C13.5942 24.8413 13.5937 23.033 13.7587 22.0919C14.0104 20.6569 14.7044 19.0114 15.5322 17.8869L15.9172 17.3639L16.898 19.1436L17.8788 20.9233L18.5928 20.9487C18.9854 20.9626 19.3067 20.949 19.3067 20.9184C19.3067 20.8879 18.6965 19.9827 17.9506 18.907C17.2048 17.8313 16.575 16.9002 16.5511 16.838C16.5273 16.7757 16.6172 16.6199 16.7511 16.4917L16.9944 16.2586L20.5576 18.6128L24.1208 20.967L25.6654 20.9645C26.8986 20.9621 27.1817 20.9403 27.0696 20.8554C26.9924 20.7968 24.8605 19.6127 22.332 18.224C19.8036 16.8352 17.7348 15.6753 17.7348 15.6465C17.7348 15.5565 19.1493 14.6997 19.695 14.459C23.7348 12.6776 28.3226 13.5338 31.4075 16.6449C32.8127 18.0619 33.7616 19.8449 34.196 21.8843C34.3421 22.5703 34.4699 24.4522 34.3854 24.6725C34.3353 24.803 34.3072 24.8038 34.0712 24.6818C33.7462 24.5138 33.6286 24.5123 33.6286 24.6761C33.6286 24.7825 33.406 24.8089 32.3405 24.8289L31.0524 24.8531V25.4208V25.9884L32.6025 26.0123C33.9554 26.0331 34.1526 26.0539 34.1526 26.1759C34.1526 26.4502 33.5322 28.1633 33.2121 28.7731C32.2372 30.6302 30.5094 32.3136 28.6072 33.2599C28.087 33.5187 26.8818 33.979 26.7245 33.979C26.6755 33.979 26.6379 33.0521 26.6315 31.6866L26.6206 29.3942L26.3807 31.2718C26.2487 32.3045 26.1259 33.2476 26.1077 33.3677C26.0821 33.5369 25.8095 33.1005 24.8958 31.4275L23.7168 29.269L23.0744 29.2658C22.5573 29.2633 22.4411 29.2869 22.479 29.3857C22.5049 29.4533 23.0986 30.5558 23.7983 31.8358C24.498 33.1157 25.0704 34.2001 25.0704 34.2455C25.0704 34.3715 23.0277 34.3297 22.2404 34.1876L22.2405 34.1879ZM21.3681 28.2608C21.5387 28.1895 21.6521 28.091 21.6212 28.041C21.5904 27.9912 21.5286 27.9731 21.4839 28.0007C21.3744 28.0683 21.3805 28.0276 21.5348 27.6583C21.6304 27.4295 21.721 27.3416 21.8623 27.3406C22.1331 27.3389 22.7041 26.9971 22.9171 26.7099C23.0341 26.5521 23.0963 26.3292 23.1 26.0549C23.1048 25.6919 23.0813 25.6356 22.915 25.6119C22.8101 25.597 22.5979 25.6503 22.4432 25.7302C22.1859 25.8633 22.1554 25.8637 22.0837 25.7359C21.9844 25.5585 21.8036 25.5579 21.5345 25.7343C21.3574 25.8503 21.3396 25.899 21.4244 26.0349C21.5065 26.1663 21.4624 26.3861 21.1911 27.1968C20.9009 28.064 20.8535 28.3903 21.0176 28.3903C21.0403 28.3903 21.198 28.3322 21.3681 28.2612V28.2608ZM21.8137 26.9379C21.6818 26.806 22.3293 25.9447 22.5604 25.9447C22.6739 25.9447 22.5595 26.5461 22.3984 26.7962C22.2799 26.9803 21.9387 27.063 21.8137 26.9379ZM20.3741 27.1047C21.0926 26.7136 21.1026 26.3242 20.4063 25.8535C19.9934 25.5744 20.0049 25.3023 20.4313 25.2616C20.5935 25.2461 20.7684 25.2755 20.8199 25.3271C20.9708 25.478 21.1056 25.4361 21.2107 25.2056C21.3324 24.9383 21.2555 24.8828 20.7528 24.8752C20.3273 24.8686 19.8948 25.0824 19.6394 25.4251C19.4262 25.7111 19.4888 25.8577 19.9717 26.2045C20.2601 26.4116 20.3574 26.5365 20.3378 26.6742C20.3144 26.8378 20.2566 26.8609 19.8846 26.8555C19.5697 26.8506 19.4256 26.8052 19.3334 26.6808C19.2102 26.5145 19.207 26.5145 19.083 26.6816C18.8902 26.9419 18.9314 27.143 19.1976 27.2403C19.6032 27.3884 19.9194 27.3519 20.3741 27.1044L20.3741 27.1047ZM24.1345 27.2214C24.7717 26.948 25.235 26.2432 25.0382 25.8465C24.8903 25.5482 24.5315 25.5364 24.057 25.8144C23.5992 26.0828 23.3247 26.4816 23.3242 26.8792C23.3237 27.3107 23.6274 27.439 24.1345 27.2214V27.2214ZM23.8788 26.7728C23.8085 26.5894 24.0119 26.1312 24.2109 26.0247C24.5472 25.8447 24.6557 26.1789 24.4132 26.6477C24.2692 26.9262 23.965 26.9974 23.8788 26.7728ZM25.9142 26.7838C26.1564 26.1585 26.3381 25.9447 26.6272 25.9447C26.8414 25.9447 27.1663 25.7274 27.1663 25.584C27.1663 25.4954 26.6698 25.5751 26.3965 25.7076C26.2393 25.7839 26.1783 25.7796 26.1221 25.6887C26.0389 25.5541 25.7287 25.6083 25.4634 25.8039C25.2897 25.932 25.2897 25.9331 25.476 26.0042L25.6631 26.0757L25.4987 26.5997C25.3195 27.1706 25.3383 27.3705 25.5672 27.3264C25.6555 27.3094 25.7953 27.0909 25.9142 26.7838V26.7838ZM27.7558 27.1697C27.9599 27.077 28.1269 26.96 28.1269 26.9096C28.1269 26.7932 27.9881 26.7927 27.7719 26.9088C27.5543 27.0253 27.5462 26.842 27.7458 26.3192C27.8557 26.0316 27.9342 25.9451 28.0855 25.9451C28.1937 25.9451 28.375 25.8678 28.4884 25.7733L28.6946 25.6016L28.3693 25.5983C28.0624 25.5959 28.0485 25.5835 28.1235 25.3861C28.2868 24.9567 28.0086 25.0326 27.4792 25.562C27.262 25.7792 27.19 25.9054 27.2589 25.948C27.3342 25.9945 27.3122 26.1424 27.176 26.5067C27.0359 26.881 27.0128 27.0437 27.0815 27.1721C27.1942 27.3826 27.2876 27.3822 27.7558 27.1696V27.1697ZM29.4238 27.0794C29.8731 26.7539 29.8887 26.5367 29.4816 26.273C29.1133 26.0344 29.0872 25.9116 29.4203 25.9847C29.6044 26.0252 29.7073 25.9929 29.8317 25.8554C29.9734 25.6987 29.979 25.6603 29.8701 25.5914C29.6953 25.4809 29.5664 25.4881 29.2341 25.6269C28.5861 25.8977 28.4742 26.283 28.9603 26.5697C29.272 26.7537 29.3185 26.9268 29.0691 26.9752C28.9949 26.9896 28.8654 26.9326 28.7813 26.8485C28.6357 26.703 28.6207 26.7053 28.465 26.8975C28.1979 27.2274 28.2538 27.342 28.6815 27.342C28.9652 27.342 29.1532 27.2755 29.4238 27.0794L29.4238 27.0794ZM17.9968 25.6391V25.4208L17.0144 25.4281L16.0319 25.4354L16.8616 25.6387C17.9516 25.9059 17.9968 25.9059 17.9968 25.6387V25.6391ZM16.7062 23.3904L16.7306 22.2333L17.0245 23.3904L17.3185 24.5475H17.698C18.0626 24.5475 18.0808 24.5348 18.1651 24.22C18.2133 24.0399 18.3495 23.5388 18.4677 23.1066L18.6826 22.3206L18.6891 23.434L18.6954 24.5475H19.134H19.5726L19.5488 22.9101L19.5251 21.2727L18.8912 21.247C18.1559 21.2172 18.2164 21.145 17.8913 22.4403L17.7022 23.1939L17.5393 22.5389C17.4497 22.1787 17.3376 21.7366 17.2902 21.5565L17.2041 21.229H16.5525H15.9009V22.8882V24.5475H16.2914H16.6818L16.7062 23.3904ZM20.9354 24.2855C20.9874 24.0254 20.9922 24.0235 21.5773 24.0235C22.1624 24.0235 22.1672 24.0251 22.2192 24.2855C22.2704 24.5418 22.283 24.5475 22.7977 24.5475C23.1634 24.5475 23.3222 24.5141 23.3184 24.4383C23.3153 24.3783 23.05 23.6414 22.7287 22.8009L22.1445 21.2727H21.5905H21.0364L20.4336 22.8794C20.102 23.7631 19.8307 24.4999 19.8307 24.5168C19.8307 24.5337 20.0675 24.5475 20.3569 24.5475C20.8716 24.5475 20.8842 24.5418 20.9354 24.2855V24.2855ZM21.3417 22.9974C21.4255 22.5801 21.5941 22.2202 21.6383 22.3643C21.6604 22.4363 21.7319 22.6623 21.7972 22.8664L21.916 23.2375H21.6047C21.3117 23.2375 21.2963 23.2234 21.3417 22.9974ZM25.1578 23.3249V22.1023H25.6865H26.2153L26.1887 21.6875L26.1621 21.2727L24.6556 21.2488L23.1492 21.2249V21.6636V22.1023H23.6295H24.1098V23.3249V24.5475H24.6338H25.1578L25.1578 23.3249ZM27.6903 23.8861C27.6903 23.3033 27.7084 23.2282 27.8431 23.2542C27.9281 23.2705 28.148 23.5651 28.3386 23.918L28.6813 24.5525L29.7757 24.5281C30.8629 24.5039 30.8705 24.5023 30.9213 24.2854C30.9686 24.0832 31.015 24.0652 31.5505 24.0415L32.1285 24.0158L32.1869 24.2816C32.2445 24.5441 32.2523 24.5474 32.8047 24.5474H33.3641L33.2029 24.1326C33.1142 23.9045 32.8528 23.2069 32.6218 22.5825C32.3909 21.9581 32.1644 21.3981 32.1186 21.3381C32.069 21.2731 31.8321 21.2289 31.5327 21.2289H31.03L30.4185 22.8622L29.807 24.4955L29.5689 24.0193C29.4379 23.7574 29.2294 23.4351 29.1055 23.303C28.9816 23.1709 28.9215 23.0628 28.972 23.0628C29.1309 23.0628 29.5028 22.6316 29.548 22.3949C29.5719 22.27 29.5545 22.0352 29.5101 21.8732C29.382 21.4094 29.0602 21.2945 27.7557 21.2466L26.6423 21.2057V22.8765V24.5474H27.1663H27.6903L27.6903 23.8861ZM31.2708 23.1658C31.2708 23.1263 31.3362 22.902 31.4161 22.6674L31.5615 22.2408L31.6656 22.5427C31.9192 23.2776 31.924 23.2375 31.5823 23.2375C31.411 23.2375 31.2708 23.2053 31.2708 23.1658V23.1658ZM27.6903 22.2333C27.6903 21.9742 27.7202 21.9278 27.8868 21.9288C28.2126 21.9304 28.4612 22.0244 28.5154 22.1656C28.5981 22.3812 28.3926 22.5389 28.0289 22.5389C27.7001 22.5389 27.6903 22.53 27.6903 22.2333ZM15.7256 15.7064C15.4369 15.2722 15.4374 15.2565 15.734 15.4442C16.0267 15.6296 16.1176 15.8152 15.9439 15.8731C15.8955 15.8892 15.7973 15.8142 15.7256 15.7064H15.7256Z" fill="#000080"/>
</g>
<defs>
<clipPath id="clip0_0_24486">
<rect width="32" height="31.9024" fill="white" transform="translate(8 8)"/>
</clipPath>
</defs>
</svg>
