<svg width="48" height="48" viewBox="0 0 48 48" fill="none" xmlns="http://www.w3.org/2000/svg">
<g clip-path="url(#clip0_0_24492)">
<path d="M12.7232 26.6171H14.2574V23.4198H13.3673C12.9909 23.4198 12.7376 23.5943 12.4771 23.8244C12.1949 24.0941 11.1744 25.0621 11.1744 25.0621V23.4277H10.2698C9.756 23.4277 9.49547 23.6261 9.21322 23.872C9.01059 24.0307 6 26.6171 6 26.6171H7.82372L9.63297 24.9827V26.6171H11.1021L12.7232 25.0065V26.6171ZM16.0739 26.6171H18.5562V25.792H16.5226C16.3344 25.792 16.1318 25.665 16.1318 25.2604V25.2049C16.1318 24.8479 16.2982 24.6971 16.5153 24.6971H18.5562V23.8641H16.0232C14.9883 23.8641 14.5758 24.356 14.5758 25.1176V25.3715C14.5758 26.2601 15.0245 26.6171 16.0739 26.6171H16.0739ZM21.6174 26.6171V25.7761H20.4306V23.4277H18.8891V26.625H21.6174V26.6171ZM24.5991 25.546C24.5991 25.7047 24.5412 25.7999 24.3675 25.7999H23.5352C23.3905 25.7999 23.2964 25.7523 23.2964 25.6333C23.2964 25.5063 23.3543 25.4349 23.5352 25.4349H24.5991V25.546ZM26.1333 25.546V24.9431C26.1333 24.2528 25.7208 23.8641 24.8379 23.8641H22.0878V24.6574H24.2951C24.5195 24.6574 24.5991 24.7368 24.5991 24.9272V24.9589H22.8405C22.1023 24.9589 21.8418 25.3001 21.8418 25.7444V25.8316C21.8386 25.9192 21.8517 26.0066 21.8803 26.0884C21.9089 26.1702 21.9525 26.2448 22.0082 26.3077C22.2253 26.5298 22.6378 26.6012 23.1951 26.6012H24.7221C25.7208 26.6171 26.1333 26.3711 26.1333 25.546H26.1333ZM28.0077 24.6971H28.9702V23.8641H27.0017C26.6833 23.8641 26.4807 24.0465 26.4807 24.356V26.6171H28.0222V24.6971H28.0077ZM31.9808 24.8479C31.9808 24.9669 31.9301 25.0383 31.7564 25.0383H30.6637V24.9272C30.6637 24.7685 30.7216 24.6733 30.9025 24.6733H31.742C31.8795 24.6733 31.9808 24.7209 31.9808 24.8479H31.9808ZM33.4354 24.7844V24.6733C33.4354 24.2211 33.2038 23.872 32.1255 23.872H30.5406C29.5419 23.872 29.1294 24.2449 29.1294 25.0541V25.5302C29.1294 26.2204 29.5419 26.6171 30.4321 26.6171H33.2473V25.8158H30.9676C30.7433 25.8158 30.6637 25.7444 30.6637 25.554V25.5302H32.4295C33.0519 25.5222 33.4354 25.3001 33.4354 24.7844H33.4354ZM37.8283 26.6171V25.0779C37.8283 24.118 37.4085 23.8641 36.1638 23.8641H33.7249V26.6171H35.2664V24.7606H35.6789C36.1421 24.7606 36.294 25.0541 36.294 25.3715V26.625H37.8283L37.8283 26.6171Z" fill="black"/>
<path d="M40.7014 21C39.9198 21 38.798 21.2539 37.5822 21.7378C36.5043 22.1702 35.4709 22.726 34.4993 23.396C35.4311 23.0166 36.4147 22.8127 37.4085 22.793C38.7836 22.793 39.7823 23.3722 38.3276 25.4111C42.6192 22.3408 42.4961 21 40.7014 21Z" fill="black"/>
</g>
<defs>
<clipPath id="clip0_0_24492">
<rect width="36" height="5.625" fill="white" transform="translate(6 21)"/>
</clipPath>
</defs>
</svg>
