<svg width="48" height="48" viewBox="0 0 48 48" fill="none" xmlns="http://www.w3.org/2000/svg">
<g clip-path="url(#clip0_0_24505)">
<path d="M19.1401 22.5569V26.3105H16.5147C15.7646 26.3105 15.2546 25.9106 15.2546 25.0687V22.5569H16.5069V25.029C16.5069 25.1134 16.5358 25.1656 16.6619 25.1656H17.8878V22.5569H19.1401Z" fill="#2056AE"/>
<path d="M13.6241 22.5571C14.3741 22.5571 14.8842 22.8603 14.8842 23.7022V26.3106H13.6318V23.8494C13.6318 23.765 13.6029 23.7128 13.4768 23.7128H12.4632V26.3106H11.2012V23.8722C11.2012 23.7877 11.1727 23.7128 11.0467 23.7128H10.033V26.3106H8.7807V22.5539L11.1939 22.5571H13.6241Z" fill="#2056AE"/>
<path d="M23.8374 26.3106L22.4804 26.3105C21.7302 26.3105 21.2203 25.9106 21.2203 25.0687V21.4059H22.4726V22.5539H23.8374V23.6988H22.4726V25.0383C22.4726 25.1229 22.4989 25.1656 22.6248 25.1656H23.8374V26.3106Z" fill="#2056AE"/>
<path d="M19.5832 26.3106H20.8355V21.4059H19.5832V26.3106Z" fill="#2056AE"/>
<path d="M24.1251 26.3106H25.3773V22.5539H24.1251V26.3106Z" fill="#2056AE"/>
<path d="M24.1251 22.0321H25.3773V21.1972H24.1251V22.0321Z" fill="#2056AE"/>
<path d="M28.79 26.3106L26.991 26.3105C26.241 26.3105 25.731 25.9106 25.731 25.0687V23.7958C25.731 22.9539 26.241 22.5539 26.991 22.5539H28.79V23.6988H27.1355C27.0096 23.6988 26.9833 23.7415 26.9833 23.826V25.0383C26.9833 25.1229 27.0096 25.1656 27.1355 25.1656H28.79V26.3106Z" fill="#2056AE"/>
<path d="M31.703 26.3106L30.346 26.3105C29.5958 26.3105 29.0859 25.9106 29.0859 25.0687V23.7958C29.0859 22.9539 29.5958 22.5539 30.346 22.5539H33.2235V26.3106H31.9711V23.6988H30.4904C30.3645 23.6988 30.3382 23.7415 30.3382 23.826V25.0383C30.3382 25.1229 30.3645 25.1656 30.4904 25.1656H31.703V26.3106Z" fill="#2056AE"/>
<path d="M35.7349 22.5539H34.5987C33.944 22.5539 33.5594 22.8816 33.5594 23.5749V26.3106H34.8117V23.826C34.8117 23.7415 34.8381 23.6988 34.964 23.6988H35.7349V22.5539Z" fill="#2056AE"/>
<path d="M8.7807 26.8971L8.22635 27.7715H36.1873L39.7736 22.5539H38.521L35.5338 26.8971H8.7807Z" fill="#F46717"/>
</g>
<defs>
<clipPath id="clip0_0_24505">
<rect width="32" height="6.96875" fill="white" transform="translate(8 21)"/>
</clipPath>
</defs>
</svg>
