<svg width="48" height="48" viewBox="0 0 48 48" fill="none" xmlns="http://www.w3.org/2000/svg">
<g clip-path="url(#clip0_0_24517)">
<path d="M26.6479 25.4572C26.6225 25.4635 26.521 25.4635 26.4765 25.4635H23.2003V26.2254H26.5337C26.5591 26.2254 26.7559 26.2254 26.794 26.2191C27.4733 26.1556 27.7845 25.5905 27.7845 25.0953C27.7845 24.5873 27.4606 24.0413 26.8448 23.9842C26.7241 23.9715 26.6225 23.9715 26.5781 23.9715H24.4003C24.3051 23.9715 24.1971 23.9651 24.159 23.9524C23.9876 23.908 23.9241 23.7556 23.9241 23.6286C23.9241 23.5143 23.9876 23.3619 24.1654 23.3111C24.2162 23.2985 24.2733 23.2921 24.394 23.2921H27.5368V22.5429H24.3432C24.2098 22.5429 24.1083 22.5492 24.0257 22.5619C23.4797 22.6381 23.0987 23.0762 23.0987 23.635C23.0987 24.0921 23.3844 24.6254 24.013 24.7143C24.1273 24.727 24.286 24.727 24.3559 24.727H26.4765C26.5146 24.727 26.6098 24.727 26.6289 24.7334C26.8702 24.7651 26.9527 24.9429 26.9527 25.1016C26.9527 25.254 26.8575 25.4191 26.6479 25.4572Z" fill="black"/>
<path d="M20.4384 25.4572C20.413 25.4635 20.3114 25.4635 20.2733 25.4635H16.9907V26.2254H20.3241C20.3495 26.2254 20.5463 26.2254 20.5844 26.2191C21.2638 26.1556 21.5749 25.5905 21.5749 25.0953C21.5749 24.5873 21.2511 24.0413 20.6352 23.9842C20.5146 23.9715 20.413 23.9715 20.3685 23.9715H18.1908C18.0955 23.9715 17.9876 23.9651 17.9495 23.9524C17.7781 23.908 17.7146 23.7556 17.7146 23.6286C17.7146 23.5143 17.7781 23.3619 17.9558 23.3111C18.0066 23.2985 18.0638 23.2921 18.1844 23.2921H21.3273V22.5429H18.1336C18.0003 22.5429 17.8987 22.5492 17.8161 22.5619C17.2701 22.6381 16.8892 23.0762 16.8892 23.635C16.8892 24.0921 17.1749 24.6254 17.8034 24.7143C17.9177 24.727 18.0765 24.727 18.1463 24.727H20.2669C20.305 24.727 20.4003 24.727 20.4193 24.7334C20.6606 24.7651 20.7431 24.9429 20.7431 25.1016C20.7431 25.254 20.6543 25.4191 20.4384 25.4572Z" fill="black"/>
<path d="M15.2828 22.5175H14.4574V26.2445H15.2828V22.5175Z" fill="black"/>
<path d="M12.6352 26.2445V22.5175H11.8098V25.2985L9.06057 22.5175H8.00024V26.2445H8.82564V23.4508L11.5939 26.2445H12.6352Z" fill="black"/>
<path d="M39.1813 22.5175V25.2985L36.4321 22.5175H35.3718V26.2445H36.1972V23.4508L38.9591 26.2445H40.0004V22.5175H39.1813Z" fill="black"/>
<path d="M31.0733 22.5175L28.7495 26.2445H29.7527L30.1654 25.5778H32.8765L33.2892 26.2445H34.286L31.9622 22.5175H31.0733ZM32.4511 24.8731H30.5908L31.5241 23.3746L32.4511 24.8731Z" fill="black"/>
<path d="M12.5907 20.4032C14.2542 15.546 18.8384 12.2825 24.0067 12.2825C29.1749 12.2825 33.7654 15.546 35.4226 20.4032L35.4353 20.4413H39.0734V20.0032L37.5623 19.8254C36.6289 19.7175 36.4321 19.3048 36.1781 18.7842L36.1146 18.6572C33.9305 14.0095 29.1749 11 24.0067 11C18.832 11 14.0828 14.0095 11.8987 18.6699L11.8352 18.7969C11.5812 19.3175 11.3844 19.7302 10.4511 19.8381L8.93994 20.0159V20.454H12.5717L12.5907 20.4032Z" fill="black"/>
<path d="M35.4353 28.327L35.4226 28.3651C33.7591 33.2223 29.1749 36.4795 24.0067 36.4795C18.8384 36.4795 14.2479 33.216 12.5907 28.3588L12.578 28.3207H8.94629V28.7588L10.4574 28.9366C11.3907 29.0445 11.5876 29.4572 11.8415 29.9778L11.905 30.1048C14.0892 34.7652 18.8447 37.7747 24.013 37.7747C29.1813 37.7747 33.9369 34.7652 36.121 30.1112L36.1845 29.9842C36.4385 29.4636 36.6353 29.0509 37.5686 28.9429L39.0797 28.7651V28.327H35.4353Z" fill="black"/>
</g>
<defs>
<clipPath id="clip0_0_24517">
<rect width="32" height="26.7747" fill="white" transform="translate(8 11)"/>
</clipPath>
</defs>
</svg>
