<svg width="48" height="48" viewBox="0 0 48 48" fill="none" xmlns="http://www.w3.org/2000/svg">
<path d="M24.0003 35.4255C17.9388 35.4255 13.0072 30.4939 13.0072 24.4325C13.0072 24.1197 13.0233 23.8104 13.0501 23.5048L22.2397 24.0786L18.2625 26.8278C18.2089 26.8653 18.1731 26.9279 18.1731 26.9976C18.1731 27.112 18.2661 27.2067 18.3805 27.2067H34.6396C33.4063 31.9292 29.1035 35.4257 24.0003 35.4257M24.0003 13.4392C30.0636 13.4392 34.9934 18.3708 34.9934 24.4322C34.9934 24.7433 34.9773 25.0508 34.9523 25.3546H34.9469L25.7573 24.7701L29.7452 22.037C29.8006 21.9994 29.8346 21.9369 29.8346 21.8671C29.8346 21.751 29.7417 21.658 29.6273 21.658H13.3626C14.5942 16.9355 18.8969 13.439 24.0001 13.439M39.7605 25.6602L36.7521 25.469L36.3892 25.4457C36.416 25.1115 36.4339 24.7736 36.4339 24.4322C36.4339 17.5773 30.8566 12 23.9999 12C18.0977 12 13.1478 16.1346 11.8825 21.6578H9.13509C8.97958 21.6578 8.84194 21.731 8.75435 21.8454L8.05184 22.8161C8.01967 22.8572 8 22.909 8 22.9644C8 23.0967 8.10725 23.204 8.24131 23.204L11.2372 23.3899L11.6126 23.4149C11.5858 23.751 11.5679 24.0888 11.5679 24.432C11.5679 31.2869 17.1452 36.8661 24.0001 36.8661C29.9023 36.8661 34.854 32.7297 36.1175 27.2065H38.8667C39.0222 27.2065 39.1599 27.1332 39.2474 27.0188L39.9499 26.0481C39.9821 26.0071 40 25.9552 40 25.8998C40 25.7675 39.8927 25.6603 39.7605 25.6603" fill="black"/>
</svg>
