<svg width="48" height="48" viewBox="0 0 48 48" fill="none" xmlns="http://www.w3.org/2000/svg">
<path d="M37.2479 21.0007H33.4942C33.4138 20.9984 33.3428 20.9478 33.3142 20.8727L32.495 18.7029C31.4589 16.135 30.0193 13.758 26.5279 13.758L17.9455 13.7578C14.654 13.7535 13.2208 15.943 12.3431 17.8512C12.1555 18.2598 12.3349 18.7432 12.7435 18.9307C13.1522 19.1182 13.6353 18.9391 13.8228 18.5304C14.8644 16.264 16.0198 15.3842 17.9454 15.3842H20.0413V21.0039H9.85536C9.24557 21.0045 8.66072 21.2461 8.22849 21.6761C7.79622 22.1063 7.55151 22.6897 7.54785 23.2996V29.4172C7.5508 30.0295 7.79849 30.6154 8.23552 31.0445C8.66801 31.4675 9.2483 31.7056 9.85309 31.7084H12.5654C12.8099 32.8585 13.5705 33.8318 14.6273 34.3473C15.6841 34.8627 16.9194 34.8627 17.9762 34.3473C19.033 33.8318 19.7936 32.8585 20.0381 31.7084H27.3634C27.6073 32.859 28.3676 33.8329 29.4246 34.3487C30.4815 34.8643 31.7172 34.8643 32.774 34.3487C33.8311 33.8329 34.5914 32.859 34.8352 31.7084H37.2219C37.8319 31.6998 38.4166 31.4623 38.8602 31.0434C39.297 30.6144 39.5447 30.0286 39.5479 29.4161V23.2973C39.544 22.6888 39.3002 22.1066 38.8697 21.6765C38.439 21.2465 37.8565 21.0039 37.2478 21.0007L37.2479 21.0007ZM18.5085 30.899C18.5103 31.4829 18.2803 32.0434 17.8687 32.4573C17.4571 32.8712 16.8977 33.1046 16.314 33.1057C15.7304 33.107 15.17 32.8761 14.7566 32.4639C14.3432 32.0518 14.1107 31.4922 14.1103 30.9085C14.1098 30.3248 14.3414 29.7647 14.7541 29.352C15.1669 28.939 15.7267 28.7072 16.3104 28.7074H16.3158C16.8966 28.7081 17.4535 28.9388 17.8644 29.3492C18.2753 29.7595 18.5069 30.3162 18.5085 30.8969L18.5085 30.899ZM33.3063 30.899C33.3081 31.4829 33.0781 32.0434 32.6665 32.4573C32.2549 32.8712 31.6955 33.1046 31.1118 33.1057C30.5281 33.107 29.9678 32.8761 29.5544 32.4639C29.1409 32.0518 28.9085 31.4922 28.908 30.9085C28.9076 30.3248 29.1391 29.7647 29.5519 29.352C29.9646 28.939 30.5244 28.7072 31.1081 28.7074C31.6893 28.7079 32.2467 28.9385 32.6578 29.3492C33.069 29.7599 33.3006 30.3168 33.3017 30.898L33.3063 30.899ZM37.9247 29.4052H37.9245C37.9238 29.5863 37.8502 29.7595 37.7206 29.8858C37.5882 30.0109 37.4134 30.081 37.2314 30.0821H34.8446C34.6601 29.2315 34.1899 28.4696 33.512 27.9233C32.8341 27.3771 31.9895 27.0794 31.1191 27.0801H31.1104C30.3513 27.0783 29.6089 27.3031 28.9782 27.7255C28.3475 28.148 27.8573 28.749 27.5703 29.4518C27.4866 29.6575 27.4212 29.8703 27.3751 30.0876H20.0422C19.8576 29.2369 19.3872 28.475 18.7095 27.9287C18.0316 27.3825 17.1871 27.0848 16.3166 27.0855H16.3089C15.5511 27.0842 14.8098 27.3085 14.1796 27.7298C13.5496 28.1514 13.0592 28.7508 12.7711 29.4518C12.6883 29.6578 12.6233 29.8705 12.577 30.0876H9.86471C9.68264 30.098 9.50555 30.0265 9.38182 29.8923C9.25333 29.7674 9.17999 29.5963 9.17795 29.4171V23.3047C9.17932 23.1238 9.25288 22.9508 9.38182 22.8241C9.51713 22.7042 9.68968 22.6348 9.87016 22.6277H27.6517C28.1013 22.6277 28.4654 22.2634 28.4654 21.8141C28.4654 21.3645 28.1013 21.0004 27.6517 21.0004H21.6684V15.3806H26.5234C28.9265 15.3806 29.9765 16.8202 30.9715 19.2861L31.784 21.4429H31.7838C31.9157 21.7893 32.1495 22.0876 32.4544 22.2983C32.7591 22.509 33.1208 22.6223 33.4915 22.6234H37.2397C37.6128 22.6227 37.9167 22.922 37.9222 23.295L37.9247 29.4052Z" fill="black" fill-opacity="0.5"/>
<path d="M24.7558 23.7973H23.415C22.9654 23.7973 22.6013 24.1617 22.6013 24.611C22.6013 25.0605 22.9654 25.4247 23.415 25.4247H24.7558C25.2051 25.4247 25.5694 25.0605 25.5694 24.611C25.5694 24.1617 25.2051 23.7973 24.7558 23.7973Z" fill="black" fill-opacity="0.5"/>
</svg>
