<svg width="48" height="48" viewBox="0 0 48 48" fill="none" xmlns="http://www.w3.org/2000/svg">
<g clip-path="url(#clip0_0_24716)">
<mask id="mask0_0_24716" style="mask-type:alpha" maskUnits="userSpaceOnUse" x="8" y="6" width="32" height="36">
<path d="M40 41.2052H8.00003V6.00519H40V41.2052Z" fill="black"/>
</mask>
<g mask="url(#mask0_0_24716)">
<path fill-rule="evenodd" clip-rule="evenodd" d="M23.2832 40.788C18.8091 38.7069 14.9231 35.2963 12.3406 31.1857C9.76437 27.0871 8.41045 22.3401 8.0792 16.2454C7.9737 14.301 7.9737 11.8757 8.07863 8.83201L8.12627 7.44292L9.49722 7.2132C14.3213 6.40833 19.201 5.99994 24.0002 5.99994C28.7993 5.99994 33.6785 6.40833 38.502 7.2132L39.8729 7.44292L39.9212 8.83201C40.0267 11.8762 40.0267 14.3016 39.9206 16.2454C39.5888 22.3401 38.2354 27.0871 35.6592 31.1857C33.0772 35.2963 29.1901 38.7069 24.7166 40.788L24.0002 41.1209L23.2832 40.788Z" fill="black"/>
</g>
<path fill-rule="evenodd" clip-rule="evenodd" d="M24.0001 7.00137C19.162 7.00137 14.1401 7.41303 9.04299 8.28962C8.96689 10.3257 8.88016 13.4729 9.02587 16.1435C9.35038 22.0979 10.6658 26.7195 13.1657 30.6881C15.6581 34.6452 19.518 38.0477 24.0001 40.0685C28.4823 38.0477 32.3417 34.6452 34.8341 30.6881C37.3344 26.7195 38.6494 22.0979 38.9742 16.1435C39.1193 13.4729 39.033 10.3257 38.9569 8.28962C33.8598 7.41303 28.8382 7.00137 24.0001 7.00137ZM24.0001 7.575C28.7693 7.575 33.6118 7.97913 38.3994 8.77675C38.5045 11.7973 38.5044 14.2007 38.4 16.1125C38.0809 21.9654 36.7935 26.5002 34.3475 30.3831C31.9018 34.2657 28.2342 37.4728 24.0001 39.4377C19.7657 37.4728 16.0984 34.2657 13.6527 30.3831C11.2067 26.5002 9.91896 21.9654 9.60024 16.1125C9.49582 14.2007 9.49576 11.7973 9.60087 8.77675C14.3884 7.97913 19.2306 7.575 24.0001 7.575Z" fill="white"/>
<path fill-rule="evenodd" clip-rule="evenodd" d="M13.9939 10.3071C13.9469 10.306 13.8969 10.3082 13.844 10.3136C13.1356 10.3875 12.4282 10.4688 11.7215 10.558V12.6451C11.844 12.6295 11.9669 12.6145 12.0894 12.5995V11.9537C12.6736 11.8823 13.2588 11.8162 13.844 11.7552C14.2671 11.7113 14.5036 11.5347 14.5036 11.0976V10.8614C14.5036 10.4875 14.3226 10.3152 13.9939 10.3071ZM13.9532 10.639C14.0485 10.6291 14.144 10.7013 14.144 10.797V11.2197C14.144 11.3106 14.0485 11.3975 13.9532 11.4077C13.3315 11.4714 12.7101 11.5415 12.0894 11.6171V10.8487C12.7101 10.7728 13.3315 10.703 13.9532 10.639Z" fill="white"/>
<path fill-rule="evenodd" clip-rule="evenodd" d="M23.3213 9.78952C23.9836 9.78475 24.646 9.78713 25.308 9.79599V10.1323C24.6002 10.1231 23.8922 10.1211 23.1841 10.1269C23.0882 10.1279 22.9923 10.2106 22.9923 10.3063V11.3521C22.9923 11.4477 23.0882 11.5424 23.1841 11.5413C23.8191 11.5359 24.4538 11.5369 25.0889 11.5441V10.98C24.7203 10.9759 24.3518 10.9739 23.9836 10.9742V10.6375C24.4723 10.6375 24.9609 10.6413 25.4496 10.6484V11.8852C24.763 11.875 24.0764 11.8722 23.3899 11.8763C22.8872 11.8797 22.6316 11.7933 22.6316 11.3065V10.3968C22.6316 9.94237 22.8599 9.79293 23.3213 9.78952V9.78952Z" fill="white"/>
<path fill-rule="evenodd" clip-rule="evenodd" d="M30.4946 10.0078C30.0987 10.0089 29.9206 10.1338 29.9206 10.5434V11.4754C29.9206 11.9714 30.1761 12.0682 30.6777 12.1019C31.1384 12.1332 31.5984 12.1678 32.0587 12.2056C32.5553 12.2465 32.815 12.162 32.815 11.6933V10.7613C32.815 10.2836 32.5143 10.156 32.0587 10.1185C31.5984 10.0804 31.1384 10.046 30.6777 10.0144C30.6122 10.01 30.5512 10.0076 30.4946 10.0078ZM30.4727 10.3374C31.0703 10.3765 31.667 10.4215 32.2639 10.4719C32.3594 10.4801 32.455 10.5702 32.455 10.6791V11.7118C32.455 11.8071 32.3594 11.8946 32.2639 11.8864C31.667 11.836 31.0703 11.791 30.4727 11.7515C30.3632 11.744 30.2809 11.6437 30.2809 11.548V10.5158C30.2809 10.4065 30.3632 10.3299 30.4727 10.3374Z" fill="white"/>
<path fill-rule="evenodd" clip-rule="evenodd" d="M21.7278 9.81348V11.3233C21.7278 11.8009 21.4763 11.9057 20.9696 11.9214C20.5284 11.935 20.0871 11.9513 19.6459 11.9711C19.1757 11.9922 18.8884 11.903 18.8884 11.4302V9.92037L19.2487 9.90199V11.4754C19.2487 11.5711 19.331 11.649 19.4401 11.6439C20.0185 11.617 20.5966 11.5953 21.175 11.5786C21.2849 11.5755 21.3579 11.4918 21.3579 11.3961V9.82267C21.4811 9.81926 21.6043 9.8162 21.7278 9.81348V9.81348Z" fill="white"/>
<path fill-rule="evenodd" clip-rule="evenodd" d="M26.3515 9.81531C27.2401 9.83641 28.1284 9.86978 29.0166 9.91539V10.2517C28.2488 10.2126 27.4807 10.1823 26.7122 10.1612V10.6749C27.3957 10.6939 28.0789 10.7198 28.7617 10.7528V11.0895C28.0789 11.0565 27.3957 11.0303 26.7122 11.0116V11.5753C27.4807 11.5964 28.2488 11.6267 29.0166 11.6662V12.0025C28.1284 11.9573 27.2401 11.9239 26.3515 11.9025V9.81531Z" fill="white"/>
<path fill-rule="evenodd" clip-rule="evenodd" d="M17.9844 9.97162V10.308C17.2169 10.3553 16.4498 10.4114 15.6834 10.4765V10.9905C16.3652 10.9323 17.0473 10.8816 17.7298 10.838V11.1747C17.0473 11.2183 16.3652 11.269 15.6834 11.3268V11.8909C16.4498 11.8256 17.2169 11.7694 17.9844 11.7224V12.0588C17.0968 12.1132 16.2099 12.18 15.3234 12.2586V10.1711C16.2099 10.0925 17.0968 10.0261 17.9844 9.97162Z" fill="white"/>
<path fill-rule="evenodd" clip-rule="evenodd" d="M33.4827 10.2459C34.4157 10.3365 35.3479 10.4406 36.2785 10.5577V10.8944C35.8762 10.8437 35.4732 10.7954 35.0698 10.7497V12.5005C34.9473 12.4866 34.8248 12.473 34.7016 12.4593V10.7085C34.2959 10.664 33.8891 10.6221 33.4827 10.5826V10.2459Z" fill="white"/>
<path fill-rule="evenodd" clip-rule="evenodd" d="M21.1388 14.24C22.8518 14.0899 25.1699 14.049 27.3842 14.2162C27.5101 14.2257 27.6326 14.2553 27.749 14.3044C28.4744 14.6087 29.7616 15.2746 31.1927 16.0913C31.2559 16.1273 31.3152 16.1696 31.3698 16.2176C31.7489 16.5508 32.7095 17.5313 32.7095 17.5313L32.4099 17.472C32.368 17.4638 32.3287 17.4475 32.2932 17.4237C31.6872 17.0176 30.8024 16.4889 30.0608 16.1161C29.9728 16.0722 29.8776 16.0439 29.7797 16.0337C29.419 15.9953 28.9313 15.9616 28.6123 15.9486C28.455 15.9422 28.3478 15.9159 28.1939 15.838C27.8998 15.6892 27.1873 15.3668 26.8324 15.2317C26.6805 15.1738 26.6031 15.1602 26.4543 15.1626C25.8445 15.1714 24.4553 15.2157 23.7459 15.2596C23.7213 15.261 23.6978 15.2599 23.6739 15.2562L23.3357 15.2034C24.2946 15.0387 26.6648 14.8279 27.6459 14.7765L27.2467 14.6434C27.1695 14.6179 27.0893 14.6043 27.0078 14.6022C26.7948 14.5972 26.3212 14.5877 25.7064 14.5869L25.4964 14.587C24.5652 14.5888 23.3672 14.6116 22.2622 14.6945C22.1656 14.7016 22.0714 14.7248 21.9827 14.7639C21.5364 14.9595 20.448 15.5482 19.3564 16.1529L19.114 16.2874C18.8318 16.4442 18.5526 16.6003 18.2874 16.7489C18.2874 16.7489 18.4236 16.5743 18.4499 16.5403C18.4731 16.5107 18.4802 16.5052 18.5116 16.4848C18.5555 16.4561 18.7053 16.3577 18.8562 16.2578L18.9681 16.1837C19.0587 16.1235 19.1396 16.0695 19.1852 16.0381C19.2078 16.0228 19.2221 16.0119 19.2504 15.9908C19.579 15.7437 20.0977 15.3079 20.4069 15.038C20.4768 14.977 20.5362 14.9062 20.585 14.8273C20.685 14.6659 20.7942 14.4909 20.8614 14.3939C20.9187 14.3098 21.0167 14.2509 21.1388 14.24V14.24Z" fill="white"/>
<path fill-rule="evenodd" clip-rule="evenodd" d="M21.9687 15.8913C22.008 15.891 22.0325 15.9332 22.0131 15.9669L21.1852 17.3888C21.1392 17.4726 21.062 17.5349 20.9706 17.5624L19.4183 18.0469C19.2381 18.1013 19.0859 18.1306 18.8982 18.1449C18.5539 18.1708 17.5312 18.2028 17.5312 18.2028L17.5538 18.1544C17.5643 18.1316 17.5831 18.1136 17.6063 18.1037L18.0902 17.8988C18.1264 17.8835 18.1581 17.86 18.1823 17.8297L18.9296 16.9119C18.9696 16.8629 19.0218 16.8159 19.0774 16.7866C19.5712 16.5276 20.4492 16.1384 21.0641 15.9335C21.1221 15.9141 21.2002 15.9019 21.2613 15.9012L21.9687 15.8913Z" fill="white"/>
<path fill-rule="evenodd" clip-rule="evenodd" d="M18.1053 18.4461C18.1378 18.4434 18.1685 18.4615 18.1811 18.4911C18.2238 18.5901 18.2121 18.7008 18.1709 18.7954C18.1548 18.8339 18.1053 18.8713 18.0647 18.8802L17.7252 18.9554C17.7047 18.9598 17.686 18.9435 17.6873 18.9227L17.7191 18.5251C17.7215 18.4982 17.7426 18.4768 17.7696 18.4747L18.1053 18.4461Z" fill="white"/>
<path fill-rule="evenodd" clip-rule="evenodd" d="M25.6348 16.7671C25.6857 16.7582 25.7379 16.7654 25.7846 16.7875L26.1392 16.9567C26.174 16.9734 26.1996 17.005 26.2088 17.0432C26.2569 17.2454 26.3159 17.5133 26.3555 17.741C26.3716 17.8357 26.3538 17.9324 26.3057 18.0158C26.159 18.2701 25.8577 18.7276 25.6891 18.9734C25.6515 19.0285 25.6471 19.0953 25.6587 19.161C25.7352 19.5824 26.0539 21.0541 26.0539 21.0541L25.8532 20.8719C25.8133 20.8352 25.787 20.7964 25.77 20.7456C25.6273 20.3293 25.3605 19.4595 25.2376 19.0364C25.2178 18.9666 25.2329 18.892 25.2789 18.8365C25.4881 18.5833 25.7928 18.1782 25.9709 17.9215C26.0208 17.8493 26.0371 17.7696 26.0078 17.7101C25.9669 17.6263 25.8979 17.499 25.8317 17.3836C25.814 17.3516 25.7843 17.3278 25.7491 17.3162L25.5086 17.2393C25.4666 17.226 25.4216 17.2267 25.3799 17.2416C24.8558 17.4313 24.1508 17.7046 23.7195 17.883C23.6563 17.9092 23.6304 17.9113 23.554 17.8997C23.4291 17.8813 23.0653 17.8163 22.8868 17.7829C22.8548 17.7768 22.8387 17.7407 22.8551 17.7125L23.0667 17.3468C23.0953 17.2975 23.1428 17.2624 23.1987 17.2498C23.8792 17.0953 24.779 16.9176 25.6348 16.7671V16.7671Z" fill="white"/>
<path fill-rule="evenodd" clip-rule="evenodd" d="M18.2367 17.1502L18.0975 17.3211C18.0897 17.3286 18.0821 17.3358 18.0743 17.3436C17.9518 17.4338 17.4362 17.8277 17.2966 17.938C17.257 17.9693 17.2413 17.9965 17.2321 18.0459C17.2007 18.2202 17.1485 18.5514 17.1332 18.7349C17.1287 18.7887 17.1055 18.8153 17.0506 18.8374C16.8114 18.9344 16.5278 19.0365 16.2985 19.1281C16.2494 19.1475 16.2357 19.155 16.2067 19.1771C16.1838 19.1948 15.8791 19.4661 15.8791 19.4661C15.8791 19.4661 16.5415 19.3034 16.7844 19.2486C16.8424 19.2357 16.8673 19.2391 16.9209 19.2643C16.9711 19.2874 17.0547 19.3204 17.0987 19.3364C17.1663 19.3613 17.2021 19.3603 17.2768 19.3439C17.5505 19.283 18.0108 19.1741 18.2558 19.1104C18.3831 19.0774 18.4527 19.043 18.5606 18.9678C18.6779 18.8864 18.9752 18.6641 18.9752 18.6641C18.9752 18.6641 18.9697 18.7033 18.9656 18.725C18.9625 18.7438 18.9557 18.7543 18.9434 18.769C18.883 18.8415 18.7772 18.9596 18.7247 19.0137C18.6042 19.138 18.5322 19.1822 18.3811 19.2452C17.6849 19.5346 16.4954 19.9839 15.6031 20.292C15.5447 20.3124 15.5194 20.3291 15.4761 20.3734C15.429 20.421 15.3662 20.4905 15.3662 20.4905C15.3662 20.4905 16.0938 20.5433 16.3159 20.5688C16.3879 20.577 16.4394 20.6004 16.4944 20.6478C16.6769 20.8044 17.2813 21.425 17.4621 21.6404C17.4621 21.6404 15.744 21.9254 14.9479 22.1225C14.8496 22.1467 14.8005 22.209 14.7783 22.2876C14.7124 22.5184 14.5572 23.2605 14.5572 23.2605C14.5572 23.2605 14.5019 23.2428 14.4248 23.1986C14.3719 23.1683 14.3449 23.1431 14.2869 23.0818C14.0985 22.8833 13.789 22.5034 13.6402 22.2832C13.5966 22.2181 13.5781 22.1354 13.6327 22.069C13.7941 21.8709 14.1183 21.5094 14.2971 21.3235C14.3162 21.3034 14.3405 21.2684 14.3661 21.218C14.4262 21.0988 14.5055 20.7968 14.5332 20.6878L14.542 20.6526L14.5432 20.6478C14.5432 20.6478 14.5414 20.6488 14.5384 20.6508L14.5057 20.6712C14.4615 20.699 14.3899 20.7439 14.3592 20.7632C14.3132 20.7924 14.3005 20.805 14.2814 20.8452C14.2524 20.9058 14.2016 21.0015 14.163 21.0678C14.1504 21.0896 14.1166 21.1233 14.0985 21.1373C13.8702 21.3112 13.6181 21.4981 13.4386 21.6241C13.4263 21.6326 13.4106 21.6289 13.4 21.6186C13.3771 21.5958 13.2813 21.4872 13.2642 21.4617C13.2499 21.4403 13.2434 21.4202 13.2434 21.3943C13.243 21.349 13.2475 21.2694 13.2519 21.2101C13.2574 21.14 13.2775 21.1067 13.3632 21.0181C13.459 20.9191 13.5635 20.8149 13.6733 20.708C13.9426 20.482 14.6223 19.9318 15.8361 19.0678C15.859 19.0515 15.8798 19.0324 15.8965 19.0096C16.0241 18.8381 16.3862 18.3696 16.4756 18.2583C16.4882 18.2427 16.5022 18.228 16.5182 18.2154C16.6612 18.1027 16.7319 18.0541 16.8769 17.9628C17.2151 17.7504 17.8699 17.363 18.2367 17.1502L18.2367 17.1502Z" fill="white"/>
<path fill-rule="evenodd" clip-rule="evenodd" d="M15.4925 22.9881L15.3427 24.0193L14.8333 23.4229C14.9261 23.2223 15.1974 23.0331 15.4925 22.9881Z" fill="white"/>
<path fill-rule="evenodd" clip-rule="evenodd" d="M18.8479 23.5352C18.594 23.9519 18.2907 24.3944 18.0614 24.6708C18.0313 24.7069 17.9914 24.7348 17.946 24.7519C17.6952 24.8455 17.2772 24.9864 16.9694 25.08L18.8479 23.5352Z" fill="white"/>
<path fill-rule="evenodd" clip-rule="evenodd" d="M29.6789 16.8405C29.8133 16.7912 29.9608 16.7946 30.0928 16.8501C31.1172 17.279 32.8398 18.288 33.7973 18.9988C33.8898 19.0676 33.9266 19.1149 33.9509 19.2259C34.1757 20.2458 34.261 21.8223 34.1194 23.1496C34.1092 23.2449 34.0901 23.3021 34.0403 23.4039C33.4335 24.6413 32.7507 25.8059 32.0321 26.7043L32.0335 26.6896C32.0429 26.594 32.0944 26.0545 32.0972 25.7627C32.0976 25.7297 32.1129 25.6994 32.1392 25.6793C32.2726 25.5758 32.4559 25.4287 32.5596 25.3392C32.6101 25.2956 32.6381 25.263 32.6644 25.2207C32.9572 24.7489 33.4806 23.761 33.6915 23.1666C33.743 23.0216 33.7635 22.8681 33.7509 22.7145C33.6833 21.8863 33.553 20.7387 33.3588 19.9898C33.3257 19.8621 33.2411 19.7542 33.1233 19.694C32.9558 19.6082 32.6272 19.4587 31.8788 19.1595C31.7751 19.118 31.6782 19.0604 31.5929 18.9889C31.1022 18.5777 30.3351 17.9612 29.8577 17.6065C29.7181 17.5026 29.54 17.4649 29.3701 17.5033C29.0223 17.582 28.5798 17.6916 28.3306 17.759C28.246 17.7818 28.2126 17.7838 28.1252 17.7736C28.0797 17.7684 28.0209 17.7626 27.9592 17.757L27.8656 17.7488C27.7568 17.7395 27.6548 17.7317 27.6148 17.7287L27.597 17.7273C28.4088 17.3471 29.1899 17.0189 29.6789 16.8405L29.6789 16.8405Z" fill="white"/>
<path fill-rule="evenodd" clip-rule="evenodd" d="M17.592 22.0728C17.6725 22.0469 17.7582 22.0438 17.8401 22.0636C18.2093 22.1521 18.9907 22.3431 19.5814 22.4939C19.6643 22.515 19.7677 22.5922 19.8117 22.6654L19.9404 22.8789C19.9854 22.9538 19.9885 23.0457 19.9486 23.1233C19.8412 23.3309 19.6881 23.6121 19.5262 23.902L19.4037 24.12C19.1782 24.5191 18.9537 24.9041 18.8262 25.1066C18.7423 25.2404 18.6955 25.2996 18.5461 25.3524C17.965 25.5563 17.2432 25.8001 16.8143 25.9386C16.7266 25.9669 16.6969 26.02 16.714 26.117C16.7447 26.2937 16.8437 26.8935 16.8815 27.0685C16.8955 27.1332 16.9474 27.1846 17.0436 27.1662C17.2972 27.1182 17.9721 26.9534 17.9721 26.9534C17.9721 26.9534 17.7732 27.1369 17.6541 27.2452C17.6323 27.2656 17.607 27.2806 17.5787 27.2898C17.3948 27.351 16.9457 27.4767 16.8058 27.5073C16.6966 27.5308 16.627 27.4879 16.599 27.3647C16.599 27.3647 16.4075 26.5517 16.3383 26.2753C16.3274 26.2331 16.3164 26.1967 16.3031 26.1551C16.2513 25.9951 16.1267 25.6806 16.0564 25.5158C16.0482 25.4968 16.0441 25.4763 16.0445 25.4552C16.0465 25.267 16.0813 24.8469 16.0813 24.8469C16.0813 24.8469 16.4946 25.2333 16.6945 25.3728C16.7396 25.4045 16.7665 25.411 16.8218 25.397C17.0965 25.3265 17.7281 25.1182 18.0748 24.9888C18.154 24.9592 18.2233 24.9095 18.2772 24.8445C18.6358 24.4125 19.0856 23.7405 19.3453 23.2336C19.3811 23.1638 19.3879 23.0838 19.3654 23.0089L19.3094 22.8251C19.2931 22.7713 19.2361 22.7107 19.1835 22.6906C18.5724 22.4588 18.0905 22.2865 17.5244 22.0942L17.592 22.0728Z" fill="white"/>
<path fill-rule="evenodd" clip-rule="evenodd" d="M28.5431 19.9934L28.7543 20.085C28.8167 20.1119 28.8737 20.1514 28.9208 20.2004C30.2158 21.5485 31.2515 22.9463 31.4589 23.3146C31.4989 23.3854 31.5262 23.4562 31.5361 23.5373C31.7688 25.5032 31.5688 27.5859 31.0935 29.3977C31.0505 29.5611 31.0024 29.6448 30.8447 29.7629C30.3372 30.1437 29.5797 30.7508 28.8263 31.3697L28.5888 31.5653C27.6813 32.3148 26.8192 33.0485 26.4533 33.3861C26.3615 33.4712 26.2813 33.5672 26.2158 33.6737C26.0443 33.9519 25.7823 34.4305 25.6537 34.6681L25.6178 34.7346C25.592 34.7825 25.577 34.8104 25.577 34.8104C25.4064 34.439 25.0345 33.5328 24.9068 33.1665C24.8652 33.047 24.8577 32.9844 24.9017 32.8244C25.1099 32.0649 26.0937 29.8569 26.2851 29.4576L26.2854 29.621C26.2854 29.6448 26.2817 29.6683 26.2741 29.6908C26.1878 29.9519 25.6589 31.6921 25.5514 32.4468C25.5275 32.6147 25.5296 32.66 25.5514 32.8247C25.5985 33.1771 25.8097 33.8232 25.8097 33.8232C25.8097 33.8232 25.935 33.5624 26.0517 33.3861C26.109 33.2996 26.1435 33.2581 26.237 33.1655C26.7099 32.6989 27.5168 31.9777 28.3572 31.2524L28.6547 30.9967C29.3003 30.444 29.9448 29.9062 30.454 29.4954C30.5864 29.3885 30.6359 29.317 30.6652 29.1141C30.8112 28.1146 30.8536 26.3206 30.7655 25.015C30.7488 24.7686 30.6686 24.5303 30.5294 24.3257C30.21 23.8549 29.8281 23.4093 29.2491 22.837C29.1665 22.755 29.1102 22.6501 29.089 22.5357C28.9201 21.637 28.543 19.9934 28.543 19.9934H28.5431Z" fill="white"/>
<path fill-rule="evenodd" clip-rule="evenodd" d="M21.725 20.6477C21.725 20.6477 21.8427 21.0279 21.9562 21.4408L21.9958 21.5873C22.0675 21.8563 22.1315 22.1219 22.1546 22.2899C22.1768 22.4516 22.173 22.4952 22.1154 22.6501C21.9755 23.0211 21.7182 23.6179 21.4437 24.228L21.3253 24.4897C20.9885 25.2299 20.6475 25.945 20.4819 26.2545C20.4003 26.407 20.3235 26.5064 20.17 26.662C19.8195 27.0177 19.1486 27.6901 18.7334 28.0662C18.5825 28.2031 18.5419 28.3199 18.5112 28.4969C18.4617 28.7811 18.4126 29.2662 18.3989 29.5168C18.387 29.737 18.4228 29.8402 18.546 30.0584C19.278 31.3605 21.7216 34.3563 22.4177 34.9854C22.4682 35.031 22.5051 35.0616 22.6115 35.1321C22.7139 35.2002 23.0476 35.416 23.0476 35.416C23.0609 35.4252 23.0722 35.4374 23.0807 35.4514L23.2015 35.6635C23.2015 35.6635 23.1902 35.6579 23.1699 35.6478L23.1177 35.622C23.0758 35.6011 23.0203 35.5736 22.9565 35.5418L22.8014 35.4644C22.5636 35.3454 22.2801 35.2022 22.1311 35.1222C22.0696 35.0892 22.012 35.0504 21.9584 35.0058C21.1432 34.3304 18.645 31.4147 17.9103 30.1973C17.727 29.8933 17.7083 29.7949 17.7328 29.5073C17.7789 28.9718 17.8502 28.2984 17.9127 28.0033C17.9506 27.8252 17.9898 27.7207 18.1266 27.5634C18.5865 27.0355 19.1473 26.3386 19.6939 25.6234L19.886 25.3705C20.7143 24.2735 21.4773 23.1754 21.7622 22.616C21.8274 22.4887 21.8328 22.4445 21.8342 22.3243C21.8379 21.9757 21.7264 21.2969 21.697 21.1253C21.6926 21.0984 21.6912 21.0712 21.6936 21.044L21.725 20.6477Z" fill="white"/>
<path fill-rule="evenodd" clip-rule="evenodd" d="M23.9584 24.9626C23.9584 24.9626 24.0526 25.5199 24.0812 25.6816C24.0973 25.7731 24.1007 25.7976 24.0775 25.8875C24.0022 26.1765 23.6545 27.6997 23.3762 29.259L23.3329 29.5054C23.2191 30.1621 23.1209 30.814 23.0637 31.3718C23.0313 31.6887 23.0418 31.7646 23.1258 32.0458C23.3636 32.8403 24.2433 34.9163 24.4122 35.2948C24.431 35.3367 24.4423 35.3806 24.4477 35.4259L24.5112 35.9154C24.2293 35.4909 22.6979 32.6834 22.0963 31.1287C22.0253 30.9455 22.0116 30.8553 22.0901 30.5187C22.5085 28.7324 23.6404 25.6972 23.9584 24.9626H23.9584Z" fill="white"/>
</g>
<defs>
<clipPath id="clip0_0_24716">
<rect width="32" height="35.1209" fill="white" transform="translate(8 6)"/>
</clipPath>
</defs>
</svg>
