<svg width="48" height="48" viewBox="0 0 48 48" fill="none" xmlns="http://www.w3.org/2000/svg">
<g clip-path="url(#clip0_0_24359)">
<path d="M36.6869 25.2066C36.4344 25.7031 36.0888 26.2232 35.5483 26.2232C35.442 26.2232 35.3368 26.2023 35.2386 26.1616C35.1404 26.1208 35.0513 26.0612 34.9762 25.9859C34.9011 25.9107 34.8416 25.8214 34.8011 25.7232C34.7606 25.6249 34.7399 25.5196 34.7401 25.4134C34.7401 24.1426 36.265 22.494 38.044 22.533L36.6886 25.205M30.5669 25.205C30.3145 25.7014 29.9688 26.2216 29.4283 26.2216C29.2141 26.2211 29.0088 26.1358 28.8573 25.9843C28.7059 25.8329 28.6206 25.6276 28.6201 25.4134C28.6201 24.1426 30.1535 22.494 31.9224 22.533L30.5669 25.2033M28.7625 28.7071H25.7482C25.4822 28.3276 24.979 28.0701 24.3182 28.0701C23.6201 28.0701 23.0356 28.2903 22.7086 28.7071H12.0546C12.0249 28.7084 11.9954 28.7018 11.9691 28.6881C11.9427 28.6744 11.9204 28.654 11.9045 28.6289C11.8885 28.6038 11.8794 28.575 11.8781 28.5453C11.8768 28.5156 11.8833 28.4861 11.897 28.4598L14.2132 23.8851C15.2966 23.7625 16.3656 23.5355 17.4053 23.2073C17.4199 23.2056 17.4347 23.2056 17.4494 23.2073C17.4716 23.2073 17.4937 23.2117 17.5142 23.2202C17.5348 23.2287 17.5535 23.2412 17.5692 23.257C17.5849 23.2727 17.5974 23.2914 17.6059 23.3119C17.6144 23.3325 17.6188 23.3545 17.6188 23.3768C17.6191 23.405 17.6127 23.4328 17.6002 23.4581L16.3345 25.9962C16.2801 26.1023 16.2538 26.2205 16.258 26.3397C16.2623 26.4588 16.297 26.5749 16.3588 26.6768C16.4207 26.7788 16.5076 26.8632 16.6113 26.922C16.715 26.9808 16.832 27.0121 16.9512 27.0128C17.0254 27.0128 17.0991 27.0014 17.1698 26.9789L21.1261 25.8302C21.1397 27.3313 23.2 27.4957 24.0065 26.4028C24.0195 26.5037 24.0545 26.6006 24.1088 26.6866C24.1631 26.7726 24.2355 26.8458 24.321 26.9009C24.4065 26.9561 24.503 26.992 24.6038 27.006C24.7045 27.0201 24.8071 27.012 24.9045 26.9823H24.9163L27.3528 26.186C27.6137 27.1755 28.9421 27.372 29.7926 26.7875C29.523 27.4643 29.1774 28.1083 28.7625 28.7071M23.2152 29.5543H28.0441C25.8262 31.7705 23.2406 30.8301 23.2152 29.5543ZM9.35553 20.9861C9.20982 19.0494 11.8411 17.3653 14.7232 16.7705C17.5205 16.1928 19.4453 17.2636 19.5385 18.5411C19.6317 19.8187 18.6744 20.6506 17.0834 20.9132C16.6447 21.0033 16.1899 20.9758 15.7652 20.8336L17.4155 17.5737L15.3518 18.2514C14.1454 18.6733 13.8506 19.6526 14.242 20.454L12.7442 23.3903C10.8804 23.3344 9.47075 22.5431 9.35553 20.9861ZM25.733 22.5313L24.3775 25.2016C24.1251 25.698 23.7811 26.2182 23.2406 26.2182C23.0261 26.2182 22.8204 26.1331 22.6685 25.9815C22.5167 25.83 22.4312 25.6245 22.4307 25.41C22.4307 24.1392 23.9556 22.4906 25.7347 22.5296M39.8536 25.7827H39.8197L37.956 26.1334C37.939 26.1389 37.9213 26.1417 37.9034 26.1419C37.8585 26.1419 37.8154 26.1241 37.7836 26.0923C37.7519 26.0605 37.734 26.0174 37.734 25.9725C37.7337 25.9446 37.7407 25.9172 37.7543 25.8929C38.2626 24.9067 39.6689 22.1653 39.6689 22.1653C36.8038 21.9298 34.9841 22.4517 33.8556 24.4713C33.6033 24.8801 33.4598 25.3468 33.4388 25.8268L31.3311 26.3791C32.2087 24.7068 33.5422 22.1568 33.5422 22.1568C30.6737 21.9298 28.8641 22.45 27.7357 24.4713C27.4838 24.8806 27.3393 25.3468 27.3155 25.8268L25.65 26.1402C25.6336 26.1456 25.6164 26.1485 25.5991 26.1487C25.5769 26.1487 25.5548 26.1443 25.5343 26.1358C25.5137 26.1273 25.495 26.1148 25.4793 26.0991C25.4636 26.0833 25.4511 26.0647 25.4426 26.0441C25.4341 26.0235 25.4297 26.0015 25.4297 25.9793C25.4293 25.9516 25.4357 25.9243 25.4483 25.8996C25.9566 24.9135 27.3612 22.1721 27.3612 22.1721C24.4859 21.9298 22.6764 22.45 21.5547 24.4713C21.3726 24.782 21.2422 25.1202 21.1684 25.4727L17.9034 26.1284C17.886 26.1309 17.8683 26.1309 17.8509 26.1284C17.8287 26.1284 17.8066 26.124 17.7861 26.1155C17.7655 26.107 17.7468 26.0945 17.7311 26.0787C17.7154 26.063 17.7029 26.0443 17.6944 26.0238C17.6859 26.0032 17.6815 25.9812 17.6815 25.9589C17.6812 25.9311 17.6882 25.9036 17.7018 25.8793L18.1508 24.961C18.5253 24.2307 18.8794 23.3852 20.0282 22.9566C20.0222 22.9947 20.0188 23.0332 20.018 23.0718C20.0171 23.2278 20.0688 23.3796 20.1645 23.5028C20.2603 23.626 20.3946 23.7135 20.546 23.7512C20.6975 23.7889 20.8572 23.7746 20.9995 23.7107C21.1419 23.6468 21.2586 23.537 21.3311 23.3988C21.3781 23.3182 21.4206 23.2351 21.4582 23.1497C21.5036 23.0544 21.5278 22.9503 21.5293 22.8447C21.5289 22.6599 21.4551 22.4828 21.3243 22.3522C21.1934 22.2217 21.0161 22.1484 20.8312 22.1484C20.7654 22.1487 20.6999 22.1578 20.6364 22.1755L19.3826 22.5804L19.4741 22.411C19.4856 22.3872 19.4914 22.3611 19.4911 22.3347C19.4911 22.2898 19.4732 22.2467 19.4414 22.2149C19.4097 22.1832 19.3666 22.1653 19.3216 22.1653C19.2978 22.1652 19.2742 22.1698 19.2522 22.1789C18.1661 22.472 16.2227 23.0362 14.525 23.2853L15.4552 21.4435C15.9688 21.6087 16.5154 21.6442 17.0461 21.5469C19.6639 21.1216 21.0719 19.8356 20.9312 18.3039C20.7872 16.735 18.4067 15.5116 14.6317 16.1928C10.4264 16.9501 7.80013 19.0494 8.01192 21.2521C8.18136 22.9854 10.0282 24.0748 12.4477 23.9901L10.2451 28.3327C10.1861 28.445 10.0977 28.5391 9.9894 28.6051C9.88107 28.6711 9.75685 28.7063 9.63002 28.7071H8.81843L8.38637 29.5543H22.4324C22.4324 32.4025 27.041 32.7092 29.5486 29.5543H39.0759L39.5147 28.7071H30.1247C30.2385 28.507 30.342 28.3011 30.4348 28.0904C31.3175 26.474 33.4846 26.2148 33.4846 26.2148C33.8116 27.3568 35.5771 27.4008 36.3158 26.4147C36.3372 26.583 36.4192 26.7378 36.5465 26.85C36.6737 26.9623 36.8374 27.0244 37.0071 27.0247C37.0772 27.0252 37.1469 27.015 37.2138 26.9942H37.2274L39.9011 26.1029C39.9344 26.0877 39.9619 26.062 39.9795 26.0298C39.997 25.9975 40.0035 25.9605 39.9982 25.9242C39.9928 25.8879 39.9759 25.8543 39.9498 25.8285C39.9237 25.8027 39.89 25.786 39.8536 25.781" fill="black"/>
</g>
<defs>
<clipPath id="clip0_0_24359">
<rect width="32" height="15.8069" fill="white" transform="translate(8 16)"/>
</clipPath>
</defs>
</svg>
