<svg width="48" height="48" viewBox="0 0 48 48" fill="none" xmlns="http://www.w3.org/2000/svg">
<g clip-path="url(#clip0_0_24366)">
<path d="M14.9856 10.8082C14.9856 9.80474 15.8032 8.98666 16.8072 8.98666H30.8394C31.8581 8.98666 32.6756 9.80474 32.6756 10.8082V37.2354C32.6756 38.2393 31.8581 39.0569 30.8394 39.0569H16.8072C15.8033 39.0569 14.9856 38.2393 14.9856 37.2354V10.8082Z" fill="white"/>
<path d="M15.7416 13.9263V10.8082C15.7416 10.222 16.2209 9.74364 16.8072 9.74364H30.8394C31.4413 9.74364 31.9197 10.222 31.9197 10.8082V13.9263H15.7416Z" fill="#004990"/>
<path d="M31.9187 14.6832H15.7416V33.362H31.9187V14.6832Z" fill="#004990"/>
<path d="M28.5081 12.3989C28.5699 12.4911 28.7092 12.5994 28.8012 12.6455C29.0641 12.7847 29.2965 12.8307 29.5424 12.8307C29.9286 12.8307 30.16 12.6606 30.16 12.4142C30.16 12.12 29.8659 12.0739 29.4189 12.0132C28.8483 11.9357 28.5395 11.6729 28.5395 11.2102C28.5541 10.7469 28.9876 10.391 29.6198 10.391C30.0511 10.391 30.3453 10.4842 30.5306 10.5764V11.1788C30.4688 11.0709 30.3295 10.9934 30.1915 10.9322C30.005 10.8699 29.8198 10.8391 29.6198 10.8391C29.311 10.8391 29.1256 10.9626 29.1256 11.118C29.1256 11.3793 29.3728 11.4106 29.913 11.519C30.4532 11.6268 30.7776 11.8588 30.7619 12.3366C30.7463 12.892 30.3139 13.263 29.5424 13.263C29.2021 13.263 28.7708 13.2008 28.5081 13.0625V12.3989Z" fill="white"/>
<path d="M18.9219 11.2872C18.9219 11.5651 18.6906 11.6729 18.3357 11.6729H17.6877V10.8852H18.3357C18.6906 10.8852 18.9219 10.9935 18.9219 11.2872ZM19.3228 12.522C19.1846 12.2598 19.0768 12.0593 18.8758 11.9661C19.3082 11.8739 19.5239 11.6269 19.5239 11.2563C19.5239 10.9014 19.3689 10.6239 19.0769 10.5156C18.8917 10.4382 18.6591 10.4382 18.3043 10.4382H16.8847C17.0239 10.5304 17.1004 10.8082 17.1004 11.0558V12.6146C17.1004 12.8459 17.0238 13.1395 16.8847 13.2171H17.9022C17.7641 13.1395 17.6877 12.8459 17.6877 12.6146V12.1199H18.119C18.3357 12.1199 18.4591 12.1973 18.5513 12.368C18.7052 12.6146 18.8142 12.9542 18.9994 13.2171H19.8169C19.571 13.0474 19.4464 12.7846 19.3228 12.522Z" fill="white"/>
<path d="M21.4847 13.294C21.8698 13.294 22.1954 13.1855 22.4415 12.969C22.7356 12.7229 22.9355 12.3517 22.9355 11.8273C22.9355 11.3185 22.7356 10.9323 22.4415 10.6847C22.1954 10.4842 21.8698 10.3759 21.4847 10.3759C21.0983 10.3759 20.7748 10.4842 20.5267 10.6847C20.2347 10.9323 20.0336 11.3185 20.0336 11.8273C20.0336 12.3517 20.2347 12.7229 20.5267 12.969C20.7748 13.1855 21.114 13.294 21.4847 13.294ZM20.8984 12.5685C20.7289 12.4141 20.6514 12.1675 20.6514 11.8273C20.6514 11.5027 20.7289 11.2563 20.8984 11.0866C21.0366 10.9474 21.2376 10.8553 21.4847 10.8553C21.7316 10.8553 21.9327 10.9474 22.0709 11.0866C22.2415 11.2562 22.3336 11.5027 22.3336 11.8273C22.3336 12.1676 22.2414 12.4141 22.0709 12.5685C21.9326 12.7077 21.7316 12.7998 21.4847 12.7998C21.2376 12.7998 21.0366 12.7077 20.8984 12.5685Z" fill="white"/>
<path d="M25.4984 12.5061C25.3434 12.7076 25.0199 12.769 24.665 12.769H24.1247V11.0558C24.1247 10.824 24.2013 10.5303 24.3248 10.4382H23.3219C23.46 10.5304 23.5385 10.8241 23.5385 11.0558V12.6146C23.5385 12.8621 23.46 13.1239 23.3219 13.2171H25.4051L25.4984 12.5061Z" fill="white"/>
<path d="M28.0139 12.5061C27.8591 12.7076 27.5355 12.7846 27.1807 12.769H26.6248V11.0558C26.6248 10.824 26.7013 10.5303 26.8414 10.4382H25.8376C25.9757 10.5304 26.0541 10.8241 26.0541 11.0558V12.6146C26.0541 12.8621 25.9757 13.1395 25.8376 13.2316H27.9052L28.0139 12.5061Z" fill="white"/>
<path d="M33.6022 10.8082C33.6022 9.28027 32.3668 8.04547 30.8395 8.04547H16.8072C15.2788 8.04547 14.0435 9.28027 14.0435 10.8082V37.2354C14.0435 38.7649 15.2788 39.9992 16.8072 39.9992H30.8394C32.3667 39.9992 33.6022 38.7649 33.6022 37.2354V10.8082ZM14.9856 10.8082C14.9856 9.80475 15.8032 8.98667 16.8072 8.98667H30.8394C31.8581 8.98667 32.6756 9.80475 32.6756 10.8082V37.2354C32.6756 38.2393 31.8581 39.0569 30.8394 39.0569H16.8072C15.8033 39.0569 14.9856 38.2393 14.9856 37.2354V10.8082Z" fill="#004990"/>
<path d="M15.7416 34.1178V37.2353C15.7416 37.8236 16.2209 38.301 16.8072 38.301H30.8394C31.4413 38.301 31.9197 37.8236 31.9197 37.2353V34.1178H15.7416Z" fill="#004990"/>
<path d="M22.6728 30.3825V26.2297C23.0738 26.215 23.4601 26.1992 23.8464 26.1678C23.7071 25.8433 23.5679 25.5198 23.3983 25.211C23.1669 25.2413 22.921 25.2413 22.6728 25.2571V24.3934C22.1325 24.5168 21.5464 24.609 20.9445 24.6708V30.3825C20.9445 31.6471 20.3572 31.9873 20.0023 32.2188H23.614C23.2759 31.9873 22.6728 31.6471 22.6728 30.3825Z" fill="white"/>
<path d="M31.0707 32.2041C30.7777 31.9256 30.406 31.4933 30.2218 30.6453C29.8825 29.0855 29.1717 26.8472 27.6748 25.1796C29.1414 24.3777 30.0364 23.111 30.0364 21.5533C30.0511 20.441 29.4805 19.2684 28.4619 18.5738C28.0296 18.2948 27.5207 18.0943 26.9179 17.9707C27.1345 18.4341 27.2728 18.9282 27.304 19.4228C27.9364 19.9159 28.2767 20.6728 28.2767 21.5835C28.2767 22.7413 27.6904 24.0992 25.6376 24.7942C25.806 25.1177 25.9756 25.458 26.1149 25.7815C26.2237 25.7512 26.3315 25.7207 26.4404 25.6893C27.3972 26.8011 28.1678 28.5453 28.3991 30.1658C28.5699 31.3393 28.1531 31.9256 27.8758 32.2041H31.0707Z" fill="white"/>
<path d="M19.5395 23.3896V16.9067H21.9934C22.8894 16.9219 23.5533 17.1072 24.0778 17.4767C24.7718 17.9707 25.1435 18.7582 25.1435 19.7003C25.1435 21.2894 24.0464 23.312 19.5395 23.3896ZM27.4738 30.3355C27.1648 30.058 26.7955 29.6255 26.6247 28.7767C26.2855 27.2179 25.606 25.0257 24.2483 23.4659C24.3091 23.4356 24.3562 23.4198 24.4168 23.3895C25.961 22.602 26.9031 21.2894 26.9031 19.6841C26.9179 18.5576 26.3463 17.3998 25.3286 16.7051C24.5257 16.165 23.4454 15.9493 22.0709 15.9493H16.869C17.2239 16.1806 17.8102 16.5199 17.8102 17.7855V28.4993C17.8102 29.7795 17.2239 30.1041 16.869 30.3355H20.4807C20.1415 30.1041 19.5395 29.7795 19.5395 28.4993V24.3463C20.8052 24.3463 21.9934 24.1915 22.9963 23.9297C23.9082 25.0258 24.5876 26.7238 24.8033 28.2826C24.9571 29.4572 24.5562 30.0581 24.2787 30.3356H27.4738V30.3355Z" fill="white"/>
<path d="M22.6728 22.464V18.8052H24.6179C24.4799 18.4032 24.2317 18.0792 23.8935 17.8316H20.0023C20.3572 18.0634 20.9444 18.388 20.9444 19.6688V22.8953C21.5925 22.8032 22.1786 22.665 22.6728 22.464Z" fill="white"/>
<path d="M26.2081 36.2178C26.2081 36.7412 26.517 37.1432 27.0572 37.1432C27.4434 37.1432 27.7982 37.0354 27.9523 36.8502L27.8591 37.4531C27.7209 37.5139 27.4738 37.5913 27.0729 37.5913C26.2082 37.5913 25.6061 37.0814 25.6061 36.2178C25.6061 35.7551 25.7915 35.3991 26.0689 35.1678C26.3159 34.9511 26.6551 34.8276 27.0728 34.8276C27.4738 34.8276 27.7208 34.905 27.859 34.9824V35.5541C27.6904 35.3689 27.4433 35.2757 27.0571 35.2757C26.517 35.2757 26.2081 35.6777 26.2081 36.2178Z" fill="white"/>
<path d="M18.8287 35.6923C18.8287 35.955 18.6132 36.0628 18.2739 36.0628H17.6563V35.3228H18.2739C18.6132 35.3228 18.8287 35.4148 18.8287 35.6923ZM19.2151 36.8658C19.0915 36.6188 18.9836 36.4177 18.7984 36.3413C19.2004 36.2639 19.4003 36.0167 19.416 35.6777C19.416 35.3228 19.262 35.0599 18.9836 34.9511C18.8141 34.8893 18.5826 34.8893 18.2424 34.8893H16.8994C17.0239 34.9668 17.1005 35.2296 17.1005 35.4754V36.9589C17.1005 37.1745 17.0239 37.453 16.8994 37.5451H17.8563C17.7338 37.4529 17.6563 37.1744 17.6563 36.9589V36.4795H18.0573C18.2739 36.4795 18.3964 36.5717 18.4907 36.7264C18.6288 36.9588 18.7367 37.2814 18.9062 37.5293L19.6945 37.5451C19.4464 37.361 19.3396 37.1275 19.2151 36.8658Z" fill="white"/>
<path d="M21.269 37.6071C21.6385 37.6071 21.9473 37.4992 22.1786 37.2981C22.456 37.0668 22.6582 36.7109 22.6582 36.2178C22.6582 35.7238 22.4561 35.3689 22.1786 35.1206C21.9473 34.9363 21.6385 34.8276 21.269 34.8276C20.913 34.8276 20.6042 34.9363 20.3729 35.1206C20.0954 35.3689 19.8943 35.7238 19.8943 36.2178C19.8943 36.7109 20.0954 37.0669 20.3729 37.2981C20.6043 37.4992 20.9131 37.6071 21.269 37.6071ZM20.712 36.9129C20.5582 36.7725 20.4807 36.5412 20.4807 36.2178C20.4807 35.8932 20.5582 35.6629 20.712 35.507C20.8513 35.369 21.0366 35.2914 21.2837 35.2914C21.515 35.2914 21.7002 35.3689 21.8395 35.507C21.9934 35.663 22.071 35.8932 22.071 36.2178C22.071 36.5412 21.9935 36.7726 21.8395 36.9129C21.7002 37.051 21.515 37.1432 21.2837 37.1432C21.0366 37.1432 20.8513 37.0511 20.712 36.9129Z" fill="white"/>
<path d="M24.7257 34.8893C24.7886 34.9363 24.8189 34.9823 24.8033 35.0432C24.8033 35.1059 24.7717 35.1981 24.7111 35.2913L24.1855 36.0471L23.661 35.2756C23.5993 35.1834 23.5386 35.0913 23.5533 35.0129C23.5679 34.9668 23.5847 34.9207 23.6455 34.8893H22.5806C22.7649 34.9668 22.858 35.1059 22.9963 35.3069L23.8621 36.5256V36.9589C23.8621 37.1745 23.7846 37.453 23.661 37.5294H24.6179C24.4943 37.453 24.4168 37.1745 24.4168 36.9589V36.5256L25.2051 35.4147C25.3286 35.2608 25.4983 34.9823 25.6835 34.8892H24.7257" fill="white"/>
<path d="M29.8512 37.1129H29.1717V36.3874H30.1915L30.2521 35.9854H29.1717V35.3229H29.7737C30.1139 35.3229 30.3914 35.3373 30.5306 35.4755V34.8894H28.4158C28.5394 34.9824 28.6159 35.2609 28.6159 35.4755V36.959C28.6159 37.1893 28.5394 37.4531 28.4158 37.5452H30.5463L30.6383 36.896C30.4835 37.0971 30.1915 37.1129 29.8512 37.1129Z" fill="white"/>
</g>
<defs>
<clipPath id="clip0_0_24366">
<rect width="19.6158" height="32" fill="white" transform="translate(14 8)"/>
</clipPath>
</defs>
</svg>
