<svg width="48" height="48" viewBox="0 0 48 48" fill="none" xmlns="http://www.w3.org/2000/svg">
<g clip-path="url(#clip0_0_24463)">
<path d="M39.9632 25.1315C39.9374 24.5343 39.6643 23.5343 38.3501 23.408C39.52 23.2323 39.7519 22.4559 39.757 21.845C39.7673 21.2238 39.386 20.1573 37.8399 20.1556C37.6183 20.1572 31.769 20.1572 31.7638 20.1556V25.1367L29.6663 20.1556H25.8681L24.0489 24.6674L22.1215 20.1539H18.2924L16.6432 24.3363C16.4732 23.164 15.3651 22.589 12.8554 22.6333C11.5927 22.6572 11.165 22.4815 11.165 21.9593C11.165 21.4559 11.6237 21.2648 12.2679 21.287C12.8966 21.3143 13.4223 21.4149 13.4274 22.2528H16.4113C16.4165 20.4064 14.2159 20.0566 12.4225 20.0413C10.6393 20.0327 8.39752 20.4064 8.34083 22.2272C8.28929 24.0394 9.71683 24.3636 11.737 24.3363C13.5975 24.3141 13.5665 24.8636 13.5769 25.0616C13.5717 25.0735 13.5769 25.0838 13.5769 25.0991C13.582 25.3141 13.4635 25.78 12.2679 25.7595C11.4021 25.7595 11.1341 25.367 11.0619 25.0991C11.0155 24.9506 11.0259 24.8397 11.0259 24.8448C10.4229 24.8397 8.04195 24.8397 8.0368 24.8448C8.04196 24.9233 8.04712 25.0087 8.05224 25.0991C8.17593 26.1042 9.0675 27.2099 12.4585 27.157C15.1745 27.1297 15.5146 26.5888 15.7878 26.396L15.5868 26.9796H18.0656L18.514 25.8994H21.8999L22.3534 26.9796H25.7084L26.1567 25.8994H29.5426L29.991 26.9796H38.1337C39.4581 26.9812 39.958 25.8482 39.9632 25.1315C39.958 25.111 39.958 25.1503 39.9632 25.1315L39.9632 25.1315ZM19.1788 24.3107L20.2044 21.8262L21.2402 24.3107H19.1788ZM26.8215 24.3091L27.8471 21.828L28.8778 24.3091H26.8215ZM34.2839 22.7614V21.7819H36.4227C36.7009 21.7803 36.9122 22.0021 36.9122 22.2734C36.9122 22.5447 36.6752 22.7614 36.4072 22.7614H34.2839ZM34.2839 25.1999V24.2341H36.567C36.8349 24.2341 37.072 24.4474 37.072 24.717C37.072 24.9849 36.8349 25.2016 36.567 25.2016" fill="#0D254D"/>
</g>
<defs>
<clipPath id="clip0_0_24463">
<rect width="32" height="7.2" fill="white" transform="translate(8 20)"/>
</clipPath>
</defs>
</svg>
