<svg width="48" height="48" viewBox="0 0 48 48" fill="none" xmlns="http://www.w3.org/2000/svg">
<g clip-path="url(#clip0_0_1219)">
<path fill-rule="evenodd" clip-rule="evenodd" d="M23.6255 12.0088L24.3973 12L31.5149 17.1963L31.7597 17.9352L29.039 26.34L28.3882 26.7577L19.5889 26.7748L18.9818 26.3203L16.2643 17.9142L16.5057 17.2026L23.6255 12.0088Z" fill="white"/>
<path fill-rule="evenodd" clip-rule="evenodd" d="M23.9775 21.3476C24.0219 21.351 24.0674 21.3793 24.1121 21.4341L28.4637 26.602C28.5142 26.6789 28.4901 26.765 28.3808 26.7748L19.575 26.7733C19.4398 26.7653 19.4109 26.6643 19.5033 26.5514L23.8488 21.41C23.8895 21.3655 23.933 21.3441 23.9775 21.3476ZM31.6167 17.816C31.7053 17.7916 31.7796 17.8409 31.755 17.9483L29.0322 26.3393C28.9828 26.4655 28.8781 26.4619 28.7995 26.339L25.2623 20.6091C25.203 20.5038 25.2349 20.4168 25.3665 20.3657L31.6167 17.816ZM16.2782 17.7898C16.3126 17.7654 16.3683 17.764 16.4361 17.7904L22.659 20.3429C22.7689 20.3931 22.7939 20.4823 22.7176 20.6013L19.157 26.3451C19.0995 26.4169 19.0103 26.4208 18.9675 26.3195L16.2478 17.9274C16.2306 17.8617 16.2437 17.8142 16.2782 17.7898ZM23.7544 12.0182C23.7882 12.0435 23.8068 12.0961 23.8025 12.169L23.303 18.8877C23.2894 19.0082 23.2123 19.0596 23.0759 19.0234L16.5237 17.4054C16.4377 17.3728 16.4064 17.2891 16.4894 17.217L23.6144 12.0318C23.6714 11.9951 23.7205 11.993 23.7544 12.0182ZM24.269 12.0126C24.2988 11.9942 24.3398 11.9945 24.3869 12.023L31.5099 17.2106C31.6147 17.2964 31.5788 17.3953 31.4377 17.4321L24.9063 19.0323C24.7878 19.0563 24.7153 18.9988 24.7073 18.8576L24.2185 12.114C24.2207 12.0678 24.2392 12.0309 24.269 12.0126Z" fill="#0069E5"/>
<path fill-rule="evenodd" clip-rule="evenodd" d="M36.5691 31.359L35.7319 34.3289H37.427L36.5691 31.359ZM35.1601 29.9971H37.9272L40 36.8274H38.1417L37.7843 35.6497H35.3439L35.0172 36.8274H33.1181L35.1601 29.9971ZM17.6591 29.9971H20.5386L21.8354 34.2878H21.9068L23.132 29.9971H26.0829V36.8274H24.2859L24.4187 31.5947H24.3676L22.6727 36.8274H21.1003L19.3643 31.5947H19.3031L19.4563 36.8274H17.6591V29.9971ZM14.7236 29.9971H16.5514V36.8274H14.7236V29.9971ZM10.7416 29.9664C10.7926 29.9664 10.842 29.9664 10.8896 29.9664C11.2843 29.9664 11.6452 29.9886 11.9719 30.033C12.2986 30.0774 12.5948 30.1405 12.8603 30.2224C13.1188 30.3117 13.3146 30.4989 13.4474 30.7839C13.5801 31.0688 13.6464 31.4551 13.6464 31.9428C13.6464 31.9496 13.6464 31.9582 13.6464 31.9685C13.6464 31.9786 13.6464 31.9906 13.6464 32.0043C13.6464 32.0111 13.6464 32.018 13.6464 32.0248C13.6464 32.0315 13.6464 32.0384 13.6464 32.0452C13.6396 32.0521 13.6363 32.0605 13.6363 32.0709C13.6363 32.081 13.6363 32.093 13.6363 32.1067C13.6363 32.1134 13.6363 32.1187 13.6363 32.122C13.6363 32.1254 13.6363 32.1271 13.6363 32.1271V32.1374H11.9005C11.9005 31.9736 11.8835 31.8388 11.8494 31.7329C11.8153 31.6272 11.7643 31.5503 11.6963 31.5025C11.6281 31.4616 11.5363 31.4292 11.4205 31.4052C11.3047 31.3814 11.1652 31.3694 11.0018 31.3694L10.818 31.349C10.8113 31.3624 10.8046 31.3694 10.7976 31.3694C10.7909 31.3694 10.7841 31.3694 10.7772 31.3694C10.7704 31.3694 10.7637 31.3694 10.7568 31.3694C10.75 31.3694 10.7433 31.3694 10.7363 31.3694C10.6275 31.3694 10.5204 31.3778 10.4149 31.3948C10.3092 31.4121 10.2088 31.4376 10.1136 31.4717C10.0183 31.4991 9.94691 31.557 9.8991 31.6459C9.85153 31.7345 9.82775 31.8506 9.82775 31.994C9.82775 32.1033 9.83616 32.1953 9.85321 32.2705C9.87027 32.3457 9.8991 32.4103 9.93994 32.4651C9.98078 32.5127 10.0387 32.5518 10.1136 32.5826C10.1883 32.6131 10.2804 32.6318 10.3892 32.6386C10.4437 32.6455 10.4966 32.6506 10.5475 32.6539C10.5987 32.6575 10.6513 32.6592 10.7058 32.6592C10.7604 32.666 10.8147 32.671 10.8692 32.6744C10.9237 32.6777 10.978 32.6794 11.0326 32.6794C11.0393 32.6794 11.0462 32.6794 11.053 32.6794C11.0597 32.6794 11.0667 32.6794 11.0734 32.6794C11.0801 32.6794 11.0888 32.6794 11.0989 32.6794C11.1092 32.6794 11.1176 32.6794 11.1243 32.6794C11.4647 32.6931 11.7915 32.7255 12.1047 32.7767C12.4178 32.8276 12.714 32.8975 12.9929 32.986C13.2721 33.0744 13.483 33.2584 13.6259 33.5375C13.7689 33.8167 13.8405 34.1879 13.8405 34.6508C13.8405 34.678 13.8405 34.7037 13.8405 34.7275C13.8405 34.7512 13.8405 34.7733 13.8405 34.7938C13.8405 34.8209 13.8405 34.8466 13.8405 34.8704C13.8405 34.8942 13.8405 34.9196 13.8405 34.947C13.8405 34.9742 13.8405 34.9999 13.8405 35.0237C13.8405 35.0475 13.8371 35.0696 13.8302 35.09C13.8302 35.1171 13.8285 35.1426 13.8251 35.1666C13.8217 35.1904 13.8201 35.2159 13.8201 35.2433C13.8133 35.3521 13.7996 35.4578 13.7792 35.5599C13.7588 35.662 13.7317 35.7641 13.6975 35.8662C13.6704 35.9683 13.6276 36.062 13.57 36.147C13.5121 36.2323 13.4422 36.3087 13.3605 36.3769C13.2517 36.4656 13.1359 36.5425 13.0133 36.6073C12.8908 36.6722 12.7616 36.7217 12.6253 36.7558C12.4894 36.7832 12.3515 36.8053 12.2119 36.8223C12.0723 36.8394 11.9311 36.8514 11.7881 36.8581C11.7677 36.8581 11.7473 36.8581 11.7268 36.8581C11.7064 36.8581 11.686 36.8615 11.6656 36.8685C11.6452 36.8685 11.6247 36.8685 11.6043 36.8685C11.5839 36.8685 11.5635 36.8685 11.5431 36.8685C11.5226 36.8685 11.5022 36.8685 11.4818 36.8685C11.4614 36.8685 11.4443 36.8685 11.4309 36.8685C11.4105 36.8685 11.39 36.8685 11.3696 36.8685C11.3492 36.8685 11.3288 36.8685 11.3083 36.8685H10.8589C10.3892 36.8685 9.97574 36.8445 9.61826 36.7966C9.26102 36.7488 8.96312 36.6739 8.72505 36.5715C8.48 36.4692 8.2979 36.2563 8.17874 35.933C8.05958 35.6094 8 35.1784 8 34.6402L9.73574 34.6198C9.73574 34.756 9.74607 34.8752 9.76649 34.9775C9.78691 35.0796 9.82078 35.1683 9.86859 35.243C9.90943 35.3112 9.97742 35.3641 10.0728 35.4016C10.1679 35.439 10.2871 35.4575 10.43 35.4575L11.2163 35.4374C11.23 35.4441 11.2452 35.4477 11.2622 35.4477C11.2793 35.4477 11.2947 35.4477 11.3083 35.4477C11.4035 35.4477 11.4921 35.439 11.5738 35.422C11.6555 35.4049 11.7302 35.3828 11.7984 35.3557C11.8801 35.3213 11.9414 35.255 11.9822 35.1563C12.0231 35.0575 12.0435 34.9333 12.0435 34.7834C12.0435 34.6402 12.0247 34.5245 11.9873 34.436C11.9498 34.3474 11.8936 34.2895 11.8189 34.2624C11.7506 34.2282 11.6673 34.2028 11.5685 34.1857C11.4698 34.1687 11.3626 34.1566 11.2468 34.1497C11.2401 34.1497 11.2334 34.1497 11.2264 34.1497C11.2197 34.1497 11.213 34.1497 11.206 34.1497C11.1993 34.1497 11.1942 34.1497 11.1909 34.1497C11.1875 34.1497 11.1822 34.1497 11.1755 34.1497C11.1142 34.1497 11.0563 34.148 11.0018 34.1446C10.9475 34.1413 10.893 34.1362 10.8384 34.1295C10.7909 34.1295 10.7416 34.1278 10.6905 34.1242C10.6395 34.1208 10.5867 34.1158 10.5321 34.1091C10.1374 34.0884 9.78523 34.0476 9.47532 33.9863C9.16565 33.9251 8.8985 33.8434 8.67388 33.741C8.44925 33.6389 8.28252 33.4362 8.17369 33.1332C8.06462 32.83 8.01009 32.4298 8.01009 31.9325C8.01009 31.6305 8.04252 31.3663 8.10715 31.1399C8.17177 30.9134 8.26883 30.7211 8.39832 30.5633C8.52757 30.4054 8.69934 30.2818 8.91387 30.1926C9.12817 30.1034 9.38859 30.0451 9.6949 30.0176C9.79027 30.0108 9.88733 30.0057 9.98607 30.0023C10.0846 29.9989 10.185 29.9937 10.2871 29.9869C10.3416 29.9869 10.3928 29.9852 10.4404 29.9818C10.4879 29.9784 10.5391 29.9767 10.5934 29.9767C10.6412 29.9698 10.6905 29.9664 10.7416 29.9664ZM30.6318 29.946C30.6523 29.9596 30.6744 29.9664 30.6981 29.9664C30.7219 29.9664 30.7474 29.9664 30.7748 29.9664C30.8019 29.9664 30.8274 29.9664 30.8514 29.9664C30.8752 29.9664 30.9007 29.9664 30.9278 29.9664C31.1049 29.9733 31.2802 29.9903 31.4537 30.0176C31.6274 30.0449 31.7958 30.0859 31.9592 30.1405C32.1225 30.188 32.2688 30.2677 32.3983 30.3797C32.5276 30.4917 32.6398 30.6292 32.7351 30.7921C32.7827 30.8735 32.8219 30.9583 32.8526 31.0467C32.8831 31.1349 32.9088 31.2264 32.9292 31.3216C32.936 31.3689 32.9427 31.4165 32.9497 31.464C32.9564 31.5116 32.9631 31.5556 32.9701 31.5962C32.9768 31.6437 32.9819 31.6913 32.9852 31.7389C32.9888 31.7864 32.9905 31.834 32.9905 31.8813C32.9905 31.9087 32.9905 31.9361 32.9905 31.9632C32.9905 31.9906 32.9905 32.018 32.9905 32.0452C32.9905 32.0589 32.9905 32.0726 32.9905 32.0863C32.9905 32.0999 32.9939 32.1134 33.0006 32.1271C33.0006 32.1408 33.0006 32.1528 33.0006 32.1629C33.0006 32.1732 33.0006 32.1852 33.0006 32.1989C33.0006 32.2057 33.0006 32.2124 33.0006 32.2193C33.0006 32.2261 33.0006 32.233 33.0006 32.2398C33.0006 32.2465 33.0006 32.2518 33.0006 32.2551C33.0006 32.2585 33.0006 32.2602 33.0006 32.2602C33.0006 32.2672 33.0006 32.2722 33.0006 32.2756C33.0006 32.2789 33.0006 32.2842 33.0006 32.2909C33.0006 32.2979 33.0006 32.303 33.0006 32.3063C33.0006 32.3097 33.0006 32.315 33.0006 32.3217V32.4344H31.1628C31.1628 32.2705 31.1457 32.1305 31.1116 32.0144C31.0777 31.8984 31.0299 31.8064 30.9687 31.7379C30.9007 31.6697 30.807 31.6185 30.688 31.5844C30.5689 31.5503 30.4207 31.5332 30.2438 31.5332L29.9375 31.5128C29.9306 31.5195 29.9205 31.5246 29.9068 31.5282C29.8931 31.5315 29.883 31.5332 29.8763 31.5332C29.8626 31.5332 29.8506 31.5332 29.8405 31.5332C29.8302 31.5332 29.8184 31.5332 29.8047 31.5332C29.791 31.5332 29.7775 31.5332 29.7638 31.5332C29.7501 31.5332 29.7401 31.5332 29.7333 31.5332C29.7196 31.5399 29.7076 31.5436 29.6975 31.5436C29.6872 31.5436 29.6754 31.5436 29.6617 31.5436C29.6072 31.5503 29.5546 31.5587 29.5034 31.569C29.4525 31.5793 29.3996 31.5911 29.3453 31.6048C29.2975 31.6255 29.2533 31.6493 29.2125 31.6766C29.1717 31.7038 29.1342 31.7379 29.1003 31.779C29.0662 31.8198 29.0371 31.8609 29.0133 31.9018C28.9895 31.9428 28.9708 31.9873 28.9574 32.0351C28.9504 32.0826 28.942 32.1305 28.9317 32.1783C28.9216 32.2261 28.9165 32.2739 28.9165 32.3217C28.9165 32.3284 28.9165 32.3354 28.9165 32.3421C28.9165 32.3491 28.9165 32.3558 28.9165 32.3628C28.9095 32.3695 28.9062 32.3762 28.9062 32.3832C28.9062 32.3899 28.9062 32.3969 28.9062 32.4036C28.9062 32.4103 28.9062 32.4173 28.9062 32.424C28.9062 32.431 28.9062 32.4344 28.9062 32.4344C28.9062 32.4411 28.9062 32.4481 28.9062 32.4548C28.9062 32.4618 28.9062 32.4685 28.9062 32.4752C28.9062 32.5028 28.9045 32.5285 28.9011 32.5526C28.8978 32.5766 28.8959 32.5989 28.8959 32.6196C28.8891 32.647 28.8858 32.6727 28.8858 32.6967C28.8858 32.7205 28.8858 32.7462 28.8858 32.7738C28.8858 32.8012 28.8858 32.8269 28.8858 32.8509C28.8858 32.875 28.8858 32.8973 28.8858 32.918C28.879 32.9454 28.8757 32.9711 28.8757 32.9951C28.8757 33.0191 28.8757 33.0412 28.8757 33.0619C28.8757 33.1099 28.8757 33.1596 28.8757 33.2113C28.8757 33.2627 28.8757 33.3158 28.8757 33.3708C28.8757 33.4186 28.8757 33.4667 28.8757 33.5147C28.8757 33.5628 28.8757 33.6108 28.8757 33.6589C28.8757 33.6726 28.8757 33.6882 28.8757 33.7052C28.8757 33.7223 28.8757 33.7377 28.8757 33.7516C28.8757 33.7653 28.8757 33.779 28.8757 33.7927C28.8757 33.8064 28.8757 33.8201 28.8757 33.8338C28.8757 33.8544 28.8757 33.8715 28.8757 33.8852C28.8757 33.8991 28.8757 33.9128 28.8757 33.9265C28.8757 33.9402 28.8757 33.9556 28.8757 33.9729C28.8757 33.9899 28.8757 34.0053 28.8757 34.019C28.8757 34.2729 28.8942 34.4839 28.9317 34.652C28.9691 34.8202 29.022 34.9521 29.09 35.0482C29.1649 35.1375 29.2805 35.206 29.4371 35.2541C29.5938 35.3021 29.798 35.3261 30.0497 35.3261C30.2268 35.3261 30.3851 35.3141 30.5247 35.2901C30.664 35.2661 30.7849 35.23 30.887 35.1822C30.9891 35.1272 31.0674 35.0378 31.1219 34.9144C31.1765 34.7909 31.2036 34.6297 31.2036 34.4308C31.2036 34.4238 31.2036 34.4171 31.2036 34.4101C31.2036 34.4034 31.2036 34.3964 31.2036 34.3897C31.2036 34.3827 31.2036 34.3757 31.2036 34.369C31.2036 34.362 31.2036 34.3553 31.2036 34.3486C31.1969 34.3416 31.1933 34.3347 31.1933 34.3279C31.1933 34.321 31.1933 34.3142 31.1933 34.3073C31.1933 34.3003 31.1933 34.2936 31.1933 34.2866C31.1933 34.2799 31.1933 34.2729 31.1933 34.2662V34.2455H33.0006V34.4514C33.0006 34.671 32.9922 34.8802 32.9751 35.0792C32.9581 35.2781 32.9326 35.4703 32.8985 35.6555C32.8644 35.8407 32.7863 36.0106 32.6638 36.1651C32.5413 36.3193 32.3779 36.4548 32.1737 36.5715C32.0646 36.6398 31.9524 36.6943 31.8366 36.7354C31.7208 36.7762 31.6017 36.807 31.4792 36.8274C31.4179 36.8344 31.3566 36.8411 31.2954 36.8478C31.2341 36.8548 31.1729 36.8615 31.1116 36.8685C31.0436 36.8685 30.979 36.8718 30.9177 36.8786C30.8565 36.8855 30.7952 36.8889 30.7339 36.8889C30.7202 36.8889 30.7049 36.8889 30.688 36.8889C30.671 36.8889 30.6556 36.8889 30.6419 36.8889C30.6285 36.8889 30.6131 36.8889 30.596 36.8889C30.579 36.8889 30.5636 36.8889 30.5501 36.8889C30.4819 36.8889 30.4156 36.8889 30.351 36.8889C30.2864 36.8889 30.2234 36.8889 30.1622 36.8889C30.128 36.8889 30.0956 36.8889 30.0651 36.8889C30.0344 36.8889 30.0022 36.8889 29.968 36.8889C29.9409 36.8822 29.9118 36.8786 29.8813 36.8786C29.8506 36.8786 29.8184 36.8786 29.7843 36.8786C29.7502 36.8786 29.7163 36.8786 29.6822 36.8786C29.648 36.8786 29.6175 36.8786 29.5904 36.8786C29.5563 36.8718 29.5238 36.8685 29.4933 36.8685C29.4626 36.8685 29.4304 36.8685 29.3963 36.8685C29.3283 36.8685 29.2617 36.8685 29.1971 36.8685C29.1325 36.8685 29.0695 36.8685 29.0083 36.8685C28.559 36.8274 28.1965 36.7231 27.921 36.5557C27.6452 36.3882 27.4563 36.1607 27.3542 35.8736C27.2452 35.5866 27.1635 35.2738 27.1092 34.9353C27.0547 34.5968 27.0241 34.2395 27.0172 33.8635L27.0071 32.9612C27.0071 32.3801 27.0631 31.8929 27.1755 31.4996C27.2877 31.1066 27.4563 30.8041 27.681 30.5921C27.9056 30.3869 28.2169 30.2314 28.6153 30.1254C29.0133 30.0194 29.4984 29.9664 30.0701 29.9664L30.6318 29.946Z" fill="#0069E5"/>
</g>
<defs>
<clipPath id="clip0_0_1219">
<rect width="32" height="24.8889" fill="white" transform="translate(8 12)"/>
</clipPath>
</defs>
</svg>
