<svg width="48" height="48" viewBox="0 0 48 48" fill="none" xmlns="http://www.w3.org/2000/svg">
<path fill-rule="evenodd" clip-rule="evenodd" d="M30.6854 11.5545C33.9795 13.6891 38.7253 20.3486 40 24.0254C38.7253 27.7122 33.9795 34.355 30.6854 36.4943V11.5545Z" fill="#FCB814"/>
<path fill-rule="evenodd" clip-rule="evenodd" d="M23.6359 16.2838C25.3571 16.2838 27.555 16.9673 29.279 18.2001V10.6953C27.5623 9.62695 25.4696 9 23.0209 9C14.7153 9 8 15.7273 8 24.0255C8 32.331 14.7153 39.0324 23.0209 39.0324C25.4696 39.0324 27.5623 38.4294 29.279 37.3558V29.8303C27.555 31.063 25.3571 31.7673 23.6359 31.7673C18.9633 31.7673 15.5281 28.3533 15.5281 24.0255C15.5281 19.6771 18.9633 16.2838 23.6359 16.2838Z" fill="#A0A0A0"/>
</svg>
