<svg width="48" height="48" viewBox="0 0 48 48" fill="none" xmlns="http://www.w3.org/2000/svg">
<g clip-path="url(#clip0_0_1229)">
<path fill-rule="evenodd" clip-rule="evenodd" d="M12.9606 31.7615C12.8984 31.1844 11.338 30.482 11.338 30.482C10.9323 30.2326 11.1038 29.921 11.1038 29.921C11.3536 29.3742 12.6641 29.8897 12.6641 29.8897L12.9133 29.297C12.2189 28.7735 11.3324 28.883 11.3324 28.883C10.2427 29.0075 10.08 29.7437 10.08 29.7437C9.83145 30.8716 10.7017 31.1392 10.7017 31.1392C11.4951 31.5121 11.7341 31.6653 11.7341 31.6653C12.3844 32.0857 11.8105 32.3632 11.8105 32.3632C11.1033 32.6973 10.2139 32.2386 10.2139 32.2386L9.93671 32.8887C10.6731 33.3856 11.8105 33.1757 11.8105 33.1757C13.2543 32.965 12.9606 31.7615 12.9606 31.7615Z" fill="#1A3B73"/>
<path fill-rule="evenodd" clip-rule="evenodd" d="M15.2871 31.9919C15.237 31.5245 13.9738 30.9566 13.9738 30.9566C13.6451 30.7542 13.7844 30.5017 13.7844 30.5017C13.9866 30.0598 15.0476 30.4763 15.0476 30.4763L15.2493 29.9965C14.6872 29.5732 13.9697 29.6614 13.9697 29.6614C13.0878 29.7621 12.9562 30.3585 12.9562 30.3585C12.7548 31.2714 13.4588 31.4883 13.4588 31.4883C14.1012 31.79 14.2947 31.9138 14.2947 31.9138C14.8207 32.2543 14.3565 32.4783 14.3565 32.4783C13.7842 32.7495 13.0641 32.378 13.0641 32.378L12.8401 32.9044C13.4361 33.3068 14.3565 33.1365 14.3565 33.1365C15.525 32.966 15.2871 31.9919 15.2871 31.9919Z" fill="#1A3B73"/>
<path fill-rule="evenodd" clip-rule="evenodd" d="M16.3435 29.7421L15.0967 33.0887L15.8149 33.1017L16.1398 32.3704H17.644L17.9692 33.0344H18.6598L17.3595 29.7421H16.3435ZM16.3836 31.7742L16.8579 30.6088L17.3727 31.7742H16.3836ZM20.9767 31.9505L19.5816 29.7693H18.6598V33.0344L19.3375 33.0477V30.9073L20.8276 33.1428H21.6813V29.7822H20.9767V31.9505ZM24.7157 31.2458H23.5776V31.7608H24.3503V32.5464C23.8217 32.7496 23.2665 32.5331 23.2665 32.5331C22.1689 31.802 22.765 30.8937 22.765 30.8937C23.4427 29.8367 25.0548 30.4875 25.0548 30.4875V29.8777C23.0899 29.2407 22.2499 30.311 22.2499 30.311C21.1394 31.842 22.5208 32.845 22.5208 32.845C23.876 33.6849 25.1769 32.9529 25.1769 32.9529V31.747C25.1496 31.1922 24.7157 31.2458 24.7157 31.2458ZM37.6028 31.2458H36.4649V31.7608H37.2365V32.5464C36.7079 32.7496 36.1526 32.5331 36.1526 32.5331C35.0551 31.802 35.6513 30.8937 35.6513 30.8937C36.3289 29.8367 37.9411 30.4875 37.9411 30.4875V29.8777C35.9765 29.2407 35.1366 30.311 35.1366 30.311C34.0255 31.842 35.4071 32.845 35.4071 32.845C36.7624 33.6849 38.0629 32.9529 38.0629 32.9529V31.747C38.0364 31.1922 37.6028 31.2458 37.6028 31.2458Z" fill="#1A3B73"/>
<path fill-rule="evenodd" clip-rule="evenodd" d="M27.764 29.0237L26.7206 30.7581L25.6777 29.0651H24.7703L26.3278 31.5984L25.4609 33.224H26.287L28.6856 29.0237H27.764ZM29.5253 29.6957C28.5421 29.6957 27.7451 30.4933 27.7451 31.4766C27.7451 32.4599 28.5421 33.2571 29.5253 33.2571C30.5087 33.2571 31.3066 32.4599 31.3066 31.4766C31.3066 30.4933 30.5087 29.6957 29.5253 29.6957ZM29.5253 32.5601C28.9268 32.5601 28.442 32.0749 28.442 31.4764C28.442 31.189 28.5562 30.9134 28.7594 30.7102C28.9626 30.507 29.2382 30.3928 29.5256 30.3928C29.813 30.3928 30.0886 30.507 30.2918 30.7102C30.495 30.9134 30.6091 31.189 30.6091 31.4764C30.6091 31.7638 30.4949 32.0395 30.2916 32.2427C30.0884 32.446 29.8127 32.5601 29.5253 32.5601ZM33.8879 31.9099L32.4924 29.7557H31.544V33.1017L32.2625 33.0887V30.9209L33.7388 33.1287H34.6056V29.7421H33.8879V31.9099ZM33.067 18.6776C32.5482 16.762 30.0693 15.7965 30.0693 15.7965C29.4079 15.5544 29.672 15.9346 29.672 15.9346C29.672 15.9346 32.5244 17.2476 32.5244 19.0752C32.5244 21.3388 29.4162 22.0158 29.4162 22.0158C32.2432 21.1164 32.2514 19.1969 32.2514 19.1969C32.2017 17.2778 29.672 15.9346 29.672 15.9346C28.6967 15.3813 28.1676 15.2428 28.1676 15.2428C26.8946 14.8163 27.3076 15.312 27.3076 15.312C27.3076 15.312 31.148 16.5221 31.148 19.1916C31.148 21.9182 25.7951 22.7941 25.7951 22.7941C30.8286 21.8601 30.8296 19.2142 30.8296 19.2142C30.8296 16.8309 27.3076 15.312 27.3076 15.312C26.7787 15.024 25.8816 14.7919 25.8816 14.7919C25.0505 14.6148 25.522 14.9779 25.522 14.9779C28.8951 16.9491 28.8951 19.1279 28.8951 19.1279C28.8951 21.549 26.6753 22.1539 26.6753 22.1539C26.0303 22.4048 24.7824 22.6055 24.7824 22.6055C24.5804 22.6653 24.4391 22.8042 24.4391 22.9671C24.4391 23.0328 24.455 23.0979 24.503 23.1495C24.6249 23.2797 25.0351 23.5848 25.0351 23.5848C25.182 23.7231 25.2678 23.8943 25.2678 24.0795C25.2678 24.5341 24.7452 24.9029 24.096 24.9114H24.0482C23.399 24.9029 22.8759 24.5342 22.8759 24.0795C22.8759 23.8943 22.9623 23.7231 23.1088 23.5848C23.1088 23.5848 23.5189 23.2797 23.6408 23.1495C23.6887 23.0979 23.7052 23.033 23.7052 22.9671C23.7052 22.8042 23.5636 22.6653 23.3617 22.6055C23.3617 22.6055 22.1136 22.4049 21.4686 22.1539C21.4686 22.1539 19.2489 21.5492 19.2489 19.1279C19.2489 19.1279 19.2489 16.9489 22.6219 14.9779C22.6219 14.9779 23.0932 14.6148 22.2623 14.7919C22.2623 14.7919 21.3652 15.024 20.8363 15.312C20.8363 15.312 17.3145 16.8307 17.3145 19.2142C17.3145 19.2142 17.3152 21.8601 22.3492 22.7941C22.3492 22.7941 16.9961 21.9184 16.9961 19.1916C16.9961 16.5221 20.8363 15.312 20.8363 15.312C20.8363 15.312 21.2493 14.8163 19.9763 15.2428C19.9763 15.2428 19.4473 15.3811 18.4718 15.9346C18.4718 15.9346 15.9419 17.2778 15.8924 19.1969C15.8924 19.1969 15.9006 21.1164 18.7279 22.0158C18.7279 22.0158 15.6195 21.3386 15.6195 19.0752C15.6195 17.2476 18.4718 15.9346 18.4718 15.9346C18.4718 15.9346 18.7362 15.5543 18.075 15.7965C18.075 15.7965 15.5956 16.7622 15.0771 18.6776C15.0771 18.6776 14.9199 19.3993 15.15 19.9264C15.4289 20.5718 16.1562 21.641 18.0086 22.2401C18.0086 22.2401 18.8519 22.5864 22.2252 23.2607L22.4239 23.3061C22.4239 23.3061 22.569 23.3697 22.4651 23.4842L22.0004 23.8836C22.0004 23.8836 21.3189 24.4079 22.2916 24.8492C22.2916 24.8492 22.8851 25.0514 23.3034 25.4993C23.3034 25.4993 23.5725 25.7553 24.0282 25.768V25.7699H24.0586C24.0599 25.7699 24.0611 25.7704 24.0621 25.7704V25.7699H24.0817V25.7704L24.0852 25.7699H24.1061V25.7692C24.5678 25.7592 24.8402 25.4993 24.8402 25.4993C25.2587 25.0514 25.8519 24.8492 25.8519 24.8492C26.8249 24.4079 26.1431 23.8836 26.1431 23.8836L25.6787 23.4842C25.575 23.3697 25.7199 23.3061 25.7199 23.3061L25.9183 23.2607C29.2913 22.5864 30.135 22.2401 30.135 22.2401C31.9874 21.641 32.7147 20.572 32.9939 19.9264C33.2242 19.3993 33.067 18.6776 33.067 18.6776Z" fill="#1A3B73"/>
</g>
<defs>
<clipPath id="clip0_0_1229">
<rect width="32" height="32" fill="white" transform="translate(8 8)"/>
</clipPath>
</defs>
</svg>
