<svg width="48" height="48" viewBox="0 0 48 48" fill="none" xmlns="http://www.w3.org/2000/svg">
<g clip-path="url(#clip0_0_1255)">
<path fill-rule="evenodd" clip-rule="evenodd" d="M24.0003 39.0943C32.3104 39.0943 39.0943 32.3123 39.0943 24.0047C39.0943 15.6878 32.3104 8.90567 24.0003 8.90567C15.6809 8.90567 8.90566 15.6878 8.90566 24.0047C8.90566 32.3123 15.6809 39.0943 24.0003 39.0943Z" fill="#972930"/>
<path fill-rule="evenodd" clip-rule="evenodd" d="M23.9734 37.8684C31.6131 37.8684 37.8596 31.6244 37.8596 23.9872C37.8596 16.3318 31.6131 10.0878 23.9734 10.0878C16.3161 10.0878 10.0703 16.3318 10.0703 23.9872C10.0703 31.6244 16.3161 37.8684 23.9734 37.8684Z" fill="white"/>
<path fill-rule="evenodd" clip-rule="evenodd" d="M24.0003 36.9074C31.137 36.9074 36.9681 31.0775 36.9681 23.9339C36.9681 16.7903 31.137 10.9517 24.0003 10.9517C16.8542 10.9517 11.0231 16.7903 11.0231 23.9339C11.0231 31.0775 16.8542 36.9074 24.0003 36.9074Z" fill="#972930"/>
<path fill-rule="evenodd" clip-rule="evenodd" d="M24.5359 12.3825L24.7082 35.5774C25.0258 35.5686 25.3234 35.5191 25.6322 35.4834L25.5383 24.7865H26.5563C26.7329 24.8216 26.7737 24.898 26.7912 25.0215L26.8539 35.2328C27.189 35.162 27.4628 35.0743 27.7622 34.9509L27.6526 24.8179C27.5824 24.6149 27.4484 24.5103 27.2454 24.4576C27.4214 24.4044 27.6551 24.2747 27.6996 24.0191V13.4162C27.6112 13.0898 27.439 12.9332 26.9008 12.7741C26.0983 12.5893 25.6203 12.4796 24.5359 12.3825ZM24.0191 12.3982C22.7486 12.3982 21.938 12.5736 21.0121 12.7584V13.7138C21.4174 13.5816 21.6536 13.5427 22.0771 13.4632C22.1297 20.8185 22.0959 28.1105 22.1397 35.4834C22.4135 35.5279 22.8927 35.5843 23.1577 35.593C23.1489 28.1676 23.1577 20.7308 23.1577 13.3222C23.4753 13.3135 23.6745 13.2821 24.0191 13.2909C24.0191 12.9821 24.0191 12.6983 24.0191 12.3982ZM20.2447 12.9933C19.6796 13.1788 19.3093 13.3611 18.8508 13.5728L17.9894 33.9956L18.8508 34.4497L18.9917 29.9705L20.276 30.456C20.3374 31.999 20.3931 33.5395 20.4639 35.0919C20.7721 35.189 21.0409 35.2648 21.341 35.3268C20.9789 27.9445 20.6061 20.3756 20.2447 12.9933ZM25.5539 13.4005L26.5876 13.5885C26.6853 13.606 26.7405 13.648 26.7755 13.7451L26.8382 23.6746C26.8119 23.7892 26.7893 23.8406 26.6659 23.8938H25.5853L25.5539 13.4005ZM29.2971 13.6668L28.7802 34.5437C29.0978 34.4028 29.3866 34.2411 29.7043 34.0739L29.7512 29.9705L30.8476 29.4537L31.1295 33.1185C31.4026 32.8717 31.6707 32.6361 31.9439 32.3981L30.7223 14.5752C30.2462 14.2137 29.7819 13.9406 29.2971 13.6668ZM17.9581 14.1053C16.7759 14.9078 16.0799 15.3401 15.092 16.5485V18.0051L15.9221 16.9557L16.0317 32.539C16.2967 32.8128 16.5516 33.0227 16.9401 33.3221C16.8868 27.6601 16.8436 21.7494 16.7991 16.0787C17.3109 15.6289 17.5258 15.4171 17.9581 15.1703V14.1053ZM19.5869 17.3003L20.229 29.4693L19.023 28.9369L19.5869 17.3003ZM30.0018 18.8038L30.7379 28.4827L29.7199 28.9995L30.0018 18.8038Z" fill="white"/>
</g>
<defs>
<clipPath id="clip0_0_1255">
<rect width="32" height="32" fill="white" transform="translate(8 8)"/>
</clipPath>
</defs>
</svg>
