<svg width="48" height="48" viewBox="0 0 48 48" fill="none" xmlns="http://www.w3.org/2000/svg">
<path d="M24.2579 35.4174L27.4075 17.7039C30.4097 17.7039 31.3566 18.0331 31.4933 19.3768C31.4933 19.3768 33.5072 18.6259 34.523 17.1008C30.5593 15.2641 26.5766 15.1813 26.5766 15.1813L24.2527 18.0118L24.2579 18.0114L21.934 15.1808C21.934 15.1808 17.9513 15.2637 13.9881 17.1004C15.003 18.6255 17.0177 19.3764 17.0177 19.3764C17.1552 18.0326 18.101 17.7034 21.083 17.7013L24.2579 35.4174Z" fill="#E82127"/>
<path d="M24.2567 14.3637C27.4608 14.3392 31.1283 14.8593 34.8826 16.4957C35.3844 15.5925 35.5134 15.1933 35.5134 15.1933C31.4093 13.5696 27.5659 13.0139 24.2563 13C20.9468 13.0139 17.1035 13.5697 13 15.1933C13 15.1933 13.1831 15.685 13.6303 16.4957C17.384 14.8593 21.0521 14.3392 24.2563 14.3637H24.2567Z" fill="#E82127"/>
</svg>
