<?xml version="1.0" standalone="no"?>
<!DOCTYPE svg PUBLIC "-//W3C//DTD SVG 20010904//EN"
 "http://www.w3.org/TR/2001/REC-SVG-20010904/DTD/svg10.dtd">
<svg version="1.0" xmlns="http://www.w3.org/2000/svg"
 width="1024.000000pt" height="1024.000000pt" viewBox="0 0 1024.000000 1024.000000"
 preserveAspectRatio="xMidYMid meet">

<g transform="translate(0.000000,1024.000000) scale(0.100000,-0.100000)"
fill="#000000" stroke="none">
<path d="M4780 10209 c-2058 -136 -3835 -1508 -4485 -3464 -330 -992 -349
-2058 -54 -3065 473 -1618 1739 -2908 3349 -3412 1163 -364 2425 -302 3543
173 450 192 869 449 1267 778 149 123 510 484 632 631 183 222 338 440 481
679 92 155 282 542 350 716 579 1478 445 3149 -361 4495 -487 813 -1169 1458
-2012 1903 -808 427 -1772 628 -2710 566z m686 -459 c265 -21 567 -72 804
-136 126 -34 343 -104 354 -114 9 -9 -1436 -3274 -1462 -3303 -26 -30 -64 -18
-89 28 -16 30 -1428 3206 -1450 3261 -5 13 64 40 223 88 325 97 614 150 979
179 98 8 524 6 641 -3z m-1711 -2467 c578 -1287 857 -1898 877 -1918 l28 -30
448 -3 c298 -2 459 0 484 8 24 7 43 21 56 43 11 17 399 876 862 1907 464 1031
844 1877 846 1878 4 5 134 -71 262 -155 511 -332 960 -768 1323 -1287 l77
-110 -1190 -2380 c-777 -1556 -1198 -2388 -1214 -2401 l-24 -19 -25 24 c-15
16 -196 416 -469 1037 -245 557 -452 1026 -461 1042 -32 63 -13 61 -533 61
l-474 0 -26 -27 c-19 -19 -166 -355 -467 -1067 -315 -742 -446 -1043 -462
-1053 -33 -22 -55 -4 -101 84 -102 198 -2322 4685 -2322 4694 0 6 33 58 73
117 312 460 770 916 1237 1233 71 48 332 208 341 208 3 1 387 -848 854 -1886z
m-1580 -3288 c962 -1936 1366 -2740 1389 -2763 62 -63 153 -60 216 7 28 30
168 336 675 1470 405 907 646 1436 657 1442 28 15 52 3 75 -39 12 -20 301
-662 642 -1427 342 -764 632 -1406 646 -1427 31 -47 74 -70 132 -70 50 0 80
17 118 64 20 27 2671 5340 2722 5457 19 45 21 42 87 -159 306 -926 302 -1904
-9 -2845 -232 -701 -614 -1316 -1144 -1845 -189 -188 -300 -285 -506 -440
-870 -654 -1963 -981 -3040 -910 -1174 78 -2261 596 -3074 1464 -1125 1203
-1527 2902 -1057 4476 45 148 98 292 106 283 5 -4 619 -1236 1365 -2738z"/>
</g>
</svg>
