<svg width="48" height="48" viewBox="0 0 48 48" fill="none" xmlns="http://www.w3.org/2000/svg">
<g clip-path="url(#clip0_0_24745)">
<path d="M24.019 38.434C16.0912 38.434 9.59609 31.9071 9.59609 23.9793C9.59609 22.1963 9.91448 20.5088 10.5194 18.9169L18.9567 35.8869C19.0522 36.1098 19.2114 36.3008 19.4661 36.3008C19.7208 36.3008 19.88 36.1098 19.9755 35.8869L23.8598 27.195C23.8917 27.0995 23.9553 27.0039 24.0509 27.0039C24.1464 27.0039 24.1782 27.0995 24.2419 27.195L28.1262 35.8869C28.2217 36.1098 28.3809 36.3008 28.6356 36.3008C28.8904 36.3008 29.0495 36.1098 29.1451 35.8869L37.5823 18.9169C38.1873 20.5088 38.5056 22.1963 38.5056 23.9793C38.442 31.9071 31.9469 38.434 24.019 38.434ZM24.019 20.6999C23.9235 20.6999 23.8917 20.6044 23.828 20.5088L19.3069 10.3205C20.7715 9.7792 22.3634 9.49265 24.019 9.49265C25.6746 9.49265 27.2666 9.7792 28.7312 10.3205L24.2101 20.5088C24.1464 20.6362 24.1145 20.6999 24.019 20.6999ZM19.4024 31.1748C19.3069 31.1748 19.2751 31.0793 19.2114 30.9838L11.8885 16.2106C13.1939 14.2048 14.945 12.5173 17.0782 11.3393L22.3634 23.0878C22.4271 23.2788 22.5863 23.3425 22.7455 23.3425H25.2926C25.4836 23.3425 25.611 23.3106 25.7065 23.0878L30.9917 11.3393C33.0931 12.5173 34.876 14.2048 36.1814 16.2106L28.7948 30.9838C28.763 31.0793 28.6993 31.1748 28.6038 31.1748C28.5083 31.1748 28.4764 31.0793 28.4128 30.9838L25.6428 24.6797C25.5473 24.4568 25.4199 24.425 25.2289 24.425H22.6818C22.4908 24.425 22.3634 24.4568 22.2679 24.6797L19.5934 30.9838C19.5616 31.0793 19.4979 31.1748 19.4024 31.1748ZM24.019 39.8986C32.8384 39.8986 39.9384 32.7986 39.9384 23.9793C39.9384 15.1599 32.8384 8.05991 24.019 8.05991C15.1997 8.05991 8.09967 15.1599 8.09967 23.9793C8.09967 32.7986 15.1997 39.8986 24.019 39.8986Z" fill="#001E50"/>
</g>
<defs>
<clipPath id="clip0_0_24745">
<rect width="32" height="32" fill="white" transform="translate(8 8)"/>
</clipPath>
</defs>
</svg>
