<svg width="48" height="48" viewBox="0 0 48 48" fill="none" xmlns="http://www.w3.org/2000/svg">
<g clip-path="url(#clip0_0_24500)">
<path d="M39.194 27.3854H9.4482L9.72907 26.6849H39.4761L39.194 27.3854Z" fill="#D6001C"/>
<path d="M30.3222 25.4611C30.2749 25.6258 30.1194 25.7263 29.975 25.6853C29.8303 25.6444 29.7514 25.4776 29.7987 25.3129C29.846 25.1482 30.0015 25.0478 30.146 25.0888C30.2906 25.1297 30.3695 25.2964 30.3222 25.4611ZM30.7554 23.1874C30.7554 23.1874 30.7248 24.0678 30.1441 24.5687L30.7554 23.1874ZM18.3263 25.3695C18.2386 25.5702 18.0198 25.6763 17.8561 25.6056C17.6922 25.5349 17.6451 25.3165 17.7329 25.1158C17.8208 24.9151 18.0292 24.8123 18.1929 24.883C18.3568 24.9537 18.4141 25.1688 18.3263 25.3695ZM14.117 22.1856C14.117 22.1856 14.3309 22.9901 13.4294 23.9464L14.117 22.1856ZM38.6403 25.5317C38.5027 25.5317 38.5497 25.3753 38.5497 25.3753L39.0004 24.3252L37.683 24.3271L37.4435 24.8844H38.1161L37.8371 25.5317H34.9319C34.7842 25.5376 34.8195 25.4187 34.8195 25.4187L35.2213 24.3261L34.5973 24.3271L34.1548 25.5097C34.1386 25.5474 34.0816 25.6119 33.9772 25.5884C33.863 25.5533 33.9256 25.3959 33.9256 25.3959L34.2843 24.3271L33.6586 24.3267L33.2529 25.5317L30.7172 25.5325C30.8776 24.9633 30.4193 24.7356 30.4193 24.7356C31.9776 23.233 30.698 22.0589 30.698 22.0589L29.2078 25.5317C29.2078 25.5317 26.6254 25.5337 26.3597 25.5317C26.0939 25.5298 26.1805 25.3968 26.2298 25.3538C26.4523 25.1526 27.3711 24.3259 27.3711 24.3259H26.569L25.7337 25.0291L26.7294 22.7094H25.9503L24.8794 25.5298C24.8794 25.5298 22.2319 25.5308 21.7532 25.531C21.7018 25.531 21.655 25.5002 21.6372 25.4523C21.6002 25.3522 21.6063 25.2264 21.6636 25.1094C21.7617 24.9086 21.973 24.8094 22.1354 24.8878C22.2291 24.933 22.2859 25.0275 22.2986 25.1379H22.8136C22.8202 24.7929 22.6682 24.4845 22.3863 24.3486C21.9664 24.146 21.4202 24.4024 21.1665 24.9213C21.0674 25.124 21.0284 25.3365 21.0416 25.5325H18.8474C19.0286 25.0308 18.8725 24.5147 18.4654 24.339C18.0357 24.1534 17.4889 24.4231 17.2586 24.9494C17.1733 25.1445 17.1367 25.3459 17.1462 25.5317H17.1457H15.0601C14.6935 25.509 14.8122 25.1455 14.8122 25.1455L16.1185 22.1174H15.156L14.1933 24.4851C13.8867 25.1095 13.6057 25.2796 13.5474 25.303C13.0735 25.493 13.1621 24.9178 13.1621 24.9178C15.6601 22.4361 14.0329 20.0456 14.0329 20.0456L12.3142 24.7812C9.88483 25.8284 8.71601 24.4397 8.71601 24.4397L8.07428 25.7146C10.2516 26.9897 12.1995 25.6008 12.1995 25.6008C12.3554 26.0653 12.5714 26.2671 12.7984 26.3209C13.4653 26.4438 13.9413 25.7374 13.9413 25.7374C14.0867 26.1868 14.4671 26.2271 14.5199 26.2278C14.5727 26.2286 16.5138 26.2278 16.5138 26.2278C17.0179 26.2278 17.2408 25.9164 17.2463 25.9165C17.3197 26.0571 17.4314 26.1698 17.5812 26.2345C17.9173 26.3797 18.3412 26.2399 18.6203 25.9206C18.7246 26.2112 18.9815 26.2278 18.9815 26.2278C18.9815 26.2278 20.2591 26.2296 20.5627 26.2278C20.8584 26.2263 21.1375 25.9383 21.1521 25.9232C21.2246 26.0549 21.3399 26.2191 21.543 26.2278C21.5428 26.2278 23.9656 26.2273 24.1414 26.2278C24.3906 26.2286 24.7397 25.9188 24.7397 25.9188L24.6118 26.2278H25.2199L25.4345 25.7292C25.5821 26.1653 25.9301 26.2271 25.9738 26.2278C26.0174 26.2286 28.635 26.2278 28.635 26.2278C29.0168 26.2337 29.2748 25.915 29.2748 25.915C29.418 26.1782 29.5753 26.2689 29.7421 26.2868C30.178 26.3332 30.465 26.0107 30.465 26.0107C30.5109 26.1928 30.6778 26.228 30.7176 26.2278C30.7575 26.2276 32.6172 26.2278 32.6172 26.2278C33.0206 26.1887 33.2411 25.9248 33.2411 25.9248C33.3322 26.2054 33.5453 26.274 33.692 26.2897C34.1044 26.3172 34.3153 25.9195 34.3153 25.9195C34.4595 26.1908 34.6933 26.228 34.7507 26.2278C34.8084 26.2276 37.292 26.2278 37.292 26.2278C37.6358 26.2052 37.7958 25.9169 37.7958 25.9169C37.8757 26.1738 38.0283 26.228 38.103 26.2278C38.1775 26.2276 39.6756 26.2278 39.6756 26.2278L39.9754 25.5312L38.6403 25.5317Z" fill="#D6001C"/>
</g>
<defs>
<clipPath id="clip0_0_24500">
<rect width="32" height="7.39066" fill="white" transform="translate(8 20)"/>
</clipPath>
</defs>
</svg>
